<svg xmlns="http://www.w3.org/2000/svg" xmlns:xlink="http://www.w3.org/1999/xlink" viewBox="0 0 181.93 175.66"><defs><style>.cls-1{fill:#e8eef3;}.cls-2{fill:#fff;}.cls-3{fill:#242b32;}.cls-4{fill:none;}.cls-5{fill:#11191b;}.cls-6{fill:#a5aac2;}.cls-7{fill:#38414b;}.cls-8{fill:#d8dfe9;}.cls-9{isolation:isolate;}.cls-10{fill:#cb4731;}.cls-11{fill:#9f3625;}.cls-12{fill:#dd5c38;}.cls-13{fill:#c44c30;}.cls-14{fill:#ba4528;}.cls-15{fill:#771e18;}.cls-16{fill:#f37151;}.cls-17{fill:#cb4b32;}.cls-18{fill:#ba3e27;}.cls-19{fill:#f37754;}.cls-20{fill:#cc4932;}.cls-21{fill:#691d19;}.cls-22{fill:#f37450;}.cls-23{fill:#702219;}.cls-24{fill:#a23f2e;}.cls-25{fill:#ba3c2a;}.cls-26{fill:#f37350;}.cls-27{fill:#db5637;}.cls-28{fill:#9c3821;}.cls-29{fill:#d75336;}.cls-30{fill:#722116;}.cls-31{fill:#d75333;}.cls-32{fill:#bd3b29;}.cls-33{fill:#c44e30;}.cls-34{fill:#cb4632;}.cls-35{fill:#b83d28;}.cls-36{fill:#8d221c;}.cls-37{fill:#6b1e1b;}.cls-38{fill:#d95333;}.cls-39{fill:#cc4631;}.cls-40{fill:#6b2514;}.cls-41{fill:#f37254;}.cls-42{fill:#b83b26;}.cls-43{fill:#cc4836;}.cls-44{fill:#d75334;}.cls-45{fill:#9e352b;}.cls-46{fill:#c54b31;}.cls-47{fill:#be3e2c;}.cls-48{fill:#9f3a2b;}.cls-49{fill:#b83d29;}.cls-50{fill:#c54c31;}.cls-51{fill:#c94d34;}.cls-52{fill:#c7432c;}.cls-53{fill:#bd3d26;}.cls-54{fill:#f3744e;}.cls-55{fill:#6f2112;}.cls-56{fill:#cb462c;}.cls-57{fill:#6c231c;}.cls-58{fill:#702218;}.cls-59{fill:#be3e2d;}.cls-60{fill:#ca4637;}.cls-61{fill:#782c1f;}.cls-62{fill:#a2adbe;}.cls-63{fill:#d7dfea;}.cls-64{fill:#e6eef4;}.cls-65{fill:#d7dfe8;}.cls-66{fill:#a5aac4;}.cls-67{fill:#4a8fcc;}.cls-68{fill:#acb1c3;}.cls-69{fill:#2f3740;}.cls-70{fill:#39404a;}.cls-71{fill:#bd8662;opacity:0.2;mix-blend-mode:multiply;}.cls-72{clip-path:url(#clip-path);}.cls-73{clip-path:url(#clip-path-2);}.cls-74{clip-path:url(#clip-path-3);}.cls-75{fill:#c1c8db;}.cls-76{fill:#e66f25;}.cls-77{fill:#ebe7e6;}.cls-78{fill:#f5852c;}.cls-79{clip-path:url(#clip-path-4);}.cls-80{clip-path:url(#clip-path-5);}.cls-81{fill:#ccd4eb;}.cls-82{clip-path:url(#clip-path-6);}.cls-83{clip-path:url(#clip-path-7);}.cls-84{clip-path:url(#clip-path-8);}.cls-85{clip-path:url(#clip-path-9);}.cls-86{fill:#46b2e6;}.cls-87{clip-path:url(#clip-path-10);}.cls-88{clip-path:url(#clip-path-11);}.cls-89{clip-path:url(#clip-path-12);}.cls-90{clip-path:url(#clip-path-13);}.cls-91{clip-path:url(#clip-path-14);}.cls-92{fill:#8e9498;}.cls-93{fill:#c0c5cb;}.cls-94{fill:#ced4db;}.cls-95{clip-path:url(#clip-path-15);}.cls-96{clip-path:url(#clip-path-16);}.cls-97{clip-path:url(#clip-path-17);}.cls-98{clip-path:url(#clip-path-18);}.cls-99{clip-path:url(#clip-path-19);}.cls-100{clip-path:url(#clip-path-20);}.cls-101{clip-path:url(#clip-path-21);}.cls-102{clip-path:url(#clip-path-22);}.cls-103{clip-path:url(#clip-path-23);}.cls-104{clip-path:url(#clip-path-24);}.cls-105{clip-path:url(#clip-path-25);}.cls-106{clip-path:url(#clip-path-26);}.cls-107{clip-path:url(#clip-path-27);}.cls-108{clip-path:url(#clip-path-28);}.cls-109{clip-path:url(#clip-path-29);}.cls-110{clip-path:url(#clip-path-30);}.cls-111{clip-path:url(#clip-path-31);}.cls-112{fill:#8d9196;}.cls-113{fill:#14213d;}.cls-114{fill:#3c4265;}.cls-115{clip-path:url(#clip-path-32);}.cls-116{clip-path:url(#clip-path-33);}.cls-117{clip-path:url(#clip-path-34);}.cls-118{clip-path:url(#clip-path-35);}.cls-119{clip-path:url(#clip-path-36);}.cls-120{clip-path:url(#clip-path-37);}.cls-121{clip-path:url(#clip-path-38);}.cls-122{clip-path:url(#clip-path-39);}.cls-123{clip-path:url(#clip-path-40);}.cls-124{clip-path:url(#clip-path-41);}.cls-125{clip-path:url(#clip-path-42);}.cls-126{clip-path:url(#clip-path-43);}.cls-127{clip-path:url(#clip-path-44);}.cls-128{clip-path:url(#clip-path-45);}.cls-129{clip-path:url(#clip-path-46);}.cls-130{clip-path:url(#clip-path-47);}.cls-131{clip-path:url(#clip-path-48);}.cls-132{clip-path:url(#clip-path-49);}.cls-133{clip-path:url(#clip-path-50);}.cls-134{clip-path:url(#clip-path-51);}.cls-135{clip-path:url(#clip-path-52);}.cls-136{clip-path:url(#clip-path-53);}.cls-137{clip-path:url(#clip-path-54);}.cls-138{clip-path:url(#clip-path-55);}.cls-139{clip-path:url(#clip-path-56);}.cls-140{clip-path:url(#clip-path-57);}.cls-141{clip-path:url(#clip-path-58);}.cls-142{fill:#2f2f31;}.cls-143{fill:#1b1b1e;}.cls-144{fill:#270d3d;}.cls-145{fill:#50c8ec;}.cls-146{clip-path:url(#clip-path-59);}</style><clipPath id="clip-path"><path class="cls-1" d="M102.27,133.54l2.51-1.46a.57.57,0,0,0,.24-.52L102.51,133A.57.57,0,0,1,102.27,133.54Z"/></clipPath><clipPath id="clip-path-2"><path class="cls-2" d="M100,120.26l-2.51,1.46a.57.57,0,0,1,.58.06l2.51-1.46A.57.57,0,0,0,100,120.26Z"/></clipPath><clipPath id="clip-path-3"><path class="cls-1" d="M102.53,125.29l2.51-1.46a1.79,1.79,0,0,0-.81-1.4l-2.51,1.46A1.79,1.79,0,0,1,102.53,125.29Z"/></clipPath><clipPath id="clip-path-4"><path class="cls-4" d="M101.42,123.93l-.58.34a.19.19,0,0,1,.19,0l.58-.34A.19.19,0,0,0,101.42,123.93Z"/></clipPath><clipPath id="clip-path-5"><path class="cls-4" d="M101.22,124.92l.58-.34a.19.19,0,0,0,.08-.17.59.59,0,0,0-.27-.46l-.58.34a.59.59,0,0,1,.27.46A.19.19,0,0,1,101.22,124.92Z"/></clipPath><clipPath id="clip-path-6"><path class="cls-4" d="M100.83,124.34l-.23.13a.16.16,0,0,1,.16,0l.23-.13A.16.16,0,0,0,100.83,124.34Z"/></clipPath><clipPath id="clip-path-7"><path class="cls-4" d="M100.93,125l.23-.13a.16.16,0,0,0,.07-.15.51.51,0,0,0-.23-.4l-.23.13a.51.51,0,0,1,.23.4A.16.16,0,0,1,100.93,125Z"/></clipPath><clipPath id="clip-path-8"><path class="cls-8" d="M92.07,141.9v.26a.31.31,0,0,0,.18.26,1,1,0,0,0,.89,0,.31.31,0,0,0,.19-.26v-.26a.31.31,0,0,1-.19.26,1,1,0,0,1-.89,0A.31.31,0,0,1,92.07,141.9Z"/></clipPath><clipPath id="clip-path-9"><path class="cls-8" d="M92.43,120.86v21a.13.13,0,0,0,.08.11.42.42,0,0,0,.38,0,.14.14,0,0,0,.08-.11v-21a.14.14,0,0,1-.08.11.42.42,0,0,1-.38,0A.13.13,0,0,1,92.43,120.86Z"/></clipPath><clipPath id="clip-path-10"><path class="cls-3" d="M75,112.38l.74-.43a.51.51,0,0,1,.52.05l-.74.43A.51.51,0,0,0,75,112.38Z"/></clipPath><clipPath id="clip-path-11"><path class="cls-3" d="M76.78,113.72l-.74.43a.51.51,0,0,0,.21-.47,1.59,1.59,0,0,0-.72-1.25l.74-.43a1.59,1.59,0,0,1,.72,1.25A.51.51,0,0,1,76.78,113.72Z"/></clipPath><clipPath id="clip-path-12"><path class="cls-4" d="M75.42,112.63l-.09.05a.3.3,0,0,1,.3,0l.09-.05A.3.3,0,0,0,75.42,112.63Z"/></clipPath><clipPath id="clip-path-13"><path class="cls-4" d="M75.93,113.7l.09-.05a.29.29,0,0,0,.12-.27.92.92,0,0,0-.42-.72l-.09.05a.92.92,0,0,1,.42.72A.29.29,0,0,1,75.93,113.7Z"/></clipPath><clipPath id="clip-path-14"><path class="cls-4" d="M72.33,108.26v.35a.17.17,0,0,1-.08.14.33.33,0,0,1-.37,0,.18.18,0,0,1-.08-.14v-.35a.18.18,0,0,0,.08.14.33.33,0,0,0,.37,0A.17.17,0,0,0,72.33,108.26Z"/></clipPath><clipPath id="clip-path-15"><path class="cls-3" d="M72.34,111.44l.74-.43a.51.51,0,0,1,.52.05l-.74.43A.51.51,0,0,0,72.34,111.44Z"/></clipPath><clipPath id="clip-path-16"><path class="cls-3" d="M74.1,112.78l-.74.43a.51.51,0,0,0,.21-.47,1.59,1.59,0,0,0-.72-1.25l.74-.43a1.59,1.59,0,0,1,.72,1.25A.51.51,0,0,1,74.1,112.78Z"/></clipPath><clipPath id="clip-path-17"><path class="cls-4" d="M72.75,111.68l-.09.05a.3.3,0,0,1,.3,0l.09-.05A.3.3,0,0,0,72.75,111.68Z"/></clipPath><clipPath id="clip-path-18"><path class="cls-4" d="M73.26,112.76l.09-.05a.29.29,0,0,0,.12-.27.92.92,0,0,0-.42-.72l-.09.05a.92.92,0,0,1,.42.72A.29.29,0,0,1,73.26,112.76Z"/></clipPath><clipPath id="clip-path-19"><path class="cls-3" d="M69.77,110l.74-.43a.51.51,0,0,1,.52.05l-.74.43A.51.51,0,0,0,69.77,110Z"/></clipPath><clipPath id="clip-path-20"><path class="cls-3" d="M71.54,111.34l-.74.43a.51.51,0,0,0,.21-.47,1.59,1.59,0,0,0-.72-1.25l.74-.43a1.59,1.59,0,0,1,.72,1.25A.51.51,0,0,1,71.54,111.34Z"/></clipPath><clipPath id="clip-path-21"><path class="cls-4" d="M70.18,110.24l-.09.05a.3.3,0,0,1,.3,0l.09-.05A.3.3,0,0,0,70.18,110.24Z"/></clipPath><clipPath id="clip-path-22"><path class="cls-4" d="M70.69,111.31l.09-.05a.29.29,0,0,0,.12-.27.92.92,0,0,0-.42-.72l-.09.05a.92.92,0,0,1,.42.72A.29.29,0,0,1,70.69,111.31Z"/></clipPath><clipPath id="clip-path-23"><path class="cls-4" d="M73.22,108.92l-.07,0a.24.24,0,0,1,.25,0l.07,0A.24.24,0,0,0,73.22,108.92Z"/></clipPath><clipPath id="clip-path-24"><path class="cls-4" d="M73.65,109.8l.07,0a.24.24,0,0,0,.1-.22.76.76,0,0,0-.35-.59l-.07,0a.76.76,0,0,1,.35.59A.24.24,0,0,1,73.65,109.8Z"/></clipPath><clipPath id="clip-path-25"><path class="cls-4" d="M75.41,111.91v.35a.17.17,0,0,1-.08.14.33.33,0,0,1-.37,0,.18.18,0,0,1-.08-.14v-.35A.18.18,0,0,0,75,112a.33.33,0,0,0,.37,0A.17.17,0,0,0,75.41,111.91Z"/></clipPath><clipPath id="clip-path-26"><path class="cls-4" d="M69.07,112.46l-.92.54a.3.3,0,0,1,.3,0l.92-.54A.3.3,0,0,0,69.07,112.46Z"/></clipPath><clipPath id="clip-path-27"><path class="cls-4" d="M68.76,114l.92-.54a.3.3,0,0,0,.12-.27.93.93,0,0,0-.43-.73l-.92.54a.93.93,0,0,1,.43.73A.3.3,0,0,1,68.76,114Z"/></clipPath><clipPath id="clip-path-28"><path class="cls-4" d="M68.13,113.11l-.36.21a.26.26,0,0,1,.26,0l.36-.21A.26.26,0,0,0,68.13,113.11Z"/></clipPath><clipPath id="clip-path-29"><path class="cls-4" d="M68.29,114.2l.36-.21a.26.26,0,0,0,.1-.24.8.8,0,0,0-.37-.63l-.36.21a.8.8,0,0,1,.37.63A.26.26,0,0,1,68.29,114.2Z"/></clipPath><clipPath id="clip-path-30"><path class="cls-4" d="M72.28,114l-.95-.55a.19.19,0,0,0-.19,0l.95.55A.19.19,0,0,1,72.28,114Z"/></clipPath><clipPath id="clip-path-31"><path class="cls-4" d="M71,114.13l.95.55a.19.19,0,0,1-.08-.17.6.6,0,0,1,.27-.47l-.95-.55a.6.6,0,0,0-.27.47A.19.19,0,0,0,71,114.13Z"/></clipPath><clipPath id="clip-path-32"><path class="cls-4" d="M73,110.19v.91a.25.25,0,0,1-.15.2.78.78,0,0,1-.71,0,.25.25,0,0,1-.15-.21v-.91a.25.25,0,0,0,.15.21.78.78,0,0,0,.71,0A.25.25,0,0,0,73,110.19Z"/></clipPath><clipPath id="clip-path-33"><path class="cls-4" d="M72.92,105.15v5a.2.2,0,0,1-.12.16.62.62,0,0,1-.56,0,.2.2,0,0,1-.12-.16v-5a.2.2,0,0,0,.12.16.62.62,0,0,0,.56,0A.2.2,0,0,0,72.92,105.15Z"/></clipPath><clipPath id="clip-path-34"><path class="cls-4" d="M73.7,104.52l-1-.59.31.18,1,.59Z"/></clipPath><clipPath id="clip-path-35"><path class="cls-5" d="M71.65,107.08l-1-.59a.14.14,0,0,1-.06-.13l1,.59A.14.14,0,0,0,71.65,107.08Z"/></clipPath><clipPath id="clip-path-36"><path class="cls-4" d="M71.59,106.09l-1-.59.31-.53,1,.59Z"/></clipPath><clipPath id="clip-path-37"><path class="cls-4" d="M74.21,104.82l-.51-.3.31.18.51.3Z"/></clipPath><clipPath id="clip-path-38"><path class="cls-6" d="M72.16,107.38l-.51-.3a.14.14,0,0,1-.06-.13l.51.3A.14.14,0,0,0,72.16,107.38Z"/></clipPath><clipPath id="clip-path-39"><path class="cls-4" d="M72.1,106.39l-.51-.3.31-.53.51.3Z"/></clipPath><clipPath id="clip-path-40"><path class="cls-6" d="M71.42,109.46v-.62a.21.21,0,0,1-.12.17v.62A.21.21,0,0,0,71.42,109.46Z"/></clipPath><clipPath id="clip-path-41"><path class="cls-6" d="M67.7,109.45v.62a.21.21,0,0,0,.12.17v-.62A.21.21,0,0,1,67.7,109.45Z"/></clipPath><clipPath id="clip-path-42"><path class="cls-6" d="M68.74,110.15v.62a.65.65,0,0,0,.59,0v-.62A.65.65,0,0,1,68.74,110.15Z"/></clipPath><clipPath id="clip-path-43"><path class="cls-4" d="M70.39,114.78v.35a.17.17,0,0,1-.08.14.33.33,0,0,1-.37,0,.18.18,0,0,1-.08-.14v-.35a.18.18,0,0,0,.08.14.33.33,0,0,0,.37,0A.17.17,0,0,0,70.39,114.78Z"/></clipPath><clipPath id="clip-path-44"><path class="cls-4" d="M65.68,112.06v.35a.17.17,0,0,1-.08.14.33.33,0,0,1-.37,0,.18.18,0,0,1-.08-.14v-.35a.18.18,0,0,0,.08.14.33.33,0,0,0,.37,0A.17.17,0,0,0,65.68,112.06Z"/></clipPath><clipPath id="clip-path-45"><path class="cls-3" d="M66.6,114.69l.74-.43a.51.51,0,0,1,.52.05l-.74.43A.51.51,0,0,0,66.6,114.69Z"/></clipPath><clipPath id="clip-path-46"><path class="cls-3" d="M68.37,116l-.74.43a.51.51,0,0,0,.21-.47,1.59,1.59,0,0,0-.72-1.25l.74-.43a1.59,1.59,0,0,1,.72,1.25A.51.51,0,0,1,68.37,116Z"/></clipPath><clipPath id="clip-path-47"><path class="cls-4" d="M67,114.93l-.09.05a.3.3,0,0,1,.3,0l.09-.05A.3.3,0,0,0,67,114.93Z"/></clipPath><clipPath id="clip-path-48"><path class="cls-4" d="M67.52,116l.09-.05a.29.29,0,0,0,.12-.27.92.92,0,0,0-.42-.72l-.09.05a.92.92,0,0,1,.42.72A.29.29,0,0,1,67.52,116Z"/></clipPath><clipPath id="clip-path-49"><path class="cls-3" d="M68.81,115.93l.74-.43a.51.51,0,0,1,.52.05l-.74.43A.51.51,0,0,0,68.81,115.93Z"/></clipPath><clipPath id="clip-path-50"><path class="cls-3" d="M70.57,117.27l-.74.43a.51.51,0,0,0,.21-.47,1.59,1.59,0,0,0-.72-1.25l.74-.43a1.59,1.59,0,0,1,.72,1.25A.51.51,0,0,1,70.57,117.27Z"/></clipPath><clipPath id="clip-path-51"><path class="cls-4" d="M69.22,116.17l-.09.05a.3.3,0,0,1,.3,0l.09-.05A.3.3,0,0,0,69.22,116.17Z"/></clipPath><clipPath id="clip-path-52"><path class="cls-4" d="M69.73,117.24l.09-.05a.29.29,0,0,0,.12-.27.92.92,0,0,0-.42-.72l-.09.05a.92.92,0,0,1,.42.72A.29.29,0,0,1,69.73,117.24Z"/></clipPath><clipPath id="clip-path-53"><path class="cls-3" d="M64,113.24l.74-.43a.51.51,0,0,1,.52.05l-.74.43A.51.51,0,0,0,64,113.24Z"/></clipPath><clipPath id="clip-path-54"><path class="cls-3" d="M65.8,114.58l-.74.43a.51.51,0,0,0,.21-.47,1.59,1.59,0,0,0-.72-1.25l.74-.43a1.59,1.59,0,0,1,.72,1.25A.51.51,0,0,1,65.8,114.58Z"/></clipPath><clipPath id="clip-path-55"><path class="cls-4" d="M64.44,113.48l-.09.05a.3.3,0,0,1,.3,0l.09-.05A.3.3,0,0,0,64.44,113.48Z"/></clipPath><clipPath id="clip-path-56"><path class="cls-4" d="M65,114.56l.09-.05a.29.29,0,0,0,.12-.27.92.92,0,0,0-.42-.72l-.09.05a.92.92,0,0,1,.42.72A.29.29,0,0,1,65,114.56Z"/></clipPath><clipPath id="clip-path-57"><path class="cls-4" d="M66.57,112.71l-.07,0a.24.24,0,0,1,.25,0l.07,0A.24.24,0,0,0,66.57,112.71Z"/></clipPath><clipPath id="clip-path-58"><path class="cls-4" d="M67,113.6l.07,0a.24.24,0,0,0,.1-.22.76.76,0,0,0-.35-.59l-.07,0a.76.76,0,0,1,.35.59A.24.24,0,0,1,67,113.6Z"/></clipPath><clipPath id="clip-path-59"><path class="cls-7" d="M70.07,105.34v3.38a0,0,0,0,1,0,0,.11.11,0,0,1-.1,0,0,0,0,0,1,0,0v-3.38a0,0,0,0,0,0,0,.11.11,0,0,0,.1,0A0,0,0,0,0,70.07,105.34Z"/></clipPath></defs><g class="cls-9"><g id="Layer_2" data-name="Layer 2"><g id="Layer_4" data-name="Layer 4"><polygon class="cls-10" points="90.03 175.66 0 123.75 0 116.11 90.03 168.14 90.03 175.66"/><polygon class="cls-11" points="181.93 114.98 181.93 122.63 90.03 175.66 90.03 168.14 181.93 114.98"/><polygon class="cls-12" points="91.91 62.69 181.93 114.98 90.03 168.14 0 116.11 91.91 62.69"/><polygon class="cls-13" points="169.52 118.36 169.52 119.24 166.14 122.5 158.49 122.5 151.9 120.93 151.65 119.56 152.7 119.74 169.52 118.36"/><polygon class="cls-14" points="130.08 106.64 128.02 107.71 130.03 111.47 130.53 110.59 131.05 110.59 130.08 106.64"/><polygon class="cls-15" points="166.14 120.87 166.14 116.48 169.52 113.6 169.52 118.24 166.14 120.87"/><polygon class="cls-16" points="169.52 113.6 166.14 116.48 161.12 116.42 163.5 113.6 167.89 111.22 169.52 113.6"/><polygon class="cls-17" points="167.89 111.22 166.39 107.83 162.12 110.09 159.24 113.1 161 116.61 163.69 113.54 167.89 111.22"/><polygon class="cls-18" points="166.14 120.87 158.86 121.25 157.48 113.22 159.3 113.03 160.93 116.42 166.14 116.49 166.14 120.87"/><polygon class="cls-19" points="166.39 107.83 165.51 105.7 159.37 107.45 155.6 109.46 154.47 112.72 157.48 113.22 159.3 113.03 162.19 110.15 166.39 107.83"/><polygon class="cls-10" points="157.48 113.22 158.86 121.25 153.6 120.62 152.72 119.74 154.47 112.72 157.48 113.22"/><polygon class="cls-20" points="165.51 105.7 160.74 103.19 157.23 103.82 159.37 107.45 165.51 105.7"/><polygon class="cls-18" points="159.37 107.45 157.23 103.82 155.23 104.82 155.6 109.46 159.37 107.45"/><polygon class="cls-21" points="152.72 119.74 151.72 119.62 155.1 106.83 155.26 105.32 155.6 109.46 154.49 112.72 152.72 119.74"/><polygon class="cls-22" points="160.74 103.19 156.73 102.19 156.1 102.19 151.09 102.82 151.34 105.07 153.47 106.45 155.1 106.83 155.29 105.26 155.29 104.89 157.3 103.88 160.74 103.19"/><polygon class="cls-10" points="155.1 106.83 153.47 106.45 151.34 105.07 147.7 115.61 151.09 117.23 151.72 119.62 155.1 106.83"/><polygon class="cls-23" points="156.1 102.19 156.36 101.06 145.2 101.94 145.26 114.92 146.39 115.04 147.7 115.61 151.34 105.07 151.09 102.82 156.1 102.19"/><polygon class="cls-24" points="156.61 97.05 156.73 102.19 156.1 102.19 156.29 100.87 156.42 99.24 156.61 97.05"/><polygon class="cls-25" points="145.2 101.94 140.56 103.69 140.56 114.85 145.26 114.92 145.2 101.94"/><polygon class="cls-26" points="156.73 97.05 152.59 91.66 149.96 95.92 156.48 99.43 156.73 97.05"/><polygon class="cls-27" points="156.48 99.43 149.96 95.92 148.96 97.8 156.36 101.06 156.48 99.43"/><polygon class="cls-28" points="156.73 97.05 152.59 91.66 150.84 86.39 152.47 86.64 156.73 97.05"/><polygon class="cls-29" points="140.56 103.57 140.56 114.85 139.68 114.85 139.18 112.85 137.8 110.72 134.16 110.59 133.66 100.31 140.56 103.57"/><polygon class="cls-26" points="156.36 101.06 145.2 101.94 140.56 103.69 133.66 100.31 140.75 101 149.02 97.74 156.36 101.06"/><polygon class="cls-30" points="152.59 91.66 150.84 86.39 149.33 81.12 146.95 84.89 148.96 97.8 152.59 91.66"/><polygon class="cls-18" points="146.95 84.89 141.94 87.14 140.78 100.98 148.96 97.8 146.95 84.89"/><polygon class="cls-31" points="140.81 101.06 133.66 100.31 137.67 86.52 141.94 87.14 140.81 101.06"/><polygon class="cls-32" points="137.67 86.52 135.54 83.38 129.65 108.46 130.78 110.59 134.16 110.59 133.72 100.25 137.67 86.52"/><polygon class="cls-26" points="149.33 81.12 146.95 84.89 141.94 87.14 137.67 86.52 135.54 83.38 142.44 77.49 144.63 79.06 148.27 78.3 149.33 81.12"/><polygon class="cls-33" points="152.09 127.14 152.97 127.27 152.72 129.15 146.26 132.47 139.87 134.48 138.86 135.73 131.59 134.98 129.46 132.72 129.46 132.22 121.69 127.08 127.2 122.94 152.09 127.14"/><polygon class="cls-18" points="152.72 128.02 151.59 120.87 146.45 123.75 146.45 131.15 152.72 128.02"/><polygon class="cls-34" points="146.45 123.75 146.45 131.15 141.31 131.66 139.55 123 143.38 123.57 146.45 123.75"/><polygon class="cls-35" points="141.31 131.66 139.81 134.54 137.17 117.49 138.43 115.73 141.31 131.66"/><polygon class="cls-36" points="152.72 128.14 152.59 125.64 152.59 124.51 152.34 123.38 152.09 121.5 151.47 118.24 151.59 120.87 152.72 128.14"/><polygon class="cls-26" points="151.59 120.87 151.59 118.61 151.09 117.23 146.45 114.98 145.2 114.85 139.55 114.85 140.37 117.55 139.18 119.9 139.75 123.03 143.38 123.57 146.45 123.75 151.59 120.87"/><polygon class="cls-37" points="140.43 117.61 139.3 112.85 139.05 112.6 138.55 114.73 138.43 115.73 139.18 119.99 140.43 117.61"/><polygon class="cls-38" points="137.17 117.49 132.28 118.49 133.03 133.91 139.81 134.54 137.17 117.49"/><polygon class="cls-39" points="132.28 118.49 131.28 118.61 131.15 130.9 133.03 133.91 132.28 118.49"/><polygon class="cls-40" points="131.15 131 125.51 127.39 127.52 115.1 128.52 113.85 129.77 114.85 128.83 116.04 131.34 118.55 131.15 131"/><polygon class="cls-41" points="138.43 115.73 137.17 117.49 132.28 118.49 131.34 118.61 129.77 116.98 133.47 116.3 135.98 116.67 138.43 115.73"/><polygon class="cls-42" points="138.43 115.73 136.12 116.62 135.29 114.23 137.3 114.6 138.55 114.73 138.43 115.73"/><polygon class="cls-43" points="136.17 116.61 135.92 116.73 133.41 116.32 129.77 116.98 128.77 116.11 129.77 114.85 133.53 114.85 135.04 114.23 135.29 114.23 136.17 116.61"/><polygon class="cls-26" points="139.05 112.6 138.55 114.73 137.28 114.69 135.29 114.23 135.04 114.23 133.53 114.85 129.77 114.85 128.52 113.85 130.53 110.59 137.8 110.59 139.05 112.6"/><polygon class="cls-33" points="89.53 80.12 89.4 81.25 84.76 82.63 84.89 81 89.53 80.12"/><polygon class="cls-30" points="95.79 63.7 88.9 63.95 88.9 80.5 93.54 79.75 95.79 63.7"/><polygon class="cls-18" points="88.9 63.95 82 66.08 81.63 82.63 85.26 81.5 88.9 80.5 88.9 63.95"/><polygon class="cls-31" points="82 66.08 72.85 62.57 71.85 61.81 72.1 68.84 80.25 76.36 81.75 76.48 82 66.08"/><polygon class="cls-26" points="94.29 59.18 82.5 62.94 71.85 61.81 72.85 62.57 82 66.08 88.9 63.95 95.79 63.7 96.42 61.81 99.31 60.81 94.29 59.18"/><polyline class="cls-44" points="102.44 59.68 99.18 60.94 94.29 59.18 95.79 56.92 102.44 59.56"/><polygon class="cls-26" points="99.56 51.78 95.79 56.92 102.44 59.56 105.14 58.87 103.38 55.36 99.56 51.78"/><polygon class="cls-45" points="103.57 53.41 99.43 46.14 97.17 45.64 99.56 51.78 103.44 55.42 103.57 53.41"/><polygon class="cls-30" points="99.56 51.78 94.92 39.37 91.41 44.01 94.29 59.31 95.86 56.86 99.56 51.78"/><polygon class="cls-18" points="91.41 44.01 83.88 46.52 82.25 63.19 94.29 59.18 91.41 44.01"/><polygon class="cls-31" points="83.88 46.52 77.74 45.89 71.85 61.81 82.31 62.92 83.88 46.52"/><polygon class="cls-18" points="77.74 45.89 74.35 42.13 67.33 66.45 72.02 66.77 71.91 61.75 77.74 45.89"/><polygon class="cls-26" points="94.92 39.37 91.41 44.01 83.88 46.52 77.74 45.89 74.35 42.13 84.38 35.11 93.66 36.49 94.92 39.37"/><polygon class="cls-46" points="84.51 100.31 78.11 104.32 70.09 105.57 55.8 103.19 47.4 98.05 45.39 96.05 52.03 92.53 84.51 100.31"/><polygon class="cls-31" points="80.87 94.92 73.48 96.3 73.22 103.94 80.5 102.19 80.87 94.92"/><polygon class="cls-10" points="73.48 96.3 55.55 85.89 55.55 103.19 73.29 103.88 73.48 96.3"/><polygon class="cls-11" points="55.55 85.89 50.91 84.01 50.91 99.05 55.55 101.81 55.55 85.89"/><polygon class="cls-47" points="80.5 102.06 84.38 83.63 80.87 94.54 80.5 102.06"/><polygon class="cls-31" points="84.38 83.63 86.89 98.19 80.5 102.19 84.38 83.63"/><polygon class="cls-48" points="84.38 76.86 87.14 91.91 86.89 98.18 84.38 83.88 84.38 76.86"/><polygon class="cls-26" points="84.38 76.86 84.38 83.76 80.75 95.04 73.35 96.42 55.42 86.01 50.78 84.13 53.1 79.56 53.98 78.81 56.86 79.81 80.31 76.3 84.38 76.86"/><polygon class="cls-18" points="79.62 71.72 82.63 83.26 76.11 85.76 75.86 73.22 79.62 71.72"/><polygon class="cls-31" points="75.86 73.22 68.33 73.35 64.2 86.14 76.11 85.76 75.86 73.22"/><polygon class="cls-10" points="64.2 86.14 55.3 83 62.69 71.47 68.33 73.35 64.2 86.14"/><polygon class="cls-49" points="62.69 71.47 61.94 68.96 55.3 83 62.69 71.47"/><polygon class="cls-26" points="79.62 71.72 75.86 73.22 68.33 73.35 62.69 71.47 61.94 68.96 66.33 66.33 73.22 66.83 77.17 68.9 78.05 70.78 79.62 71.72"/><polygon class="cls-33" points="56.55 113.57 57.68 113.73 57.36 116.14 49.1 120.38 40.92 122.95 39.64 124.55 30.34 123.59 27.62 120.7 27.62 120.06 17.68 113.49 24.73 108.2 56.55 113.57"/><polygon class="cls-18" points="57.36 114.69 55.91 105.56 49.34 109.24 49.34 118.7 57.36 114.69"/><polygon class="cls-34" points="49.34 109.24 49.34 118.7 42.77 119.34 40.52 108.28 45.41 109 49.34 109.24"/><polygon class="cls-35" points="42.77 119.34 40.84 123.03 37.48 101.23 39.08 98.98 42.77 119.34"/><polygon class="cls-36" points="57.36 114.85 57.2 111.65 57.2 110.2 56.88 108.76 56.55 106.36 55.75 102.19 55.91 105.56 57.36 114.85"/><polygon class="cls-26" points="55.91 105.56 55.91 102.67 55.27 100.91 49.34 98.02 47.74 97.86 40.52 97.86 41.57 101.31 40.05 104.31 40.77 108.32 45.41 109 49.34 109.24 55.91 105.56"/><polygon class="cls-37" points="41.65 101.39 40.2 95.3 39.88 94.97 39.24 97.7 39.08 98.98 40.05 104.43 41.65 101.39"/><polygon class="cls-38" points="37.48 101.23 31.23 102.51 32.19 122.23 40.84 123.03 37.48 101.23"/><polygon class="cls-39" points="31.23 102.51 29.94 102.67 29.78 118.38 32.19 122.23 31.23 102.51"/><polygon class="cls-40" points="29.78 118.5 22.57 113.89 25.13 98.18 26.42 96.58 28.02 97.86 26.82 99.38 30.02 102.59 29.78 118.5"/><polygon class="cls-41" points="39.08 98.98 37.48 101.23 31.23 102.51 30.02 102.66 28.02 100.58 32.75 99.7 35.95 100.18 39.08 98.98"/><polygon class="cls-42" points="39.08 98.98 36.13 100.12 35.07 97.06 37.64 97.54 39.24 97.7 39.08 98.98"/><polygon class="cls-43" points="36.2 100.1 35.88 100.26 32.67 99.74 28.02 100.58 26.74 99.46 28.02 97.86 32.83 97.86 34.75 97.06 35.07 97.06 36.2 100.1"/><polygon class="cls-26" points="39.88 94.97 39.24 97.7 37.62 97.66 35.07 97.06 34.75 97.06 32.83 97.86 28.02 97.86 26.42 96.58 28.98 92.41 38.28 92.41 39.88 94.97"/><polygon class="cls-50" points="63.7 130.78 63.7 131.91 60.31 134.91 53.29 135.29 47.02 133.66 45.64 134.04 40.37 130.9 40.56 129.71 39.81 125.95 41.82 125.32 63.7 130.78"/><polygon class="cls-15" points="60.56 133.66 60.56 129.27 63.95 126.39 63.95 131.03 60.56 133.66"/><polygon class="cls-16" points="63.95 126.39 60.56 129.27 55.55 129.21 57.93 126.39 62.32 124.01 63.95 126.39"/><polygon class="cls-17" points="62.32 124.01 60.81 120.62 56.55 122.88 53.66 125.89 55.42 129.4 58.12 126.33 62.32 124.01"/><polygon class="cls-18" points="60.56 133.66 53.29 134.04 51.91 126.01 53.73 125.82 55.36 129.21 60.56 129.28 60.56 133.66"/><polygon class="cls-19" points="60.81 120.62 59.93 118.49 53.79 120.25 50.03 122.25 48.9 125.51 51.91 126.01 53.73 125.82 56.61 122.94 60.81 120.62"/><polygon class="cls-10" points="51.91 126.01 53.29 134.04 48.02 133.41 47.15 132.53 48.9 125.51 51.91 126.01"/><polygon class="cls-20" points="59.93 118.49 55.17 115.98 51.66 116.61 53.79 120.25 59.93 118.49"/><polygon class="cls-18" points="53.79 120.25 51.66 116.61 49.65 117.61 50.03 122.25 53.79 120.25"/><polygon class="cls-21" points="47.15 132.53 46.14 132.41 49.53 119.62 49.68 118.11 50.03 122.25 48.91 125.51 47.15 132.53"/><polygon class="cls-22" points="55.17 115.98 51.16 114.98 50.53 114.98 45.52 115.61 45.77 117.86 47.9 119.24 49.53 119.62 49.72 118.05 49.72 117.67 51.72 116.67 55.17 115.98"/><polygon class="cls-10" points="49.53 119.62 47.9 119.24 45.77 117.86 41.75 129.27 46.14 132.41 49.53 119.62"/><polygon class="cls-15" points="45.52 115.61 45.89 117.86 41.75 129.27 40.88 126.01 45.52 115.61"/><polygon class="cls-51" points="39.37 127.52 39.25 128.65 37.49 130.4 32.35 131.15 27.21 128.4 30.47 126.26 39.37 127.52"/><polygon class="cls-31" points="37.74 129.52 32.98 130.28 33.98 125.14 37.11 124.51 37.74 129.52"/><polygon class="cls-10" points="32.98 130.28 29.59 128.14 31.85 124.13 33.98 125.14 32.98 130.28"/><polygon class="cls-52" points="37.11 124.51 38.24 123.5 39.5 127.64 37.74 129.52 37.11 124.51"/><polygon class="cls-53" points="31.85 124.13 29.59 128.14 30.22 125.64 32.35 122.25 31.85 124.13"/><polygon class="cls-54" points="38.24 123.5 37.11 124.51 33.98 125.14 31.85 124.13 32.35 122.25 35.8 121.94 38.24 123.5"/><polygon class="cls-55" points="128.77 87.14 126.77 92.53 126.39 76.23 128.52 70.84 128.77 87.14"/><polygon class="cls-18" points="126.77 92.53 122.38 95.67 119.24 79.24 114.6 74.6 117.36 65.7 117.74 65.7 125.51 76.48 126.77 92.53"/><polygon class="cls-56" points="126.39 76.23 125.51 76.48 126.77 92.41 126.39 76.23"/><polygon class="cls-31" points="128.65 70.59 123.5 68.59 120.75 68.59 125.51 76.48 126.39 76.23 128.65 70.59"/><polygon class="cls-57" points="125.51 76.48 123.88 71.59 117.36 63.57 117.87 65.93 125.51 76.48"/><polygon class="cls-31" points="103.32 66.83 97.55 66.08 93.79 81.12 91.41 96.3 100.06 99.31 101.63 77.42 106.14 75.04 103.32 66.83"/><polygon class="cls-18" points="93.85 80.87 91.52 80.07 88.9 94.79 91.71 94.34 93.85 80.87"/><polygon class="cls-58" points="91.41 80.12 88.9 80.5 88.15 88.15 88.52 95.04 88.9 94.79 91.41 80.12"/><polygon class="cls-39" points="97.55 66.08 96.42 61.81 95.79 63.7 94.33 74.07 95.57 74.01 97.55 66.08"/><polygon class="cls-26" points="103.32 66.83 97.55 66.08 96.42 61.81 103.63 59.12 103.32 66.83"/><polygon class="cls-31" points="96.55 101.63 97.42 105.76 90.78 107.02 90.78 102.38 96.55 101.63"/><polygon class="cls-59" points="96.55 101.81 99.18 98.43 99.05 103.94 97.42 105.83 96.55 101.81"/><polygon class="cls-60" points="90.78 107.08 90.78 102.44 85.64 100.06 85.64 104.45 90.78 107.08"/><polygon class="cls-26" points="85.64 100.06 90.78 102.44 96.55 101.81 99.18 98.43 95.67 96.8 87.39 97.42 85.64 100.06"/><polygon class="cls-31" points="94.79 97.55 96.17 100.56 91.53 101.31 91.41 97.8 94.79 97.55"/><polygon class="cls-59" points="94.79 97.55 95.79 96.3 97.8 99.05 96.17 100.56 94.79 97.55"/><polygon class="cls-60" points="91.53 101.31 91.41 97.8 88.52 96.92 87.02 99.68 91.53 101.31"/><polygon class="cls-26" points="88.52 96.92 91.41 97.85 94.79 97.55 95.79 96.3 93.66 94.29 88.9 94.42 88.52 96.92"/><polygon class="cls-61" points="88.9 94.42 88.52 96.92 87.02 99.68 87.27 97.42 88.9 94.42"/><path class="cls-18" d="M98.78,119.7c6.27,3.62,16.47,3.6,22.78,0s6.35-9.53.08-13.15-16.47-3.6-22.78,0S92.51,116.08,98.78,119.7Z"/><path class="cls-62" d="M103.3,75.63a1.19,1.19,0,0,0-1.11.35s-.75.25-2.13,3.26a35,35,0,0,0-1.25,5.39v6.74l5.08-9.44Z"/><path class="cls-62" d="M118,75.63a1.19,1.19,0,0,1,1.11.35s.75.25,2.13,3.26a35,35,0,0,1,1.25,5.39v6.74l-5.08-9.44Z"/><polygon class="cls-63" points="102.82 76.86 102.82 85.14 107.45 85.39 107.08 79.62 102.82 76.86"/><path class="cls-64" d="M111.22,80.87a11.46,11.46,0,0,1-4.26-.63V97.17h4.26Z"/><path class="cls-65" d="M118.18,81.69V76.8s-.5,3.89-7,4.14V96.86H117Z"/><polygon class="cls-65" points="114.73 106.7 111.22 108.71 111.09 106.7 111.09 100.06 114.48 100.06 114.73 106.7"/><polygon class="cls-64" points="111.09 99.31 111.09 108.33 107.2 107.96 106.2 99.56 111.09 99.31"/><path class="cls-66" d="M113.79,111.59a8.68,8.68,0,0,1-6.08,0v-5.14a16.32,16.32,0,0,0,6.08,0Z"/><path class="cls-67" d="M113.79,96.08a11.92,11.92,0,0,1-6.08,0v4.72a14.32,14.32,0,0,0,6.08,0Z"/><path class="cls-68" d="M105.08,79.67a12,12,0,0,0,10.82,0c3-1.73,3-4.53,0-6.24a12,12,0,0,0-10.82,0C102.12,75.15,102.11,77.95,105.08,79.67Z"/><path class="cls-65" d="M122.56,116V90.84h-8.78V116a4.32,4.32,0,0,0,3.64,2.13S121.44,118.55,122.56,116Z"/><path class="cls-64" d="M113.85,90.78a5,5,0,0,0,3.62,2.37h.3c.77,0,4-.32,4.67-2.31,0,0-.22-8.17-3.85-10.32a.84.84,0,0,0-.86,0C116.67,81.17,114.1,83.47,113.85,90.78Z"/><path class="cls-65" d="M107.71,116.11V90.9H98.93v25.2a4.32,4.32,0,0,0,3.64,2.13S106.58,118.61,107.71,116.11Z"/><path class="cls-64" d="M107.64,90.78A5,5,0,0,1,104,93.15h-.3c-.77,0-4-.32-4.67-2.31,0,0,.22-8.17,3.85-10.32a.84.84,0,0,1,.86,0C104.82,81.17,107.39,83.47,107.64,90.78Z"/><path class="cls-65" d="M106.7,50.66l1.38,1.13V77l-4-2.51-.19-.55s-.82-1-.69-1.45v-25l1,.88.82,1.32.88.5Z"/><polygon class="cls-64" points="110.47 51.16 111.72 51.78 111.59 76.99 106.95 76.11 106.95 50.72 108.77 51.22 110.47 51.16"/><path class="cls-65" d="M117.86,72.72a2.35,2.35,0,0,1-.85,1.54l-.4,1.1-1.88,1-2.38.38h-1.25V51.53l1.63-.5,1.76-.5,1.38-.75,1.25-1.38.75-.88Z"/><circle class="cls-69" cx="108.71" cy="54.54" r="1.13"/><circle class="cls-69" cx="108.71" cy="58.3" r="1.13"/><circle class="cls-69" cx="108.71" cy="62.07" r="1.13"/><path class="cls-70" d="M117.24,74v2.88s-1,2.26-4.89,3a10.46,10.46,0,0,1-5.71-.69s-2.51-1.13-2.76-2.51V73.91s.5,1,3,2c0,0,3.13.75,4.26.5C111.15,76.42,115.67,76.17,117.24,74Z"/><path class="cls-68" d="M105.23,50.62a11.62,11.62,0,0,0,10.51,0c2.91-1.68,2.93-4.4,0-6.07a11.62,11.62,0,0,0-10.51,0C102.36,46.23,102.34,48.95,105.23,50.62Z"/><path class="cls-65" d="M106.58,27.84l1.76,1.5-.88,20.94a4.28,4.28,0,0,1-3.13-2.76V26.58Z"/><path class="cls-64" d="M110.72,28.21l1,1.5-.63,20.94a8.64,8.64,0,0,1-3.64-.38V28.46Z"/><path class="cls-65" d="M116.73,47.9s-1.38,2.88-5.64,2.76V28.71l5.64-2.38Z"/><path class="cls-68" d="M106.18,29a9.6,9.6,0,0,0,8.69,0c2.41-1.39,2.42-3.64,0-5a9.6,9.6,0,0,0-8.69,0C103.8,25.33,103.78,27.58,106.18,29Z"/><path class="cls-64" d="M116.73,26.33s-.38-7.27-2.51-9.91c0,0-1.5-3.13-3.64-3.13,0,0-1.38-.63-3.51,2.51,0,0-2.38,3.51-2.76,10.78a5,5,0,0,0,3.26,2.51c.11,0,.14,0,.25,0a18.37,18.37,0,0,0,4.89.25c.07,0,.18-.11.25-.13C113.48,29.11,116,28.63,116.73,26.33Z"/><path class="cls-64" d="M106.18,28.58a9.6,9.6,0,0,0,8.69,0c2.41-1.39,2.42-3.64,0-5a9.6,9.6,0,0,0-8.69,0C103.8,25,103.78,27.2,106.18,28.58Z"/><rect class="cls-64" x="110.34" y="1.25" width="0.63" height="12.16"/><circle class="cls-64" cx="110.65" cy="0.69" r="0.69"/><path class="cls-71" d="M93,139c-2.84,1.64-2.84,4.3,0,5.94a11.37,11.37,0,0,0,10.29,0c2.84-1.64,2.84-4.3,0-5.94A11.37,11.37,0,0,0,93,139Z"/><g class="cls-9"><path class="cls-1" d="M102.27,133.54l2.51-1.46a.57.57,0,0,0,.24-.52L102.51,133A.57.57,0,0,1,102.27,133.54Z"/><g class="cls-72"><g class="cls-9"><path class="cls-1" d="M102.27,133.54l2.51-1.46a.57.57,0,0,0,.24-.52L102.51,133a.57.57,0,0,1-.24.52Z"/></g></g><g class="cls-9"><path class="cls-2" d="M100,120.26l-2.51,1.46a.57.57,0,0,1,.58.06l2.51-1.46A.57.57,0,0,0,100,120.26Z"/><g class="cls-73"><g class="cls-9"><path class="cls-2" d="M98.06,121.78l2.51-1.46a.65.65,0,0,0-.48-.1l-2.51,1.46a.65.65,0,0,1,.48.1Z"/><path class="cls-2" d="M97.59,121.68l2.51-1.46-.1,0-2.51,1.46.1,0Z"/></g></g></g><polygon class="cls-1" points="102.51 133.02 105.02 131.56 105.04 123.83 102.53 125.29 102.51 133.02"/><polygon class="cls-2" points="101.72 123.89 104.23 122.43 100.57 120.32 98.06 121.78 101.72 123.89"/><g class="cls-9"><path class="cls-1" d="M102.53,125.29l2.51-1.46a1.79,1.79,0,0,0-.81-1.4l-2.51,1.46A1.79,1.79,0,0,1,102.53,125.29Z"/><g class="cls-74"><g class="cls-9"><path class="cls-1" d="M102.53,125.29l2.51-1.46a1.62,1.62,0,0,0-.21-.76l-2.51,1.46a1.62,1.62,0,0,1,.21.76Z"/><path class="cls-2" d="M102.32,124.53l2.51-1.46a1.68,1.68,0,0,0-.6-.64l-2.51,1.46a1.68,1.68,0,0,1,.6.64Z"/></g></g></g><path class="cls-6" d="M98.06,121.78c-.45-.26-.81-.05-.82.46l0,7.72a1.79,1.79,0,0,0,.81,1.4l3.66,2.11c.45.26.81.05.82-.46l0-7.72a1.79,1.79,0,0,0-.81-1.4Z"/></g><g class="cls-9"><polygon class="cls-6" points="103.43 126.2 103.12 126.02 103.13 128.35 103.44 128.53 103.43 126.2"/><polygon class="cls-2" points="104.77 125.43 104.45 125.25 103.12 126.02 103.43 126.2 104.77 125.43"/><polygon class="cls-75" points="103.43 126.2 103.44 128.53 104.78 127.76 104.77 125.43 103.43 126.2"/></g><path class="cls-75" d="M92.17,128.95a.23.23,0,0,0,.06-.07.3.3,0,0,0,0-.06.33.33,0,0,1,.1-.18s.11-.07.16-.11l.16-.1.2-.09a.71.71,0,0,1,.42-.06c.14,0,.39,0,.53,0s.05.07.14,0,.09,0,.09.11a1.27,1.27,0,0,0,0,.28,1,1,0,0,0,.1.27.12.12,0,0,1,0,.08l0,0s-.1,0-.15.05a.49.49,0,0,0-.16.09s.06.11,0,.12a.31.31,0,0,0-.2.09,2,2,0,0,1-.29.26,1.05,1.05,0,0,0-.32-.27h0a.08.08,0,0,0,0-.06l-.06,0a.52.52,0,0,0-.5.14c-.05.05-.12.19-.2.18s-.14-.27-.07-.36S92.1,129,92.17,128.95Z"/><path class="cls-75" d="M96.77,125.4l.07-.13a4.2,4.2,0,0,1,.73-1c.23-.23.6-.66,1-.45s.49,1.13-.06,2l-.33.51a14.06,14.06,0,0,1-1.12,2.2.82.82,0,0,1-.43.18c-.17,0-.8-1.21-.8-1.21A9.3,9.3,0,0,1,96.77,125.4Z"/><path class="cls-5" d="M98.4,125.5a6.87,6.87,0,0,0-1.31.4.59.59,0,0,1-.63,0,4.55,4.55,0,0,1,.31-.5l.07-.13a4.2,4.2,0,0,1,.73-1c.23-.23.6-.66,1-.45s.44.79.19,1.46A.83.83,0,0,1,98.4,125.5Z"/><path class="cls-75" d="M93.76,129.28c-.16-.11-.5-1-.34-1a20.24,20.24,0,0,0,3-1.26c.19-.13.62.44.66.7.1.62-.1.81-.3.9A13.55,13.55,0,0,1,93.76,129.28Z"/><path class="cls-76" d="M93.42,128.27l.23-.08a1.25,1.25,0,0,0,.45,1.08.81.81,0,0,1-.34,0C93.6,129.18,93.25,128.32,93.42,128.27Z"/><path class="cls-76" d="M96.26,126.31a1.93,1.93,0,0,0,1.23,1.35c-.08.18-.16.33-.23.47a2.14,2.14,0,0,1-1.2-1.37Z"/><path class="cls-5" d="M101.59,143.78c.55-.13.71-1,1-1.35.09-.12.21-.22.3-.34a.73.73,0,0,0,.18-.41.83.83,0,0,0-.1-.39c-.27-.57-.42-.38-.79-.42a1,1,0,0,0-.26,0c-.18-.22-.13-.19-.47-.21-.13,0,.23-.11.11,0s-.56.08-.49.35a6.28,6.28,0,0,1,.28.88c0,.1-.48.46-.86,1.11C100.36,143.15,100.55,144,101.59,143.78Z"/><path class="cls-77" d="M101.51,143.66c.55-.13.72-1.07,1-1.42.09-.12.21-.22.3-.34a.73.73,0,0,0,.18-.41.83.83,0,0,0-.1-.39c-.27-.57-.42-.38-.79-.42a1,1,0,0,0-.26,0c-.18-.22-.13-.19-.47-.21-.13,0,.23-.11.11,0s-.56.08-.49.35a6.28,6.28,0,0,1,.28.88c0,.1-.41.65-.79,1.31C100.36,143.15,100.47,143.9,101.51,143.66Z"/><path class="cls-5" d="M98.5,140.07a.23.23,0,0,0-.11-.08.86.86,0,0,0-.54.17c-.26.16-.49.38-.76.54a3.34,3.34,0,0,1-.46.2l-.5.2a.54.54,0,0,0-.31.29.88.88,0,0,0-.05.32.58.58,0,0,0,.17.39.92.92,0,0,0,.83.26,2,2,0,0,0,.82-.38,1.36,1.36,0,0,1,.47-.26l.44-.11a.91.91,0,0,0,.38-.23c.14-.14.08-.46.1-.59a5.2,5.2,0,0,0,.11-1.29c-.08-.12-.38.8-.49.7A1.63,1.63,0,0,1,98.5,140.07Z"/><path class="cls-8" d="M98.5,139.93a.23.23,0,0,0-.11-.08.86.86,0,0,0-.54.17c-.26.16-.49.38-.76.54a3.34,3.34,0,0,1-.46.2l-.5.2a.54.54,0,0,0-.31.29.88.88,0,0,0-.05.32A.58.58,0,0,0,96,142a.92.92,0,0,0,.83.26,2,2,0,0,0,.82-.38,1.36,1.36,0,0,1,.47-.26l.44-.11a.73.73,0,0,0,.38-.23.83.83,0,0,0,.14-.38,7,7,0,0,0,.08-1.5c-.08-.12-.38.8-.49.7A1.64,1.64,0,0,1,98.5,139.93Z"/><g id="_04_man_smart_watch" data-name="04_man_smart_watch"><g id="man"><path class="cls-8" d="M97.19,134.27c-.09,1.1.15,4.66,1.19,4.31.33-.11.85-.26.85-1,0-.39.41-2.65.4-3,0-.81.3-2.63-1.38-3-.25-.06-.15-1.2-.35-1s-.61.13-.62.62c0,.17,0,.18,0,.36C97.25,132.43,97.25,133.55,97.19,134.27Z"/><path class="cls-8" d="M97.6,136.54c-.15,0-.25.08-.26.2a3.83,3.83,0,0,0,0,.41q0,.45.07.91c0,.41,0,.83.12,1.24s0,.66.12,1a.39.39,0,0,0,.06.14.47.47,0,0,0,.16.13,1.12,1.12,0,0,0,.84.07c.25-.1.28-.35.32-.53a14.92,14.92,0,0,0,.16-2.44,1,1,0,0,0-.49-.88,1.8,1.8,0,0,0-1-.25Z"/><path class="cls-78" d="M98.52,140a.79.79,0,0,0,.61-.15,3,3,0,0,1,0,.37,1.51,1.51,0,0,1-1.46-.26l0-.36A2.29,2.29,0,0,0,98.52,140Z"/><path class="cls-3" d="M97.39,137.14a3.83,3.83,0,0,1,0-.41c0-.11.11-.17.26-.2h.11a1.86,1.86,0,0,1,.76.11.61.61,0,0,1,.14.23c.22.73-.36,1.31-.89,1.71a.6.6,0,0,1-.21.1c0-.21,0-.42,0-.63S97.41,137.44,97.39,137.14Z"/><path class="cls-77" d="M100.11,130.72c-.95.15-1.24.19-1.89-.2,0,.31-.86-.44-.87-.13s-.05,1.09-.08,1.37c-.06.77,1,1.65,1.16,1.86s.72.16.8.69a18.58,18.58,0,0,0,.93,3.23,2.07,2.07,0,0,0,.83.41.52.52,0,0,0,.25-.06,1.65,1.65,0,0,0,.77-.67,16,16,0,0,0-.07-2.78c0-.27,0-.55,0-.82a7,7,0,0,0,0-.76,4.05,4.05,0,0,0-.37-1.54,1.72,1.72,0,0,0-.34-.52.8.8,0,0,0-.54-.24A4.94,4.94,0,0,0,100.11,130.72Z"/><path class="cls-1" d="M97.29,131.62c.06.18.22.21.38.26s.55.28.71.34a3.54,3.54,0,0,0,2.49.24l.67-.14c.29-.06.47.63.46.26,0-.75-.31-4.09.08-5,.25-.6.75-.92.68-1.39-.13-.81-1.27-1.66-3.3-2.3-.32-.1-.93-.33-1.23-.18a1.2,1.2,0,0,0-.48.68,4.51,4.51,0,0,0-.22,1.56c0,.07,0,.13,0,.2h0c0,.46,0,.91,0,1.37,0,.08,0,.16,0,.24,0,1.2-.14,2.4-.24,3.6A.65.65,0,0,0,97.29,131.62Z"/><path class="cls-76" d="M97.66,126.08c0,.12.18.33.41.46s.41.13.41,0-.18-.33-.41-.46S97.66,126,97.66,126.08Z"/><path class="cls-6" d="M98.23,129.36a17.48,17.48,0,0,1,.27-2.71c0-.25.09-.5.15-.75s.06-.25.1-.37a.78.78,0,0,1,.17-.34.1.1,0,0,1,.17,0,1.43,1.43,0,0,1-.06.65c0,.22-.09.43-.13.65q-.12.65-.19,1.32a17.54,17.54,0,0,0-.07,2.65q0,.37.05.74c0,.21.12.54-.05.68a.11.11,0,0,1-.1,0c-.21-.08-.2-.34-.21-.54s0-.45-.05-.68Q98.22,130.05,98.23,129.36Z"/><path class="cls-78" d="M98.17,132a3.25,3.25,0,0,1-.9-.59s0-.06,0-.09l0-.49a5.28,5.28,0,0,0,1.77.88,4.41,4.41,0,0,0,2.76-.13l.1,0,0,.47a5.63,5.63,0,0,1-1.93.38A4.9,4.9,0,0,1,98.17,132Z"/></g></g><path class="cls-77" d="M100,136.34c-.1.07,0,.8,0,.94.17.81.64,2,.86,3.14a6.36,6.36,0,0,0,.23.82c0,.06.1.31.13.37s0-.08.05-.06a1.19,1.19,0,0,0,.5,0,3.45,3.45,0,0,0,.54-.15l.16-.06c.12-.06.35.07.42,0s-.08-.22-.1-.32-.07-.22-.08-.28q-.08-.34-.14-.68c-.09-.47-.15-.94-.22-1.41s-.21-1.2-.34-1.8c-.05-.24-.73-.19-.8-.14s-.32,0-.44,0-.36-.15-.54-.23S100.07,136.3,100,136.34Z"/><path class="cls-78" d="M102.72,140.49l0,.21.05.19a1.82,1.82,0,0,1-1.48.43l-.18,0v0c-.05-.15-.1-.31-.15-.46a3.76,3.76,0,0,0,.58.14A1.33,1.33,0,0,0,102.72,140.49Z"/><path class="cls-3" d="M100,137.11a1.6,1.6,0,0,1,1.38.62.54.54,0,0,1,0,.49c-.2.45-.3,1-.73,1.31-.23-.83-.52-1.66-.64-2.26Z"/><path class="cls-2" d="M102.37,130.55c-.2-.46-.45-1.48-.64-2.06s0-.53-.1-1l1.39-1.07c.07.2.11.44.16.63s.27.55.38,1a8,8,0,0,1,.28,1.93c0,.2-.3.07-.46.38-.07.13.06.31-.09.35S102.45,130.72,102.37,130.55Z"/><path class="cls-2" d="M101.78,134a2.46,2.46,0,0,1,.48-1.14s.16,0,.23-.2.38.42.47.43a.22.22,0,0,1,.18.13,1.32,1.32,0,0,1,.16.57,2,2,0,0,1-.07.64s0,.11-.09.11-.06,0-.1,0-.06.1-.09.16a.13.13,0,0,1-.23,0,.34.34,0,0,1-.14.2c-.07,0-.19,0-.19-.09a.17.17,0,1,1-.34,0,.65.65,0,0,1,.08-.19c.09-.21,0-.44,0-.67a.55.55,0,0,0-.08.12.34.34,0,0,1,0,.12.12.12,0,0,1-.1.07.11.11,0,0,1-.1-.07A.27.27,0,0,1,101.78,134Z"/><path class="cls-2" d="M102.45,133.31a1,1,0,0,1-.24-.43,16.87,16.87,0,0,0,.09-2.53,1,1,0,0,1,.43-.85c.57-.27,1.2-.06,1.12.59a18.83,18.83,0,0,1-.31,2.26c0,.23-.2.73-.3,1A.58.58,0,0,1,102.45,133.31Z"/><path class="cls-78" d="M102.7,133.11a.62.62,0,0,0,.63,0l-.09.29a.58.58,0,0,1-.79,0,1,1,0,0,1-.24-.43l0-.27A1.6,1.6,0,0,0,102.7,133.11Z"/><path class="cls-2" d="M103.28,127v0a2.46,2.46,0,0,0-.35-.85c-.27-.31-.58-.72-1.05-.62s-.45.51-.47.79a6.15,6.15,0,0,0,.12,1.08c.15,1.41.4,1.49.56,1.53.38.11.35,0,.57-.1l.77-.27a.3.3,0,0,0,.17-.11.3.3,0,0,0,0-.2A8.59,8.59,0,0,0,103.28,127Z"/><path class="cls-3" d="M101.39,126.24c0-.28.1-.71.47-.79s.79.31,1.05.62a2.46,2.46,0,0,1,.35.85v0c.09.27.17.53.24.8l-.15.07a1.24,1.24,0,0,1-1.39-.59,2.28,2.28,0,0,0-.58-.69A1.86,1.86,0,0,1,101.39,126.24Z"/><g id="head"><path class="cls-6" d="M100.86,123.38c.07.58.34.79.35,1.25.06,1.73-3.48,1.75-3.43.13,0-.58,0-1,.09-1.38Z"/></g><g class="cls-9"><g class="cls-9"><g class="cls-79"><g class="cls-9"><path class="cls-1" d="M101,124.29l.58-.34-.08,0-.58.34.08,0Z"/><path class="cls-1" d="M100.95,124.26l.58-.34a.15.15,0,0,0-.1,0l-.58.34a.15.15,0,0,1,.1,0Z"/><polygon class="cls-75" points="100.85 124.27 101.43 123.93 101.42 123.93 100.84 124.28 100.85 124.27 100.85 124.27"/></g></g></g><g class="cls-9"><g class="cls-80"><g class="cls-9"><path class="cls-75" d="M101.22,124.92l.58-.34a.19.19,0,0,0,.08-.17.5.5,0,0,0,0-.2l-.58.34a.5.5,0,0,1,0,.2.19.19,0,0,1-.08.17Z"/><path class="cls-1" d="M101.25,124.55l.58-.34a.65.65,0,0,0-.09-.15l-.58.34a.65.65,0,0,1,.09.15Z"/><path class="cls-2" d="M101.16,124.4l.58-.34a.49.49,0,0,0-.13-.11l-.58.34a.49.49,0,0,1,.13.11Z"/></g></g></g><path class="cls-81" d="M101,124.29c-.15-.08-.27,0-.27.15a.59.59,0,0,0,.27.46c.15.08.27,0,.27-.15A.59.59,0,0,0,101,124.29Z"/></g><g class="cls-9"><g class="cls-9"><g class="cls-82"><g class="cls-9"><path class="cls-1" d="M100.77,124.49l.23-.13-.07,0-.23.13.07,0Z"/><path class="cls-1" d="M100.7,124.46l.23-.13a.13.13,0,0,0-.09,0l-.23.13a.13.13,0,0,1,.09,0Z"/><polygon class="cls-75" points="100.61 124.47 100.83 124.34 100.83 124.34 100.6 124.48 100.61 124.47 100.61 124.47"/></g></g></g><g class="cls-9"><g class="cls-83"><g class="cls-9"><path class="cls-75" d="M100.93,125l.23-.13a.16.16,0,0,0,.07-.15.44.44,0,0,0,0-.17l-.23.13a.44.44,0,0,1,0,.17.16.16,0,0,1-.07.15Z"/><path class="cls-1" d="M101,124.71l.23-.13a.56.56,0,0,0-.08-.13l-.23.13a.56.56,0,0,1,.08.13Z"/><path class="cls-2" d="M100.88,124.59l.23-.13a.42.42,0,0,0-.11-.1l-.23.13a.42.42,0,0,1,.11.1Z"/></g></g></g><path class="cls-81" d="M100.77,124.49c-.13-.07-.23,0-.23.13a.51.51,0,0,0,.23.4c.13.07.23,0,.23-.13A.51.51,0,0,0,100.77,124.49Z"/></g><path class="cls-1" d="M98.72,125.66a2.12,2.12,0,0,0,2.72-1.51c.53-1.6-.31-3.31-2.24-3.16a2,2,0,0,0-1.9,2A2.36,2.36,0,0,0,98.72,125.66Z"/><path class="cls-5" d="M97.37,122.88a2.81,2.81,0,0,1,.34-1.08l.05-.08a2.4,2.4,0,0,1,2.52,1.47c.2.69.12,1.7-.54,2a1.78,1.78,0,0,1-2-.44,2.13,2.13,0,0,1-.2-.29A2.88,2.88,0,0,1,97.37,122.88Z"/><path class="cls-3" d="M97.31,123a2.78,2.78,0,0,1,.4-1.15,2.38,2.38,0,0,1,2.51,1.46c.2.69.12,1.7-.54,2a1.78,1.78,0,0,1-2-.44,2.14,2.14,0,0,1-.2-.29A2.88,2.88,0,0,1,97.31,123Z"/><g class="cls-9"><g class="cls-9"><path class="cls-8" d="M92.07,141.9v.26a.31.31,0,0,0,.18.26,1,1,0,0,0,.89,0,.31.31,0,0,0,.19-.26v-.26a.31.31,0,0,1-.19.26,1,1,0,0,1-.89,0A.31.31,0,0,1,92.07,141.9Z"/><g class="cls-84"><g class="cls-9"><path class="cls-8" d="M92.07,141.9v.26a.26.26,0,0,0,.08.18v-.26a.26.26,0,0,1-.08-.18Z"/><path class="cls-8" d="M92.15,142.08v.26l.1.08.14.06v-.26l-.14-.06-.1-.08Z"/><path class="cls-1" d="M92.39,142.22v.26a1,1,0,0,0,.35,0v-.26a1,1,0,0,1-.35,0Z"/><path class="cls-8" d="M92.74,142.26v.26a1,1,0,0,0,.31-.06v-.26a1,1,0,0,1-.31.06Z"/><path class="cls-8" d="M93.05,142.2v.26l.09,0a.31.31,0,0,0,.19-.26v-.26a.31.31,0,0,1-.19.26l-.09,0Z"/></g></g></g><path class="cls-6" d="M92.26,141.64a.27.27,0,0,0,0,.51,1,1,0,0,0,.89,0,.27.27,0,0,0,0-.51A1,1,0,0,0,92.26,141.64Z"/></g><g class="cls-9"><g class="cls-9"><path class="cls-8" d="M92.43,120.86v21a.13.13,0,0,0,.08.11.42.42,0,0,0,.38,0,.14.14,0,0,0,.08-.11v-21a.14.14,0,0,1-.08.11.42.42,0,0,1-.38,0A.13.13,0,0,1,92.43,120.86Z"/><g class="cls-85"><g class="cls-9"><path class="cls-8" d="M92.43,120.86v21a.11.11,0,0,0,0,.08v-21a.11.11,0,0,1,0-.08Z"/><path class="cls-8" d="M92.46,120.94v21l0,0,.06,0V121l-.06,0,0,0Z"/><path class="cls-1" d="M92.57,121v21l.15,0V121l-.15,0Z"/><path class="cls-8" d="M92.72,121v21l.14,0V121l-.14,0Z"/><path class="cls-8" d="M92.85,121v21l0,0a.14.14,0,0,0,.08-.11v-21a.14.14,0,0,1-.08.11l0,0Z"/></g></g></g><path class="cls-6" d="M92.51,120.75a.12.12,0,0,0,0,.22.42.42,0,0,0,.38,0,.12.12,0,0,0,0-.22A.42.42,0,0,0,92.51,120.75Z"/></g><path class="cls-86" d="M83.21,122.88c3.55.11,5.8,3.92,9.36,4v-5.77c-3.55-.11-5.8-3.92-9.36-4Z"/><g class="cls-9"><polygon class="cls-75" points="99.45 131.09 100.14 130.69 100.15 128.65 99.46 129.05 99.45 131.09"/><polygon class="cls-2" points="99.46 129.05 100.15 128.65 97.88 127.34 97.19 127.74 99.46 129.05"/><polygon class="cls-8" points="97.19 127.74 97.18 129.78 99.45 131.09 99.46 129.05 97.19 127.74"/></g><path class="cls-7" d="M99.9,123.34a.47.47,0,0,1-.07.39.39.39,0,0,1-.33.12.85.85,0,0,1-.34-.12,1.19,1.19,0,0,1-.59-.69.46.46,0,0,1,.59-.58A1.26,1.26,0,0,1,99.9,123.34Z"/><path class="cls-78" d="M103.79,129.17c0,.14,0,.27,0,.39a1.77,1.77,0,0,1-.69.3,1.65,1.65,0,0,1-1-.06l-.1-.34A1.87,1.87,0,0,0,103.79,129.17Z"/><path class="cls-75" d="M93.35,129.65l-.13.08a.7.7,0,0,1-.7,0,.12.12,0,0,1-.06-.1c0-.1.15-.09.21-.1a1,1,0,0,0,.29-.1.1.1,0,0,0,.06-.07A1.05,1.05,0,0,1,93.35,129.65Z"/><path class="cls-2" d="M87.67,120.52a2.13,2.13,0,0,1,.46.26,2.46,2.46,0,0,1,.61.63,1.1,1.1,0,0,1,.21,1.06c-.13.28-.41.37-.78.31l-.17,0,0,.55-.24-.12,0,0,0-.26,0-.24-.59-.29c0-.06,0-.12,0-.18s0,0,0,0l.44.22,0,0-.06-.72-.19,0a.51.51,0,0,0-.56.25.68.68,0,0,0,0,.58,1.85,1.85,0,0,0,.74.8,1.45,1.45,0,0,0,.59.22.56.56,0,0,0,.53-.16,1.22,1.22,0,0,0,.09-.14l.26.13h0a.54.54,0,0,1-.43.42,1.47,1.47,0,0,1-1.09-.26,2.45,2.45,0,0,1-.72-.67,1.35,1.35,0,0,1-.31-1,.53.53,0,0,1,.34-.44,1,1,0,0,1,.66,0s0,0,0,0,0-.07,0-.1l0-.28s0-.09,0-.14l.25.12,0,.52.57.28-.05.21-.5-.24.06.71a.75.75,0,0,0,.54,0,.44.44,0,0,0,.22-.48,1.29,1.29,0,0,0-.35-.7,1.84,1.84,0,0,0-.88-.58.64.64,0,0,0-.73.14h0l-.27-.13,0-.06.07-.09A1,1,0,0,1,87.67,120.52Z"/><path class="cls-2" d="M87.07,123.53a4,4,0,0,1-.62-.72A3.64,3.64,0,0,1,86,122a2.53,2.53,0,0,1-.15-.83,1.44,1.44,0,0,1,.15-.68,1,1,0,0,1,.42-.42,1.17,1.17,0,0,1,.62-.12,2,2,0,0,1,.76.22,3.25,3.25,0,0,1,.76.52,4,4,0,0,1,.62.72,3.64,3.64,0,0,1,.42.82,2.53,2.53,0,0,1,.15.83,1.44,1.44,0,0,1-.15.68,1,1,0,0,1-.42.42,1.17,1.17,0,0,1-.62.12,2,2,0,0,1-.76-.22A3.25,3.25,0,0,1,87.07,123.53Zm-1-2.28a3.25,3.25,0,0,0,1.75,2.61c1,.47,1.75.07,1.75-.9a3.25,3.25,0,0,0-1.75-2.61C86.86,119.88,86.08,120.28,86.08,121.25Z"/><g id="rover"><path class="cls-71" d="M64.78,110.18c-3.29,1.9-3.29,5,0,6.87a13.15,13.15,0,0,0,11.9,0c3.29-1.9,3.29-5,0-6.87A13.15,13.15,0,0,0,64.78,110.18Z"/><g class="cls-9"><path class="cls-3" d="M75,112.38l.74-.43a.51.51,0,0,1,.52.05l-.74.43A.51.51,0,0,0,75,112.38Z"/><g class="cls-87"><path class="cls-3" d="M75,112.38l.74-.43a.38.38,0,0,1,.22,0l-.74.43a.38.38,0,0,0-.22,0Z"/><path class="cls-3" d="M75.24,112.34l.74-.43.15,0-.74.43-.15,0Z"/><path class="cls-3" d="M75.39,112.37l.74-.43.14.07-.74.43-.14-.07Z"/></g></g><g class="cls-9"><path class="cls-3" d="M76.78,113.72l-.74.43a.51.51,0,0,0,.21-.47,1.59,1.59,0,0,0-.72-1.25l.74-.43a1.59,1.59,0,0,1,.72,1.25A.51.51,0,0,1,76.78,113.72Z"/><g class="cls-88"><polygon class="cls-3" points="75.53 112.44 76.27 112.01 76.27 112.01 75.54 112.44 75.53 112.44 75.53 112.44"/><path class="cls-3" d="M75.54,112.44l.74-.43.16.12-.74.43-.16-.12Z"/><path class="cls-7" d="M75.7,112.55l.74-.43a1.7,1.7,0,0,1,.49.75l-.74.43a1.7,1.7,0,0,0-.49-.75Z"/><path class="cls-3" d="M76.19,113.31l.74-.43a1.39,1.39,0,0,1,0,.21l-.74.43a1.39,1.39,0,0,0,0-.21Z"/><path class="cls-3" d="M76.24,113.51l.74-.43a1.09,1.09,0,0,1,0,.18h0l-.74.43h0a1.11,1.11,0,0,0,0-.18Z"/><path class="cls-3" d="M76.25,113.69l.74-.43a.8.8,0,0,1,0,.17l-.74.43a.8.8,0,0,0,0-.17Z"/><path class="cls-3" d="M76.23,113.86l.74-.43a.43.43,0,0,1-.19.29l-.74.43a.43.43,0,0,0,.19-.29Z"/></g></g><path class="cls-5" d="M75.53,112.43a1.59,1.59,0,0,1,.72,1.25c0,.46-.33.65-.73.41a1.59,1.59,0,0,1-.72-1.25C74.8,112.39,75.13,112.2,75.53,112.43Z"/><path class="cls-7" d="M76.16,113.69a.52.52,0,0,1-.08.3.27.27,0,0,1-.23.12.57.57,0,0,1-.28-.09,1.49,1.49,0,0,1-.67-1.17c0-.23.09-.37.23-.41h.07a.57.57,0,0,1,.28.09A1.49,1.49,0,0,1,76.16,113.69Z"/><path class="cls-3" d="M76.16,113.69a.52.52,0,0,1-.08.3H76a.57.57,0,0,1-.28-.09,1.49,1.49,0,0,1-.67-1.17.53.53,0,0,1,.08-.3h.07a.57.57,0,0,1,.28.09A1.49,1.49,0,0,1,76.16,113.69Z"/><g class="cls-9"><g class="cls-9"><g class="cls-89"><g class="cls-9"><path class="cls-6" d="M75.63,112.71l.09-.05-.13-.05-.09.05.13.05Z"/><path class="cls-6" d="M75.5,112.66l.09-.05a.24.24,0,0,0-.16,0l-.09.05a.24.24,0,0,1,.16,0Z"/><polygon class="cls-6" points="75.34 112.67 75.43 112.62 75.42 112.63 75.33 112.68 75.34 112.67 75.34 112.67"/></g></g></g><g class="cls-9"><g class="cls-90"><g class="cls-9"><path class="cls-6" d="M75.93,113.7l.09-.05a.29.29,0,0,0,.12-.27.79.79,0,0,0-.08-.32l-.09.05a.79.79,0,0,1,.08.32.29.29,0,0,1-.12.27Z"/><path class="cls-6" d="M76,113.11l.09-.05a1,1,0,0,0-.14-.23l-.09.05a1,1,0,0,1,.14.23Z"/><path class="cls-6" d="M75.84,112.88l.09-.05a.76.76,0,0,0-.2-.18l-.09.05a.76.76,0,0,1,.2.18Z"/></g></g></g><path class="cls-8" d="M75.63,112.71c-.23-.13-.42,0-.42.24a.92.92,0,0,0,.42.72c.23.13.42,0,.42-.24A.92.92,0,0,0,75.63,112.71Z"/><path class="cls-3" d="M75.76,113.26h0a.08.08,0,0,1-.12.07h0l-.05,0a.31.31,0,0,1-.07-.13.23.23,0,0,1,0-.06v0a.07.07,0,0,1,.11-.06h0l0,0a.31.31,0,0,1,.07.12A.22.22,0,0,1,75.76,113.26Z"/></g><path class="cls-5" d="M75.53,112.43c-.4-.23-.73,0-.73.41a1.59,1.59,0,0,0,.72,1.25c.4.23.73,0,.73-.41A1.59,1.59,0,0,0,75.53,112.43Zm.55,1.55a.27.27,0,0,1-.23.12.57.57,0,0,1-.28-.09,1.49,1.49,0,0,1-.67-1.17c0-.23.09-.37.23-.41h.07a.57.57,0,0,1,.28.09,1.49,1.49,0,0,1,.68,1.17A.52.52,0,0,1,76.08,114Z"/><g class="cls-9"><polygon class="cls-3" points="66.77 108.61 66.97 108.49 67.33 108.9 67.13 109.02 66.77 108.61"/><polygon class="cls-7" points="67.13 109.02 67.33 108.9 67.28 109 67.08 109.12 67.13 109.02"/><polygon class="cls-7" points="66.77 108.61 67.13 109.02 67.08 109.12 66.72 108.72 66.77 108.61"/></g><g class="cls-9"><polygon class="cls-3" points="68.03 107.87 68.22 107.75 68.58 108.15 68.39 108.27 68.03 107.87"/><polygon class="cls-7" points="68.39 108.27 68.58 108.15 68.53 108.25 68.34 108.37 68.39 108.27"/><polygon class="cls-7" points="68.03 107.87 68.39 108.27 68.34 108.37 67.98 107.97 68.03 107.87"/></g><path class="cls-3" d="M73.41,109.41l-.07,0-1.92-1.11a.13.13,0,1,1,.13-.23l1.92,1.11a.13.13,0,0,1-.07.25Z"/><path class="cls-5" d="M74.18,110.66a.13.13,0,0,1-.12-.07l-.68-1.16a.13.13,0,0,1,.23-.14l.68,1.16a.13.13,0,0,1,0,.18Z"/><path class="cls-5" d="M72,110.15a.11.11,0,0,1-.11-.11v-1.47a.11.11,0,0,1,.22,0V110A.11.11,0,0,1,72,110.15Z"/><g class="cls-9"><g class="cls-9"><g class="cls-91"><g class="cls-9"><path class="cls-92" d="M72.33,108.26v0Z"/><path class="cls-8" d="M72.33,108.28v.35a.18.18,0,0,1-.07.11v-.35a.18.18,0,0,0,.07-.11Z"/><path class="cls-93" d="M72.26,108.4v.35h0l-.06,0v-.35l.06,0Z"/><path class="cls-8" d="M72.2,108.43v.35a.34.34,0,0,1-.16,0v-.35a.34.34,0,0,0,.16,0Z"/><path class="cls-92" d="M72,108.46v.35a.3.3,0,0,1-.15-.06.18.18,0,0,1-.08-.14v-.35a.18.18,0,0,0,.08.14.3.3,0,0,0,.15.06Z"/></g></g></g><path class="cls-94" d="M72.25,108.12a.16.16,0,0,1,0,.28.33.33,0,0,1-.37,0,.16.16,0,0,1,0-.28A.33.33,0,0,1,72.25,108.12Z"/></g><g class="cls-9"><path class="cls-3" d="M72.34,111.44l.74-.43a.51.51,0,0,1,.52.05l-.74.43A.51.51,0,0,0,72.34,111.44Z"/><g class="cls-95"><path class="cls-3" d="M72.34,111.44l.74-.43a.38.38,0,0,1,.22,0l-.74.43a.38.38,0,0,0-.22,0Z"/><path class="cls-3" d="M72.56,111.39l.74-.43.15,0-.74.43-.15,0Z"/><path class="cls-3" d="M72.72,111.43l.74-.43.14.07-.74.43-.14-.07Z"/></g></g><g class="cls-9"><path class="cls-3" d="M74.1,112.78l-.74.43a.51.51,0,0,0,.21-.47,1.59,1.59,0,0,0-.72-1.25l.74-.43a1.59,1.59,0,0,1,.72,1.25A.51.51,0,0,1,74.1,112.78Z"/><g class="cls-96"><polygon class="cls-3" points="72.86 111.49 73.59 111.06 73.6 111.07 72.86 111.5 72.86 111.49 72.86 111.49"/><path class="cls-3" d="M72.86,111.5l.74-.43.16.12-.74.43-.16-.12Z"/><path class="cls-7" d="M73,111.61l.74-.43a1.7,1.7,0,0,1,.49.75l-.74.43a1.7,1.7,0,0,0-.49-.75Z"/><path class="cls-3" d="M73.52,112.36l.74-.43a1.4,1.4,0,0,1,0,.21l-.74.43a1.39,1.39,0,0,0,0-.21Z"/><path class="cls-3" d="M73.57,112.57l.74-.43a1.11,1.11,0,0,1,0,.18h0l-.74.43h0a1.09,1.09,0,0,0,0-.18Z"/><path class="cls-3" d="M73.58,112.75l.74-.43a.8.8,0,0,1,0,.17l-.74.43a.8.8,0,0,0,0-.17Z"/><path class="cls-3" d="M73.56,112.92l.74-.43a.43.43,0,0,1-.19.29l-.74.43a.43.43,0,0,0,.19-.29Z"/></g></g><path class="cls-5" d="M72.86,111.49a1.59,1.59,0,0,1,.72,1.25c0,.46-.33.65-.73.41a1.59,1.59,0,0,1-.72-1.25C72.13,111.45,72.46,111.26,72.86,111.49Z"/><path class="cls-7" d="M73.48,112.74a.52.52,0,0,1-.08.3.27.27,0,0,1-.23.12.57.57,0,0,1-.28-.09,1.49,1.49,0,0,1-.67-1.17c0-.23.09-.37.23-.41h.07a.57.57,0,0,1,.28.09A1.49,1.49,0,0,1,73.48,112.74Z"/><path class="cls-3" d="M73.48,112.74a.52.52,0,0,1-.08.3h-.07a.57.57,0,0,1-.28-.09,1.49,1.49,0,0,1-.67-1.17.53.53,0,0,1,.08-.3h.07a.57.57,0,0,1,.28.09A1.49,1.49,0,0,1,73.48,112.74Z"/><g class="cls-9"><g class="cls-9"><g class="cls-97"><g class="cls-9"><path class="cls-6" d="M73,111.76l.09-.05-.13-.05-.09.05.13.05Z"/><path class="cls-6" d="M72.83,111.71l.09-.05a.24.24,0,0,0-.16,0l-.09.05a.24.24,0,0,1,.16,0Z"/><polygon class="cls-6" points="72.67 111.73 72.76 111.68 72.75 111.69 72.66 111.74 72.67 111.73 72.67 111.73"/></g></g></g><g class="cls-9"><g class="cls-98"><g class="cls-9"><path class="cls-6" d="M73.26,112.76l.09-.05a.29.29,0,0,0,.12-.27.79.79,0,0,0-.08-.32l-.09.05a.79.79,0,0,1,.08.32.29.29,0,0,1-.12.27Z"/><path class="cls-6" d="M73.31,112.17l.09-.05a1,1,0,0,0-.14-.23l-.09.05a1,1,0,0,1,.14.23Z"/><path class="cls-6" d="M73.16,111.94l.09-.05a.76.76,0,0,0-.2-.18l-.09.05a.76.76,0,0,1,.2.18Z"/></g></g></g><path class="cls-8" d="M73,111.76c-.23-.13-.42,0-.42.24a.92.92,0,0,0,.42.72c.23.13.42,0,.42-.24A.92.92,0,0,0,73,111.76Z"/></g><path class="cls-5" d="M72.86,111.49c-.4-.23-.73,0-.73.41a1.59,1.59,0,0,0,.72,1.25c.4.23.73,0,.73-.41A1.59,1.59,0,0,0,72.86,111.49Zm.55,1.55a.27.27,0,0,1-.23.12.57.57,0,0,1-.28-.09,1.49,1.49,0,0,1-.67-1.17c0-.23.09-.37.23-.41h.07a.57.57,0,0,1,.28.09,1.49,1.49,0,0,1,.68,1.17A.52.52,0,0,1,73.41,113Z"/><g class="cls-9"><path class="cls-3" d="M69.77,110l.74-.43a.51.51,0,0,1,.52.05l-.74.43A.51.51,0,0,0,69.77,110Z"/><g class="cls-99"><path class="cls-3" d="M69.77,110l.74-.43a.38.38,0,0,1,.22,0l-.74.43a.38.38,0,0,0-.22,0Z"/><path class="cls-3" d="M70,109.95l.74-.43.15,0-.74.43-.15,0Z"/><path class="cls-3" d="M70.15,110l.74-.43.14.07-.74.43-.14-.07Z"/></g></g><g class="cls-9"><path class="cls-3" d="M71.54,111.34l-.74.43a.51.51,0,0,0,.21-.47,1.59,1.59,0,0,0-.72-1.25l.74-.43a1.59,1.59,0,0,1,.72,1.25A.51.51,0,0,1,71.54,111.34Z"/><g class="cls-100"><polygon class="cls-3" points="70.29 110.05 71.02 109.62 71.03 109.62 70.3 110.05 70.29 110.05 70.29 110.05"/><path class="cls-3" d="M70.29,110.05l.74-.43.16.12-.74.43-.16-.12Z"/><path class="cls-7" d="M70.46,110.17l.74-.43a1.69,1.69,0,0,1,.49.75l-.74.43a1.7,1.7,0,0,0-.49-.75Z"/><path class="cls-3" d="M70.95,110.92l.74-.43a1.39,1.39,0,0,1,0,.21l-.74.43a1.4,1.4,0,0,0,0-.21Z"/><path class="cls-3" d="M71,111.12l.74-.43a1.11,1.11,0,0,1,0,.18h0l-.74.43h0a1.11,1.11,0,0,0,0-.18Z"/><path class="cls-3" d="M71,111.3l.74-.43a.8.8,0,0,1,0,.17l-.74.43a.8.8,0,0,0,0-.17Z"/><path class="cls-3" d="M71,111.47l.74-.43a.43.43,0,0,1-.19.29l-.74.43a.43.43,0,0,0,.19-.29Z"/></g></g><path class="cls-5" d="M70.29,110A1.59,1.59,0,0,1,71,111.3c0,.46-.33.65-.73.41a1.59,1.59,0,0,1-.72-1.25C69.56,110,69.89,109.81,70.29,110Z"/><path class="cls-7" d="M70.91,111.3a.53.53,0,0,1-.08.3.27.27,0,0,1-.23.12.57.57,0,0,1-.28-.09,1.49,1.49,0,0,1-.67-1.17c0-.23.09-.37.23-.41H70a.57.57,0,0,1,.28.09A1.49,1.49,0,0,1,70.91,111.3Z"/><path class="cls-3" d="M70.91,111.3a.53.53,0,0,1-.08.3h-.07a.57.57,0,0,1-.28-.09,1.49,1.49,0,0,1-.67-1.17.53.53,0,0,1,.08-.3H70a.57.57,0,0,1,.28.09A1.49,1.49,0,0,1,70.91,111.3Z"/><g class="cls-9"><g class="cls-9"><g class="cls-101"><g class="cls-9"><path class="cls-6" d="M70.39,110.32l.09-.05-.13,0-.09.05.13.05Z"/><path class="cls-6" d="M70.26,110.27l.09-.05a.24.24,0,0,0-.16,0l-.09.05a.24.24,0,0,1,.16,0Z"/><polygon class="cls-6" points="70.1 110.29 70.19 110.23 70.18 110.24 70.09 110.29 70.1 110.29 70.1 110.29"/></g></g></g><g class="cls-9"><g class="cls-102"><g class="cls-9"><path class="cls-6" d="M70.69,111.31l.09-.05a.29.29,0,0,0,.12-.27.79.79,0,0,0-.08-.32l-.09.05a.79.79,0,0,1,.08.32.29.29,0,0,1-.12.27Z"/><path class="cls-6" d="M70.74,110.72l.09-.05a1,1,0,0,0-.14-.23l-.09.05a1,1,0,0,1,.14.23Z"/><path class="cls-6" d="M70.59,110.49l.09-.05a.77.77,0,0,0-.2-.18l-.09.05a.76.76,0,0,1,.2.18Z"/></g></g></g><path class="cls-8" d="M70.39,110.32c-.23-.13-.42,0-.42.24a.92.92,0,0,0,.42.72c.23.13.42,0,.42-.24A.92.92,0,0,0,70.39,110.32Z"/></g><path class="cls-5" d="M70.29,110c-.4-.23-.73,0-.73.41a1.59,1.59,0,0,0,.72,1.25c.4.23.73,0,.73-.41A1.59,1.59,0,0,0,70.29,110Zm.55,1.55a.27.27,0,0,1-.23.12.57.57,0,0,1-.28-.09,1.49,1.49,0,0,1-.67-1.17c0-.23.09-.37.23-.41H70a.57.57,0,0,1,.28.09,1.49,1.49,0,0,1,.68,1.17A.53.53,0,0,1,70.84,111.6Z"/><g class="cls-9"><g class="cls-9"><g class="cls-103"><g class="cls-9"><path class="cls-1" d="M73.4,109l.07,0-.11,0-.07,0,.11,0Z"/><path class="cls-1" d="M73.29,108.95l.07,0a.2.2,0,0,0-.13,0l-.07,0a.2.2,0,0,1,.13,0Z"/><polygon class="cls-75" points="73.16 108.96 73.22 108.92 73.22 108.92 73.15 108.97 73.16 108.96 73.16 108.96"/></g></g></g><g class="cls-9"><g class="cls-104"><g class="cls-9"><path class="cls-75" d="M73.65,109.8l.07,0a.24.24,0,0,0,.1-.22.65.65,0,0,0-.06-.26l-.07,0a.65.65,0,0,1,.06.26.24.24,0,0,1-.1.22Z"/><path class="cls-1" d="M73.68,109.32l.07,0a.84.84,0,0,0-.12-.19l-.07,0a.83.83,0,0,1,.12.19Z"/><path class="cls-1" d="M73.57,109.13l.07,0a.63.63,0,0,0-.17-.14l-.07,0a.63.63,0,0,1,.17.14Z"/></g></g></g><path class="cls-81" d="M73.4,109c-.19-.11-.35,0-.34.2a.76.76,0,0,0,.35.59c.19.11.35,0,.34-.2A.76.76,0,0,0,73.4,109Z"/></g><path class="cls-3" d="M71.37,110.75a.19.19,0,0,1-.1-.36l1.92-1.11a.19.19,0,0,1,.19.33l-1.92,1.11Z"/><path class="cls-5" d="M75,112.08v1.38a.13.13,0,0,0,.27,0v-1.38Z"/><path class="cls-5" d="M75.09,112a.13.13,0,0,1-.11-.05l-2-2.65a.13.13,0,0,1,.21-.16l2,2.65a.13.13,0,0,1,0,.19Z"/><g class="cls-9"><g class="cls-9"><g class="cls-105"><g class="cls-9"><path class="cls-92" d="M75.41,111.91v0Z"/><path class="cls-8" d="M75.41,111.93v.35a.18.18,0,0,1-.07.11V112a.18.18,0,0,0,.07-.11Z"/><path class="cls-93" d="M75.33,112v.35h0l-.06,0v-.35l.06,0Z"/><path class="cls-8" d="M75.27,112.08v.35a.34.34,0,0,1-.16,0v-.35a.34.34,0,0,0,.16,0Z"/><path class="cls-92" d="M75.11,112.1v.35a.3.3,0,0,1-.15-.06.18.18,0,0,1-.08-.14v-.35A.18.18,0,0,0,75,112a.3.3,0,0,0,.15.06Z"/></g></g></g><path class="cls-94" d="M75.33,111.77a.16.16,0,0,1,0,.28.33.33,0,0,1-.37,0,.16.16,0,0,1,0-.28A.33.33,0,0,1,75.33,111.77Z"/></g><g class="cls-9"><g class="cls-9"><g class="cls-106"><g class="cls-9"><path class="cls-1" d="M68.45,113l.92-.54-.13-.05-.92.54.13.05Z"/><path class="cls-1" d="M68.32,113l.92-.54a.24.24,0,0,0-.16,0l-.92.54a.24.24,0,0,1,.16,0Z"/><polygon class="cls-75" points="68.16 112.99 69.08 112.45 69.07 112.46 68.15 113 68.16 112.99 68.16 112.99"/></g></g></g><g class="cls-9"><g class="cls-107"><g class="cls-9"><path class="cls-75" d="M68.76,114l.92-.54a.3.3,0,0,0,.12-.27.8.8,0,0,0-.08-.32l-.92.54a.8.8,0,0,1,.08.32.3.3,0,0,1-.12.27Z"/><path class="cls-1" d="M68.8,113.43l.92-.54a1,1,0,0,0-.14-.23l-.92.54a1,1,0,0,1,.14.23Z"/><path class="cls-1" d="M68.66,113.2l.92-.54a.77.77,0,0,0-.21-.18l-.92.54a.77.77,0,0,1,.21.18Z"/></g></g></g><path class="cls-81" d="M68.45,113c-.23-.13-.42,0-.42.25a.93.93,0,0,0,.43.73c.23.13.42,0,.42-.25A.93.93,0,0,0,68.45,113Z"/></g><g class="cls-9"><g class="cls-9"><g class="cls-108"><g class="cls-9"><path class="cls-1" d="M68,113.34l.36-.21-.11,0-.36.21.11,0Z"/><path class="cls-1" d="M67.92,113.29l.36-.21a.21.21,0,0,0-.14,0l-.36.21a.21.21,0,0,1,.14,0Z"/><polygon class="cls-75" points="67.77 113.31 68.13 113.1 68.13 113.11 67.77 113.31 67.77 113.31 67.77 113.31"/></g></g></g><g class="cls-9"><g class="cls-109"><g class="cls-9"><path class="cls-75" d="M68.29,114.2l.36-.21a.26.26,0,0,0,.1-.24.69.69,0,0,0-.07-.28l-.36.21a.69.69,0,0,1,.07.28.26.26,0,0,1-.1.24Z"/><path class="cls-1" d="M68.33,113.69l.36-.21a.89.89,0,0,0-.12-.2l-.36.21a.88.88,0,0,1,.12.2Z"/><path class="cls-1" d="M68.21,113.49l.36-.21a.67.67,0,0,0-.18-.15l-.36.21a.67.67,0,0,1,.18.15Z"/></g></g></g><path class="cls-81" d="M68,113.34c-.2-.12-.37,0-.37.21a.8.8,0,0,0,.37.63c.2.12.37,0,.37-.21A.8.8,0,0,0,68,113.34Z"/></g><g class="cls-9"><g class="cls-9"><g class="cls-110"><g class="cls-9"><path class="cls-75" d="M72.28,114l-.95-.55a.15.15,0,0,0-.1,0l.95.55a.15.15,0,0,1,.1,0Z"/><path class="cls-1" d="M72.18,114l-.95-.55-.07,0,.95.55.07,0Z"/><path class="cls-1" d="M72.11,114l-.95-.55h0l.95.55Z"/></g></g></g><g class="cls-9"><g class="cls-111"><g class="cls-9"><path class="cls-1" d="M72.09,114l-.95-.55,0,0,.95.55,0,0Z"/><path class="cls-1" d="M72,114.06l-.95-.55a.63.63,0,0,0-.21.32l.95.55a.63.63,0,0,1,.21-.32Z"/><path class="cls-1" d="M71.84,114.38l-.95-.55a.48.48,0,0,0,0,.09l.95.55a.48.48,0,0,1,0-.09Z"/><path class="cls-1" d="M71.82,114.47l-.95-.55s0,0,0,0a.32.32,0,0,0,0,0l.95.55a.32.32,0,0,1,0,0s0,0,0,0Z"/><path class="cls-75" d="M71.82,114.55l-.95-.55a.17.17,0,0,0,.08.13l.95.55a.17.17,0,0,1-.08-.13Z"/></g></g></g><path class="cls-6" d="M72.09,114a.6.6,0,0,0-.27.47c0,.17.12.24.27.15a.6.6,0,0,0,.27-.47C72.36,114,72.24,113.94,72.09,114Z"/></g><g class="cls-9"><polygon class="cls-112" points="74.59 110.13 74.59 111.69 74.52 113.05 74.52 111.49 74.59 110.13"/><polygon class="cls-6" points="74.52 111.49 74.52 113.05 72.8 114.05 72.8 112.49 74.52 111.49"/><polygon class="cls-6" points="72.8 112.49 72.8 114.05 70.44 114.1 70.44 112.54 72.8 112.49"/><polygon class="cls-6" points="70.44 112.54 70.44 114.1 66.77 111.98 66.77 110.42 70.44 112.54"/><polygon class="cls-8" points="74.59 110.13 74.52 111.49 72.8 112.49 70.44 112.54 66.77 110.42 66.84 109.05 68.56 108.05 70.92 108 74.59 110.13"/></g><g class="cls-9"><polygon class="cls-6" points="72.65 109.48 72.65 109.66 70.18 106.12 70.18 105.94 72.65 109.48"/><polygon class="cls-6" points="74.08 111.2 74.07 111.37 72.36 110.38 72.36 110.2 74.08 111.2"/><polygon class="cls-6" points="76.77 109.58 76.77 109.75 74.07 111.37 74.08 111.2 76.77 109.58"/><polygon class="cls-1" points="73.54 105.23 76.77 109.58 74.08 111.2 72.36 110.2 72.65 109.48 70.18 105.94 73.54 105.23"/><polygon class="cls-113" points="76.63 109.55 76.52 109.62 75.57 110.19 75.35 110.32 75.33 110.33 74.9 110.59 74.88 110.6 74.45 110.86 74.43 110.87 74.07 111.08 74.04 111.07 74.03 111.06 73.58 110.8 73.56 110.79 73.12 110.54 73.1 110.53 72.66 110.27 72.64 110.26 72.48 110.16 72.61 109.83 72.62 109.81 72.64 109.75 72.66 109.72 72.76 109.47 72.65 109.31 72.62 109.28 72.6 109.24 72.59 109.23 72.33 108.86 72.32 108.85 72.07 108.49 72.06 108.47 72.03 108.42 72 108.39 71.81 108.11 71.79 108.09 71.54 107.73 71.53 107.71 71.4 107.53 71.38 107.49 71.28 107.35 71.27 107.33 71.01 106.97 71 106.95 70.78 106.64 70.76 106.6 70.75 106.59 70.74 106.58 70.48 106.21 70.47 106.2 70.34 106.01 70.53 105.97 70.56 105.96 71.06 105.86 71.12 105.84 71.21 105.82 71.24 105.82 71.88 105.68 71.91 105.68 72.51 105.55 72.59 105.53 73.23 105.4 73.26 105.39 73.5 105.34 73.59 105.46 73.6 105.47 73.75 105.67 73.78 105.71 73.87 105.83 73.88 105.85 74.14 106.2 74.16 106.22 74.42 106.58 74.43 106.59 74.44 106.61 74.47 106.64 74.7 106.95 74.71 106.96 74.97 107.32 74.98 107.33 75.13 107.54 75.16 107.57 75.25 107.69 75.26 107.71 75.53 108.06 75.54 108.08 75.8 108.44 75.81 108.45 75.82 108.47 75.85 108.5 76.08 108.81 76.09 108.82 76.35 109.18 76.36 109.2 76.51 109.4 76.54 109.44 76.63 109.55"/></g><path class="cls-114" d="M75.81,109.52l.44-.25.3.17,0,0-.25-.14.1-.06v0l-.11.06-.44-.25.28-.16v0l-.29.17-.44-.25.44-.25.07,0,0,0h0v0h0l-.44-.25.19-.11v0l-.2.11-.44-.25.38-.22v0l-.38.22-.44-.25.44-.25.3.17,0,0-.25-.14.1-.06v0l-.11.06-.44-.25.28-.16v0l-.29.17-.44-.25.44-.25.07,0,0,0h0v0h0l-.44-.25.19-.11v0l-.2.12-.44-.25.38-.22v0l-.38.22L73,105.8l.44-.25.3.17,0,0-.25-.14.1-.06v0l-.11.06-.22-.13h0l.23.13-.44.25-.44-.25-.07,0-.41.24-.19-.11h0l.2.12-.44.25-.4-.23h0l.41.24-.44.25-.44-.25.38-.22h-.06l-.34.2-.16-.09h0l.17.1-.23.13v0l.24-.14.44.25-.43.25v0l.43-.25.44.25-.44.25-.43-.25,0,0,.38.22L71,107v0l.17-.1.44.25-.36.21v0l.37-.21.44.25-.44.25-.26-.15,0,0,.22.13-.09.05v0l.1-.06.44.25-.29.17v0l.3-.17.44.25-.44.25-.1-.06,0,0,.06,0h0v0l0,0,.44.25-.22.13v0l.23-.13L73,109l-.42.24v0L73,109l.44.25-.44.25-.4-.23,0,0,.36.21-.35.2v0l.38-.22.44.25L73,110l-.4-.23v0l.39.23-.36.21h0l.36-.21.44.25-.36.21h0l.36-.21.44.25-.36.21h0l.36-.21.44.25-.36.21h0l.36-.21h0l.44-.25h0l.44-.25h0l.23-.13.95-.57-.27.16Zm.42-.27-.44.25-.44-.25.44-.25Zm-1.38.27-.44.25-.44-.25.44-.25ZM74,109l.44-.25.44.25-.44.25Zm.46.27.44-.25.44.25-.44.25Zm0-.53.44-.25.44.25-.44.25Zm0,0-.44-.25.44-.25.44.25Zm-.46-.27-.44-.25.44-.25.44.25Zm-.46-.27-.44-.25.44-.25.44.25Zm0-.52.44-.25.44.25-.44.25Zm0,0-.44-.25.44-.25.44.25Zm-.46-.27-.44-.25.44-.25.44.25Zm0-.52.44-.25.44.25-.44.25Zm0,0-.44-.25.44-.25.44.25Zm-.46-.27-.44-.25.44-.25.44.25Zm0,0-.44.25-.44-.25.44-.25Zm0,0,.44.25-.44.25-.44-.25Zm.44.79-.44.25-.44-.25.44-.25Zm0,0,.44.25-.44.25-.44-.25Zm.44.79-.44.25-.44-.25.44-.25Zm0,0,.44.25-.44.25-.44-.25Zm.46.27.44.25-.44.25-.44-.25Zm.44.79-.44.25-.44-.25.44-.25Zm0,.53-.44.25-.44-.25.44-.25Zm0,0,.44.25-.44.25-.44-.25Zm0,0,.44-.25.44.25-.44.25Zm.46-.27.44-.25.44.25-.44.25Zm.88-.53-.44.25-.44-.25.44-.25Zm0-.53-.44.25-.44-.25.44-.25Zm-.46-.27-.44.25-.44-.25.44-.25Zm-.46-.27-.44.25-.44-.25.44-.25Zm0-.53-.44.25-.44-.25.44-.25Zm-.46-.27-.44.25-.44-.25.44-.25Zm0-.53-.44.25-.44-.25.44-.25Zm-.46-.27-.44.25-.44-.25.44-.25Zm-.46-.27-.44.25-.44-.25.44-.25Zm-.9-.52.44.25-.44.25-.44-.25Zm-.46.27.44.25-.44.25-.44-.25Zm-.9.52.44-.25.44.25-.44.25Zm0,.53.44-.25.44.25-.44.25Zm.46.27.44-.25.44.25-.44.25Zm0,.53.44-.25.44.25-.44.25Zm.46.27.44-.25.44.25-.44.25Zm0,.53.44-.25.44.25-.44.25Zm.46.27.44-.25.44.25L73,109ZM73,109l.44-.25.44.25-.44.25Zm0,.53.44-.25.44.25-.44.25Zm0,.53.44-.25.44.25-.44.25Zm.46.27.44-.25.44.25-.44.25Zm.9.52-.44-.25.44-.25.44.25Zm.46-.27-.44-.25.44-.25.44.25Zm.46-.27-.44-.25.44-.25.44.25Zm.46-.27-.44-.25.44-.25.44.25Z"/><g class="cls-9"><polygon class="cls-1" points="63.39 107.31 67.59 104.87 69.56 107.02 65.36 109.46 63.39 107.31"/><polygon class="cls-113" points="69.41 106.99 69.31 107.05 69.3 107.06 68.9 107.29 68.88 107.3 68.48 107.54 68.46 107.55 68.06 107.78 68.04 107.79 67.64 108.02 67.63 108.03 67.23 108.26 67.21 108.27 66.81 108.51 66.79 108.52 66.39 108.75 66.37 108.76 65.97 108.99 65.96 109 65.56 109.23 65.54 109.24 65.38 109.34 65.14 109.07 65.13 109.06 64.81 108.72 64.8 108.71 64.49 108.37 64.48 108.36 64.17 108.02 64.15 108 63.84 107.66 63.83 107.65 63.54 107.33 63.61 107.29 63.63 107.28 64.03 107.05 64.04 107.04 64.44 106.81 64.46 106.8 64.86 106.56 64.88 106.55 65.28 106.32 65.3 106.31 65.7 106.08 65.71 106.07 66.11 105.84 66.13 105.83 66.53 105.59 66.55 105.58 66.95 105.35 66.97 105.34 67.37 105.11 67.38 105.1 67.57 104.99 67.87 105.32 67.88 105.33 68.19 105.67 68.21 105.68 68.52 106.02 68.53 106.03 68.84 106.37 68.86 106.39 69.17 106.73 69.18 106.74 69.41 106.99"/><polygon class="cls-6" points="65.36 109.46 69.56 107.02 69.51 107.12 65.31 109.56 65.36 109.46"/><polygon class="cls-6" points="63.39 107.31 65.36 109.46 65.31 109.56 63.34 107.41 63.39 107.31"/></g><path class="cls-114" d="M69.07,106.8l.11-.06h0l-.11.06-.33-.33.13-.07h0l-.13.07-.33-.33.14-.08h0l-.14.08-.33-.33.16-.09h0l-.16.09-.33-.33.17-.1h0l-.17.1-.31-.32h0l.31.32-.4.23-.31-.32h0l.31.32-.4.23-.31-.32h0l.31.32-.4.23-.31-.31h0l.31.31-.4.23-.31-.31h0l.31.31-.4.23-.31-.31h0l.31.31-.4.23-.31-.31h0l.31.31-.4.23-.31-.31h0l.31.31-.4.23L64,107h0l.31.31-.4.23-.3-.31h0l.3.31-.08,0h0l.09,0,.33.33-.1.06h0l.1-.06.33.33-.12.07h0l.12-.07.33.33-.13.08h0l.13-.08.33.33-.15.09h0l.15-.09.25.26h0L65.3,109l.4-.23L66,109h0l-.25-.25.4-.23.25.25h0l-.25-.25.4-.23.25.25h0l-.25-.25L67,108l.25.25h0L67,108l.4-.23.25.25h0l-.25-.25.4-.23.25.25h0l-.25-.25.4-.23.25.25h0l-.25-.25.4-.23.24.25h0l-.24-.25.4-.23.24.25h0Zm-.37-.35-.4.23-.33-.33.4-.23Zm-1.18.14-.4.23-.33-.33.4-.23Zm-.31-.34.4-.23.33.33-.4.23Zm-.11.58-.4.23-.33-.33.4-.23Zm-.42.24-.4.23L66,107l.4-.23Zm-.42.24-.4.23-.33-.33.4-.23Zm-.42.24-.4.23-.33-.33.4-.23Zm-.42.24L65,108l-.33-.33.4-.23Zm0,0,.33.33-.4.23-.33-.33Zm0,0,.4-.23.33.33-.4.23Zm.42-.24.4-.23.33.33-.4.23Zm.42-.24.4-.23.33.33-.4.23Zm.42-.24.4-.23.33.33-.4.23Zm.42-.24.4-.23.33.33-.4.23Zm.42-.24.4-.23.33.33-.4.23Zm.81-.49-.4.23-.33-.33.4-.23Zm-.67-.67.33.33-.4.23-.33-.33Zm-.42.24.33.33-.4.23-.33-.33Zm-.42.24.33.33-.4.23-.33-.33Zm-.42.24.33.33-.4.23L66,106.4Zm-.42.24.33.33-.4.23-.33-.33Zm-.42.24.33.33-.4.23-.33-.33Zm-.42.24.33.33-.4.23-.33-.33Zm-.42.24.33.33-.4.23-.33-.33Zm-.82.47.4-.23.33.33-.4.23Zm.34.34.4-.23L65,108l-.4.23Zm.34.34.4-.23.33.33-.4.23Zm.67.67-.33-.33.4-.23.33.33Zm.42-.24-.33-.33.4-.23.33.33Zm.42-.24-.33-.33.4-.23.33.33Zm.42-.24-.33-.33.4-.23.33.33ZM67,108l-.33-.33.4-.23.33.33Zm.42-.24-.33-.33.4-.23.33.33Zm.42-.24-.33-.33.4-.23.33.33Zm.42-.24-.33-.33.4-.23.33.33Zm.42-.24-.33-.33.4-.23.33.33Z"/><g class="cls-9"><g class="cls-9"><g class="cls-115"><g class="cls-9"><path class="cls-92" d="M73,110.19v.91a.17.17,0,0,1,0,0v-.91a.17.17,0,0,0,0,0Z"/><path class="cls-8" d="M73,110.22v.91a.27.27,0,0,1-.14.17v-.91a.27.27,0,0,0,.14-.17Z"/><path class="cls-93" d="M72.89,110.39v.91h0l-.11,0v-.91l.11,0Z"/><path class="cls-8" d="M72.77,110.44v.91a.82.82,0,0,1-.32,0v-.91a.82.82,0,0,0,.32,0Z"/><path class="cls-92" d="M72.46,110.47v.91a.69.69,0,0,1-.28-.08.25.25,0,0,1-.15-.21v-.91a.25.25,0,0,0,.15.21.69.69,0,0,0,.28.08Z"/></g></g></g><path class="cls-94" d="M72.88,110a.22.22,0,0,1,0,.41.78.78,0,0,1-.71,0,.22.22,0,0,1,0-.41A.78.78,0,0,1,72.88,110Z"/></g><g class="cls-9"><g class="cls-9"><g class="cls-116"><g class="cls-9"><path class="cls-92" d="M72.92,105.15v0Z"/><path class="cls-8" d="M72.92,105.18v5a.21.21,0,0,1-.11.13v-5a.21.21,0,0,0,.11-.13Z"/><path class="cls-93" d="M72.81,105.31v5h0l-.09,0v-5l.09,0Z"/><path class="cls-8" d="M72.72,105.35v5a.65.65,0,0,1-.25,0v-5a.65.65,0,0,0,.25,0Z"/><path class="cls-92" d="M72.47,105.38v5a.55.55,0,0,1-.23-.07.2.2,0,0,1-.12-.16v-5a.2.2,0,0,0,.12.16.55.55,0,0,0,.23.07Z"/></g></g></g><path class="cls-94" d="M72.8,105a.17.17,0,0,1,0,.33.62.62,0,0,1-.56,0,.17.17,0,0,1,0-.33A.62.62,0,0,1,72.8,105Z"/></g><g class="cls-9"><g class="cls-9"><g class="cls-117"><g class="cls-9"><path class="cls-3" d="M73.7,104.52l-1-.59.31.18,1,.59-.31-.18Z"/></g></g></g><path class="cls-5" d="M71.65,107.08l-1-.59a.14.14,0,0,1-.06-.13l1,.59A.14.14,0,0,0,71.65,107.08Z"/><g class="cls-118"><g class="cls-9"><path class="cls-5" d="M71.65,107.08l-1-.59a.14.14,0,0,1-.06-.13l1,.59a.14.14,0,0,0,.06.13Z"/></g></g><polygon class="cls-5" points="71.59 106.95 70.58 106.36 70.57 105.5 71.59 106.09 71.59 106.95"/><g class="cls-9"><g class="cls-119"><g class="cls-9"><path class="cls-3" d="M71.59,106.09l-1-.59.31-.53,1,.59-.31.53Z"/></g></g></g><polygon class="cls-7" points="71.9 105.56 70.88 104.97 72.69 103.93 73.7 104.52 71.9 105.56"/><path class="cls-6" d="M73.7,104.52l.31.18v.86a.45.45,0,0,1-.2.35l-2,1.16c-.11.07-.2,0-.21-.12v-.86l.31-.53Z"/></g><g class="cls-9"><g class="cls-9"><g class="cls-120"><path class="cls-8" d="M74.21,104.82l-.51-.3.31.18.51.3-.31-.18Z"/></g></g><g class="cls-9"><path class="cls-6" d="M72.16,107.38l-.51-.3a.14.14,0,0,1-.06-.13l.51.3A.14.14,0,0,0,72.16,107.38Z"/><g class="cls-121"><g class="cls-9"><path class="cls-6" d="M72.16,107.38l-.51-.3a.14.14,0,0,1-.06-.13l.51.3a.14.14,0,0,0,.06.13Z"/></g></g></g><polygon class="cls-6" points="72.11 107.25 71.6 106.95 71.59 106.09 72.1 106.39 72.11 107.25"/><g class="cls-9"><g class="cls-122"><path class="cls-8" d="M72.1,106.39l-.51-.3.31-.53.51.3-.31.53Z"/></g></g><polygon class="cls-1" points="72.41 105.86 71.9 105.56 73.71 104.52 74.22 104.82 72.41 105.86"/><path class="cls-8" d="M74.21,104.82l.31.18v.86a.45.45,0,0,1-.2.35l-2,1.16c-.11.07-.2,0-.21-.12v-.86l.31-.53Z"/></g><g class="cls-9"><g class="cls-9"><path class="cls-6" d="M71.42,109.46v-.62a.21.21,0,0,1-.12.17v.62A.21.21,0,0,0,71.42,109.46Z"/><g class="cls-123"><g class="cls-9"><path class="cls-6" d="M71.29,109v.62a.21.21,0,0,0,.12-.17v-.62a.21.21,0,0,1-.12.17Z"/></g></g></g><g class="cls-9"><path class="cls-6" d="M67.7,109.45v.62a.21.21,0,0,0,.12.17v-.62A.21.21,0,0,1,67.7,109.45Z"/><g class="cls-124"><g class="cls-9"><path class="cls-6" d="M67.7,109.45v0Z"/><path class="cls-6" d="M67.71,109.48v.62a.22.22,0,0,0,.11.14v-.62a.22.22,0,0,1-.11-.14Z"/><polygon class="cls-6" points="67.82 109.61 67.82 110.23 67.83 110.24 67.83 109.62 67.82 109.61 67.82 109.61"/></g></g></g><polygon class="cls-6" points="67.83 109.62 67.83 110.24 68.74 110.77 68.74 110.15 67.83 109.62"/><polygon class="cls-6" points="69.33 110.15 69.33 110.77 71.29 109.63 71.29 109.01 69.33 110.15"/><g class="cls-9"><path class="cls-6" d="M68.74,110.15v.62a.65.65,0,0,0,.59,0v-.62A.65.65,0,0,1,68.74,110.15Z"/><g class="cls-125"><g class="cls-9"><path class="cls-6" d="M68.74,110.15v.62l.09,0v-.62l-.09,0Z"/><path class="cls-6" d="M68.83,110.19v.62a.69.69,0,0,0,.26,0v-.62a.69.69,0,0,1-.26,0Z"/><path class="cls-6" d="M69.09,110.21v.62a.57.57,0,0,0,.24-.07v-.62a.57.57,0,0,1-.24.07Z"/></g></g></g><path class="cls-1" d="M67.83,109.28a.18.18,0,0,0,0,.34l.91.53a.65.65,0,0,0,.59,0l2-1.13a.18.18,0,0,0,0-.34l-.91-.53a.65.65,0,0,0-.59,0Z"/></g><g class="cls-9"><polygon class="cls-6" points="73.5 113.89 72.97 113.59 72.97 112.68 73.5 112.98 73.5 113.89"/><polygon class="cls-1" points="73.5 112.98 72.97 112.68 74.12 112.01 74.64 112.31 73.5 112.98"/><polygon class="cls-81" points="74.64 112.31 74.65 113.22 73.5 113.89 73.5 112.98 74.64 112.31"/></g><path class="cls-5" d="M70.12,116.84a.13.13,0,0,1-.13-.13v-1.76a.13.13,0,1,1,.27,0v1.76A.13.13,0,0,1,70.12,116.84Z"/><path class="cls-3" d="M70.22,115.16a.13.13,0,0,1-.11-.05l-2-2.65a.13.13,0,1,1,.21-.16l2,2.65a.13.13,0,0,1,0,.19Z"/><path class="cls-3" d="M66.94,113.23a.19.19,0,0,1-.1-.36l1.92-1.11a.19.19,0,1,1,.19.33L67,113.2Z"/><path class="cls-3" d="M66.76,113.2l-.07,0-1.92-1.11a.13.13,0,1,1,.13-.23l1.92,1.11a.13.13,0,0,1-.07.25Z"/><path class="cls-5" d="M67.53,114.46a.13.13,0,0,1-.12-.07l-.68-1.16a.13.13,0,0,1,.23-.14l.68,1.16a.13.13,0,0,1,0,.18Z"/><path class="cls-5" d="M65.38,113.94a.11.11,0,0,1-.11-.11v-1.47a.11.11,0,0,1,.22,0v1.47A.11.11,0,0,1,65.38,113.94Z"/><g class="cls-9"><g class="cls-9"><g class="cls-126"><g class="cls-9"><path class="cls-92" d="M70.39,114.78v0Z"/><path class="cls-8" d="M70.39,114.81v.35a.18.18,0,0,1-.07.11v-.35a.18.18,0,0,0,.07-.11Z"/><path class="cls-93" d="M70.31,114.92v.35h0l-.06,0V115l.06,0Z"/><path class="cls-8" d="M70.25,115v.35a.34.34,0,0,1-.16,0V115a.34.34,0,0,0,.17,0Z"/><path class="cls-92" d="M70.09,115v.35a.3.3,0,0,1-.15-.06.18.18,0,0,1-.08-.14v-.35a.18.18,0,0,0,.08.14.3.3,0,0,0,.15.06Z"/></g></g></g><path class="cls-94" d="M70.31,114.64a.16.16,0,0,1,0,.28.33.33,0,0,1-.37,0,.16.16,0,0,1,0-.28A.33.33,0,0,1,70.31,114.64Z"/></g><g class="cls-9"><g class="cls-9"><g class="cls-127"><g class="cls-9"><path class="cls-92" d="M65.68,112.06v0Z"/><path class="cls-8" d="M65.68,112.08v.35a.18.18,0,0,1-.07.11v-.35a.18.18,0,0,0,.07-.11Z"/><path class="cls-93" d="M65.61,112.19v.35h0l-.06,0v-.35l.06,0Z"/><path class="cls-8" d="M65.54,112.23v.35a.34.34,0,0,1-.16,0v-.35a.34.34,0,0,0,.16,0Z"/><path class="cls-92" d="M65.38,112.25v.35a.3.3,0,0,1-.15-.06.18.18,0,0,1-.08-.14v-.35a.18.18,0,0,0,.08.14.3.3,0,0,0,.15.06Z"/></g></g></g><path class="cls-94" d="M65.6,111.92a.16.16,0,0,1,0,.28.33.33,0,0,1-.37,0,.16.16,0,0,1,0-.28A.33.33,0,0,1,65.6,111.92Z"/></g><g class="cls-9"><path class="cls-3" d="M66.6,114.69l.74-.43a.51.51,0,0,1,.52.05l-.74.43A.51.51,0,0,0,66.6,114.69Z"/><g class="cls-128"><path class="cls-3" d="M66.6,114.69l.74-.43a.38.38,0,0,1,.22,0l-.74.43a.38.38,0,0,0-.22,0Z"/><path class="cls-3" d="M66.82,114.64l.74-.43.15,0-.74.43-.15,0Z"/><path class="cls-3" d="M67,114.67l.74-.43.14.07-.74.43-.14-.07Z"/></g></g><g class="cls-9"><path class="cls-3" d="M68.37,116l-.74.43a.51.51,0,0,0,.21-.47,1.59,1.59,0,0,0-.72-1.25l.74-.43a1.59,1.59,0,0,1,.72,1.25A.51.51,0,0,1,68.37,116Z"/><g class="cls-129"><polygon class="cls-3" points="67.12 114.74 67.85 114.31 67.86 114.32 67.13 114.74 67.12 114.74 67.12 114.74"/><path class="cls-3" d="M67.12,114.74l.74-.43.16.12-.74.43-.16-.12Z"/><path class="cls-7" d="M67.29,114.86l.74-.43a1.7,1.7,0,0,1,.49.75l-.74.43a1.69,1.69,0,0,0-.49-.75Z"/><path class="cls-3" d="M67.78,115.61l.74-.43a1.4,1.4,0,0,1,0,.21l-.74.43a1.39,1.39,0,0,0,0-.21Z"/><path class="cls-3" d="M67.83,115.82l.74-.43a1.11,1.11,0,0,1,0,.18h0l-.74.43h0a1.11,1.11,0,0,0,0-.18Z"/><path class="cls-3" d="M67.84,116l.74-.43a.8.8,0,0,1,0,.17l-.74.43a.8.8,0,0,0,0-.17Z"/><path class="cls-3" d="M67.82,116.17l.74-.43a.43.43,0,0,1-.19.29l-.74.43a.43.43,0,0,0,.19-.29Z"/></g></g><path class="cls-5" d="M67.12,114.74a1.59,1.59,0,0,1,.72,1.25c0,.46-.33.65-.73.41a1.59,1.59,0,0,1-.72-1.25C66.39,114.69,66.72,114.51,67.12,114.74Z"/><path class="cls-7" d="M67.74,116a.52.52,0,0,1-.08.3.27.27,0,0,1-.23.12.57.57,0,0,1-.28-.09,1.49,1.49,0,0,1-.67-1.17c0-.23.09-.37.23-.41h.07a.57.57,0,0,1,.28.09A1.49,1.49,0,0,1,67.74,116Z"/><path class="cls-3" d="M67.74,116a.52.52,0,0,1-.08.3h-.07a.57.57,0,0,1-.28-.09,1.49,1.49,0,0,1-.67-1.17.53.53,0,0,1,.08-.3h.07a.57.57,0,0,1,.28.09A1.49,1.49,0,0,1,67.74,116Z"/><g class="cls-9"><g class="cls-9"><g class="cls-130"><g class="cls-9"><path class="cls-6" d="M67.22,115l.09-.05-.13-.05-.09.05.13.05Z"/><path class="cls-6" d="M67.09,115l.09-.05a.24.24,0,0,0-.16,0l-.09.05a.24.24,0,0,1,.16,0Z"/><polygon class="cls-6" points="66.93 114.98 67.02 114.93 67.01 114.93 66.92 114.98 66.93 114.98 66.93 114.98"/></g></g></g><g class="cls-9"><g class="cls-131"><g class="cls-9"><path class="cls-6" d="M67.52,116l.09-.05a.29.29,0,0,0,.12-.27.79.79,0,0,0-.08-.32l-.09.05a.79.79,0,0,1,.08.32.29.29,0,0,1-.12.27Z"/><path class="cls-6" d="M67.57,115.41l.09-.05a1,1,0,0,0-.14-.23l-.09.05a1,1,0,0,1,.14.23Z"/><path class="cls-6" d="M67.42,115.19l.09-.05a.76.76,0,0,0-.2-.18l-.09.05a.77.77,0,0,1,.2.18Z"/></g></g></g><path class="cls-8" d="M67.22,115c-.23-.13-.42,0-.42.24a.92.92,0,0,0,.42.72c.23.13.42,0,.42-.24A.92.92,0,0,0,67.22,115Z"/></g><path class="cls-5" d="M67.12,114.74c-.4-.23-.73,0-.73.41a1.59,1.59,0,0,0,.72,1.25c.4.23.73,0,.73-.41A1.59,1.59,0,0,0,67.12,114.74Zm.55,1.55a.27.27,0,0,1-.23.12.57.57,0,0,1-.28-.09,1.49,1.49,0,0,1-.67-1.17c0-.23.09-.37.23-.41h.07a.57.57,0,0,1,.28.09,1.49,1.49,0,0,1,.68,1.17A.52.52,0,0,1,67.67,116.29Z"/><g class="cls-9"><path class="cls-3" d="M68.81,115.93l.74-.43a.51.51,0,0,1,.52.05l-.74.43A.51.51,0,0,0,68.81,115.93Z"/><g class="cls-132"><path class="cls-3" d="M68.81,115.93l.74-.43a.38.38,0,0,1,.22,0l-.74.43a.38.38,0,0,0-.22,0Z"/><path class="cls-3" d="M69,115.88l.74-.43.15,0-.74.43-.15,0Z"/><path class="cls-3" d="M69.18,115.92l.74-.43.14.07-.74.43-.14-.07Z"/></g></g><g class="cls-9"><path class="cls-3" d="M70.57,117.27l-.74.43a.51.51,0,0,0,.21-.47,1.59,1.59,0,0,0-.72-1.25l.74-.43a1.59,1.59,0,0,1,.72,1.25A.51.51,0,0,1,70.57,117.27Z"/><g class="cls-133"><polygon class="cls-3" points="69.32 115.98 70.06 115.55 70.07 115.56 69.33 115.99 69.32 115.98 69.32 115.98"/><path class="cls-3" d="M69.33,116l.74-.43.16.12-.74.43-.16-.12Z"/><path class="cls-7" d="M69.49,116.1l.74-.43a1.7,1.7,0,0,1,.49.75l-.74.43a1.7,1.7,0,0,0-.49-.75Z"/><path class="cls-3" d="M70,116.85l.74-.43a1.39,1.39,0,0,1,0,.21l-.74.43a1.4,1.4,0,0,0,0-.21Z"/><path class="cls-3" d="M70,117.06l.74-.43a1.1,1.1,0,0,1,0,.18h0l-.74.43h0a1.11,1.11,0,0,0,0-.18Z"/><path class="cls-3" d="M70,117.24l.74-.43a.8.8,0,0,1,0,.17l-.74.43a.8.8,0,0,0,0-.17Z"/><path class="cls-3" d="M70,117.41l.74-.43a.43.43,0,0,1-.19.29l-.74.43a.43.43,0,0,0,.19-.29Z"/></g></g><path class="cls-5" d="M69.32,116a1.59,1.59,0,0,1,.72,1.25c0,.46-.33.65-.73.41a1.59,1.59,0,0,1-.72-1.25C68.6,115.94,68.92,115.75,69.32,116Z"/><path class="cls-7" d="M70,117.23a.52.52,0,0,1-.08.3.27.27,0,0,1-.23.12.57.57,0,0,1-.28-.09,1.49,1.49,0,0,1-.67-1.17c0-.23.09-.37.23-.41H69a.57.57,0,0,1,.28.09A1.49,1.49,0,0,1,70,117.23Z"/><path class="cls-3" d="M70,117.23a.52.52,0,0,1-.08.3H69.8a.57.57,0,0,1-.28-.09,1.49,1.49,0,0,1-.67-1.17.53.53,0,0,1,.08-.3H69a.57.57,0,0,1,.28.09A1.49,1.49,0,0,1,70,117.23Z"/><g class="cls-9"><g class="cls-9"><g class="cls-134"><g class="cls-9"><path class="cls-6" d="M69.42,116.25l.09-.05-.13-.05-.09.05.13,0Z"/><path class="cls-6" d="M69.3,116.2l.09-.05a.24.24,0,0,0-.16,0l-.09.05a.24.24,0,0,1,.16,0Z"/><polygon class="cls-6" points="69.13 116.22 69.22 116.17 69.22 116.17 69.13 116.23 69.13 116.22 69.13 116.22"/></g></g></g><g class="cls-9"><g class="cls-135"><g class="cls-9"><path class="cls-6" d="M69.73,117.24l.09-.05a.29.29,0,0,0,.12-.27.79.79,0,0,0-.08-.32l-.09.05a.79.79,0,0,1,.08.32.29.29,0,0,1-.12.27Z"/><path class="cls-6" d="M69.77,116.66l.09-.05a1,1,0,0,0-.14-.23l-.09.05a1,1,0,0,1,.14.23Z"/><path class="cls-6" d="M69.63,116.43l.09-.05a.76.76,0,0,0-.2-.18l-.09.05a.77.77,0,0,1,.2.18Z"/></g></g></g><path class="cls-8" d="M69.42,116.25c-.23-.13-.42,0-.42.24a.92.92,0,0,0,.42.72c.23.13.42,0,.42-.24A.92.92,0,0,0,69.42,116.25Z"/></g><path class="cls-5" d="M69.32,116c-.4-.23-.73,0-.73.41a1.59,1.59,0,0,0,.72,1.25c.4.23.73,0,.73-.41A1.59,1.59,0,0,0,69.32,116Zm.55,1.55a.27.27,0,0,1-.23.12.57.57,0,0,1-.28-.09,1.49,1.49,0,0,1-.67-1.17c0-.23.09-.37.23-.41H69a.57.57,0,0,1,.28.09,1.49,1.49,0,0,1,.68,1.17A.52.52,0,0,1,69.87,117.54Z"/><g class="cls-9"><path class="cls-3" d="M64,113.24l.74-.43a.51.51,0,0,1,.52.05l-.74.43A.51.51,0,0,0,64,113.24Z"/><g class="cls-136"><path class="cls-3" d="M64,113.24l.74-.43a.38.38,0,0,1,.22,0l-.74.43a.38.38,0,0,0-.22,0Z"/><path class="cls-3" d="M64.26,113.19l.74-.43.15,0-.74.43-.15,0Z"/><path class="cls-3" d="M64.41,113.23l.74-.43.14.07-.74.43-.14-.07Z"/></g></g><g class="cls-9"><path class="cls-3" d="M65.8,114.58l-.74.43a.51.51,0,0,0,.21-.47,1.59,1.59,0,0,0-.72-1.25l.74-.43a1.59,1.59,0,0,1,.72,1.25A.51.51,0,0,1,65.8,114.58Z"/><g class="cls-137"><polygon class="cls-3" points="64.55 113.29 65.28 112.86 65.29 112.87 64.56 113.3 64.55 113.29 64.55 113.29"/><path class="cls-3" d="M64.56,113.3l.74-.43.16.12-.74.43-.16-.12Z"/><path class="cls-7" d="M64.72,113.41l.74-.43a1.7,1.7,0,0,1,.49.75l-.74.43a1.7,1.7,0,0,0-.49-.75Z"/><path class="cls-3" d="M65.21,114.16l.74-.43a1.39,1.39,0,0,1,0,.21l-.74.43a1.4,1.4,0,0,0,0-.21Z"/><path class="cls-3" d="M65.26,114.37l.74-.43a1.11,1.11,0,0,1,0,.18h0l-.74.43h0a1.11,1.11,0,0,0,0-.18Z"/><path class="cls-3" d="M65.27,114.55l.74-.43a.8.8,0,0,1,0,.17l-.74.43a.8.8,0,0,0,0-.17Z"/><path class="cls-3" d="M65.25,114.72l.74-.43a.43.43,0,0,1-.19.29l-.74.43a.43.43,0,0,0,.19-.29Z"/></g></g><path class="cls-5" d="M64.55,113.29a1.59,1.59,0,0,1,.72,1.25c0,.46-.33.65-.73.41a1.59,1.59,0,0,1-.72-1.25C63.82,113.25,64.15,113.06,64.55,113.29Z"/><path class="cls-7" d="M65.18,114.54a.52.52,0,0,1-.08.3.27.27,0,0,1-.23.12.57.57,0,0,1-.28-.09,1.49,1.49,0,0,1-.67-1.17c0-.23.09-.37.23-.41h.07a.57.57,0,0,1,.28.09A1.49,1.49,0,0,1,65.18,114.54Z"/><path class="cls-3" d="M65.18,114.54a.52.52,0,0,1-.08.3H65a.57.57,0,0,1-.28-.09,1.49,1.49,0,0,1-.67-1.17.53.53,0,0,1,.08-.3h.07a.57.57,0,0,1,.28.09A1.49,1.49,0,0,1,65.18,114.54Z"/><g class="cls-9"><g class="cls-9"><g class="cls-138"><g class="cls-9"><path class="cls-6" d="M64.65,113.56l.09-.05-.13-.05-.09.05.13.05Z"/><path class="cls-6" d="M64.52,113.51l.09-.05a.24.24,0,0,0-.16,0l-.09.05a.24.24,0,0,1,.16,0Z"/><polygon class="cls-6" points="64.36 113.53 64.45 113.48 64.44 113.48 64.35 113.54 64.36 113.53 64.36 113.53"/></g></g></g><g class="cls-9"><g class="cls-139"><g class="cls-9"><path class="cls-6" d="M65,114.56l.09-.05a.29.29,0,0,0,.12-.27.79.79,0,0,0-.08-.32L65,114a.79.79,0,0,1,.08.32.29.29,0,0,1-.12.27Z"/><path class="cls-6" d="M65,114l.09-.05a1,1,0,0,0-.14-.23l-.09.05A1,1,0,0,1,65,114Z"/><path class="cls-6" d="M64.86,113.74l.09-.05a.76.76,0,0,0-.2-.18l-.09.05a.76.76,0,0,1,.2.18Z"/></g></g></g><path class="cls-8" d="M64.65,113.56c-.23-.13-.42,0-.42.24a.92.92,0,0,0,.42.72c.23.13.42,0,.42-.24A.92.92,0,0,0,64.65,113.56Z"/></g><path class="cls-5" d="M64.55,113.29c-.4-.23-.73,0-.73.41a1.59,1.59,0,0,0,.72,1.25c.4.23.73,0,.73-.41A1.59,1.59,0,0,0,64.55,113.29Zm.55,1.55a.27.27,0,0,1-.23.12.57.57,0,0,1-.28-.09,1.49,1.49,0,0,1-.67-1.17c0-.23.09-.37.23-.41h.07a.57.57,0,0,1,.28.09,1.49,1.49,0,0,1,.68,1.17A.52.52,0,0,1,65.1,114.85Z"/><g class="cls-9"><g class="cls-9"><g class="cls-140"><g class="cls-9"><path class="cls-1" d="M66.75,112.78l.07,0-.11,0-.07,0,.11,0Z"/><path class="cls-1" d="M66.64,112.74l.07,0a.2.2,0,0,0-.13,0l-.07,0a.2.2,0,0,1,.13,0Z"/><polygon class="cls-75" points="66.51 112.75 66.57 112.71 66.57 112.71 66.5 112.76 66.51 112.75 66.51 112.75"/></g></g></g><g class="cls-9"><g class="cls-141"><g class="cls-9"><path class="cls-75" d="M67,113.6l.07,0a.24.24,0,0,0,.1-.22.65.65,0,0,0-.06-.26l-.07,0a.65.65,0,0,1,.06.26.24.24,0,0,1-.1.22Z"/><path class="cls-1" d="M67,113.11l.07,0a.84.84,0,0,0-.12-.19l-.07,0a.83.83,0,0,1,.12.19Z"/><path class="cls-1" d="M66.91,112.93l.07,0a.63.63,0,0,0-.17-.14l-.07,0a.63.63,0,0,1,.17.14Z"/></g></g></g><path class="cls-81" d="M66.75,112.78c-.19-.11-.35,0-.34.2a.76.76,0,0,0,.35.59c.19.11.35,0,.34-.2A.76.76,0,0,0,66.75,112.78Z"/></g><g class="cls-9"><polygon class="cls-6" points="72.69 111.84 72.69 112.01 69.91 113.58 69.91 113.41 72.69 111.84"/><polygon class="cls-6" points="69.91 113.41 69.91 113.58 62.4 111.72 62.4 111.55 69.91 113.41"/><polygon class="cls-1" points="70.97 110.85 72.69 111.84 69.91 113.41 62.4 111.55 63.61 109.6 69.73 111.02 70.97 110.85"/><polygon class="cls-113" points="72.5 111.84 71.45 112.43 71.09 112.63 71.08 112.64 70.63 112.89 70.61 112.9 70.16 113.16 70.14 113.17 69.89 113.3 69.31 113.16 69.28 113.15 69.2 113.13 69.14 113.12 68.66 113 68.63 112.99 68.02 112.84 67.99 112.83 67.59 112.74 67.53 112.72 67.37 112.68 67.34 112.67 66.72 112.52 66.7 112.52 66.08 112.36 66.05 112.36 65.99 112.34 65.92 112.32 65.43 112.2 65.41 112.2 64.79 112.04 64.76 112.04 64.38 111.94 64.31 111.93 64.14 111.89 64.12 111.88 63.5 111.73 63.47 111.72 62.85 111.57 62.83 111.56 62.77 111.55 62.7 111.53 62.55 111.49 62.57 111.45 62.58 111.44 62.82 111.06 62.84 111.02 63.06 110.67 63.07 110.66 63.3 110.28 63.31 110.26 63.34 110.22 63.36 110.19 63.55 109.89 63.56 109.87 63.66 109.71 64.04 109.8 64.06 109.8 64.49 109.9 64.56 109.92 64.69 109.95 64.72 109.96 65.35 110.1 65.38 110.11 66.01 110.25 66.09 110.28 66.66 110.41 66.69 110.41 67.32 110.56 67.35 110.57 67.57 110.62 67.64 110.63 67.98 110.71 68 110.72 68.64 110.86 68.66 110.87 69.11 110.97 69.17 110.99 69.29 111.02 69.32 111.02 69.73 111.12 70.14 111.06 70.2 111.05 70.91 110.95 70.94 110.95 70.95 110.95 71.1 111.03 71.12 111.05 71.56 111.3 71.58 111.31 72.03 111.57 72.04 111.58 72.48 111.83 72.5 111.84"/></g><path class="cls-114" d="M72.5,111.84h0l-.44-.25h0l-.44-.25h0l-.44-.25h0l-.15-.09h0l.17.1-.44.25-.44-.25h-.07l-.42.24-.44-.25,0,0h0l0,0-.08,0h-.06l.13.07-.44.25-.44-.25.31-.18h0l-.3.17-.44-.25.11-.06h0l-.1.06-.24-.14h-.06l.29.17-.44.25-.44-.25.37-.22h0l-.37.21-.44-.25.18-.1h0l-.17.1-.4-.23-.09,0-.43.25-.44-.25.25-.14h0l-.24.14-.44-.25,0,0h0l0,0-.1-.06h-.06l.14.08-.44.25-.44-.25.31-.18h0l-.31.18-.18-.1v0l.17.1-.35.2,0,0,.39-.23.44.25-.44.25-.42-.24v0l.41.24-.44.25-.2-.12v0l.19.11-.41.24,0,0,.44.25-.43.25h0l.42-.24.44.25-.24.14h0l.23-.13.44.25-.06,0h0l0,0,.12.07.07,0-.17-.1.44-.25.44.25-.33.19h0l.32-.19.44.25-.15.08h0l.14-.08.35.2.07,0-.39-.23.44-.25.44.25-.42.24h0l.41-.24.44.25-.24.14h0l.23-.13.44.25-.05,0h0l0,0,.11.07.07,0-.16-.09.44-.25.44.25-.33.19h0l.32-.19.44.25-.14.08h0l.14-.08.34.2.07,0-.39-.22.44-.25.44.25-.42.24h0l.41-.24.42.24h0l-.42-.25.44-.25.43.25h0l-.43-.25.44-.25.44.25h0l-.44-.25.44-.25.44.25-.09.05Zm0,0-.44.25-.44-.25.44-.25Zm-.46-.27-.44.25-.44-.25.44-.25Zm-.9-.52.44.25-.44.25-.44-.25Zm0,.52-.44.25-.44-.25.44-.25Zm-6.87-.8.44-.25.44.25-.44.25Zm.42.27-.44.25-.44-.25.44-.25Zm.48-.25.44.25-.44.25-.44-.25Zm.46.27.44.25-.44.25-.44-.25Zm0,0,.44-.25.44.25-.44.25Zm.9,0,.44.25-.44.25-.44-.25Zm.46.27.44.25-.44.25-.44-.25Zm.46.27.44.25-.44.25-.44-.25Zm0,0,.44-.25.44.25-.44.25Zm.9,0,.44.25-.44.25-.44-.25Zm.46.27.44.25-.44.25-.44-.25Zm0,0,.44-.25.44.25-.44.25Zm.9,0,.44.25-.44.25-.44-.25Zm0,0,.44-.25.44.25-.44.25Zm.44-.79.44.25-.44.25-.44-.25Zm0,.52-.44.25-.44-.25.44-.25Zm-.9-.52.44.25-.44.25-.44-.25Zm0,.52-.44.25-.44-.25.44-.25Zm-.46-.27-.44.25-.44-.25.44-.25Zm-.9-.52.44.25-.44.25-.44-.25Zm0,.52-.44.25-.44-.25.44-.25ZM67.4,111l-.44.25-.44-.25.44-.25Zm-.46-.27-.44.25-.44-.25.44-.25Zm-.9-.52.44.25-.44.25-.44-.25Zm0,.52-.44.25-.44-.25.44-.25Zm-.46-.27-.44.25-.44-.25.44-.25Zm-.9-.52.44.25-.44.25-.44-.25Zm-.46.27.44.25-.44.25-.44-.25Zm-.46.27.44.25-.44.25-.44-.25Zm-.9.52.44-.25.44.25-.44.25Zm.46.27.44-.25.44.25-.44.25Zm.9.52-.44-.25.44-.25.44.25Zm0-.52.44-.25.44.25-.44.25Zm.46.27.44-.25.44.25-.44.25Zm.9.52-.44-.25.44-.25.44.25Zm0-.52.44-.25.44.25-.44.25Zm.46.27.44-.25.44.25-.44.25Zm.46.27.44-.25.44.25-.44.25Zm.9.52-.44-.25.44-.25.44.25Zm0-.52.44-.25.44.25-.44.25Zm.46.27.44-.25.44.25-.44.25Zm.9.52-.44-.25.44-.25.44.25Zm0-.52.44-.25.44.25-.44.25Zm.9.52-.44-.25.44-.25.44.25Zm.46-.27-.44-.25.44-.25.44.25Zm.46-.27-.44-.25.44-.25.44.25Zm0-.52.44-.25.44.25-.44.25Zm.46.27.44-.25.44.25-.44.25Zm-8.55-.66.13.08.07,0-.19-.11Z"/><g class="cls-9"><path class="cls-1" d="M72.8,105.88c.24-.14.43,0,.44.25a1,1,0,0,1-.43.75c-.24.14-.43,0-.44-.25A1,1,0,0,1,72.8,105.88Z"/><path class="cls-142" d="M73.18,106.12a.89.89,0,0,1-.4.7.34.34,0,0,1-.16.05.16.16,0,0,1-.11,0,.28.28,0,0,1-.07-.21.89.89,0,0,1,.4-.7.34.34,0,0,1,.16-.05h.07C73.14,105.92,73.18,106,73.18,106.12Z"/><path class="cls-143" d="M73.13,106.1a.89.89,0,0,1-.4.7.34.34,0,0,1-.16.05H72.5a.28.28,0,0,1-.07-.21.89.89,0,0,1,.4-.7.34.34,0,0,1,.16-.05h.07A.27.27,0,0,1,73.13,106.1Z"/><path class="cls-144" d="M72.57,106.81h0a.25.25,0,0,1-.05-.18.85.85,0,0,1,.38-.67.3.3,0,0,1,.15,0h0a.25.25,0,0,1,.05.18.85.85,0,0,1-.38.67A.3.3,0,0,1,72.57,106.81Z"/><path class="cls-145" d="M72.83,106.08a.11.11,0,0,1,0,.08s0,0,0,0a.11.11,0,0,1,0-.08S72.83,106,72.83,106.08Z"/><path class="cls-145" d="M72.71,106.15a.08.08,0,0,1,0,.09s-.05,0-.07,0a.08.08,0,0,1,0-.09S72.7,106.13,72.71,106.15Z"/><path class="cls-145" d="M72.62,106.28s0,0,0,.07,0,.06-.07.06,0,0,0-.07S72.59,106.28,72.62,106.28Z"/><path class="cls-145" d="M72.56,106.43s0,0,0,0a.11.11,0,0,1,0,.08s0,0,0,0A.11.11,0,0,1,72.56,106.43Z"/><path class="cls-145" d="M72.57,106.56s.05,0,.07,0a.08.08,0,0,1,0,.09s-.05,0-.07,0A.08.08,0,0,1,72.57,106.56Z"/><path class="cls-145" d="M72.63,106.64s0-.06.07-.06,0,0,0,.07,0,.06-.07.06S72.62,106.67,72.63,106.64Z"/><path class="cls-145" d="M72.73,106.64a.11.11,0,0,1,0-.08s0,0,0,0a.11.11,0,0,1,0,.08S72.73,106.67,72.73,106.64Z"/><path class="cls-145" d="M72.85,106.57a.08.08,0,0,1,0-.09s.05,0,.07,0a.08.08,0,0,1,0,.09S72.86,106.59,72.85,106.57Z"/><path class="cls-145" d="M72.95,106.44s0,0,0-.07,0-.06.07-.06,0,0,0,.07S73,106.44,72.95,106.44Z"/><path class="cls-145" d="M73,106.29s0,0,0,0a.11.11,0,0,1,0-.08s0,0,0,0A.11.11,0,0,1,73,106.29Z"/><path class="cls-145" d="M73,106.16s-.05,0-.07,0a.08.08,0,0,1,0-.09s.05,0,.07,0A.08.08,0,0,1,73,106.16Z"/><path class="cls-145" d="M72.93,106.08s0,.06-.07.06,0,0,0-.07,0-.06.07-.06S72.95,106,72.93,106.08Z"/><path class="cls-145" d="M72.89,106.3a.25.25,0,0,1-.11.19c-.06,0-.11,0-.11-.06a.25.25,0,0,1,.11-.19C72.84,106.2,72.89,106.22,72.89,106.3Z"/></g><g class="cls-9"><path class="cls-1" d="M73.92,105.22c.24-.14.43,0,.44.25a1,1,0,0,1-.43.75c-.24.14-.43,0-.44-.25A1,1,0,0,1,73.92,105.22Z"/><path class="cls-142" d="M74.3,105.47a.89.89,0,0,1-.4.7.34.34,0,0,1-.16.05.16.16,0,0,1-.11,0,.28.28,0,0,1-.07-.21.89.89,0,0,1,.4-.7.34.34,0,0,1,.16-.05h.07C74.26,105.26,74.3,105.34,74.3,105.47Z"/><path class="cls-143" d="M74.25,105.44a.89.89,0,0,1-.4.7.34.34,0,0,1-.16.05h-.07a.28.28,0,0,1-.07-.21.89.89,0,0,1,.4-.7.34.34,0,0,1,.16-.05h.07A.27.27,0,0,1,74.25,105.44Z"/><path class="cls-144" d="M73.69,106.15h0a.25.25,0,0,1-.05-.18.85.85,0,0,1,.38-.67.3.3,0,0,1,.15,0h0a.25.25,0,0,1,.05.18.85.85,0,0,1-.38.67A.3.3,0,0,1,73.69,106.15Z"/><path class="cls-145" d="M74,105.42a.11.11,0,0,1,0,.08s0,0,0,0a.11.11,0,0,1,0-.08S74,105.39,74,105.42Z"/><path class="cls-145" d="M73.83,105.49a.08.08,0,0,1,0,.09s-.05,0-.07,0a.08.08,0,0,1,0-.09S73.82,105.47,73.83,105.49Z"/><path class="cls-145" d="M73.74,105.62s0,0,0,.07,0,.06-.07.06,0,0,0-.07S73.71,105.62,73.74,105.62Z"/><path class="cls-145" d="M73.68,105.77s0,0,0,0a.11.11,0,0,1,0,.08s0,0,0,0A.11.11,0,0,1,73.68,105.77Z"/><path class="cls-145" d="M73.69,105.9s.05,0,.07,0a.08.08,0,0,1,0,.09s-.05,0-.07,0A.08.08,0,0,1,73.69,105.9Z"/><path class="cls-145" d="M73.75,106s0-.06.07-.06,0,0,0,.07,0,.06-.07.06S73.74,106,73.75,106Z"/><path class="cls-145" d="M73.85,106a.11.11,0,0,1,0-.08s0,0,0,0a.11.11,0,0,1,0,.08S73.85,106,73.85,106Z"/><path class="cls-145" d="M74,105.91a.08.08,0,0,1,0-.09s.05,0,.07,0a.08.08,0,0,1,0,.09S74,105.93,74,105.91Z"/><path class="cls-145" d="M74.07,105.78s0,0,0-.07,0-.06.07-.06,0,0,0,.07S74.09,105.78,74.07,105.78Z"/><path class="cls-145" d="M74.12,105.63s0,0,0,0a.11.11,0,0,1,0-.08s0,0,0,0A.11.11,0,0,1,74.12,105.63Z"/><path class="cls-145" d="M74.12,105.5s-.05,0-.07,0a.08.08,0,0,1,0-.09s.05,0,.07,0A.08.08,0,0,1,74.12,105.5Z"/><path class="cls-145" d="M74.05,105.42s0,.06-.07.06,0,0,0-.07,0-.06.07-.06S74.07,105.39,74.05,105.42Z"/><path class="cls-145" d="M74,105.64a.25.25,0,0,1-.11.19c-.06,0-.11,0-.11-.06a.25.25,0,0,1,.11-.19C74,105.54,74,105.57,74,105.64Z"/></g><path class="cls-5" d="M75.76,113.26h0l-.12.07-.11.06-.31.18-.07,0a.14.14,0,0,1-.07-.27l.31-.18.11-.06.11-.06h0l0,0a.31.31,0,0,1,.07.12A.22.22,0,0,1,75.76,113.26Z"/><g class="cls-9"><g class="cls-9"><path class="cls-7" d="M70.07,105.34v3.38a0,0,0,0,1,0,0,.11.11,0,0,1-.1,0,0,0,0,0,1,0,0v-3.38a0,0,0,0,0,0,0,.11.11,0,0,0,.1,0A0,0,0,0,0,70.07,105.34Z"/><g class="cls-146"><g class="cls-9"><path class="cls-7" d="M70.07,105.34v0Z"/><path class="cls-7" d="M70.06,105.36v3.38h0v-3.38h0Z"/><path class="cls-7" d="M70,105.37v3.38h0v-3.38Z"/><path class="cls-7" d="M70,105.38v3.38h0v-3.38Z"/><path class="cls-7" d="M70,105.37v3.38h0a0,0,0,0,1,0,0v-3.38a0,0,0,0,0,0,0Z"/></g></g></g><path class="cls-7" d="M70.05,105.31a0,0,0,0,1,0,.06.11.11,0,0,1-.1,0,0,0,0,0,1,0-.06A.11.11,0,0,1,70.05,105.31Z"/></g><circle class="cls-5" cx="70" cy="105.34" r="0.19"/></g></g></g></g></svg>