<svg xmlns="http://www.w3.org/2000/svg" xmlns:xlink="http://www.w3.org/1999/xlink" viewBox="0 0 1110.79 3330.38"><defs><style>.cls-1,.cls-7{fill:none;}.cls-2{isolation:isolate;}.cls-3{fill:url(#Degradado_sin_nombre_6);}.cls-4{clip-path:url(#clip-path);}.cls-5{opacity:0.4;}.cls-6{mix-blend-mode:overlay;}.cls-7{stroke:#ed2379;stroke-miterlimit:10;}</style><radialGradient id="Degradado_sin_nombre_6" cx="555.55" cy="1320.07" r="697.8" gradientUnits="userSpaceOnUse"><stop offset="0" stop-color="#322264"/><stop offset="0.99" stop-color="#1c0e32"/></radialGradient><clipPath id="clip-path" transform="translate(141.55 424.07)"><rect class="cls-1" y="0.21" width="828" height="1791.59"/></clipPath></defs><title>Background</title><g class="cls-2"><g id="BACKGROUND"><rect class="cls-3" x="141.55" y="424.27" width="828" height="1791.59"/><g id="Layer_8" data-name="Layer 8"><g class="cls-4"><g class="cls-5"><g class="cls-6"><rect class="cls-7" x="0.5" y="0.5" width="1109.79" height="1109.79"/><line class="cls-7" x1="0.5" y1="1088.53" x2="1110.29" y2="1088.53"/><line class="cls-7" x1="0.5" y1="1066.77" x2="1110.29" y2="1066.77"/><line class="cls-7" x1="0.5" y1="1045.01" x2="1110.29" y2="1045.01"/><line class="cls-7" x1="0.5" y1="1023.25" x2="1110.29" y2="1023.25"/><line class="cls-7" x1="0.5" y1="1001.49" x2="1110.29" y2="1001.49"/><line class="cls-7" x1="0.5" y1="979.73" x2="1110.29" y2="979.73"/><line class="cls-7" x1="0.5" y1="957.97" x2="1110.29" y2="957.97"/><line class="cls-7" x1="0.5" y1="936.21" x2="1110.29" y2="936.21"/><line class="cls-7" x1="0.5" y1="914.45" x2="1110.29" y2="914.45"/><line class="cls-7" x1="0.5" y1="892.69" x2="1110.29" y2="892.69"/><line class="cls-7" x1="0.5" y1="870.93" x2="1110.29" y2="870.93"/><line class="cls-7" x1="0.5" y1="849.17" x2="1110.29" y2="849.17"/><line class="cls-7" x1="0.5" y1="827.41" x2="1110.29" y2="827.41"/><line class="cls-7" x1="0.5" y1="805.65" x2="1110.29" y2="805.65"/><line class="cls-7" x1="0.5" y1="783.88" x2="1110.29" y2="783.88"/><line class="cls-7" x1="0.5" y1="762.12" x2="1110.29" y2="762.12"/><line class="cls-7" x1="0.5" y1="740.36" x2="1110.29" y2="740.36"/><line class="cls-7" x1="0.5" y1="718.6" x2="1110.29" y2="718.6"/><line class="cls-7" x1="0.5" y1="696.84" x2="1110.29" y2="696.84"/><line class="cls-7" x1="0.5" y1="675.08" x2="1110.29" y2="675.08"/><line class="cls-7" x1="0.5" y1="653.32" x2="1110.29" y2="653.32"/><line class="cls-7" x1="0.5" y1="631.56" x2="1110.29" y2="631.56"/><line class="cls-7" x1="0.5" y1="609.8" x2="1110.29" y2="609.8"/><line class="cls-7" x1="0.5" y1="588.04" x2="1110.29" y2="588.04"/><line class="cls-7" x1="0.5" y1="566.28" x2="1110.29" y2="566.28"/><line class="cls-7" x1="0.5" y1="544.52" x2="1110.29" y2="544.52"/><line class="cls-7" x1="0.5" y1="522.76" x2="1110.29" y2="522.76"/><line class="cls-7" x1="0.5" y1="501" x2="1110.29" y2="501"/><line class="cls-7" x1="0.5" y1="479.23" x2="1110.29" y2="479.23"/><line class="cls-7" x1="0.5" y1="457.47" x2="1110.29" y2="457.47"/><line class="cls-7" x1="0.5" y1="435.71" x2="1110.29" y2="435.71"/><line class="cls-7" x1="0.5" y1="413.95" x2="1110.29" y2="413.95"/><line class="cls-7" x1="0.5" y1="392.19" x2="1110.29" y2="392.19"/><line class="cls-7" x1="0.5" y1="370.43" x2="1110.29" y2="370.43"/><line class="cls-7" x1="0.5" y1="348.67" x2="1110.29" y2="348.67"/><line class="cls-7" x1="0.5" y1="326.91" x2="1110.29" y2="326.91"/><line class="cls-7" x1="0.5" y1="305.15" x2="1110.29" y2="305.15"/><line class="cls-7" x1="0.5" y1="283.39" x2="1110.29" y2="283.39"/><line class="cls-7" x1="0.5" y1="261.63" x2="1110.29" y2="261.63"/><line class="cls-7" x1="0.5" y1="239.87" x2="1110.29" y2="239.87"/><line class="cls-7" x1="0.5" y1="218.11" x2="1110.29" y2="218.11"/><line class="cls-7" x1="0.5" y1="196.35" x2="1110.29" y2="196.35"/><line class="cls-7" x1="0.5" y1="174.59" x2="1110.29" y2="174.59"/><line class="cls-7" x1="0.5" y1="152.82" x2="1110.29" y2="152.82"/><line class="cls-7" x1="0.5" y1="131.06" x2="1110.29" y2="131.06"/><line class="cls-7" x1="0.5" y1="109.3" x2="1110.29" y2="109.3"/><line class="cls-7" x1="0.5" y1="87.54" x2="1110.29" y2="87.54"/><line class="cls-7" x1="0.5" y1="65.78" x2="1110.29" y2="65.78"/><line class="cls-7" x1="0.5" y1="44.02" x2="1110.29" y2="44.02"/><line class="cls-7" x1="0.5" y1="22.26" x2="1110.29" y2="22.26"/><line class="cls-7" x1="1088.53" y1="0.5" x2="1088.53" y2="1110.29"/><line class="cls-7" x1="1066.77" y1="0.5" x2="1066.77" y2="1110.29"/><line class="cls-7" x1="1045.01" y1="0.5" x2="1045.01" y2="1110.29"/><line class="cls-7" x1="1023.25" y1="0.5" x2="1023.25" y2="1110.29"/><line class="cls-7" x1="1001.49" y1="0.5" x2="1001.49" y2="1110.29"/><line class="cls-7" x1="979.73" y1="0.5" x2="979.73" y2="1110.29"/><line class="cls-7" x1="957.97" y1="0.5" x2="957.97" y2="1110.29"/><line class="cls-7" x1="936.21" y1="0.5" x2="936.21" y2="1110.29"/><line class="cls-7" x1="914.45" y1="0.5" x2="914.45" y2="1110.29"/><line class="cls-7" x1="892.69" y1="0.5" x2="892.69" y2="1110.29"/><line class="cls-7" x1="870.93" y1="0.5" x2="870.93" y2="1110.29"/><line class="cls-7" x1="849.17" y1="0.5" x2="849.17" y2="1110.29"/><line class="cls-7" x1="827.41" y1="0.5" x2="827.41" y2="1110.29"/><line class="cls-7" x1="805.65" y1="0.5" x2="805.65" y2="1110.29"/><line class="cls-7" x1="783.88" y1="0.5" x2="783.88" y2="1110.29"/><line class="cls-7" x1="762.12" y1="0.5" x2="762.12" y2="1110.29"/><line class="cls-7" x1="740.36" y1="0.5" x2="740.36" y2="1110.29"/><line class="cls-7" x1="718.6" y1="0.5" x2="718.6" y2="1110.29"/><line class="cls-7" x1="696.84" y1="0.5" x2="696.84" y2="1110.29"/><line class="cls-7" x1="675.08" y1="0.5" x2="675.08" y2="1110.29"/><line class="cls-7" x1="653.32" y1="0.5" x2="653.32" y2="1110.29"/><line class="cls-7" x1="631.56" y1="0.5" x2="631.56" y2="1110.29"/><line class="cls-7" x1="609.8" y1="0.5" x2="609.8" y2="1110.29"/><line class="cls-7" x1="588.04" y1="0.5" x2="588.04" y2="1110.29"/><line class="cls-7" x1="566.28" y1="0.5" x2="566.28" y2="1110.29"/><line class="cls-7" x1="544.52" y1="0.5" x2="544.52" y2="1110.29"/><line class="cls-7" x1="522.76" y1="0.5" x2="522.76" y2="1110.29"/><line class="cls-7" x1="501" y1="0.5" x2="501" y2="1110.29"/><line class="cls-7" x1="479.23" y1="0.5" x2="479.23" y2="1110.29"/><line class="cls-7" x1="457.47" y1="0.5" x2="457.47" y2="1110.29"/><line class="cls-7" x1="435.71" y1="0.5" x2="435.71" y2="1110.29"/><line class="cls-7" x1="413.95" y1="0.5" x2="413.95" y2="1110.29"/><line class="cls-7" x1="392.19" y1="0.5" x2="392.19" y2="1110.29"/><line class="cls-7" x1="370.43" y1="0.5" x2="370.43" y2="1110.29"/><line class="cls-7" x1="348.67" y1="0.5" x2="348.67" y2="1110.29"/><line class="cls-7" x1="326.91" y1="0.5" x2="326.91" y2="1110.29"/><line class="cls-7" x1="305.15" y1="0.5" x2="305.15" y2="1110.29"/><line class="cls-7" x1="283.39" y1="0.5" x2="283.39" y2="1110.29"/><line class="cls-7" x1="261.63" y1="0.5" x2="261.63" y2="1110.29"/><line class="cls-7" x1="239.87" y1="0.5" x2="239.87" y2="1110.29"/><line class="cls-7" x1="218.11" y1="0.5" x2="218.11" y2="1110.29"/><line class="cls-7" x1="196.35" y1="0.5" x2="196.35" y2="1110.29"/><line class="cls-7" x1="174.59" y1="0.5" x2="174.59" y2="1110.29"/><line class="cls-7" x1="152.82" y1="0.5" x2="152.82" y2="1110.29"/><line class="cls-7" x1="131.06" y1="0.5" x2="131.06" y2="1110.29"/><line class="cls-7" x1="109.3" y1="0.5" x2="109.3" y2="1110.29"/><line class="cls-7" x1="87.54" y1="0.5" x2="87.54" y2="1110.29"/><line class="cls-7" x1="65.78" y1="0.5" x2="65.78" y2="1110.29"/><line class="cls-7" x1="44.02" y1="0.5" x2="44.02" y2="1110.29"/><line class="cls-7" x1="22.26" y1="0.5" x2="22.26" y2="1110.29"/></g><g class="cls-6"><rect class="cls-7" x="0.5" y="1110.29" width="1109.79" height="1109.79"/><line class="cls-7" x1="0.5" y1="2198.33" x2="1110.29" y2="2198.33"/><line class="cls-7" x1="0.5" y1="2176.57" x2="1110.29" y2="2176.57"/><line class="cls-7" x1="0.5" y1="2154.81" x2="1110.29" y2="2154.81"/><line class="cls-7" x1="0.5" y1="2133.05" x2="1110.29" y2="2133.05"/><line class="cls-7" x1="0.5" y1="2111.29" x2="1110.29" y2="2111.29"/><line class="cls-7" x1="0.5" y1="2089.53" x2="1110.29" y2="2089.53"/><line class="cls-7" x1="0.5" y1="2067.76" x2="1110.29" y2="2067.76"/><line class="cls-7" x1="0.5" y1="2046" x2="1110.29" y2="2046"/><line class="cls-7" x1="0.5" y1="2024.24" x2="1110.29" y2="2024.24"/><line class="cls-7" x1="0.5" y1="2002.48" x2="1110.29" y2="2002.48"/><line class="cls-7" x1="0.5" y1="1980.72" x2="1110.29" y2="1980.72"/><line class="cls-7" x1="0.5" y1="1958.96" x2="1110.29" y2="1958.96"/><line class="cls-7" x1="0.5" y1="1937.2" x2="1110.29" y2="1937.2"/><line class="cls-7" x1="0.5" y1="1915.44" x2="1110.29" y2="1915.44"/><line class="cls-7" x1="0.5" y1="1893.68" x2="1110.29" y2="1893.68"/><line class="cls-7" x1="0.5" y1="1871.92" x2="1110.29" y2="1871.92"/><line class="cls-7" x1="0.5" y1="1850.16" x2="1110.29" y2="1850.16"/><line class="cls-7" x1="0.5" y1="1828.4" x2="1110.29" y2="1828.4"/><line class="cls-7" x1="0.5" y1="1806.64" x2="1110.29" y2="1806.64"/><line class="cls-7" x1="0.5" y1="1784.88" x2="1110.29" y2="1784.88"/><line class="cls-7" x1="0.5" y1="1763.12" x2="1110.29" y2="1763.12"/><line class="cls-7" x1="0.5" y1="1741.35" x2="1110.29" y2="1741.35"/><line class="cls-7" x1="0.5" y1="1719.59" x2="1110.29" y2="1719.59"/><line class="cls-7" x1="0.5" y1="1697.83" x2="1110.29" y2="1697.83"/><line class="cls-7" x1="0.5" y1="1676.07" x2="1110.29" y2="1676.07"/><line class="cls-7" x1="0.5" y1="1654.31" x2="1110.29" y2="1654.31"/><line class="cls-7" x1="0.5" y1="1632.55" x2="1110.29" y2="1632.55"/><line class="cls-7" x1="0.5" y1="1610.79" x2="1110.29" y2="1610.79"/><line class="cls-7" x1="0.5" y1="1589.03" x2="1110.29" y2="1589.03"/><line class="cls-7" x1="0.5" y1="1567.27" x2="1110.29" y2="1567.27"/><line class="cls-7" x1="0.5" y1="1545.51" x2="1110.29" y2="1545.51"/><line class="cls-7" x1="0.5" y1="1523.75" x2="1110.29" y2="1523.75"/><line class="cls-7" x1="0.5" y1="1501.99" x2="1110.29" y2="1501.99"/><line class="cls-7" x1="0.5" y1="1480.23" x2="1110.29" y2="1480.23"/><line class="cls-7" x1="0.5" y1="1458.47" x2="1110.29" y2="1458.47"/><line class="cls-7" x1="0.5" y1="1436.7" x2="1110.29" y2="1436.7"/><line class="cls-7" x1="0.5" y1="1414.94" x2="1110.29" y2="1414.94"/><line class="cls-7" x1="0.5" y1="1393.18" x2="1110.29" y2="1393.18"/><line class="cls-7" x1="0.5" y1="1371.42" x2="1110.29" y2="1371.42"/><line class="cls-7" x1="0.5" y1="1349.66" x2="1110.29" y2="1349.66"/><line class="cls-7" x1="0.5" y1="1327.9" x2="1110.29" y2="1327.9"/><line class="cls-7" x1="0.5" y1="1306.14" x2="1110.29" y2="1306.14"/><line class="cls-7" x1="0.5" y1="1284.38" x2="1110.29" y2="1284.38"/><line class="cls-7" x1="0.5" y1="1262.62" x2="1110.29" y2="1262.62"/><line class="cls-7" x1="0.5" y1="1240.86" x2="1110.29" y2="1240.86"/><line class="cls-7" x1="0.5" y1="1219.1" x2="1110.29" y2="1219.1"/><line class="cls-7" x1="0.5" y1="1197.34" x2="1110.29" y2="1197.34"/><line class="cls-7" x1="0.5" y1="1175.58" x2="1110.29" y2="1175.58"/><line class="cls-7" x1="0.5" y1="1153.82" x2="1110.29" y2="1153.82"/><line class="cls-7" x1="0.5" y1="1132.06" x2="1110.29" y2="1132.06"/><line class="cls-7" x1="1088.53" y1="1110.29" x2="1088.53" y2="2220.09"/><line class="cls-7" x1="1066.77" y1="1110.29" x2="1066.77" y2="2220.09"/><line class="cls-7" x1="1045.01" y1="1110.29" x2="1045.01" y2="2220.09"/><line class="cls-7" x1="1023.25" y1="1110.29" x2="1023.25" y2="2220.09"/><line class="cls-7" x1="1001.49" y1="1110.29" x2="1001.49" y2="2220.09"/><line class="cls-7" x1="979.73" y1="1110.29" x2="979.73" y2="2220.09"/><line class="cls-7" x1="957.97" y1="1110.29" x2="957.97" y2="2220.09"/><line class="cls-7" x1="936.21" y1="1110.29" x2="936.21" y2="2220.09"/><line class="cls-7" x1="914.45" y1="1110.29" x2="914.45" y2="2220.09"/><line class="cls-7" x1="892.69" y1="1110.29" x2="892.69" y2="2220.09"/><line class="cls-7" x1="870.93" y1="1110.29" x2="870.93" y2="2220.09"/><line class="cls-7" x1="849.17" y1="1110.29" x2="849.17" y2="2220.09"/><line class="cls-7" x1="827.41" y1="1110.29" x2="827.41" y2="2220.09"/><line class="cls-7" x1="805.65" y1="1110.29" x2="805.65" y2="2220.09"/><line class="cls-7" x1="783.88" y1="1110.29" x2="783.88" y2="2220.09"/><line class="cls-7" x1="762.12" y1="1110.29" x2="762.12" y2="2220.09"/><line class="cls-7" x1="740.36" y1="1110.29" x2="740.36" y2="2220.09"/><line class="cls-7" x1="718.6" y1="1110.29" x2="718.6" y2="2220.09"/><line class="cls-7" x1="696.84" y1="1110.29" x2="696.84" y2="2220.09"/><line class="cls-7" x1="675.08" y1="1110.29" x2="675.08" y2="2220.09"/><line class="cls-7" x1="653.32" y1="1110.29" x2="653.32" y2="2220.09"/><line class="cls-7" x1="631.56" y1="1110.29" x2="631.56" y2="2220.09"/><line class="cls-7" x1="609.8" y1="1110.29" x2="609.8" y2="2220.09"/><line class="cls-7" x1="588.04" y1="1110.29" x2="588.04" y2="2220.09"/><line class="cls-7" x1="566.28" y1="1110.29" x2="566.28" y2="2220.09"/><line class="cls-7" x1="544.52" y1="1110.29" x2="544.52" y2="2220.09"/><line class="cls-7" x1="522.76" y1="1110.29" x2="522.76" y2="2220.09"/><line class="cls-7" x1="501" y1="1110.29" x2="501" y2="2220.09"/><line class="cls-7" x1="479.23" y1="1110.29" x2="479.23" y2="2220.09"/><line class="cls-7" x1="457.47" y1="1110.29" x2="457.47" y2="2220.09"/><line class="cls-7" x1="435.71" y1="1110.29" x2="435.71" y2="2220.09"/><line class="cls-7" x1="413.95" y1="1110.29" x2="413.95" y2="2220.09"/><line class="cls-7" x1="392.19" y1="1110.29" x2="392.19" y2="2220.09"/><line class="cls-7" x1="370.43" y1="1110.29" x2="370.43" y2="2220.09"/><line class="cls-7" x1="348.67" y1="1110.29" x2="348.67" y2="2220.09"/><line class="cls-7" x1="326.91" y1="1110.29" x2="326.91" y2="2220.09"/><line class="cls-7" x1="305.15" y1="1110.29" x2="305.15" y2="2220.09"/><line class="cls-7" x1="283.39" y1="1110.29" x2="283.39" y2="2220.09"/><line class="cls-7" x1="261.63" y1="1110.29" x2="261.63" y2="2220.09"/><line class="cls-7" x1="239.87" y1="1110.29" x2="239.87" y2="2220.09"/><line class="cls-7" x1="218.11" y1="1110.29" x2="218.11" y2="2220.09"/><line class="cls-7" x1="196.35" y1="1110.29" x2="196.35" y2="2220.09"/><line class="cls-7" x1="174.59" y1="1110.29" x2="174.59" y2="2220.09"/><line class="cls-7" x1="152.82" y1="1110.29" x2="152.82" y2="2220.09"/><line class="cls-7" x1="131.06" y1="1110.29" x2="131.06" y2="2220.09"/><line class="cls-7" x1="109.3" y1="1110.29" x2="109.3" y2="2220.09"/><line class="cls-7" x1="87.54" y1="1110.29" x2="87.54" y2="2220.09"/><line class="cls-7" x1="65.78" y1="1110.29" x2="65.78" y2="2220.09"/><line class="cls-7" x1="44.02" y1="1110.29" x2="44.02" y2="2220.09"/><line class="cls-7" x1="22.26" y1="1110.29" x2="22.26" y2="2220.09"/></g><g class="cls-6"><rect class="cls-7" x="0.5" y="2220.09" width="1109.79" height="1109.79"/><line class="cls-7" x1="0.5" y1="3308.12" x2="1110.29" y2="3308.12"/><line class="cls-7" x1="0.5" y1="3286.36" x2="1110.29" y2="3286.36"/><line class="cls-7" x1="0.5" y1="3264.6" x2="1110.29" y2="3264.6"/><line class="cls-7" x1="0.5" y1="3242.84" x2="1110.29" y2="3242.84"/><line class="cls-7" x1="0.5" y1="3221.08" x2="1110.29" y2="3221.08"/><line class="cls-7" x1="0.5" y1="3199.32" x2="1110.29" y2="3199.32"/><line class="cls-7" x1="0.5" y1="3177.56" x2="1110.29" y2="3177.56"/><line class="cls-7" x1="0.5" y1="3155.8" x2="1110.29" y2="3155.8"/><line class="cls-7" x1="0.5" y1="3134.04" x2="1110.29" y2="3134.04"/><line class="cls-7" x1="0.5" y1="3112.28" x2="1110.29" y2="3112.28"/><line class="cls-7" x1="0.5" y1="3090.52" x2="1110.29" y2="3090.52"/><line class="cls-7" x1="0.5" y1="3068.76" x2="1110.29" y2="3068.76"/><line class="cls-7" x1="0.5" y1="3047" x2="1110.29" y2="3047"/><line class="cls-7" x1="0.5" y1="3025.23" x2="1110.29" y2="3025.23"/><line class="cls-7" x1="0.5" y1="3003.47" x2="1110.29" y2="3003.47"/><line class="cls-7" x1="0.5" y1="2981.71" x2="1110.29" y2="2981.71"/><line class="cls-7" x1="0.5" y1="2959.95" x2="1110.29" y2="2959.95"/><line class="cls-7" x1="0.5" y1="2938.19" x2="1110.29" y2="2938.19"/><line class="cls-7" x1="0.5" y1="2916.43" x2="1110.29" y2="2916.43"/><line class="cls-7" x1="0.5" y1="2894.67" x2="1110.29" y2="2894.67"/><line class="cls-7" x1="0.5" y1="2872.91" x2="1110.29" y2="2872.91"/><line class="cls-7" x1="0.5" y1="2851.15" x2="1110.29" y2="2851.15"/><line class="cls-7" x1="0.5" y1="2829.39" x2="1110.29" y2="2829.39"/><line class="cls-7" x1="0.5" y1="2807.63" x2="1110.29" y2="2807.63"/><line class="cls-7" x1="0.5" y1="2785.87" x2="1110.29" y2="2785.87"/><line class="cls-7" x1="0.5" y1="2764.11" x2="1110.29" y2="2764.11"/><line class="cls-7" x1="0.5" y1="2742.35" x2="1110.29" y2="2742.35"/><line class="cls-7" x1="0.5" y1="2720.58" x2="1110.29" y2="2720.58"/><line class="cls-7" x1="0.5" y1="2698.82" x2="1110.29" y2="2698.82"/><line class="cls-7" x1="0.5" y1="2677.06" x2="1110.29" y2="2677.06"/><line class="cls-7" x1="0.5" y1="2655.3" x2="1110.29" y2="2655.3"/><line class="cls-7" x1="0.5" y1="2633.54" x2="1110.29" y2="2633.54"/><line class="cls-7" x1="0.5" y1="2611.78" x2="1110.29" y2="2611.78"/><line class="cls-7" x1="0.5" y1="2590.02" x2="1110.29" y2="2590.02"/><line class="cls-7" x1="0.5" y1="2568.26" x2="1110.29" y2="2568.26"/><line class="cls-7" x1="0.5" y1="2546.5" x2="1110.29" y2="2546.5"/><line class="cls-7" x1="0.5" y1="2524.74" x2="1110.29" y2="2524.74"/><line class="cls-7" x1="0.5" y1="2502.98" x2="1110.29" y2="2502.98"/><line class="cls-7" x1="0.5" y1="2481.22" x2="1110.29" y2="2481.22"/><line class="cls-7" x1="0.5" y1="2459.46" x2="1110.29" y2="2459.46"/><line class="cls-7" x1="0.5" y1="2437.7" x2="1110.29" y2="2437.7"/><line class="cls-7" x1="0.5" y1="2415.94" x2="1110.29" y2="2415.94"/><line class="cls-7" x1="0.5" y1="2394.17" x2="1110.29" y2="2394.17"/><line class="cls-7" x1="0.5" y1="2372.41" x2="1110.29" y2="2372.41"/><line class="cls-7" x1="0.5" y1="2350.65" x2="1110.29" y2="2350.65"/><line class="cls-7" x1="0.5" y1="2328.89" x2="1110.29" y2="2328.89"/><line class="cls-7" x1="0.5" y1="2307.13" x2="1110.29" y2="2307.13"/><line class="cls-7" x1="0.5" y1="2285.37" x2="1110.29" y2="2285.37"/><line class="cls-7" x1="0.5" y1="2263.61" x2="1110.29" y2="2263.61"/><line class="cls-7" x1="0.5" y1="2241.85" x2="1110.29" y2="2241.85"/><line class="cls-7" x1="1088.53" y1="2220.09" x2="1088.53" y2="3329.88"/><line class="cls-7" x1="1066.77" y1="2220.09" x2="1066.77" y2="3329.88"/><line class="cls-7" x1="1045.01" y1="2220.09" x2="1045.01" y2="3329.88"/><line class="cls-7" x1="1023.25" y1="2220.09" x2="1023.25" y2="3329.88"/><line class="cls-7" x1="1001.49" y1="2220.09" x2="1001.49" y2="3329.88"/><line class="cls-7" x1="979.73" y1="2220.09" x2="979.73" y2="3329.88"/><line class="cls-7" x1="957.97" y1="2220.09" x2="957.97" y2="3329.88"/><line class="cls-7" x1="936.21" y1="2220.09" x2="936.21" y2="3329.88"/><line class="cls-7" x1="914.45" y1="2220.09" x2="914.45" y2="3329.88"/><line class="cls-7" x1="892.69" y1="2220.09" x2="892.69" y2="3329.88"/><line class="cls-7" x1="870.93" y1="2220.09" x2="870.93" y2="3329.88"/><line class="cls-7" x1="849.17" y1="2220.09" x2="849.17" y2="3329.88"/><line class="cls-7" x1="827.41" y1="2220.09" x2="827.41" y2="3329.88"/><line class="cls-7" x1="805.65" y1="2220.09" x2="805.65" y2="3329.88"/><line class="cls-7" x1="783.88" y1="2220.09" x2="783.88" y2="3329.88"/><line class="cls-7" x1="762.12" y1="2220.09" x2="762.12" y2="3329.88"/><line class="cls-7" x1="740.36" y1="2220.09" x2="740.36" y2="3329.88"/><line class="cls-7" x1="718.6" y1="2220.09" x2="718.6" y2="3329.88"/><line class="cls-7" x1="696.84" y1="2220.09" x2="696.84" y2="3329.88"/><line class="cls-7" x1="675.08" y1="2220.09" x2="675.08" y2="3329.88"/><line class="cls-7" x1="653.32" y1="2220.09" x2="653.32" y2="3329.88"/><line class="cls-7" x1="631.56" y1="2220.09" x2="631.56" y2="3329.88"/><line class="cls-7" x1="609.8" y1="2220.09" x2="609.8" y2="3329.88"/><line class="cls-7" x1="588.04" y1="2220.09" x2="588.04" y2="3329.88"/><line class="cls-7" x1="566.28" y1="2220.09" x2="566.28" y2="3329.88"/><line class="cls-7" x1="544.52" y1="2220.09" x2="544.52" y2="3329.88"/><line class="cls-7" x1="522.76" y1="2220.09" x2="522.76" y2="3329.88"/><line class="cls-7" x1="501" y1="2220.09" x2="501" y2="3329.88"/><line class="cls-7" x1="479.23" y1="2220.09" x2="479.23" y2="3329.88"/><line class="cls-7" x1="457.47" y1="2220.09" x2="457.47" y2="3329.88"/><line class="cls-7" x1="435.71" y1="2220.09" x2="435.71" y2="3329.88"/><line class="cls-7" x1="413.95" y1="2220.09" x2="413.95" y2="3329.88"/><line class="cls-7" x1="392.19" y1="2220.09" x2="392.19" y2="3329.88"/><line class="cls-7" x1="370.43" y1="2220.09" x2="370.43" y2="3329.88"/><line class="cls-7" x1="348.67" y1="2220.09" x2="348.67" y2="3329.88"/><line class="cls-7" x1="326.91" y1="2220.09" x2="326.91" y2="3329.88"/><line class="cls-7" x1="305.15" y1="2220.09" x2="305.15" y2="3329.88"/><line class="cls-7" x1="283.39" y1="2220.09" x2="283.39" y2="3329.88"/><line class="cls-7" x1="261.63" y1="2220.09" x2="261.63" y2="3329.88"/><line class="cls-7" x1="239.87" y1="2220.09" x2="239.87" y2="3329.88"/><line class="cls-7" x1="218.11" y1="2220.09" x2="218.11" y2="3329.88"/><line class="cls-7" x1="196.35" y1="2220.09" x2="196.35" y2="3329.88"/><line class="cls-7" x1="174.59" y1="2220.09" x2="174.59" y2="3329.88"/><line class="cls-7" x1="152.82" y1="2220.09" x2="152.82" y2="3329.88"/><line class="cls-7" x1="131.06" y1="2220.09" x2="131.06" y2="3329.88"/><line class="cls-7" x1="109.3" y1="2220.09" x2="109.3" y2="3329.88"/><line class="cls-7" x1="87.54" y1="2220.09" x2="87.54" y2="3329.88"/><line class="cls-7" x1="65.78" y1="2220.09" x2="65.78" y2="3329.88"/><line class="cls-7" x1="44.02" y1="2220.09" x2="44.02" y2="3329.88"/><line class="cls-7" x1="22.26" y1="2220.09" x2="22.26" y2="3329.88"/></g></g></g></g></g></g></svg>