<svg xmlns="http://www.w3.org/2000/svg" xmlns:xlink="http://www.w3.org/1999/xlink" viewBox="0 0 828 1792"><defs><style>.cls-1,.cls-7{fill:none;}.cls-2{isolation:isolate;}.cls-3{fill:url(#Degradado_sin_nombre_6);}.cls-4{clip-path:url(#clip-path);}.cls-5{opacity:0.4;}.cls-6{mix-blend-mode:overlay;}.cls-7{stroke:#ed2379;stroke-miterlimit:10;}</style><radialGradient id="Degradado_sin_nombre_6" cx="414" cy="896" r="697.8" gradientUnits="userSpaceOnUse"><stop offset="0" stop-color="#322264"/><stop offset="0.99" stop-color="#1c0e32"/></radialGradient><clipPath id="clip-path"><rect class="cls-1" y="0.21" width="828" height="1791.59"/></clipPath></defs><g class="cls-2"><g id="BACKGROUND"><rect class="cls-3" y="0.21" width="828" height="1791.59"/><g id="Layer_8" data-name="Layer 8"><g class="cls-4"><g class="cls-5"><g class="cls-6"><rect class="cls-7" x="-141.05" y="-423.57" width="1109.79" height="1109.79"/><line class="cls-7" x1="-141.05" y1="664.47" x2="968.74" y2="664.47"/><line class="cls-7" x1="-141.05" y1="642.71" x2="968.74" y2="642.71"/><line class="cls-7" x1="-141.05" y1="620.95" x2="968.74" y2="620.95"/><line class="cls-7" x1="-141.05" y1="599.19" x2="968.74" y2="599.19"/><line class="cls-7" x1="-141.05" y1="577.42" x2="968.74" y2="577.42"/><line class="cls-7" x1="-141.05" y1="555.66" x2="968.74" y2="555.66"/><line class="cls-7" x1="-141.05" y1="533.9" x2="968.74" y2="533.9"/><line class="cls-7" x1="-141.05" y1="512.14" x2="968.74" y2="512.14"/><line class="cls-7" x1="-141.05" y1="490.38" x2="968.74" y2="490.38"/><line class="cls-7" x1="-141.05" y1="468.62" x2="968.74" y2="468.62"/><line class="cls-7" x1="-141.05" y1="446.86" x2="968.74" y2="446.86"/><line class="cls-7" x1="-141.05" y1="425.1" x2="968.74" y2="425.1"/><line class="cls-7" x1="-141.05" y1="403.34" x2="968.74" y2="403.34"/><line class="cls-7" x1="-141.05" y1="381.58" x2="968.74" y2="381.58"/><line class="cls-7" x1="-141.05" y1="359.82" x2="968.74" y2="359.82"/><line class="cls-7" x1="-141.05" y1="338.06" x2="968.74" y2="338.06"/><line class="cls-7" x1="-141.05" y1="316.3" x2="968.74" y2="316.3"/><line class="cls-7" x1="-141.05" y1="294.54" x2="968.74" y2="294.54"/><line class="cls-7" x1="-141.05" y1="272.77" x2="968.74" y2="272.77"/><line class="cls-7" x1="-141.05" y1="251.01" x2="968.74" y2="251.01"/><line class="cls-7" x1="-141.05" y1="229.25" x2="968.74" y2="229.25"/><line class="cls-7" x1="-141.05" y1="207.49" x2="968.74" y2="207.49"/><line class="cls-7" x1="-141.05" y1="185.73" x2="968.74" y2="185.73"/><line class="cls-7" x1="-141.05" y1="163.97" x2="968.74" y2="163.97"/><line class="cls-7" x1="-141.05" y1="142.21" x2="968.74" y2="142.21"/><line class="cls-7" x1="-141.05" y1="120.45" x2="968.74" y2="120.45"/><line class="cls-7" x1="-141.05" y1="98.69" x2="968.74" y2="98.69"/><line class="cls-7" x1="-141.05" y1="76.93" x2="968.74" y2="76.93"/><line class="cls-7" x1="-141.05" y1="55.17" x2="968.74" y2="55.17"/><line class="cls-7" x1="-141.05" y1="33.41" x2="968.74" y2="33.41"/><line class="cls-7" x1="-141.05" y1="11.65" x2="968.74" y2="11.65"/><line class="cls-7" x1="816.42" y1="-423.57" x2="816.42" y2="686.23"/><line class="cls-7" x1="794.66" y1="-423.57" x2="794.66" y2="686.23"/><line class="cls-7" x1="772.9" y1="-423.57" x2="772.9" y2="686.23"/><line class="cls-7" x1="751.13" y1="-423.57" x2="751.13" y2="686.23"/><line class="cls-7" x1="729.37" y1="-423.57" x2="729.37" y2="686.23"/><line class="cls-7" x1="707.61" y1="-423.57" x2="707.61" y2="686.23"/><line class="cls-7" x1="685.85" y1="-423.57" x2="685.85" y2="686.23"/><line class="cls-7" x1="664.09" y1="-423.57" x2="664.09" y2="686.23"/><line class="cls-7" x1="642.33" y1="-423.57" x2="642.33" y2="686.23"/><line class="cls-7" x1="620.57" y1="-423.57" x2="620.57" y2="686.23"/><line class="cls-7" x1="598.81" y1="-423.57" x2="598.81" y2="686.23"/><line class="cls-7" x1="577.05" y1="-423.57" x2="577.05" y2="686.23"/><line class="cls-7" x1="555.29" y1="-423.57" x2="555.29" y2="686.23"/><line class="cls-7" x1="533.53" y1="-423.57" x2="533.53" y2="686.23"/><line class="cls-7" x1="511.77" y1="-423.57" x2="511.77" y2="686.23"/><line class="cls-7" x1="490.01" y1="-423.57" x2="490.01" y2="686.23"/><line class="cls-7" x1="468.25" y1="-423.57" x2="468.25" y2="686.23"/><line class="cls-7" x1="446.49" y1="-423.57" x2="446.49" y2="686.23"/><line class="cls-7" x1="424.72" y1="-423.57" x2="424.72" y2="686.23"/><line class="cls-7" x1="402.96" y1="-423.57" x2="402.96" y2="686.23"/><line class="cls-7" x1="381.2" y1="-423.57" x2="381.2" y2="686.23"/><line class="cls-7" x1="359.44" y1="-423.57" x2="359.44" y2="686.23"/><line class="cls-7" x1="337.68" y1="-423.57" x2="337.68" y2="686.23"/><line class="cls-7" x1="315.92" y1="-423.57" x2="315.92" y2="686.23"/><line class="cls-7" x1="294.16" y1="-423.57" x2="294.16" y2="686.23"/><line class="cls-7" x1="272.4" y1="-423.57" x2="272.4" y2="686.23"/><line class="cls-7" x1="250.64" y1="-423.57" x2="250.64" y2="686.23"/><line class="cls-7" x1="228.88" y1="-423.57" x2="228.88" y2="686.23"/><line class="cls-7" x1="207.12" y1="-423.57" x2="207.12" y2="686.23"/><line class="cls-7" x1="185.36" y1="-423.57" x2="185.36" y2="686.23"/><line class="cls-7" x1="163.6" y1="-423.57" x2="163.6" y2="686.23"/><line class="cls-7" x1="141.84" y1="-423.57" x2="141.84" y2="686.23"/><line class="cls-7" x1="120.08" y1="-423.57" x2="120.08" y2="686.23"/><line class="cls-7" x1="98.31" y1="-423.57" x2="98.31" y2="686.23"/><line class="cls-7" x1="76.55" y1="-423.57" x2="76.55" y2="686.23"/><line class="cls-7" x1="54.79" y1="-423.57" x2="54.79" y2="686.23"/><line class="cls-7" x1="33.03" y1="-423.57" x2="33.03" y2="686.23"/><line class="cls-7" x1="11.27" y1="-423.57" x2="11.27" y2="686.23"/></g><g class="cls-6"><line class="cls-7" x1="-141.02" y1="1774.26" x2="968.77" y2="1774.26"/><line class="cls-7" x1="-141.02" y1="1752.5" x2="968.77" y2="1752.5"/><line class="cls-7" x1="-141.02" y1="1730.74" x2="968.77" y2="1730.74"/><line class="cls-7" x1="-141.02" y1="1708.98" x2="968.77" y2="1708.98"/><line class="cls-7" x1="-141.02" y1="1687.22" x2="968.77" y2="1687.22"/><line class="cls-7" x1="-141.02" y1="1665.46" x2="968.77" y2="1665.46"/><line class="cls-7" x1="-141.02" y1="1643.7" x2="968.77" y2="1643.7"/><line class="cls-7" x1="-141.02" y1="1621.94" x2="968.77" y2="1621.94"/><line class="cls-7" x1="-141.02" y1="1600.18" x2="968.77" y2="1600.18"/><line class="cls-7" x1="-141.02" y1="1578.42" x2="968.77" y2="1578.42"/><line class="cls-7" x1="-141.02" y1="1556.66" x2="968.77" y2="1556.66"/><line class="cls-7" x1="-141.02" y1="1534.89" x2="968.77" y2="1534.89"/><line class="cls-7" x1="-141.02" y1="1513.13" x2="968.77" y2="1513.13"/><line class="cls-7" x1="-141.02" y1="1491.37" x2="968.77" y2="1491.37"/><line class="cls-7" x1="-141.02" y1="1469.61" x2="968.77" y2="1469.61"/><line class="cls-7" x1="-141.02" y1="1447.85" x2="968.77" y2="1447.85"/><line class="cls-7" x1="-141.02" y1="1426.09" x2="968.77" y2="1426.09"/><line class="cls-7" x1="-141.02" y1="1404.33" x2="968.77" y2="1404.33"/><line class="cls-7" x1="-141.02" y1="1382.57" x2="968.77" y2="1382.57"/><line class="cls-7" x1="-141.02" y1="1360.81" x2="968.77" y2="1360.81"/><line class="cls-7" x1="-141.02" y1="1339.05" x2="968.77" y2="1339.05"/><line class="cls-7" x1="-141.02" y1="1317.29" x2="968.77" y2="1317.29"/><line class="cls-7" x1="-141.02" y1="1295.53" x2="968.77" y2="1295.53"/><line class="cls-7" x1="-141.02" y1="1273.77" x2="968.77" y2="1273.77"/><line class="cls-7" x1="-141.02" y1="1252.01" x2="968.77" y2="1252.01"/><line class="cls-7" x1="-141.02" y1="1230.25" x2="968.77" y2="1230.25"/><line class="cls-7" x1="-141.02" y1="1208.48" x2="968.77" y2="1208.48"/><line class="cls-7" x1="-141.02" y1="1186.72" x2="968.77" y2="1186.72"/><line class="cls-7" x1="-141.02" y1="1164.96" x2="968.77" y2="1164.96"/><line class="cls-7" x1="-141.02" y1="1143.2" x2="968.77" y2="1143.2"/><line class="cls-7" x1="-141.02" y1="1121.44" x2="968.77" y2="1121.44"/><line class="cls-7" x1="-141.02" y1="1099.68" x2="968.77" y2="1099.68"/><line class="cls-7" x1="-141.02" y1="1077.92" x2="968.77" y2="1077.92"/><line class="cls-7" x1="-141.02" y1="1056.16" x2="968.77" y2="1056.16"/><line class="cls-7" x1="-141.02" y1="1034.4" x2="968.77" y2="1034.4"/><line class="cls-7" x1="-141.02" y1="1012.64" x2="968.77" y2="1012.64"/><line class="cls-7" x1="-141.02" y1="990.88" x2="968.77" y2="990.88"/><line class="cls-7" x1="-141.02" y1="969.12" x2="968.77" y2="969.12"/><line class="cls-7" x1="-141.02" y1="947.36" x2="968.77" y2="947.36"/><line class="cls-7" x1="-141.02" y1="925.6" x2="968.77" y2="925.6"/><line class="cls-7" x1="-141.02" y1="903.83" x2="968.77" y2="903.83"/><line class="cls-7" x1="-141.02" y1="882.07" x2="968.77" y2="882.07"/><line class="cls-7" x1="-141.02" y1="860.31" x2="968.77" y2="860.31"/><line class="cls-7" x1="-141.02" y1="838.55" x2="968.77" y2="838.55"/><line class="cls-7" x1="-141.02" y1="816.79" x2="968.77" y2="816.79"/><line class="cls-7" x1="-141.02" y1="795.03" x2="968.77" y2="795.03"/><line class="cls-7" x1="-141.02" y1="773.27" x2="968.77" y2="773.27"/><line class="cls-7" x1="-141.02" y1="751.51" x2="968.77" y2="751.51"/><line class="cls-7" x1="-141.02" y1="729.75" x2="968.77" y2="729.75"/><line class="cls-7" x1="-141.02" y1="707.99" x2="968.77" y2="707.99"/><line class="cls-7" x1="816.45" y1="686.23" x2="816.45" y2="1796.02"/><line class="cls-7" x1="794.69" y1="686.23" x2="794.69" y2="1796.02"/><line class="cls-7" x1="772.93" y1="686.23" x2="772.93" y2="1796.02"/><line class="cls-7" x1="751.17" y1="686.23" x2="751.17" y2="1796.02"/><line class="cls-7" x1="729.41" y1="686.23" x2="729.41" y2="1796.02"/><line class="cls-7" x1="707.65" y1="686.23" x2="707.65" y2="1796.02"/><line class="cls-7" x1="685.88" y1="686.23" x2="685.88" y2="1796.02"/><line class="cls-7" x1="664.12" y1="686.23" x2="664.12" y2="1796.02"/><line class="cls-7" x1="642.36" y1="686.23" x2="642.36" y2="1796.02"/><line class="cls-7" x1="620.6" y1="686.23" x2="620.6" y2="1796.02"/><line class="cls-7" x1="598.84" y1="686.23" x2="598.84" y2="1796.02"/><line class="cls-7" x1="577.08" y1="686.23" x2="577.08" y2="1796.02"/><line class="cls-7" x1="555.32" y1="686.23" x2="555.32" y2="1796.02"/><line class="cls-7" x1="533.56" y1="686.23" x2="533.56" y2="1796.02"/><line class="cls-7" x1="511.8" y1="686.23" x2="511.8" y2="1796.02"/><line class="cls-7" x1="490.04" y1="686.23" x2="490.04" y2="1796.02"/><line class="cls-7" x1="468.28" y1="686.23" x2="468.28" y2="1796.02"/><line class="cls-7" x1="446.52" y1="686.23" x2="446.52" y2="1796.02"/><line class="cls-7" x1="424.76" y1="686.23" x2="424.76" y2="1796.02"/><line class="cls-7" x1="403" y1="686.23" x2="403" y2="1796.02"/><line class="cls-7" x1="381.24" y1="686.23" x2="381.24" y2="1796.02"/><line class="cls-7" x1="359.47" y1="686.23" x2="359.47" y2="1796.02"/><line class="cls-7" x1="337.71" y1="686.23" x2="337.71" y2="1796.02"/><line class="cls-7" x1="315.95" y1="686.23" x2="315.95" y2="1796.02"/><line class="cls-7" x1="294.19" y1="686.23" x2="294.19" y2="1796.02"/><line class="cls-7" x1="272.43" y1="686.23" x2="272.43" y2="1796.02"/><line class="cls-7" x1="250.67" y1="686.23" x2="250.67" y2="1796.02"/><line class="cls-7" x1="228.91" y1="686.23" x2="228.91" y2="1796.02"/><line class="cls-7" x1="207.15" y1="686.23" x2="207.15" y2="1796.02"/><line class="cls-7" x1="185.39" y1="686.23" x2="185.39" y2="1796.02"/><line class="cls-7" x1="163.63" y1="686.23" x2="163.63" y2="1796.02"/><line class="cls-7" x1="141.87" y1="686.23" x2="141.87" y2="1796.02"/><line class="cls-7" x1="120.11" y1="686.23" x2="120.11" y2="1796.02"/><line class="cls-7" x1="98.35" y1="686.23" x2="98.35" y2="1796.02"/><line class="cls-7" x1="76.59" y1="686.23" x2="76.59" y2="1796.02"/><line class="cls-7" x1="54.83" y1="686.23" x2="54.83" y2="1796.02"/><line class="cls-7" x1="33.06" y1="686.23" x2="33.06" y2="1796.02"/><line class="cls-7" x1="11.3" y1="686.23" x2="11.3" y2="1796.02"/></g></g></g></g></g></g></svg>