<svg id="Viewport" xmlns="http://www.w3.org/2000/svg" xmlns:xlink="http://www.w3.org/1999/xlink" viewBox="0 0 158.79 262.28"><defs><style>.cls-1{isolation:isolate;}.cls-2{fill:url(#linear-gradient);}.cls-3{fill:#150d43;}.cls-4{fill:url(#linear-gradient-2);}.cls-5{fill:url(#linear-gradient-3);}.cls-6{fill:url(#linear-gradient-4);}.cls-7{fill:url(#linear-gradient-5);}.cls-8{fill:url(#linear-gradient-6);}.cls-9{fill:url(#linear-gradient-7);}.cls-10{fill:url(#linear-gradient-8);}.cls-11{fill:url(#linear-gradient-9);}.cls-12{fill:url(#linear-gradient-10);}.cls-13{fill:#9456a2;}.cls-14{fill:#351f60;}.cls-15{fill:url(#linear-gradient-11);}.cls-16{fill:url(#linear-gradient-12);}.cls-17{fill:#69cce2;}</style><linearGradient id="linear-gradient" x1="334.61" y1="589.35" x2="493.39" y2="589.35" gradientUnits="userSpaceOnUse"><stop offset="0" stop-color="#c21e8e"/><stop offset="0.13" stop-color="#bc1f8d"/><stop offset="0.3" stop-color="#ab208b"/><stop offset="0.5" stop-color="#902387"/><stop offset="0.71" stop-color="#6a2682"/><stop offset="0.94" stop-color="#392b7c"/><stop offset="1" stop-color="#2b2c7a"/></linearGradient><linearGradient id="linear-gradient-2" x1="414.09" y1="610.95" x2="493.39" y2="610.95" xlink:href="#linear-gradient"/><linearGradient id="linear-gradient-3" x1="1644.65" y1="610.95" x2="1723.95" y2="610.95" gradientTransform="matrix(-1, 0, 0, 1, 2058.56, 0)" xlink:href="#linear-gradient"/><linearGradient id="linear-gradient-4" x1="38.56" y1="95.79" x2="120.29" y2="95.79" gradientUnits="userSpaceOnUse"><stop offset="0.09" stop-color="#9053a1"/><stop offset="0.24" stop-color="#985ca5"/><stop offset="0.5" stop-color="#ad74b1"/><stop offset="0.63" stop-color="#ba83b9"/><stop offset="0.76" stop-color="#b49fc7"/><stop offset="1" stop-color="#a6dde6"/></linearGradient><linearGradient id="linear-gradient-5" x1="99.89" y1="79.58" x2="99.89" y2="244.89" xlink:href="#linear-gradient-4"/><linearGradient id="linear-gradient-6" x1="59.02" y1="33.14" x2="59.02" y2="236.53" gradientUnits="userSpaceOnUse"><stop offset="0" stop-color="#5e3d98"/><stop offset="0.28" stop-color="#593a92"/><stop offset="0.65" stop-color="#4c3182"/><stop offset="1" stop-color="#3a246b"/></linearGradient><linearGradient id="linear-gradient-7" x1="47.75" y1="22.16" x2="111.04" y2="22.16" xlink:href="#linear-gradient-4"/><linearGradient id="linear-gradient-8" x1="95.26" y1="11.89" x2="95.26" y2="133.15" xlink:href="#linear-gradient-4"/><linearGradient id="linear-gradient-9" x1="63.62" y1="33.14" x2="63.62" y2="236.53" xlink:href="#linear-gradient-6"/><linearGradient id="linear-gradient-10" x1="52.25" y1="15.72" x2="106.53" y2="15.72" xlink:href="#linear-gradient-4"/><linearGradient id="linear-gradient-11" x1="100.31" y1="45.16" x2="92.02" y2="24.44" xlink:href="#linear-gradient-4"/><linearGradient id="linear-gradient-12" x1="52.25" y1="26.9" x2="79.48" y2="26.9" gradientUnits="userSpaceOnUse"><stop offset="0" stop-color="#7d53a2"/><stop offset="0.31" stop-color="#7652a1"/><stop offset="0.76" stop-color="#614ea0"/><stop offset="1" stop-color="#544b9f"/></linearGradient></defs><title>Building</title><g id="OBJECTS"><g class="cls-1"><path class="cls-2" d="M492.6,588.25a1.16,1.16,0,0,1,0,2.2l-76.46,44.43a4.19,4.19,0,0,1-3.79,0l-77-44.43a1.16,1.16,0,0,1,0-2.2l76.46-44.43a4.18,4.18,0,0,1,3.79,0Z" transform="translate(-334.61 -373.05)"/><path class="cls-3" d="M492.6,585.39a1.16,1.16,0,0,1,0,2.2L416.15,632a4.19,4.19,0,0,1-3.79,0l-77-44.43a1.16,1.16,0,0,1,0-2.2L411.85,541a4.18,4.18,0,0,1,3.79,0Z" transform="translate(-334.61 -373.05)"/><path class="cls-4" d="M414.09,632.46v2.87l1.36-.17,77.17-44.72s.19.46.78-1.1v-2.78Z" transform="translate(-334.61 -373.05)"/><path class="cls-5" d="M413.91,632.46v2.87l-1.36-.17-77.17-44.72s-.19.46-.78-1.1v-2.78Z" transform="translate(-334.61 -373.05)"/></g><g class="cls-1"><polygon class="cls-6" points="120.29 95.79 79.48 119.47 38.56 95.8 79.48 72.12 120.29 95.79"/><polygon class="cls-7" points="120.29 95.79 120.29 211.75 79.48 235.43 79.48 119.47 120.29 95.79"/><polygon class="cls-8" points="79.48 119.47 79.48 235.43 38.56 211.76 38.56 95.8 79.48 119.47"/></g><g class="cls-1"><polygon class="cls-9" points="111.04 22.16 79.48 40.49 47.75 22.16 79.48 3.83 111.04 22.16"/><polygon class="cls-10" points="111.04 22.16 111.04 96.16 79.48 114.49 79.48 40.49 111.04 22.16"/><polygon class="cls-11" points="79.48 40.49 79.48 114.49 47.75 96.16 47.75 22.16 79.48 40.49"/></g><g class="cls-1"><polygon class="cls-12" points="106.53 15.72 79.48 31.44 52.25 15.72 79.48 0 106.53 15.72"/><polygon class="cls-13" points="55.66 15.72 79.48 1.97 103.14 15.72 79.48 29.47 55.66 15.72"/><polygon class="cls-14" points="79.48 4.18 101.23 16.82 103.14 15.72 79.48 1.97 55.66 15.72 57.58 16.83 79.48 4.18"/><polygon class="cls-15" points="106.53 15.72 106.53 22.36 79.48 38.08 79.48 31.44 106.53 15.72"/><polygon class="cls-16" points="79.48 31.44 79.48 38.08 52.25 22.36 52.25 15.72 79.48 31.44"/></g><polyline class="cls-14" points="67.73 120.62 70.95 122.48 70.95 126.19 67.73 124.32 67.73 120.62"/><polyline class="cls-14" points="62 117.32 65.22 119.18 65.22 122.88 62 121.02 62 117.32"/><polyline class="cls-14" points="52.83 112.02 56.04 113.88 56.04 117.58 52.83 115.72 52.83 112.02"/><polyline class="cls-14" points="47.1 108.71 50.32 110.57 50.32 114.27 47.1 112.41 47.1 108.71"/><polyline class="cls-14" points="67.73 127.2 70.95 129.06 70.95 132.76 67.73 130.9 67.73 127.2"/><polyline class="cls-14" points="62 123.9 65.22 125.76 65.22 129.46 62 127.6 62 123.9"/><polyline class="cls-14" points="52.83 118.6 56.04 120.46 56.04 124.16 52.83 122.3 52.83 118.6"/><polyline class="cls-14" points="47.1 115.29 50.32 117.15 50.32 120.85 47.1 118.99 47.1 115.29"/><polyline class="cls-14" points="67.73 133.78 70.95 135.64 70.95 139.34 67.73 137.48 67.73 133.78"/><polyline class="cls-14" points="62 130.47 65.22 132.34 65.22 136.04 62 134.18 62 130.47"/><polyline class="cls-14" points="52.83 125.18 56.04 127.04 56.04 130.74 52.83 128.88 52.83 125.18"/><polyline class="cls-14" points="47.1 121.87 50.32 123.73 50.32 127.43 47.1 125.57 47.1 121.87"/><polyline class="cls-17" points="67.73 140.37 70.95 142.23 70.95 145.93 67.73 144.07 67.73 140.37"/><polyline class="cls-14" points="62 137.06 65.22 138.92 65.22 142.62 62 140.76 62 137.06"/><polyline class="cls-14" points="52.83 131.76 56.04 133.62 56.04 137.32 52.83 135.47 52.83 131.76"/><polyline class="cls-14" points="47.1 128.46 50.32 130.31 50.32 134.02 47.1 132.16 47.1 128.46"/><polyline class="cls-14" points="67.73 146.94 70.95 148.81 70.95 152.51 67.73 150.65 67.73 146.94"/><polyline class="cls-14" points="62 143.64 65.22 145.5 65.22 149.2 62 147.34 62 143.64"/><polyline class="cls-14" points="52.83 138.34 56.04 140.2 56.04 143.9 52.83 142.04 52.83 138.34"/><polyline class="cls-14" points="47.1 135.03 50.32 136.9 50.32 140.6 47.1 138.74 47.1 135.03"/><polyline class="cls-14" points="67.73 153.52 70.95 155.38 70.95 159.09 67.73 157.23 67.73 153.52"/><polyline class="cls-14" points="62 150.22 65.22 152.08 65.22 155.78 62 153.92 62 150.22"/><polyline class="cls-14" points="52.83 144.92 56.04 146.78 56.04 150.48 52.83 148.62 52.83 144.92"/><polyline class="cls-17" points="47.1 141.61 50.32 143.47 50.32 147.18 47.1 145.32 47.1 141.61"/><polyline class="cls-14" points="67.73 160.11 70.95 161.97 70.95 165.67 67.73 163.81 67.73 160.11"/><polyline class="cls-14" points="62 156.8 65.22 158.66 65.22 162.37 62 160.5 62 156.8"/><polyline class="cls-14" points="52.83 151.51 56.04 153.36 56.04 157.07 52.83 155.21 52.83 151.51"/><polyline class="cls-14" points="47.1 148.2 50.32 150.06 50.32 153.76 47.1 151.9 47.1 148.2"/><polyline class="cls-14" points="67.73 166.69 70.95 168.55 70.95 172.25 67.73 170.39 67.73 166.69"/><polyline class="cls-14" points="62 163.38 65.22 165.24 65.22 168.94 62 167.09 62 163.38"/><polyline class="cls-14" points="52.83 158.09 56.04 159.94 56.04 163.65 52.83 161.79 52.83 158.09"/><polyline class="cls-14" points="47.1 154.78 50.32 156.64 50.32 160.34 47.1 158.48 47.1 154.78"/><polyline class="cls-17" points="67.73 173.27 70.95 175.13 70.95 178.83 67.73 176.97 67.73 173.27"/><polyline class="cls-17" points="62 169.96 65.22 171.82 65.22 175.53 62 173.66 62 169.96"/><polyline class="cls-14" points="52.83 164.66 56.04 166.52 56.04 170.23 52.83 168.37 52.83 164.66"/><polyline class="cls-14" points="47.1 161.36 50.32 163.22 50.32 166.92 47.1 165.06 47.1 161.36"/><polyline class="cls-14" points="67.73 179.85 70.95 181.71 70.95 185.41 67.73 183.55 67.73 179.85"/><polyline class="cls-14" points="62 176.55 65.22 178.41 65.22 182.11 62 180.25 62 176.55"/><polyline class="cls-14" points="52.83 171.25 56.04 173.11 56.04 176.81 52.83 174.95 52.83 171.25"/><polyline class="cls-14" points="47.1 167.94 50.32 169.8 50.32 173.5 47.1 171.64 47.1 167.94"/><polyline class="cls-14" points="67.73 186.43 70.95 188.29 70.95 191.99 67.73 190.13 67.73 186.43"/><polyline class="cls-14" points="62 183.13 65.22 184.99 65.22 188.69 62 186.83 62 183.13"/><polyline class="cls-14" points="52.83 177.83 56.04 179.69 56.04 183.39 52.83 181.53 52.83 177.83"/><polyline class="cls-14" points="47.1 174.52 50.32 176.38 50.32 180.08 47.1 178.22 47.1 174.52"/><polyline class="cls-14" points="67.73 193.01 70.95 194.87 70.95 198.57 67.73 196.71 67.73 193.01"/><polyline class="cls-14" points="62 189.71 65.22 191.56 65.22 195.27 62 193.41 62 189.71"/><polyline class="cls-14" points="52.83 184.41 56.04 186.27 56.04 189.97 52.83 188.11 52.83 184.41"/><polyline class="cls-14" points="47.1 181.1 50.32 182.96 50.32 186.66 47.1 184.8 47.1 181.1"/><polyline class="cls-17" points="67.73 199.59 70.95 201.46 70.95 205.16 67.73 203.3 67.73 199.59"/><polyline class="cls-14" points="62 196.29 65.22 198.15 65.22 201.85 62 199.99 62 196.29"/><polyline class="cls-14" points="52.83 190.99 56.04 192.85 56.04 196.55 52.83 194.69 52.83 190.99"/><polyline class="cls-14" points="47.1 187.69 50.32 189.54 50.32 193.25 47.1 191.39 47.1 187.69"/><polyline class="cls-14" points="67.73 206.18 70.95 208.03 70.95 211.74 67.73 209.88 67.73 206.18"/><polyline class="cls-14" points="62 202.87 65.22 204.73 65.22 208.43 62 206.57 62 202.87"/><polyline class="cls-14" points="52.83 197.57 56.04 199.43 56.04 203.13 52.83 201.28 52.83 197.57"/><polyline class="cls-14" points="47.1 194.26 50.32 196.13 50.32 199.83 47.1 197.97 47.1 194.26"/><polyline class="cls-14" points="67.73 212.75 70.95 214.62 70.95 218.32 67.73 216.46 67.73 212.75"/><polyline class="cls-14" points="62 209.45 65.22 211.31 65.22 215.01 62 213.15 62 209.45"/><polyline class="cls-14" points="52.83 204.15 56.04 206.01 56.04 209.71 52.83 207.85 52.83 204.15"/><polyline class="cls-14" points="47.1 200.84 50.32 202.7 50.32 206.41 47.1 204.55 47.1 200.84"/><polyline class="cls-14" points="67.73 219.34 70.95 221.2 70.95 224.9 67.73 223.04 67.73 219.34"/><polyline class="cls-14" points="62 216.03 65.22 217.89 65.22 221.59 62 219.73 62 216.03"/><polyline class="cls-14" points="52.83 210.74 56.04 212.59 56.04 216.29 52.83 214.43 52.83 210.74"/><polyline class="cls-14" points="47.1 207.43 50.32 209.29 50.32 212.99 47.1 211.13 47.1 207.43"/><polyline class="cls-14" points="91.81 120.62 88.59 122.48 88.59 126.19 91.81 124.32 91.81 120.62"/><polyline class="cls-14" points="97.53 117.32 94.31 119.18 94.31 122.88 97.53 121.02 97.53 117.32"/><polyline class="cls-14" points="106.71 112.02 103.49 113.88 103.49 117.58 106.71 115.72 106.71 112.02"/><polyline class="cls-14" points="112.44 108.71 109.22 110.57 109.22 114.27 112.44 112.41 112.44 108.71"/><polyline class="cls-14" points="91.81 127.2 88.59 129.06 88.59 132.76 91.81 130.9 91.81 127.2"/><polyline class="cls-14" points="97.53 123.9 94.31 125.76 94.31 129.46 97.53 127.6 97.53 123.9"/><polyline class="cls-14" points="106.71 118.6 103.49 120.46 103.49 124.16 106.71 122.3 106.71 118.6"/><polyline class="cls-14" points="112.44 115.29 109.22 117.15 109.22 120.85 112.44 118.99 112.44 115.29"/><polyline class="cls-14" points="91.81 133.78 88.59 135.64 88.59 139.34 91.81 137.48 91.81 133.78"/><polyline class="cls-14" points="97.53 130.47 94.31 132.34 94.31 136.04 97.53 134.18 97.53 130.47"/><polyline class="cls-14" points="106.71 125.18 103.49 127.04 103.49 130.74 106.71 128.88 106.71 125.18"/><polyline class="cls-14" points="112.44 121.87 109.22 123.73 109.22 127.43 112.44 125.57 112.44 121.87"/><polyline class="cls-17" points="91.81 140.37 88.59 142.23 88.59 145.93 91.81 144.07 91.81 140.37"/><polyline class="cls-14" points="97.53 137.06 94.31 138.92 94.31 142.62 97.53 140.76 97.53 137.06"/><polyline class="cls-14" points="106.71 131.76 103.49 133.62 103.49 137.32 106.71 135.47 106.71 131.76"/><polyline class="cls-14" points="112.44 128.46 109.22 130.31 109.22 134.02 112.44 132.16 112.44 128.46"/><polyline class="cls-14" points="91.81 146.94 88.59 148.81 88.59 152.51 91.81 150.65 91.81 146.94"/><polyline class="cls-14" points="97.53 143.64 94.31 145.5 94.31 149.2 97.53 147.34 97.53 143.64"/><polyline class="cls-14" points="106.71 138.34 103.49 140.2 103.49 143.9 106.71 142.04 106.71 138.34"/><polyline class="cls-14" points="112.44 135.03 109.22 136.9 109.22 140.6 112.44 138.74 112.44 135.03"/><polyline class="cls-14" points="91.81 153.52 88.59 155.38 88.59 159.09 91.81 157.23 91.81 153.52"/><polyline class="cls-14" points="97.53 150.22 94.31 152.08 94.31 155.78 97.53 153.92 97.53 150.22"/><polyline class="cls-14" points="106.71 144.92 103.49 146.78 103.49 150.48 106.71 148.62 106.71 144.92"/><polyline class="cls-17" points="112.44 141.61 109.22 143.47 109.22 147.18 112.44 145.32 112.44 141.61"/><polyline class="cls-14" points="91.81 160.11 88.59 161.97 88.59 165.67 91.81 163.81 91.81 160.11"/><polyline class="cls-14" points="97.53 156.8 94.31 158.66 94.31 162.37 97.53 160.5 97.53 156.8"/><polyline class="cls-14" points="106.71 151.51 103.49 153.36 103.49 157.07 106.71 155.21 106.71 151.51"/><polyline class="cls-14" points="112.44 148.2 109.22 150.06 109.22 153.76 112.44 151.9 112.44 148.2"/><polyline class="cls-14" points="91.81 166.69 88.59 168.55 88.59 172.25 91.81 170.39 91.81 166.69"/><polyline class="cls-14" points="97.53 163.38 94.31 165.24 94.31 168.94 97.53 167.09 97.53 163.38"/><polyline class="cls-14" points="106.71 158.09 103.49 159.94 103.49 163.65 106.71 161.79 106.71 158.09"/><polyline class="cls-14" points="112.44 154.78 109.22 156.64 109.22 160.34 112.44 158.48 112.44 154.78"/><polyline class="cls-17" points="91.81 173.27 88.59 175.13 88.59 178.83 91.81 176.97 91.81 173.27"/><polyline class="cls-17" points="97.53 169.96 94.31 171.82 94.31 175.53 97.53 173.66 97.53 169.96"/><polyline class="cls-14" points="106.71 164.66 103.49 166.52 103.49 170.23 106.71 168.37 106.71 164.66"/><polyline class="cls-14" points="112.44 161.36 109.22 163.22 109.22 166.92 112.44 165.06 112.44 161.36"/><polyline class="cls-14" points="91.81 179.85 88.59 181.71 88.59 185.41 91.81 183.55 91.81 179.85"/><polyline class="cls-14" points="97.53 176.55 94.31 178.41 94.31 182.11 97.53 180.25 97.53 176.55"/><polyline class="cls-14" points="106.71 171.25 103.49 173.11 103.49 176.81 106.71 174.95 106.71 171.25"/><polyline class="cls-14" points="112.44 167.94 109.22 169.8 109.22 173.5 112.44 171.64 112.44 167.94"/><polyline class="cls-14" points="91.81 186.43 88.59 188.29 88.59 191.99 91.81 190.13 91.81 186.43"/><polyline class="cls-14" points="97.53 183.13 94.31 184.99 94.31 188.69 97.53 186.83 97.53 183.13"/><polyline class="cls-14" points="106.71 177.83 103.49 179.69 103.49 183.39 106.71 181.53 106.71 177.83"/><polyline class="cls-14" points="112.44 174.52 109.22 176.38 109.22 180.08 112.44 178.22 112.44 174.52"/><polyline class="cls-14" points="91.81 193.01 88.59 194.87 88.59 198.57 91.81 196.71 91.81 193.01"/><polyline class="cls-14" points="97.53 189.71 94.31 191.56 94.31 195.27 97.53 193.41 97.53 189.71"/><polyline class="cls-14" points="106.71 184.41 103.49 186.27 103.49 189.97 106.71 188.11 106.71 184.41"/><polyline class="cls-14" points="112.44 181.1 109.22 182.96 109.22 186.66 112.44 184.8 112.44 181.1"/><polyline class="cls-17" points="91.81 199.59 88.59 201.46 88.59 205.16 91.81 203.3 91.81 199.59"/><polyline class="cls-14" points="97.53 196.29 94.31 198.15 94.31 201.85 97.53 199.99 97.53 196.29"/><polyline class="cls-14" points="106.71 190.99 103.49 192.85 103.49 196.55 106.71 194.69 106.71 190.99"/><polyline class="cls-14" points="112.44 187.69 109.22 189.54 109.22 193.25 112.44 191.39 112.44 187.69"/><polyline class="cls-14" points="91.81 206.18 88.59 208.03 88.59 211.74 91.81 209.88 91.81 206.18"/><polyline class="cls-14" points="97.53 202.87 94.31 204.73 94.31 208.43 97.53 206.57 97.53 202.87"/><polyline class="cls-14" points="106.71 197.57 103.49 199.43 103.49 203.13 106.71 201.28 106.71 197.57"/><polyline class="cls-14" points="112.44 194.26 109.22 196.13 109.22 199.83 112.44 197.97 112.44 194.26"/><polyline class="cls-14" points="91.81 212.75 88.59 214.62 88.59 218.32 91.81 216.46 91.81 212.75"/><polyline class="cls-14" points="97.53 209.45 94.31 211.31 94.31 215.01 97.53 213.15 97.53 209.45"/><polyline class="cls-14" points="106.71 204.15 103.49 206.01 103.49 209.71 106.71 207.85 106.71 204.15"/><polyline class="cls-14" points="112.44 200.84 109.22 202.7 109.22 206.41 112.44 204.55 112.44 200.84"/><polyline class="cls-14" points="91.81 219.34 88.59 221.2 88.59 224.9 91.81 223.04 91.81 219.34"/><polyline class="cls-14" points="97.53 216.03 94.31 217.89 94.31 221.59 97.53 219.73 97.53 216.03"/><polyline class="cls-14" points="106.71 210.74 103.49 212.59 103.49 216.29 106.71 214.43 106.71 210.74"/><polyline class="cls-14" points="112.44 207.43 109.22 209.29 109.22 212.99 112.44 211.13 112.44 207.43"/><polyline class="cls-14" points="92.44 42.94 90.64 43.98 90.64 46.06 92.44 45.02 92.44 42.94"/><polyline class="cls-14" points="95.64 41.09 93.84 42.13 93.84 44.21 95.64 43.16 95.64 41.09"/><polyline class="cls-14" points="100.78 38.13 98.98 39.17 98.98 41.24 100.78 40.2 100.78 38.13"/><polyline class="cls-14" points="103.98 36.28 102.18 37.32 102.18 39.39 103.98 38.35 103.98 36.28"/><polyline class="cls-14" points="92.44 46.63 90.64 47.67 90.64 49.74 92.44 48.7 92.44 46.63"/><polyline class="cls-14" points="95.64 44.77 93.84 45.82 93.84 47.89 95.64 46.85 95.64 44.77"/><polyline class="cls-14" points="100.78 41.81 98.98 42.85 98.98 44.92 100.78 43.88 100.78 41.81"/><polyline class="cls-14" points="103.98 39.96 102.18 41 102.18 43.07 103.98 42.03 103.98 39.96"/><polyline class="cls-14" points="92.44 50.31 90.64 51.35 90.64 53.42 92.44 52.38 92.44 50.31"/><polyline class="cls-14" points="95.64 48.46 93.84 49.5 93.84 51.57 95.64 50.53 95.64 48.46"/><polyline class="cls-14" points="100.78 45.49 98.98 46.53 98.98 48.6 100.78 47.56 100.78 45.49"/><polyline class="cls-14" points="103.98 43.64 102.18 44.68 102.18 46.76 103.98 45.71 103.98 43.64"/><polyline class="cls-17" points="92.44 53.99 90.64 55.03 90.64 57.1 92.44 56.06 92.44 53.99"/><polyline class="cls-14" points="95.64 52.14 93.84 53.18 93.84 55.26 95.64 54.21 95.64 52.14"/><polyline class="cls-14" points="100.78 49.18 98.98 50.22 98.98 52.29 100.78 51.25 100.78 49.18"/><polyline class="cls-14" points="103.98 47.33 102.18 48.37 102.18 50.44 103.98 49.4 103.98 47.33"/><polyline class="cls-14" points="92.44 57.67 90.64 58.72 90.64 60.79 92.44 59.75 92.44 57.67"/><polyline class="cls-14" points="95.64 55.82 93.84 56.87 93.84 58.94 95.64 57.9 95.64 55.82"/><polyline class="cls-14" points="100.78 52.86 98.98 53.9 98.98 55.97 100.78 54.93 100.78 52.86"/><polyline class="cls-14" points="103.98 51.01 102.18 52.05 102.18 54.12 103.98 53.08 103.98 51.01"/><polyline class="cls-14" points="92.44 61.36 90.64 62.4 90.64 64.47 92.44 63.43 92.44 61.36"/><polyline class="cls-14" points="95.64 59.51 93.84 60.55 93.84 62.62 95.64 61.58 95.64 59.51"/><polyline class="cls-14" points="100.78 56.54 98.98 57.58 98.98 59.65 100.78 58.61 100.78 56.54"/><polyline class="cls-17" points="103.98 54.69 102.18 55.73 102.18 57.8 103.98 56.76 103.98 54.69"/><polyline class="cls-14" points="92.44 65.04 90.64 66.08 90.64 68.16 92.44 67.11 92.44 65.04"/><polyline class="cls-14" points="95.64 63.19 93.84 64.23 93.84 66.3 95.64 65.26 95.64 63.19"/><polyline class="cls-14" points="100.78 60.23 98.98 61.27 98.98 63.34 100.78 62.3 100.78 60.23"/><polyline class="cls-14" points="103.98 58.38 102.18 59.42 102.18 61.49 103.98 60.45 103.98 58.38"/><polyline class="cls-14" points="92.44 68.72 90.64 69.77 90.64 71.84 92.44 70.8 92.44 68.72"/><polyline class="cls-14" points="95.64 66.87 93.84 67.92 93.84 69.99 95.64 68.95 95.64 66.87"/><polyline class="cls-14" points="100.78 63.91 98.98 64.95 98.98 67.02 100.78 65.98 100.78 63.91"/><polyline class="cls-14" points="103.98 62.06 102.18 63.1 102.18 65.17 103.98 64.13 103.98 62.06"/><polyline class="cls-17" points="92.44 72.41 90.64 73.45 90.64 75.52 92.44 74.48 92.44 72.41"/><polyline class="cls-17" points="95.64 70.56 93.84 71.6 93.84 73.67 95.64 72.63 95.64 70.56"/><polyline class="cls-14" points="100.78 67.59 98.98 68.63 98.98 70.7 100.78 69.66 100.78 67.59"/><polyline class="cls-14" points="103.98 65.74 102.18 66.78 102.18 68.85 103.98 67.81 103.98 65.74"/><polyline class="cls-14" points="92.44 76.09 90.64 77.13 90.64 79.2 92.44 78.16 92.44 76.09"/><polyline class="cls-14" points="95.64 74.24 93.84 75.28 93.84 77.35 95.64 76.31 95.64 74.24"/><polyline class="cls-14" points="100.78 71.28 98.98 72.32 98.98 74.39 100.78 73.35 100.78 71.28"/><polyline class="cls-14" points="103.98 69.42 102.18 70.47 102.18 72.54 103.98 71.5 103.98 69.42"/><polyline class="cls-14" points="92.44 79.77 90.64 80.81 90.64 82.89 92.44 81.84 92.44 79.77"/><polyline class="cls-14" points="95.64 77.92 93.84 78.96 93.84 81.04 95.64 80 95.64 77.92"/><polyline class="cls-14" points="100.78 74.96 98.98 76 98.98 78.07 100.78 77.03 100.78 74.96"/><polyline class="cls-14" points="103.98 73.11 102.18 74.15 102.18 76.22 103.98 75.18 103.98 73.11"/><polyline class="cls-14" points="92.44 83.45 90.64 84.5 90.64 86.57 92.44 85.53 92.44 83.45"/><polyline class="cls-14" points="95.64 81.61 93.84 82.65 93.84 84.72 95.64 83.68 95.64 81.61"/><polyline class="cls-14" points="100.78 78.64 98.98 79.68 98.98 81.75 100.78 80.71 100.78 78.64"/><polyline class="cls-14" points="103.98 76.79 102.18 77.83 102.18 79.9 103.98 78.86 103.98 76.79"/><polyline class="cls-17" points="92.44 87.14 90.64 88.18 90.64 90.25 92.44 89.21 92.44 87.14"/><polyline class="cls-14" points="95.64 85.29 93.84 86.33 93.84 88.4 95.64 87.36 95.64 85.29"/><polyline class="cls-14" points="100.78 82.33 98.98 83.37 98.98 85.44 100.78 84.4 100.78 82.33"/><polyline class="cls-14" points="103.98 80.47 102.18 81.52 102.18 83.59 103.98 82.55 103.98 80.47"/><polyline class="cls-14" points="92.44 90.82 90.64 91.86 90.64 93.94 92.44 92.89 92.44 90.82"/><polyline class="cls-14" points="95.64 88.97 93.84 90.01 93.84 92.08 95.64 91.04 95.64 88.97"/><polyline class="cls-14" points="100.78 86.01 98.98 87.05 98.98 89.12 100.78 88.08 100.78 86.01"/><polyline class="cls-14" points="103.98 84.16 102.18 85.2 102.18 87.27 103.98 86.23 103.98 84.16"/><polyline class="cls-14" points="92.44 94.5 90.64 95.55 90.64 97.62 92.44 96.58 92.44 94.5"/><polyline class="cls-14" points="95.64 92.65 93.84 93.69 93.84 95.77 95.64 94.73 95.64 92.65"/><polyline class="cls-14" points="100.78 89.69 98.98 90.73 98.98 92.8 100.78 91.76 100.78 89.69"/><polyline class="cls-14" points="103.98 87.84 102.18 88.88 102.18 90.95 103.98 89.91 103.98 87.84"/><polyline class="cls-14" points="92.44 98.19 90.64 99.23 90.64 101.3 92.44 100.26 92.44 98.19"/><polyline class="cls-14" points="95.64 96.34 93.84 97.38 93.84 99.45 95.64 98.41 95.64 96.34"/><polyline class="cls-14" points="100.78 93.38 98.98 94.42 98.98 96.48 100.78 95.44 100.78 93.38"/><polyline class="cls-14" points="103.98 91.52 102.18 92.56 102.18 94.63 103.98 93.59 103.98 91.52"/><polyline class="cls-14" points="63.55 44.32 65.22 45.28 65.22 47.21 63.55 46.24 63.55 44.32"/><polyline class="cls-14" points="60.57 42.6 62.24 43.56 62.24 45.49 60.57 44.52 60.57 42.6"/><polyline class="cls-14" points="55.8 39.84 57.47 40.81 57.47 42.73 55.8 41.77 55.8 39.84"/><polyline class="cls-14" points="52.82 38.13 54.5 39.09 54.5 41.02 52.82 40.05 52.82 38.13"/><polyline class="cls-14" points="63.55 47.74 65.22 48.7 65.22 50.63 63.55 49.66 63.55 47.74"/><polyline class="cls-14" points="60.57 46.02 62.24 46.99 62.24 48.91 60.57 47.94 60.57 46.02"/><polyline class="cls-14" points="55.8 43.27 57.47 44.23 57.47 46.16 55.8 45.19 55.8 43.27"/><polyline class="cls-14" points="52.82 41.55 54.5 42.51 54.5 44.44 52.82 43.47 52.82 41.55"/><polyline class="cls-14" points="63.55 51.16 65.22 52.12 65.22 54.05 63.55 53.08 63.55 51.16"/><polyline class="cls-14" points="60.57 49.44 62.24 50.41 62.24 52.33 60.57 51.36 60.57 49.44"/><polyline class="cls-14" points="55.8 46.69 57.47 47.65 57.47 49.58 55.8 48.61 55.8 46.69"/><polyline class="cls-14" points="52.82 44.97 54.5 45.93 54.5 47.86 52.82 46.89 52.82 44.97"/><polyline class="cls-17" points="63.55 54.58 65.22 55.55 65.22 57.47 63.55 56.51 63.55 54.58"/><polyline class="cls-14" points="60.57 52.86 62.24 53.83 62.24 55.75 60.57 54.79 60.57 52.86"/><polyline class="cls-14" points="55.8 50.11 57.47 51.07 57.47 53 55.8 52.03 55.8 50.11"/><polyline class="cls-14" points="52.82 48.39 54.5 49.35 54.5 51.28 52.82 50.31 52.82 48.39"/><polyline class="cls-14" points="63.55 58 65.22 58.97 65.22 60.89 63.55 59.92 63.55 58"/><polyline class="cls-14" points="60.57 56.28 62.24 57.25 62.24 59.17 60.57 58.21 60.57 56.28"/><polyline class="cls-14" points="55.8 53.53 57.47 54.49 57.47 56.42 55.8 55.45 55.8 53.53"/><polyline class="cls-14" points="52.82 51.81 54.5 52.78 54.5 54.7 52.82 53.73 52.82 51.81"/><polyline class="cls-14" points="63.55 61.42 65.22 62.39 65.22 64.31 63.55 63.34 63.55 61.42"/><polyline class="cls-14" points="60.57 59.7 62.24 60.67 62.24 62.59 60.57 61.63 60.57 59.7"/><polyline class="cls-14" points="55.8 56.95 57.47 57.91 57.47 59.84 55.8 58.87 55.8 56.95"/><polyline class="cls-17" points="52.82 55.23 54.5 56.2 54.5 58.12 52.82 57.15 52.82 55.23"/><polyline class="cls-14" points="63.55 64.84 65.22 65.81 65.22 67.73 63.55 66.77 63.55 64.84"/><polyline class="cls-14" points="60.57 63.13 62.24 64.09 62.24 66.02 60.57 65.05 60.57 63.13"/><polyline class="cls-14" points="55.8 60.37 57.47 61.34 57.47 63.26 55.8 62.3 55.8 60.37"/><polyline class="cls-14" points="52.82 58.65 54.5 59.62 54.5 61.54 52.82 60.58 52.82 58.65"/><polyline class="cls-14" points="63.55 68.26 65.22 69.23 65.22 71.16 63.55 70.19 63.55 68.26"/><polyline class="cls-14" points="60.57 66.55 62.24 67.51 62.24 69.44 60.57 68.47 60.57 66.55"/><polyline class="cls-14" points="55.8 63.79 57.47 64.76 57.47 66.68 55.8 65.72 55.8 63.79"/><polyline class="cls-14" points="52.82 62.07 54.5 63.04 54.5 64.96 52.82 64 52.82 62.07"/><polyline class="cls-17" points="63.55 71.68 65.22 72.65 65.22 74.58 63.55 73.61 63.55 71.68"/><polyline class="cls-17" points="60.57 69.97 62.24 70.93 62.24 72.86 60.57 71.89 60.57 69.97"/><polyline class="cls-14" points="55.8 67.21 57.47 68.18 57.47 70.1 55.8 69.14 55.8 67.21"/><polyline class="cls-14" points="52.82 65.49 54.5 66.46 54.5 68.38 52.82 67.42 52.82 65.49"/><polyline class="cls-14" points="63.55 75.11 65.22 76.07 65.22 78 63.55 77.03 63.55 75.11"/><polyline class="cls-14" points="60.57 73.39 62.24 74.36 62.24 76.28 60.57 75.31 60.57 73.39"/><polyline class="cls-14" points="55.8 70.64 57.47 71.6 57.47 73.53 55.8 72.56 55.8 70.64"/><polyline class="cls-14" points="52.82 68.92 54.5 69.88 54.5 71.81 52.82 70.84 52.82 68.92"/><polyline class="cls-14" points="63.55 78.53 65.22 79.49 65.22 81.42 63.55 80.45 63.55 78.53"/><polyline class="cls-14" points="60.57 76.81 62.24 77.78 62.24 79.7 60.57 78.73 60.57 76.81"/><polyline class="cls-14" points="55.8 74.06 57.47 75.02 57.47 76.95 55.8 75.98 55.8 74.06"/><polyline class="cls-14" points="52.82 72.34 54.5 73.3 54.5 75.23 52.82 74.26 52.82 72.34"/><polyline class="cls-14" points="63.55 81.95 65.22 82.92 65.22 84.84 63.55 83.87 63.55 81.95"/><polyline class="cls-14" points="60.57 80.23 62.24 81.2 62.24 83.12 60.57 82.15 60.57 80.23"/><polyline class="cls-14" points="55.8 77.48 57.47 78.44 57.47 80.37 55.8 79.4 55.8 77.48"/><polyline class="cls-14" points="52.82 75.76 54.5 76.72 54.5 78.65 52.82 77.68 52.82 75.76"/><polyline class="cls-17" points="63.55 85.37 65.22 86.34 65.22 88.26 63.55 87.3 63.55 85.37"/><polyline class="cls-14" points="60.57 83.65 62.24 84.62 62.24 86.54 60.57 85.58 60.57 83.65"/><polyline class="cls-14" points="55.8 80.9 57.47 81.86 57.47 83.79 55.8 82.82 55.8 80.9"/><polyline class="cls-14" points="52.82 79.18 54.5 80.15 54.5 82.07 52.82 81.1 52.82 79.18"/><polyline class="cls-14" points="63.55 88.79 65.22 89.76 65.22 91.68 63.55 90.72 63.55 88.79"/><polyline class="cls-14" points="60.57 87.07 62.24 88.04 62.24 89.96 60.57 89 60.57 87.07"/><polyline class="cls-14" points="55.8 84.32 57.47 85.28 57.47 87.21 55.8 86.24 55.8 84.32"/><polyline class="cls-14" points="52.82 82.6 54.5 83.57 54.5 85.49 52.82 84.52 52.82 82.6"/><polyline class="cls-14" points="63.55 92.21 65.22 93.18 65.22 95.1 63.55 94.14 63.55 92.21"/><polyline class="cls-14" points="60.57 90.49 62.24 91.46 62.24 93.38 60.57 92.42 60.57 90.49"/><polyline class="cls-14" points="55.8 87.74 57.47 88.7 57.47 90.63 55.8 89.66 55.8 87.74"/><polyline class="cls-14" points="52.82 86.02 54.5 86.99 54.5 88.91 52.82 87.94 52.82 86.02"/><polyline class="cls-14" points="63.55 95.63 65.22 96.6 65.22 98.52 63.55 97.56 63.55 95.63"/><polyline class="cls-14" points="60.57 93.92 62.24 94.88 62.24 96.8 60.57 95.84 60.57 93.92"/><polyline class="cls-14" points="55.8 91.16 57.47 92.13 57.47 94.05 55.8 93.08 55.8 91.16"/><polyline class="cls-14" points="52.82 89.44 54.5 90.41 54.5 92.33 52.82 91.36 52.82 89.44"/></g></svg>