<svg xmlns="http://www.w3.org/2000/svg" xmlns:xlink="http://www.w3.org/1999/xlink" viewBox="0 0 195.53 278.69"><defs><style>.cls-1{isolation:isolate;}.cls-2{fill:url(#linear-gradient);}.cls-3{fill:#150d43;}.cls-4{fill:url(#linear-gradient-2);}.cls-5{fill:url(#linear-gradient-3);}.cls-6{fill:url(#linear-gradient-4);}.cls-7{fill:url(#linear-gradient-5);}.cls-8{fill:url(#linear-gradient-6);}.cls-9{fill:url(#linear-gradient-7);}.cls-10{fill:url(#linear-gradient-8);}.cls-11{fill:url(#linear-gradient-9);}.cls-12{fill:url(#linear-gradient-10);}.cls-13{fill:#9456a2;}.cls-14{fill:#351f60;}.cls-15{fill:url(#linear-gradient-11);}.cls-16{fill:url(#linear-gradient-12);}.cls-17{fill:#69cce2;}</style><linearGradient id="linear-gradient" y1="222.06" x2="195.53" y2="222.06" gradientUnits="userSpaceOnUse"><stop offset="0" stop-color="#c21e8e"/><stop offset="0.13" stop-color="#bc1f8d"/><stop offset="0.3" stop-color="#ab208b"/><stop offset="0.5" stop-color="#902387"/><stop offset="0.71" stop-color="#6a2682"/><stop offset="0.94" stop-color="#392b7c"/><stop offset="1" stop-color="#2b2c7a"/></linearGradient><linearGradient id="linear-gradient-2" x1="97.66" y1="246.92" x2="195.53" y2="246.92" xlink:href="#linear-gradient"/><linearGradient id="linear-gradient-3" x1="1299.54" y1="246.92" x2="1397.2" y2="246.92" gradientTransform="matrix(-1, 0, 0, 1, 1397.2, 0)" xlink:href="#linear-gradient"/><linearGradient id="linear-gradient-4" x1="55.05" y1="100.22" x2="140.55" y2="100.22" gradientUnits="userSpaceOnUse"><stop offset="0.09" stop-color="#9053a1"/><stop offset="0.24" stop-color="#985ca5"/><stop offset="0.5" stop-color="#ad74b1"/><stop offset="0.63" stop-color="#ba83b9"/><stop offset="0.76" stop-color="#b49fc7"/><stop offset="1" stop-color="#a6dde6"/></linearGradient><linearGradient id="linear-gradient-5" x1="119.21" y1="83.26" x2="119.21" y2="256.2" xlink:href="#linear-gradient-4"/><linearGradient id="linear-gradient-6" x1="76.45" y1="34.67" x2="76.45" y2="247.46" gradientUnits="userSpaceOnUse"><stop offset="0" stop-color="#5e3d98"/><stop offset="0.28" stop-color="#593a92"/><stop offset="0.65" stop-color="#4c3182"/><stop offset="1" stop-color="#3a246b"/></linearGradient><linearGradient id="linear-gradient-7" x1="64.66" y1="23.18" x2="130.87" y2="23.18" xlink:href="#linear-gradient-4"/><linearGradient id="linear-gradient-8" x1="114.36" y1="12.43" x2="114.36" y2="139.3" xlink:href="#linear-gradient-4"/><linearGradient id="linear-gradient-9" x1="81.26" y1="34.67" x2="81.26" y2="247.46" xlink:href="#linear-gradient-6"/><linearGradient id="linear-gradient-10" x1="69.37" y1="16.45" x2="126.16" y2="16.45" xlink:href="#linear-gradient-4"/><linearGradient id="linear-gradient-11" x1="119.65" y1="47.25" x2="110.98" y2="25.57" xlink:href="#linear-gradient-4"/><linearGradient id="linear-gradient-12" x1="69.37" y1="28.15" x2="97.86" y2="28.15" gradientUnits="userSpaceOnUse"><stop offset="0" stop-color="#7d53a2"/><stop offset="0.31" stop-color="#7652a1"/><stop offset="0.76" stop-color="#614ea0"/><stop offset="1" stop-color="#544b9f"/></linearGradient></defs><g id="Layer_2" data-name="Layer 2"><g id="Viewport"><g id="OBJECTS"><g class="cls-1"><path class="cls-2" d="M194.56,220.71c1.29.75,1.3,2,0,2.71l-94.16,54.72a5.16,5.16,0,0,1-4.67,0L1,223.42c-1.29-.75-1.3-2,0-2.71L95.11,166a5.15,5.15,0,0,1,4.67,0Z"/><path class="cls-3" d="M194.56,213.8c1.29.75,1.3,2,0,2.71l-94.16,54.72a5.16,5.16,0,0,1-4.67,0L1,216.51c-1.29-.75-1.3-2,0-2.71l94.16-54.72a5.15,5.15,0,0,1,4.67,0Z"/><path class="cls-4" d="M97.66,271.76v6.93l1.89-.21,95-55.07s.23.56,1-1.35v-6.91Z"/><path class="cls-5" d="M97.66,271.76v6.93L96,278.49,1,223.41s-.23.56-1-1.35v-6.91Z"/></g><g class="cls-1"><polygon class="cls-6" points="140.55 100.22 97.86 124.99 55.05 100.22 97.86 75.46 140.55 100.22"/><polygon class="cls-7" points="140.55 100.22 140.55 221.54 97.86 246.31 97.86 124.99 140.55 100.22"/><polygon class="cls-8" points="97.86 124.99 97.86 246.31 55.05 221.54 55.05 100.22 97.86 124.99"/></g><g class="cls-1"><polygon class="cls-9" points="130.87 23.18 97.86 42.36 64.66 23.18 97.86 4.01 130.87 23.18"/><polygon class="cls-10" points="130.87 23.18 130.87 100.61 97.86 119.78 97.86 42.36 130.87 23.18"/><polygon class="cls-11" points="97.86 42.36 97.86 119.78 64.66 100.61 64.66 23.18 97.86 42.36"/></g><g class="cls-1"><polygon class="cls-12" points="126.16 16.45 97.86 32.9 69.37 16.45 97.86 0 126.16 16.45"/><polygon class="cls-13" points="72.94 16.45 97.86 2.06 122.6 16.45 97.86 30.83 72.94 16.45"/><polygon class="cls-14" points="97.86 4.38 120.62 17.6 122.6 16.45 97.86 2.06 72.94 16.45 74.94 17.6 97.86 4.38"/><polygon class="cls-15" points="126.16 16.45 126.16 23.4 97.86 39.84 97.86 32.9 126.16 16.45"/><polygon class="cls-16" points="97.86 32.9 97.86 39.84 69.37 23.4 69.37 16.45 97.86 32.9"/></g><polyline class="cls-14" points="85.56 126.19 88.93 128.14 88.93 132.01 85.56 130.07 85.56 126.19"/><polyline class="cls-14" points="79.57 122.74 82.94 124.68 82.94 128.56 79.57 126.61 79.57 122.74"/><polyline class="cls-14" points="69.97 117.19 73.34 119.14 73.34 123.01 69.97 121.07 69.97 117.19"/><polyline class="cls-14" points="63.98 113.73 67.34 115.68 67.34 119.55 63.98 117.61 63.98 113.73"/><polyline class="cls-14" points="85.56 133.08 88.93 135.03 88.93 138.9 85.56 136.95 85.56 133.08"/><polyline class="cls-14" points="79.57 129.62 82.94 131.57 82.94 135.44 79.57 133.49 79.57 129.62"/><polyline class="cls-14" points="69.97 124.08 73.34 126.02 73.34 129.9 69.97 127.95 69.97 124.08"/><polyline class="cls-14" points="63.98 120.62 67.34 122.56 67.34 126.44 63.98 124.49 63.98 120.62"/><polyline class="cls-14" points="85.56 139.96 88.93 141.91 88.93 145.78 85.56 143.84 85.56 139.96"/><polyline class="cls-14" points="79.57 136.5 82.94 138.45 82.94 142.32 79.57 140.38 79.57 136.5"/><polyline class="cls-14" points="69.97 130.96 73.34 132.91 73.34 136.78 69.97 134.84 69.97 130.96"/><polyline class="cls-14" points="63.98 127.5 67.34 129.45 67.34 133.32 63.98 131.38 63.98 127.5"/><polyline class="cls-17" points="85.56 146.85 88.93 148.8 88.93 152.67 85.56 150.72 85.56 146.85"/><polyline class="cls-14" points="79.57 143.39 82.94 145.34 82.94 149.21 79.57 147.27 79.57 143.39"/><polyline class="cls-14" points="69.97 137.85 73.34 139.79 73.34 143.67 69.97 141.72 69.97 137.85"/><polyline class="cls-14" points="63.98 134.39 67.34 136.34 67.34 140.21 63.98 138.26 63.98 134.39"/><polyline class="cls-14" points="85.56 153.74 88.93 155.68 88.93 159.55 85.56 157.61 85.56 153.74"/><polyline class="cls-14" points="79.57 150.28 82.94 152.22 82.94 156.1 79.57 154.15 79.57 150.28"/><polyline class="cls-14" points="69.97 144.74 73.34 146.68 73.34 150.55 69.97 148.61 69.97 144.74"/><polyline class="cls-14" points="63.98 141.27 67.34 143.22 67.34 147.09 63.98 145.15 63.98 141.27"/><polyline class="cls-14" points="85.56 160.62 88.93 162.56 88.93 166.44 85.56 164.49 85.56 160.62"/><polyline class="cls-14" points="79.57 157.16 82.94 159.11 82.94 162.98 79.57 161.03 79.57 157.16"/><polyline class="cls-14" points="69.97 151.62 73.34 153.56 73.34 157.44 69.97 155.49 69.97 151.62"/><polyline class="cls-17" points="63.98 148.16 67.34 150.1 67.34 153.98 63.98 152.03 63.98 148.16"/><polyline class="cls-14" points="85.56 167.51 88.93 169.45 88.93 173.33 85.56 171.38 85.56 167.51"/><polyline class="cls-14" points="79.57 164.05 82.94 165.99 82.94 169.87 79.57 167.92 79.57 164.05"/><polyline class="cls-14" points="69.97 158.51 73.34 160.45 73.34 164.32 69.97 162.38 69.97 158.51"/><polyline class="cls-14" points="63.98 155.05 67.34 156.99 67.34 160.87 63.98 158.92 63.98 155.05"/><polyline class="cls-14" points="85.56 174.39 88.93 176.34 88.93 180.21 85.56 178.26 85.56 174.39"/><polyline class="cls-14" points="79.57 170.93 82.94 172.88 82.94 176.75 79.57 174.81 79.57 170.93"/><polyline class="cls-14" points="69.97 165.39 73.34 167.33 73.34 171.21 69.97 169.26 69.97 165.39"/><polyline class="cls-14" points="63.98 161.93 67.34 163.88 67.34 167.75 63.98 165.8 63.98 161.93"/><polyline class="cls-17" points="85.56 181.27 88.93 183.22 88.93 187.09 85.56 185.15 85.56 181.27"/><polyline class="cls-17" points="79.57 177.81 82.94 179.76 82.94 183.63 79.57 181.69 79.57 177.81"/><polyline class="cls-14" points="69.97 172.27 73.34 174.22 73.34 178.09 69.97 176.15 69.97 172.27"/><polyline class="cls-14" points="63.98 168.81 67.34 170.76 67.34 174.63 63.98 172.69 63.98 168.81"/><polyline class="cls-14" points="85.56 188.16 88.93 190.11 88.93 193.98 85.56 192.04 85.56 188.16"/><polyline class="cls-14" points="79.57 184.7 82.94 186.65 82.94 190.52 79.57 188.58 79.57 184.7"/><polyline class="cls-14" points="69.97 179.16 73.34 181.11 73.34 184.98 69.97 183.04 69.97 179.16"/><polyline class="cls-14" points="63.98 175.7 67.34 177.65 67.34 181.52 63.98 179.57 63.98 175.7"/><polyline class="cls-14" points="85.56 195.05 88.93 196.99 88.93 200.87 85.56 198.92 85.56 195.05"/><polyline class="cls-14" points="79.57 191.59 82.94 193.53 82.94 197.41 79.57 195.46 79.57 191.59"/><polyline class="cls-14" points="69.97 186.05 73.34 187.99 73.34 191.86 69.97 189.92 69.97 186.05"/><polyline class="cls-14" points="63.98 182.59 67.34 184.53 67.34 188.41 63.98 186.46 63.98 182.59"/><polyline class="cls-14" points="85.56 201.93 88.93 203.88 88.93 207.75 85.56 205.8 85.56 201.93"/><polyline class="cls-14" points="79.57 198.47 82.94 200.42 82.94 204.29 79.57 202.34 79.57 198.47"/><polyline class="cls-14" points="69.97 192.93 73.34 194.87 73.34 198.75 69.97 196.8 69.97 192.93"/><polyline class="cls-14" points="63.98 189.47 67.34 191.41 67.34 195.29 63.98 193.34 63.98 189.47"/><polyline class="cls-17" points="85.56 208.82 88.93 210.76 88.93 214.64 85.56 212.69 85.56 208.82"/><polyline class="cls-14" points="79.57 205.36 82.94 207.31 82.94 211.18 79.57 209.23 79.57 205.36"/><polyline class="cls-14" points="69.97 199.82 73.34 201.76 73.34 205.63 69.97 203.69 69.97 199.82"/><polyline class="cls-14" points="63.98 196.36 67.34 198.3 67.34 202.18 63.98 200.23 63.98 196.36"/><polyline class="cls-14" points="85.56 215.7 88.93 217.65 88.93 221.52 85.56 219.57 85.56 215.7"/><polyline class="cls-14" points="79.57 212.24 82.94 214.19 82.94 218.06 79.57 216.12 79.57 212.24"/><polyline class="cls-14" points="69.97 206.7 73.34 208.65 73.34 212.52 69.97 210.57 69.97 206.7"/><polyline class="cls-14" points="63.98 203.24 67.34 205.19 67.34 209.06 63.98 207.11 63.98 203.24"/><polyline class="cls-14" points="85.56 222.59 88.93 224.53 88.93 228.41 85.56 226.46 85.56 222.59"/><polyline class="cls-14" points="79.57 219.13 82.94 221.07 82.94 224.95 79.57 223 79.57 219.13"/><polyline class="cls-14" points="69.97 213.59 73.34 215.53 73.34 219.4 69.97 217.46 69.97 213.59"/><polyline class="cls-14" points="63.98 210.12 67.34 212.07 67.34 215.94 63.98 214 63.98 210.12"/><polyline class="cls-14" points="85.56 229.47 88.93 231.42 88.93 235.29 85.56 233.34 85.56 229.47"/><polyline class="cls-14" points="79.57 226.01 82.94 227.96 82.94 231.83 79.57 229.88 79.57 226.01"/><polyline class="cls-14" points="69.97 220.47 73.34 222.42 73.34 226.29 69.97 224.34 69.97 220.47"/><polyline class="cls-14" points="63.98 217.01 67.34 218.96 67.34 222.83 63.98 220.88 63.98 217.01"/><polyline class="cls-14" points="110.75 126.19 107.39 128.14 107.39 132.01 110.75 130.07 110.75 126.19"/><polyline class="cls-14" points="116.75 122.74 113.38 124.68 113.38 128.56 116.75 126.61 116.75 122.74"/><polyline class="cls-14" points="126.34 117.19 122.98 119.14 122.98 123.01 126.34 121.07 126.34 117.19"/><polyline class="cls-14" points="132.34 113.73 128.97 115.68 128.97 119.55 132.34 117.61 132.34 113.73"/><polyline class="cls-14" points="110.75 133.08 107.39 135.03 107.39 138.9 110.75 136.95 110.75 133.08"/><polyline class="cls-14" points="116.75 129.62 113.38 131.57 113.38 135.44 116.75 133.49 116.75 129.62"/><polyline class="cls-14" points="126.34 124.08 122.98 126.02 122.98 129.9 126.34 127.95 126.34 124.08"/><polyline class="cls-14" points="132.34 120.62 128.97 122.56 128.97 126.44 132.34 124.49 132.34 120.62"/><polyline class="cls-14" points="110.75 139.96 107.39 141.91 107.39 145.78 110.75 143.84 110.75 139.96"/><polyline class="cls-14" points="116.75 136.5 113.38 138.45 113.38 142.32 116.75 140.38 116.75 136.5"/><polyline class="cls-14" points="126.34 130.96 122.98 132.91 122.98 136.78 126.34 134.84 126.34 130.96"/><polyline class="cls-14" points="132.34 127.5 128.97 129.45 128.97 133.32 132.34 131.38 132.34 127.5"/><polyline class="cls-17" points="110.75 146.85 107.39 148.8 107.39 152.67 110.75 150.72 110.75 146.85"/><polyline class="cls-14" points="116.75 143.39 113.38 145.34 113.38 149.21 116.75 147.27 116.75 143.39"/><polyline class="cls-14" points="126.34 137.85 122.98 139.79 122.98 143.67 126.34 141.72 126.34 137.85"/><polyline class="cls-14" points="132.34 134.39 128.97 136.34 128.97 140.21 132.34 138.26 132.34 134.39"/><polyline class="cls-14" points="110.75 153.74 107.39 155.68 107.39 159.55 110.75 157.61 110.75 153.74"/><polyline class="cls-14" points="116.75 150.28 113.38 152.22 113.38 156.1 116.75 154.15 116.75 150.28"/><polyline class="cls-14" points="126.34 144.74 122.98 146.68 122.98 150.55 126.34 148.61 126.34 144.74"/><polyline class="cls-14" points="132.34 141.27 128.97 143.22 128.97 147.09 132.34 145.15 132.34 141.27"/><polyline class="cls-14" points="110.75 160.62 107.39 162.56 107.39 166.44 110.75 164.49 110.75 160.62"/><polyline class="cls-14" points="116.75 157.16 113.38 159.11 113.38 162.98 116.75 161.03 116.75 157.16"/><polyline class="cls-14" points="126.34 151.62 122.98 153.56 122.98 157.44 126.34 155.49 126.34 151.62"/><polyline class="cls-17" points="132.34 148.16 128.97 150.1 128.97 153.98 132.34 152.03 132.34 148.16"/><polyline class="cls-14" points="110.75 167.51 107.39 169.45 107.39 173.33 110.75 171.38 110.75 167.51"/><polyline class="cls-14" points="116.75 164.05 113.38 165.99 113.38 169.87 116.75 167.92 116.75 164.05"/><polyline class="cls-14" points="126.34 158.51 122.98 160.45 122.98 164.32 126.34 162.38 126.34 158.51"/><polyline class="cls-14" points="132.34 155.05 128.97 156.99 128.97 160.87 132.34 158.92 132.34 155.05"/><polyline class="cls-14" points="110.75 174.39 107.39 176.34 107.39 180.21 110.75 178.26 110.75 174.39"/><polyline class="cls-14" points="116.75 170.93 113.38 172.88 113.38 176.75 116.75 174.81 116.75 170.93"/><polyline class="cls-14" points="126.34 165.39 122.98 167.33 122.98 171.21 126.34 169.26 126.34 165.39"/><polyline class="cls-14" points="132.34 161.93 128.97 163.88 128.97 167.75 132.34 165.8 132.34 161.93"/><polyline class="cls-17" points="110.75 181.27 107.39 183.22 107.39 187.09 110.75 185.15 110.75 181.27"/><polyline class="cls-17" points="116.75 177.81 113.38 179.76 113.38 183.63 116.75 181.69 116.75 177.81"/><polyline class="cls-14" points="126.34 172.27 122.98 174.22 122.98 178.09 126.34 176.15 126.34 172.27"/><polyline class="cls-14" points="132.34 168.81 128.97 170.76 128.97 174.63 132.34 172.69 132.34 168.81"/><polyline class="cls-14" points="110.75 188.16 107.39 190.11 107.39 193.98 110.75 192.04 110.75 188.16"/><polyline class="cls-14" points="116.75 184.7 113.38 186.65 113.38 190.52 116.75 188.58 116.75 184.7"/><polyline class="cls-14" points="126.34 179.16 122.98 181.11 122.98 184.98 126.34 183.04 126.34 179.16"/><polyline class="cls-14" points="132.34 175.7 128.97 177.65 128.97 181.52 132.34 179.57 132.34 175.7"/><polyline class="cls-14" points="110.75 195.05 107.39 196.99 107.39 200.87 110.75 198.92 110.75 195.05"/><polyline class="cls-14" points="116.75 191.59 113.38 193.53 113.38 197.41 116.75 195.46 116.75 191.59"/><polyline class="cls-14" points="126.34 186.05 122.98 187.99 122.98 191.86 126.34 189.92 126.34 186.05"/><polyline class="cls-14" points="132.34 182.59 128.97 184.53 128.97 188.41 132.34 186.46 132.34 182.59"/><polyline class="cls-14" points="110.75 201.93 107.39 203.88 107.39 207.75 110.75 205.8 110.75 201.93"/><polyline class="cls-14" points="116.75 198.47 113.38 200.42 113.38 204.29 116.75 202.34 116.75 198.47"/><polyline class="cls-14" points="126.34 192.93 122.98 194.87 122.98 198.75 126.34 196.8 126.34 192.93"/><polyline class="cls-14" points="132.34 189.47 128.97 191.41 128.97 195.29 132.34 193.34 132.34 189.47"/><polyline class="cls-17" points="110.75 208.82 107.39 210.76 107.39 214.64 110.75 212.69 110.75 208.82"/><polyline class="cls-14" points="116.75 205.36 113.38 207.31 113.38 211.18 116.75 209.23 116.75 205.36"/><polyline class="cls-14" points="126.34 199.82 122.98 201.76 122.98 205.63 126.34 203.69 126.34 199.82"/><polyline class="cls-14" points="132.34 196.36 128.97 198.3 128.97 202.18 132.34 200.23 132.34 196.36"/><polyline class="cls-14" points="110.75 215.7 107.39 217.65 107.39 221.52 110.75 219.57 110.75 215.7"/><polyline class="cls-14" points="116.75 212.24 113.38 214.19 113.38 218.06 116.75 216.12 116.75 212.24"/><polyline class="cls-14" points="126.34 206.7 122.98 208.65 122.98 212.52 126.34 210.57 126.34 206.7"/><polyline class="cls-14" points="132.34 203.24 128.97 205.19 128.97 209.06 132.34 207.11 132.34 203.24"/><polyline class="cls-14" points="110.75 222.59 107.39 224.53 107.39 228.41 110.75 226.46 110.75 222.59"/><polyline class="cls-14" points="116.75 219.13 113.38 221.07 113.38 224.95 116.75 223 116.75 219.13"/><polyline class="cls-14" points="126.34 213.59 122.98 215.53 122.98 219.4 126.34 217.46 126.34 213.59"/><polyline class="cls-14" points="132.34 210.12 128.97 212.07 128.97 215.94 132.34 214 132.34 210.12"/><polyline class="cls-14" points="110.75 229.47 107.39 231.42 107.39 235.29 110.75 233.34 110.75 229.47"/><polyline class="cls-14" points="116.75 226.01 113.38 227.96 113.38 231.83 116.75 229.88 116.75 226.01"/><polyline class="cls-14" points="126.34 220.47 122.98 222.42 122.98 226.29 126.34 224.34 126.34 220.47"/><polyline class="cls-14" points="132.34 217.01 128.97 218.96 128.97 222.83 132.34 220.88 132.34 217.01"/><polyline class="cls-14" points="111.41 44.93 109.53 46.02 109.53 48.18 111.41 47.09 111.41 44.93"/><polyline class="cls-14" points="114.77 42.99 112.88 44.08 112.88 46.25 114.77 45.16 114.77 42.99"/><polyline class="cls-14" points="120.14 39.89 118.25 40.98 118.25 43.15 120.14 42.06 120.14 39.89"/><polyline class="cls-14" points="123.49 37.95 121.61 39.04 121.61 41.21 123.49 40.12 123.49 37.95"/><polyline class="cls-14" points="111.41 48.78 109.53 49.87 109.53 52.04 111.41 50.95 111.41 48.78"/><polyline class="cls-14" points="114.77 46.84 112.88 47.93 112.88 50.1 114.77 49.01 114.77 46.84"/><polyline class="cls-14" points="120.14 43.74 118.25 44.83 118.25 47 120.14 45.91 120.14 43.74"/><polyline class="cls-14" points="123.49 41.81 121.61 42.9 121.61 45.06 123.49 43.97 123.49 41.81"/><polyline class="cls-14" points="111.41 52.63 109.53 53.72 109.53 55.89 111.41 54.8 111.41 52.63"/><polyline class="cls-14" points="114.77 50.7 112.88 51.78 112.88 53.95 114.77 52.86 114.77 50.7"/><polyline class="cls-14" points="120.14 47.59 118.25 48.68 118.25 50.85 120.14 49.76 120.14 47.59"/><polyline class="cls-14" points="123.49 45.66 121.61 46.75 121.61 48.91 123.49 47.83 123.49 45.66"/><polyline class="cls-17" points="111.41 56.49 109.53 57.58 109.53 59.74 111.41 58.66 111.41 56.49"/><polyline class="cls-14" points="114.77 54.55 112.88 55.64 112.88 57.81 114.77 56.72 114.77 54.55"/><polyline class="cls-14" points="120.14 51.45 118.25 52.54 118.25 54.71 120.14 53.62 120.14 51.45"/><polyline class="cls-14" points="123.49 49.51 121.61 50.6 121.61 52.77 123.49 51.68 123.49 49.51"/><polyline class="cls-14" points="111.41 60.34 109.53 61.43 109.53 63.6 111.41 62.51 111.41 60.34"/><polyline class="cls-14" points="114.77 58.4 112.88 59.49 112.88 61.66 114.77 60.57 114.77 58.4"/><polyline class="cls-14" points="120.14 55.3 118.25 56.39 118.25 58.56 120.14 57.47 120.14 55.3"/><polyline class="cls-14" points="123.49 53.37 121.61 54.45 121.61 56.62 123.49 55.53 123.49 53.37"/><polyline class="cls-14" points="111.41 64.19 109.53 65.28 109.53 67.45 111.41 66.36 111.41 64.19"/><polyline class="cls-14" points="114.77 62.26 112.88 63.34 112.88 65.51 114.77 64.42 114.77 62.26"/><polyline class="cls-14" points="120.14 59.16 118.25 60.24 118.25 62.41 120.14 61.32 120.14 59.16"/><polyline class="cls-17" points="123.49 57.22 121.61 58.31 121.61 60.48 123.49 59.39 123.49 57.22"/><polyline class="cls-14" points="111.41 68.05 109.53 69.14 109.53 71.3 111.41 70.22 111.41 68.05"/><polyline class="cls-14" points="114.77 66.11 112.88 67.2 112.88 69.37 114.77 68.28 114.77 66.11"/><polyline class="cls-14" points="120.14 63.01 118.25 64.1 118.25 66.27 120.14 65.18 120.14 63.01"/><polyline class="cls-14" points="123.49 61.07 121.61 62.16 121.61 64.33 123.49 63.24 123.49 61.07"/><polyline class="cls-14" points="111.41 71.9 109.53 72.99 109.53 75.16 111.41 74.07 111.41 71.9"/><polyline class="cls-14" points="114.77 69.96 112.88 71.05 112.88 73.22 114.77 72.13 114.77 69.96"/><polyline class="cls-14" points="120.14 66.86 118.25 67.95 118.25 70.12 120.14 69.03 120.14 66.86"/><polyline class="cls-14" points="123.49 64.92 121.61 66.02 121.61 68.18 123.49 67.09 123.49 64.92"/><polyline class="cls-17" points="111.41 75.75 109.53 76.84 109.53 79.01 111.41 77.92 111.41 75.75"/><polyline class="cls-17" points="114.77 73.82 112.88 74.91 112.88 77.07 114.77 75.98 114.77 73.82"/><polyline class="cls-14" points="120.14 70.72 118.25 71.8 118.25 73.97 120.14 72.88 120.14 70.72"/><polyline class="cls-14" points="123.49 68.78 121.61 69.87 121.61 72.03 123.49 70.94 123.49 68.78"/><polyline class="cls-14" points="111.41 79.61 109.53 80.7 109.53 82.86 111.41 81.77 111.41 79.61"/><polyline class="cls-14" points="114.77 77.67 112.88 78.76 112.88 80.93 114.77 79.84 114.77 77.67"/><polyline class="cls-14" points="120.14 74.57 118.25 75.66 118.25 77.83 120.14 76.74 120.14 74.57"/><polyline class="cls-14" points="123.49 72.63 121.61 73.72 121.61 75.89 123.49 74.8 123.49 72.63"/><polyline class="cls-14" points="111.41 83.46 109.53 84.55 109.53 86.72 111.41 85.63 111.41 83.46"/><polyline class="cls-14" points="114.77 81.52 112.88 82.61 112.88 84.78 114.77 83.69 114.77 81.52"/><polyline class="cls-14" points="120.14 78.42 118.25 79.51 118.25 81.68 120.14 80.59 120.14 78.42"/><polyline class="cls-14" points="123.49 76.48 121.61 77.57 121.61 79.74 123.49 78.65 123.49 76.48"/><polyline class="cls-14" points="111.41 87.31 109.53 88.4 109.53 90.57 111.41 89.48 111.41 87.31"/><polyline class="cls-14" points="114.77 85.38 112.88 86.47 112.88 88.63 114.77 87.54 114.77 85.38"/><polyline class="cls-14" points="120.14 82.27 118.25 83.36 118.25 85.53 120.14 84.44 120.14 82.27"/><polyline class="cls-14" points="123.49 80.34 121.61 81.43 121.61 83.59 123.49 82.5 123.49 80.34"/><polyline class="cls-17" points="111.41 91.17 109.53 92.26 109.53 94.42 111.41 93.33 111.41 91.17"/><polyline class="cls-14" points="114.77 89.23 112.88 90.32 112.88 92.49 114.77 91.4 114.77 89.23"/><polyline class="cls-14" points="120.14 86.13 118.25 87.22 118.25 89.39 120.14 88.3 120.14 86.13"/><polyline class="cls-14" points="123.49 84.19 121.61 85.28 121.61 87.45 123.49 86.36 123.49 84.19"/><polyline class="cls-14" points="111.41 95.02 109.53 96.11 109.53 98.28 111.41 97.19 111.41 95.02"/><polyline class="cls-14" points="114.77 93.08 112.88 94.17 112.88 96.34 114.77 95.25 114.77 93.08"/><polyline class="cls-14" points="120.14 89.98 118.25 91.07 118.25 93.24 120.14 92.15 120.14 89.98"/><polyline class="cls-14" points="123.49 88.05 121.61 89.13 121.61 91.3 123.49 90.21 123.49 88.05"/><polyline class="cls-14" points="111.41 98.87 109.53 99.96 109.53 102.13 111.41 101.04 111.41 98.87"/><polyline class="cls-14" points="114.77 96.94 112.88 98.03 112.88 100.19 114.77 99.1 114.77 96.94"/><polyline class="cls-14" points="120.14 93.83 118.25 94.92 118.25 97.09 120.14 96 120.14 93.83"/><polyline class="cls-14" points="123.49 91.9 121.61 92.99 121.61 95.15 123.49 94.06 123.49 91.9"/><polyline class="cls-14" points="111.41 102.73 109.53 103.81 109.53 105.98 111.41 104.89 111.41 102.73"/><polyline class="cls-14" points="114.77 100.79 112.88 101.88 112.88 104.05 114.77 102.96 114.77 100.79"/><polyline class="cls-14" points="120.14 97.69 118.25 98.78 118.25 100.94 120.14 99.86 120.14 97.69"/><polyline class="cls-14" points="123.49 95.75 121.61 96.84 121.61 99.01 123.49 97.92 123.49 95.75"/><polyline class="cls-14" points="81.19 46.36 82.94 47.38 82.94 49.39 81.19 48.38 81.19 46.36"/><polyline class="cls-14" points="78.07 44.57 79.82 45.58 79.82 47.59 78.07 46.58 78.07 44.57"/><polyline class="cls-14" points="73.08 41.69 74.83 42.7 74.83 44.71 73.08 43.7 73.08 41.69"/><polyline class="cls-14" points="69.97 39.89 71.72 40.9 71.72 42.91 69.97 41.9 69.97 39.89"/><polyline class="cls-14" points="81.19 49.94 82.94 50.95 82.94 52.97 81.19 51.96 81.19 49.94"/><polyline class="cls-14" points="78.07 48.15 79.82 49.16 79.82 51.17 78.07 50.16 78.07 48.15"/><polyline class="cls-14" points="73.08 45.26 74.83 46.27 74.83 48.29 73.08 47.28 73.08 45.26"/><polyline class="cls-14" points="69.97 43.47 71.72 44.48 71.72 46.49 69.97 45.48 69.97 43.47"/><polyline class="cls-14" points="81.19 53.52 82.94 54.53 82.94 56.55 81.19 55.53 81.19 53.52"/><polyline class="cls-14" points="78.07 51.72 79.82 52.73 79.82 54.75 78.07 53.74 78.07 51.72"/><polyline class="cls-14" points="73.08 48.84 74.83 49.85 74.83 51.87 73.08 50.86 73.08 48.84"/><polyline class="cls-14" points="69.97 47.04 71.72 48.05 71.72 50.07 69.97 49.06 69.97 47.04"/><polyline class="cls-17" points="81.19 57.1 82.94 58.11 82.94 60.13 81.19 59.12 81.19 57.1"/><polyline class="cls-14" points="78.07 55.3 79.82 56.32 79.82 58.33 78.07 57.32 78.07 55.3"/><polyline class="cls-14" points="73.08 52.42 74.83 53.43 74.83 55.45 73.08 54.44 73.08 52.42"/><polyline class="cls-14" points="69.97 50.62 71.72 51.64 71.72 53.65 69.97 52.64 69.97 50.62"/><polyline class="cls-14" points="81.19 60.68 82.94 61.69 82.94 63.71 81.19 62.69 81.19 60.68"/><polyline class="cls-14" points="78.07 58.88 79.82 59.89 79.82 61.91 78.07 60.9 78.07 58.88"/><polyline class="cls-14" points="73.08 56 74.83 57.01 74.83 59.03 73.08 58.02 73.08 56"/><polyline class="cls-14" points="69.97 54.2 71.72 55.21 71.72 57.23 69.97 56.22 69.97 54.2"/><polyline class="cls-14" points="81.19 64.26 82.94 65.27 82.94 67.28 81.19 66.27 81.19 64.26"/><polyline class="cls-14" points="78.07 62.46 79.82 63.47 79.82 65.49 78.07 64.47 78.07 62.46"/><polyline class="cls-14" points="73.08 59.58 74.83 60.59 74.83 62.6 73.08 61.59 73.08 59.58"/><polyline class="cls-17" points="69.97 57.78 71.72 58.79 71.72 60.81 69.97 59.8 69.97 57.78"/><polyline class="cls-14" points="81.19 67.84 82.94 68.85 82.94 70.86 81.19 69.85 81.19 67.84"/><polyline class="cls-14" points="78.07 66.04 79.82 67.05 79.82 69.07 78.07 68.06 78.07 66.04"/><polyline class="cls-14" points="73.08 63.16 74.83 64.17 74.83 66.19 73.08 65.17 73.08 63.16"/><polyline class="cls-14" points="69.97 61.36 71.72 62.37 71.72 64.39 69.97 63.38 69.97 61.36"/><polyline class="cls-14" points="81.19 71.42 82.94 72.43 82.94 74.44 81.19 73.43 81.19 71.42"/><polyline class="cls-14" points="78.07 69.62 79.82 70.63 79.82 72.64 78.07 71.63 78.07 69.62"/><polyline class="cls-14" points="73.08 66.74 74.83 67.75 74.83 69.76 73.08 68.75 73.08 66.74"/><polyline class="cls-14" points="69.97 64.94 71.72 65.95 71.72 67.97 69.97 66.95 69.97 64.94"/><polyline class="cls-17" points="81.19 75 82.94 76.01 82.94 78.02 81.19 77.01 81.19 75"/><polyline class="cls-17" points="78.07 73.2 79.82 74.21 79.82 76.22 78.07 75.21 78.07 73.2"/><polyline class="cls-14" points="73.08 70.32 74.83 71.33 74.83 73.34 73.08 72.33 73.08 70.32"/><polyline class="cls-14" points="69.97 68.52 71.72 69.53 71.72 71.54 69.97 70.53 69.97 68.52"/><polyline class="cls-14" points="81.19 78.58 82.94 79.59 82.94 81.6 81.19 80.59 81.19 78.58"/><polyline class="cls-14" points="78.07 76.78 79.82 77.79 79.82 79.81 78.07 78.79 78.07 76.78"/><polyline class="cls-14" points="73.08 73.9 74.83 74.91 74.83 76.92 73.08 75.91 73.08 73.9"/><polyline class="cls-14" points="69.97 72.1 71.72 73.11 71.72 75.13 69.97 74.11 69.97 72.1"/><polyline class="cls-14" points="81.19 82.16 82.94 83.17 82.94 85.18 81.19 84.17 81.19 82.16"/><polyline class="cls-14" points="78.07 80.36 79.82 81.37 79.82 83.38 78.07 82.37 78.07 80.36"/><polyline class="cls-14" points="73.08 77.48 74.83 78.49 74.83 80.5 73.08 79.49 73.08 77.48"/><polyline class="cls-14" points="69.97 75.68 71.72 76.69 71.72 78.7 69.97 77.69 69.97 75.68"/><polyline class="cls-14" points="81.19 85.73 82.94 86.75 82.94 88.76 81.19 87.75 81.19 85.73"/><polyline class="cls-14" points="78.07 83.94 79.82 84.95 79.82 86.96 78.07 85.95 78.07 83.94"/><polyline class="cls-14" points="73.08 81.06 74.83 82.07 74.83 84.08 73.08 83.07 73.08 81.06"/><polyline class="cls-14" points="69.97 79.26 71.72 80.27 71.72 82.28 69.97 81.27 69.97 79.26"/><polyline class="cls-17" points="81.19 89.31 82.94 90.33 82.94 92.34 81.19 91.33 81.19 89.31"/><polyline class="cls-14" points="78.07 87.52 79.82 88.53 79.82 90.54 78.07 89.53 78.07 87.52"/><polyline class="cls-14" points="73.08 84.64 74.83 85.65 74.83 87.66 73.08 86.65 73.08 84.64"/><polyline class="cls-14" points="69.97 82.84 71.72 83.85 71.72 85.86 69.97 84.85 69.97 82.84"/><polyline class="cls-14" points="81.19 92.89 82.94 93.91 82.94 95.92 81.19 94.91 81.19 92.89"/><polyline class="cls-14" points="78.07 91.09 79.82 92.11 79.82 94.12 78.07 93.11 78.07 91.09"/><polyline class="cls-14" points="73.08 88.22 74.83 89.22 74.83 91.24 73.08 90.23 73.08 88.22"/><polyline class="cls-14" points="69.97 86.42 71.72 87.43 71.72 89.44 69.97 88.43 69.97 86.42"/><polyline class="cls-14" points="81.19 96.47 82.94 97.48 82.94 99.5 81.19 98.48 81.19 96.47"/><polyline class="cls-14" points="78.07 94.67 79.82 95.69 79.82 97.7 78.07 96.69 78.07 94.67"/><polyline class="cls-14" points="73.08 91.79 74.83 92.8 74.83 94.82 73.08 93.81 73.08 91.79"/><polyline class="cls-14" points="69.97 89.99 71.72 91.01 71.72 93.02 69.97 92.01 69.97 89.99"/><polyline class="cls-14" points="81.19 100.05 82.94 101.06 82.94 103.08 81.19 102.06 81.19 100.05"/><polyline class="cls-14" points="78.07 98.25 79.82 99.27 79.82 101.28 78.07 100.27 78.07 98.25"/><polyline class="cls-14" points="73.08 95.37 74.83 96.38 74.83 98.4 73.08 97.39 73.08 95.37"/><polyline class="cls-14" points="69.97 93.58 71.72 94.59 71.72 96.6 69.97 95.59 69.97 93.58"/></g></g></g></svg>