<svg xmlns="http://www.w3.org/2000/svg" xmlns:xlink="http://www.w3.org/1999/xlink" viewBox="0 0 506.13 405.17"><defs><style>.cls-1{isolation:isolate;}.cls-2{fill:#7fd0df;}.cls-3{opacity:0.1;}.cls-3,.cls-5{mix-blend-mode:screen;}.cls-4{fill:#3b69b2;}.cls-6{fill:url(#linear-gradient);}.cls-7{fill:url(#linear-gradient-2);}.cls-8{fill:url(#linear-gradient-3);}.cls-9{fill:url(#linear-gradient-4);}.cls-10{fill:url(#linear-gradient-5);}.cls-11{fill:url(#linear-gradient-6);}.cls-12{fill:url(#linear-gradient-7);}.cls-13{fill:url(#linear-gradient-8);}.cls-14{fill:url(#linear-gradient-9);}.cls-15{fill:url(#linear-gradient-10);}.cls-16{fill:url(#linear-gradient-11);}.cls-17{fill:url(#linear-gradient-12);}.cls-18{fill:url(#linear-gradient-13);}.cls-19{fill:url(#linear-gradient-14);}.cls-20{fill:url(#linear-gradient-15);}.cls-21{fill:url(#linear-gradient-16);}.cls-22{fill:url(#linear-gradient-17);}.cls-23{fill:url(#linear-gradient-18);}.cls-24{fill:url(#linear-gradient-19);}.cls-25{fill:url(#linear-gradient-20);}.cls-26{fill:url(#linear-gradient-21);}.cls-27{fill:url(#linear-gradient-22);}.cls-28{fill:url(#linear-gradient-23);}.cls-29{fill:url(#linear-gradient-24);}.cls-30{fill:url(#linear-gradient-25);}.cls-31{fill:url(#linear-gradient-26);}.cls-32{fill:url(#linear-gradient-27);}.cls-33{fill:url(#linear-gradient-28);}.cls-34{fill:url(#linear-gradient-29);}.cls-35{fill:url(#linear-gradient-30);}.cls-36{fill:url(#linear-gradient-31);}.cls-37{fill:url(#linear-gradient-32);}.cls-38{fill:url(#linear-gradient-33);}.cls-39{fill:url(#linear-gradient-34);}.cls-40{fill:url(#linear-gradient-35);}.cls-41{fill:url(#linear-gradient-36);}.cls-42{fill:url(#linear-gradient-37);}.cls-43{fill:url(#linear-gradient-38);}.cls-44{fill:none;stroke:aqua;stroke-linecap:round;stroke-linejoin:round;stroke-width:2.25px;stroke-dasharray:2.25 5.62;}.cls-45{fill:#3abdb7;}</style><linearGradient id="linear-gradient" x1="86.44" y1="414.53" x2="115.26" y2="-85.16" gradientUnits="userSpaceOnUse"><stop offset="0" stop-color="#009379"/><stop offset="1" stop-color="#7ab2e0" stop-opacity="0.5"/></linearGradient><linearGradient id="linear-gradient-2" x1="130.82" y1="417.09" x2="159.65" y2="-82.6" xlink:href="#linear-gradient"/><linearGradient id="linear-gradient-3" x1="310.58" y1="427.46" x2="339.41" y2="-72.23" xlink:href="#linear-gradient"/><linearGradient id="linear-gradient-4" x1="284.1" y1="425.93" x2="312.93" y2="-73.76" xlink:href="#linear-gradient"/><linearGradient id="linear-gradient-5" x1="414.47" y1="433.45" x2="443.3" y2="-66.24" xlink:href="#linear-gradient"/><linearGradient id="linear-gradient-6" x1="423.14" y1="433.95" x2="451.97" y2="-65.74" xlink:href="#linear-gradient"/><linearGradient id="linear-gradient-7" x1="365.46" y1="430.63" x2="394.29" y2="-69.07" xlink:href="#linear-gradient"/><linearGradient id="linear-gradient-8" x1="386.34" y1="431.83" x2="415.17" y2="-67.86" xlink:href="#linear-gradient"/><linearGradient id="linear-gradient-9" x1="430.79" y1="434.4" x2="459.62" y2="-65.3" xlink:href="#linear-gradient"/><linearGradient id="linear-gradient-10" x1="441.27" y1="435" x2="470.09" y2="-64.69" xlink:href="#linear-gradient"/><linearGradient id="linear-gradient-11" x1="454.6" y1="435.77" x2="483.43" y2="-63.92" xlink:href="#linear-gradient"/><linearGradient id="linear-gradient-12" x1="389.06" y1="431.99" x2="417.89" y2="-67.71" xlink:href="#linear-gradient"/><linearGradient id="linear-gradient-13" x1="394.86" y1="432.32" x2="423.69" y2="-67.37" xlink:href="#linear-gradient"/><linearGradient id="linear-gradient-14" x1="402.29" y1="432.75" x2="431.12" y2="-66.94" xlink:href="#linear-gradient"/><linearGradient id="linear-gradient-15" x1="398.23" y1="432.52" x2="427.06" y2="-67.18" xlink:href="#linear-gradient"/><linearGradient id="linear-gradient-16" x1="398.06" y1="432.51" x2="426.89" y2="-67.19" xlink:href="#linear-gradient"/><linearGradient id="linear-gradient-17" x1="399.57" y1="432.6" x2="428.4" y2="-67.1" xlink:href="#linear-gradient"/><linearGradient id="linear-gradient-18" x1="405.53" y1="432.94" x2="434.36" y2="-66.76" gradientTransform="translate(636.97 -188.34) rotate(87.55)" xlink:href="#linear-gradient"/><linearGradient id="linear-gradient-19" x1="410.51" y1="433.23" x2="439.34" y2="-66.47" gradientTransform="translate(641.25 -193.88) rotate(87.55)" xlink:href="#linear-gradient"/><linearGradient id="linear-gradient-20" x1="415.36" y1="433.51" x2="444.19" y2="-66.19" gradientTransform="translate(643 -201.86) rotate(87.55)" xlink:href="#linear-gradient"/><linearGradient id="linear-gradient-21" x1="417.38" y1="433.62" x2="446.21" y2="-66.07" gradientTransform="translate(648.17 -200.41) rotate(87.56)" xlink:href="#linear-gradient"/><linearGradient id="linear-gradient-22" x1="398.44" y1="432.53" x2="427.27" y2="-67.16" gradientTransform="translate(599.91 -213.77) rotate(87.55)" xlink:href="#linear-gradient"/><linearGradient id="linear-gradient-23" x1="409.69" y1="433.18" x2="438.51" y2="-66.52" xlink:href="#linear-gradient"/><linearGradient id="linear-gradient-24" x1="207.78" y1="421.53" x2="236.61" y2="-78.16" xlink:href="#linear-gradient"/><linearGradient id="linear-gradient-25" x1="199.47" y1="421.05" x2="228.29" y2="-78.64" xlink:href="#linear-gradient"/><linearGradient id="linear-gradient-26" x1="205.84" y1="421.42" x2="234.67" y2="-78.28" xlink:href="#linear-gradient"/><linearGradient id="linear-gradient-27" x1="168.7" y1="419.28" x2="197.53" y2="-80.42" xlink:href="#linear-gradient"/><linearGradient id="linear-gradient-28" x1="180.74" y1="419.97" x2="209.57" y2="-79.72" xlink:href="#linear-gradient"/><linearGradient id="linear-gradient-29" x1="89.97" y1="414.73" x2="118.8" y2="-84.96" xlink:href="#linear-gradient"/><linearGradient id="linear-gradient-30" x1="131.09" y1="417.11" x2="159.92" y2="-82.59" xlink:href="#linear-gradient"/><linearGradient id="linear-gradient-31" x1="131.45" y1="417.13" x2="160.28" y2="-82.57" xlink:href="#linear-gradient"/><linearGradient id="linear-gradient-32" x1="134.22" y1="417.29" x2="163.05" y2="-82.41" xlink:href="#linear-gradient"/><linearGradient id="linear-gradient-33" x1="107.67" y1="415.75" x2="136.5" y2="-83.94" xlink:href="#linear-gradient"/><linearGradient id="linear-gradient-34" x1="115.17" y1="416.19" x2="143.99" y2="-83.51" xlink:href="#linear-gradient"/><linearGradient id="linear-gradient-35" x1="112.67" y1="416.04" x2="141.5" y2="-83.65" xlink:href="#linear-gradient"/><linearGradient id="linear-gradient-36" x1="130.07" y1="417.05" x2="158.9" y2="-82.65" xlink:href="#linear-gradient"/><linearGradient id="linear-gradient-37" x1="121.98" y1="416.58" x2="150.81" y2="-83.11" xlink:href="#linear-gradient"/><linearGradient id="linear-gradient-38" x1="104.4" y1="415.57" x2="133.23" y2="-84.13" xlink:href="#linear-gradient"/></defs><g class="cls-1"><g id="Layer_2" data-name="Layer 2"><g id="OBJECTS"><path class="cls-2" d="M488.5,386.56H17.63V18.62H488.5ZM20.11,383.94H486V21.23H20.11Z"/><g class="cls-3"><rect class="cls-4" x="26.31" y="27.78" width="453.51" height="349.62"/><path class="cls-2" d="M480.44,378H25.69V27.12H480.44ZM26.93,376.74H479.2V28.43H26.93Z"/></g><polygon class="cls-2" points="14.46 405.17 0 405.17 0 389.9 2.48 389.9 2.48 402.55 14.46 402.55 14.46 405.17"/><polygon class="cls-2" points="2.48 15.27 0 15.27 0 0 14.46 0 14.46 2.62 2.48 2.62 2.48 15.27"/><polygon class="cls-2" points="506.13 405.17 491.67 405.17 491.67 402.55 503.65 402.55 503.65 389.9 506.13 389.9 506.13 405.17"/><polygon class="cls-2" points="506.13 15.27 503.65 15.27 503.65 2.62 491.67 2.62 491.67 0 506.13 0 506.13 15.27"/><g id="element"><g id="chart_6" data-name="chart 6" class="cls-5"><g id="map"><path class="cls-6" d="M142.44,109.78a.49.49,0,0,0-.2-.5,20,20,0,0,1-4.34-4.08,2.91,2.91,0,0,0-3-1.16c-3.65.73-11.3,2-18.15,1.09-9.39-1.21-55.69-10.47-67.94-1.55-10.07,7.33-9.48,9.6-7.09,13.42a8.26,8.26,0,0,0,7.81,3.43c5.8-1,11.4-.38,12.68,10.09,1.8,14.65-7.24,19.06-4.77,30.83,2.69,12.8,4.62,23.48,6.8,23s.54-5,1.69-6.58,6.53,3.69,5.53,8.24a10.8,10.8,0,0,1-.88,2.57,3.43,3.43,0,0,0,1.32,4.46c4,2.44,10.3,5.82,12.81,4.87,3-1.14,4.9.48,5.4,2.53A2,2,0,0,0,92.27,202c2.54-.17,6.67.12,7.81,3.66,1.67,5.2,2.3,9.27,9.11,7.95,0,0-5.65-4.28-5-10.49a2.22,2.22,0,0,0-1.72-2.36l-2.38-.57a3.47,3.47,0,0,1-2-5.45l.69-.91a3.18,3.18,0,0,0-1.91-5h0a3.19,3.19,0,0,0-2.9.88c-2.19,2.19-7.11,5.95-10.53-.12,0,0-.18-12.12,10.09-15A15.16,15.16,0,0,1,103,175a27.41,27.41,0,0,1,5.44,2.65,2,2,0,0,0,3.08-1.38c.62-3.61,2.21-8.27,6.35-8.26s6.41-4.59,7.47-8a6.47,6.47,0,0,1,4.83-4.44c3-.64,6.66-1.74,7.81-3.39,2-2.88,4.28-5.48,8.88-5.83s3.56-2.89,2.34-4.22c-.69-.75-2.32-.63-3.92-.27a.91.91,0,0,1-.79-1.59c3-2.35,7.8-5.09,12.5-3.74,7.73,2.22,9.77-1.2,9.19-6.62-.17-1.63-.67-2.44-1.29-2.79a5.82,5.82,0,0,1-3.15-4.19c-.13-.95-.46-1.71-1.12-1.9-2.13-.63-5.27,3.28-7.58.49-2.06-2.49-2.69-5.78-6.29-3a6.79,6.79,0,0,0-2,2.51c-1,2.23-3.56,6.92-6.76,8a3,3,0,0,0-1.79,1.69c-.88,2-2.74,5.31-5.37,5-2.24-.26-1.41-3-.37-5.11a2.32,2.32,0,0,0-1.47-3.25c-3.44-1-8.46-3.37-7.12-9.3,0,0,3.43-7.68,13.38-3.61S142.44,109.78,142.44,109.78Z"/><path class="cls-7" d="M103.68,235.81a39.5,39.5,0,0,0,1.05-6.2c.17-2.71,1-6.25,3.83-8a5.11,5.11,0,0,0,2.66-5.35,9.56,9.56,0,0,1,2.72-8.36c1.3-1.21,5.88-4.06,7.62-4,4.85.21,19.74.16,22.73,6s2.66,6.91,8.69,8c4.43.78,0,4.69,1.61,9.14a5.17,5.17,0,0,0,5.06,3.36,3.84,3.84,0,0,1,3.14,1.28c2.71,2.95,13.27,2.19,15.11,6.31,1.56,3.49.43,9.17-3.3,14.85a14.45,14.45,0,0,0-2.26,7.22c-.25,4.84-1.78,12.29-8.87,12.53-7.53.26-7.42,5.38-6.74,8.29A4.42,4.42,0,0,1,154.3,286a4,4,0,0,1-1.13.28c-2.85.28,2.1,7.78-5.16,7.07a3.06,3.06,0,0,0-2.31,3.34c.4,3-1.3,6-4.24,6.46a6.07,6.07,0,0,1-1,.08,3.58,3.58,0,0,0-3.07,1.75,3.53,3.53,0,0,0-.3,3.19,4,4,0,0,1,.05,3c-.58,1.43-1.1,3.47-.12,4.85a3.81,3.81,0,0,1,.3,3.83c-.82,1.75-1.33,3.87.42,4.61a34.76,34.76,0,0,1,4.58,2.58,1.51,1.51,0,0,1-1,2.76c-6-.94-14.8-4.37-14.82-16.35,0,0,.71-5.19-3.33-7.43s-1.65-19.53-.5-31c.53-5.31-4.59-6.61-8.3-10.45-3.16-3.28-3.29-11.62-4.12-16.13C108.85,240.72,102.68,240.26,103.68,235.81Z"/><path id="_Clipping_Path_" data-name="&lt;Clipping Path&gt;" class="cls-8" d="M441.85,125.55h0c9.76-1,4.69-5.47,2.76-7.78s2.91-1.9,3-3.72-3.06-5.19-6.83-7-27.8,2.66-32.54-.18-16.72-1.93-21-2.11-4.13,1.85-6.35,1.75A3.13,3.13,0,0,1,378.6,105a4.89,4.89,0,0,0-3.77-2.16c-6.15-.36-20.41-1.14-21.84-.89-1.84.33-2.21-.3-2.77-1.54s6.09-.35,5.19-3-12.85-2.17-12.86-2.17a22.07,22.07,0,0,1-9.4,2c-4.85-.21-7.29,4.75-8.15,5.93s2.28,3.54,2,5.55c-.11.76-.59.75-1.15.45a4.21,4.21,0,0,0-4.32.36c-1.33.88-3,1.36-4.47-.22-2.9-3.16-8.17-3-11.4-3.12s-11.79,8.69-13.61,8.61-9.39-.89-10.6-.94-1.37-.35-3.3-2.46,6.17-3.08,5-4.55-9.06-1.2-11.18-3.51-9.17-3.23-12.46-2.15-9.36,8.79-9.88,9.45c0,0,3.73-4.4,3.69-4.38-.66,0-10.63,5-10.81,9.18-.19,4.44,4.1,3.41,4.54,2.62s2.5-1.71,3.55,2.18,4.53,2.82,4.6,1.21a1.87,1.87,0,0,1,.76-1.34,2.51,2.51,0,0,0,.88-2.76c-.53-1.42.29-2-.1-3.52-.52-2,4.4-3.46,6.31-5.6s5.44.64,5.39,1.85-5.09,2.35-5.14,3.49a2.15,2.15,0,0,0,.82,1.86,3.17,3.17,0,0,0,3.14.59,8.43,8.43,0,0,1,5-.11c4.2,1.19-.55,3.42-.55,3.42-.13.61-1.09,1.08-2,1.4a2.39,2.39,0,0,0-1.55,1.93,2.36,2.36,0,0,1-1.32,1.73c-2.07,1.13-2.91-3-3.77-1.78-.74,1-.82,4-.82,4.82a.16.16,0,0,1-.2.15c-.9-.24-4.56-1.06-5.71,1-1.3,2.34-3.73-1.08-6,.1l-.14,0c-.33-.58-2.41-4.08-2.5-1.85-.1,2.42-.12,2.83-3.15,2.7s-2.85.49-2.85.49-.53,3-3,2.91c-2.08-.09-2.47,2.12-2.54,2.76a.14.14,0,0,1-.17.13c-.69-.13-3.42-.39-3.22,3.33a13.27,13.27,0,0,1-2.09,7.52h-.15c-3.69-2.91-9.14-.65-9.75-.38l-.07.09a18.62,18.62,0,0,0,.18,9.59l.1.07a7.57,7.57,0,0,1,4.46,1.94.15.15,0,0,0,.26,0c1.56-2.72,5-1.92,6.34-2.05s2.47-5.76,2.47-5.76,2.79,1.13,3.56-2.88,4.81,1,4.91-1.21,2.08-1.33,2.91-1.7,4.77,6.88,6,6.93,2,6.16,3.21,5.4,1-3.33,1-3.33l1.15,0,.15-1.54a.93.93,0,0,0-.63-1,15.68,15.68,0,0,1-5-3c-3.87-3.17-2-5.55.22-5.05s7.68,5,7.54,8.22,3.5,8,4.69,8.7,2.12-2.14,2.55-2.93-2.14-2.12-3.09-3.37,2.46-.91,2.47-.91,5.08-.39,5.41-3.41,4.33-6.49,6.16-6.82,2.85,4.35,3.7,3.4a9.92,9.92,0,0,1,3.31-2.08h.05c8.64.79,9.88,9.33,3.77,10.48s-4.79-1.62-10.84-2.08-7.67,4.13-6.2,7.63,8.34-.86,12.76-.26.55,6.1,0,9.51-8.65,3.48-13.09,3.08-2.86-4.17-6.9-4.34-1.81,4.38-5,4.44-12.14-4.77-13.66-7.06,3.15-7.35-.75-6.1-8.74.84-11.4,1.54-5.66-.24-10.73.15c-2,.16-3.65,2-4.86,4.18l-7.32,8.5c-2.9,2.2-6.07,7.86-5.91,22.17C205,221.49,223,216,229.74,215.26s14.65,3.05,15.53,6.13-1.51,6.82-1.6,9,9.12,9.3,4.7,18,2.09,17.5,2,20.12,2.92,7.41,3.15,16.33c.21,8.45,4.94,4.73,5.44,4.32l.1,0c6.79,1.85,15.39-6.24,16.69-8.41s2.12-7,4.38-7.71-.78-4,1.2-9l0-.1c5.85-4.8,10.94-11.25,6.64-19.3S290.36,232,290.36,232c13.59-11.94,13.64-15.95,14-17.6,0-.11.1,0,0,0-7.81,3.33-6-5.78-11.61-10.63s-15.76-29-12.31-29.27,12.94,14.52,14.59,18.64a62.07,62.07,0,0,1,2.21,7.67c.7,3,6.61,6,9.31,4.49,6.22-3.37,13-10.52,13.89-14.52.73-3.44-1.39-5.42-3.34-6.48a2.47,2.47,0,0,0-2.79.4,4.44,4.44,0,0,1-2.55.65c-4.26.22-9.37-3.44-9.15-8.49s3.94-2.26,5.09-.59,7,2.93,7.93,4,10.21,2.66,13.48,2,6.73,8.38,8.55,8.26,4.46-.21,4.13,7.46c-.23,5.33,3.49,11.9,5.79,15.42a2.24,2.24,0,0,0,3.71.11c1.49-2.07,5.6-2.95,6.83-7.28,2.15-7.6,1.42-11.34,8.08-15.51s6.56,12.22,8.25,10.67,1,6.51,2.18,8.18,3,8,3.17,8.85,6.21,1.48,3.56-2.88a5.15,5.15,0,0,1-.61-4.78,2.33,2.33,0,0,1,3.52-1l3.3,2.37c5.11,3.66,6.69-5,6.61-7.81s-13.5-10.9,1.9-11.25,17-17.9,13-19.08-4.54-2.62-3.61-5.62c.81-2.59,0-3.43-.19-3.61h-.11c-.63.39-6.38,3.76-6.1-2.73.29-6.87,6.32-5.8,8.79-2.05s6.61,1.7,5.48-.37,1.14-3,1.84-5.18S422,159.52,423,149s-4.61-15.17-9.24-15.78-.81-4.69.13-7.69,12.41,3.36,12.59-.88c.17-4,5-2.61,5.7-2.41l.1-.06c1.2-2.85,6,0,3.92,2.27s-1.42,4.8-1.52,7.22,5.19,11.15,6.5,9,1.54-7.63-1.7-12.42S441.85,125.55,441.85,125.55Z"/><path class="cls-9" d="M287.19,279.18s-2.17-6.16,2-9.63-1.37-5.73,3.16-7.56,4-7.52,6.72-5.78S296.47,280,292,280.6,287.19,279.18,287.19,279.18Z"/><path class="cls-10" d="M393.27,292.69s-1.57-15.45,5.57-16.76,6-6.95,7.3-10.13S417.07,261.33,419,263s4.58,1.81,5.92-1.16,8.83-3.06,9.57-1.41-3.67.65-2.8,3.93,2.94,2.35,4.06,4.42l1.13,2.07s2.79,1.13,3.3-1.48,1-13.52,2.93-11.82,1.89,7.77,4.48,8.89-.48,6.46,1.46,8.36,8,16.13-2.27,24.8-16.66,11-19.78,8.06-1-9.56-1-9.56-3.26,5.33-5,3.23.69-6.65-1.35-6.33-2.85,5.63-11.24,7.9-10.91,1.15-12.25-1.15C394.49,298.88,393.27,292.69,393.27,292.69Z"/><path class="cls-11" d="M427.1,315.7s-.42-4.47,1-4.41,5.72-1.17,5,2.24S427.1,315.7,427.1,315.7Z"/><path class="cls-12" d="M371,222.24s-4.29-3.83-.69-2.86,13.07,7,14.14,10.47,2.26,8.45-1.69,10.71S371,222.24,371,222.24Z"/><path class="cls-13" d="M392.43,232.06s-2.07-3.73.37-4,9.29-8.91,9.29-8.91,4-2.66,2.35,6.58-2.71,6.56-2.71,6.56,2.2,5.36-2.45,5.16S392.43,232.06,392.43,232.06Z"/><path class="cls-14" d="M435,235.91s-4.56,2.44-3.64,4.7,2.24-.31,3.81.77-1.38,3.79.42,4.27,3,6.4,5.94,3.09.8-4.42,3-3.31,2.78,6,5,6.08,4.87-.4-.16-5.67S442.11,234.79,435,235.91Z"/><path class="cls-15" d="M440.49,319.94s-1.1-2.68,1.54-3,4.61-3.65,7.06-4.15,4-4.08,6.22-3.38S456.32,314.34,440.49,319.94Z"/><path class="cls-16" d="M459.75,309.83s-2.61-.52.36-3.63,1.33-7.43,2.95-7.36,0,5.46,1.16,5.92,2.14,1.91-1.13,2.79S459.75,309.83,459.75,309.83Z"/><path class="cls-17" d="M388.56,242.22s-1.93-2.11-3.08,1.08,8.83,1.79,9.81,2.44,7.69-.08,11.29,1.09,7.6,2.15,7.69.13S395.93,245,388.56,242.22Z"/><path class="cls-18" d="M408.7,196.67a1.83,1.83,0,0,0-2.67,1.41c-.29,2.45-.55,6.21.54,6.25,1.62.07.59-4.23,3-4.12C411.45,200.29,410.9,197.86,408.7,196.67Z"/><path class="cls-19" d="M412.69,217.55s-1.91-2.71.73-2.8,1.55-3.17,3.16-2.9,1.1,7.33,0,8.7S412.69,217.55,412.69,217.55Z"/><path class="cls-20" d="M409.84,210.64s-.41-2.14,1.39-1.66S412.58,212.89,409.84,210.64Z"/><path class="cls-21" d="M406,239.52s-.78-5.5,1.45-5.5,2.29-1.52,2.9-1.5,2,1,.55,3.77,1.88,3.42,1.73,4.53A1.4,1.4,0,0,1,410,241C409.31,239.67,406.74,243.1,406,239.52Z"/><path class="cls-22" d="M411,230.43s-3.27.67-3.19-1,6.53-1.14,6.88,0S412.71,231.21,411,230.43Z"/><ellipse class="cls-23" cx="416.76" cy="238.21" rx="0.66" ry="1.31" transform="translate(160.97 644.43) rotate(-87.55)"/><ellipse class="cls-24" cx="421.8" cy="237.67" rx="0.91" ry="1.77" transform="translate(166.34 648.94) rotate(-87.55)"/><ellipse class="cls-25" cx="426.84" cy="234.6" rx="0.86" ry="1.92" transform="translate(174.24 651.03) rotate(-87.55)"/><ellipse class="cls-26" cx="428.66" cy="238.01" rx="0.25" ry="1.36" transform="matrix(0.04, -1, 1, 0.04, 172.58, 656.13)"/><ellipse class="cls-27" cx="411.5" cy="206.16" rx="0.91" ry="1.87" transform="translate(187.96 608.49) rotate(-87.55)"/><path class="cls-28" d="M419.85,168.26s2.88-5.75,6.12-5.81-.81-4.69.23-5.45,3.47-.66,3.52,3,2.71,2.95,2.42,5-5.69.57-7,3.34-5.25-.22-5.35,2,.42,4.47-1,4.41S417.17,169.57,419.85,168.26Z"/><path class="cls-29" d="M223.73,140.05s-4.46.08-3.1-3.24c0,0,3.68-.79,4.16-2.52,0,0,1.51,2.49,2.59,2.54S228.29,140.78,223.73,140.05Z"/><path class="cls-30" d="M213.54,138.54s-.79-3.68.43-3.76,2.39-2.33,3.06-2.16,2.22,1.85,1.14,4.91S215.23,142.92,213.54,138.54Z"/><path class="cls-31" d="M220.63,130.4s-.83-4.35.65-4.16.24,3.79,1.84,4.19,1.66,3.85,1.66,3.85-.69,1.86-1.59.94A10.11,10.11,0,0,1,220.63,130.4Z"/><path class="cls-32" d="M169.33,117.08s-5.67,1.35-4-7.21,6-8.65,1.41-14,4.59-6.28,4.59-6.28,34.95-3.09,37.44,1.6c2.25,4.24-.61,15.07-20.91,19.27a15,15,0,0,0-9.6,6.34C176.65,119.39,173.09,117.51,169.33,117.08Z"/><path class="cls-33" d="M194.88,117.36s-4.17-3.42-.67-3.27,9.8-2,9.7.41S197.65,122.07,194.88,117.36Z"/><path class="cls-34" d="M104.85,101.26A4.66,4.66,0,0,0,102.67,98c-2.54-1.37-5.34-3.29-.61-3.08,7.27.31,8.94,4,10.35,4.09s4.71-1.22,4.71-1.22.38,5.28-4.44,4.47C108.86,101.6,105.21,102.87,104.85,101.26Z"/><path class="cls-35" d="M144.62,112.52s-.07-3,1.55-3.17-.05,1.21,3,1.34,3.61.76,3.54,2.38-2.21-.3-2.7,1.71S145.25,116.79,144.62,112.52Z"/><path class="cls-36" d="M140.35,103.43s6.1-.75,7,1.92,2,4.74,4.25,4.63,3.48-.86,4.23.59,4.66-.21,1.36-3.38-5.22-1-3.31-3.18-3.4-5.61-5.7-4.09S139.51,99.55,140.35,103.43Z"/><path class="cls-37" d="M149.08,93.48s3.58,1.57,6.69-.32,2.72-2.11,6.17-2.37,1.92-1.4,1-3.87-8.87-1.73-10.17.24-4.18,3.06-4.52,1.63-6.19-1.88-6.08.15S149.08,93.48,149.08,93.48Z"/><path class="cls-38" d="M123.59,97.86a3.54,3.54,0,0,1,2.67-.9c1.41.26,3.79,1.38.49,2.85S123.59,97.86,123.59,97.86Z"/><path class="cls-39" d="M132.87,89.14s-3,.07-2.3,1.72,6.89-.11,6.89-.11S136.75,88.3,132.87,89.14Z"/><path class="cls-40" d="M129.39,94.66s3.6,1,3.89-1S128.29,92,129.39,94.66Z"/><path class="cls-41" d="M146.66,97.83s3.6,1,3.89-1S145.56,95.15,146.66,97.83Z"/><path class="cls-42" d="M138.63,96.47s3.6,1,3.89-1S137.53,93.8,138.63,96.47Z"/><path class="cls-43" d="M121.08,94.91s3.6,1,3.89-1S120,92.24,121.08,94.91Z"/></g></g><polyline class="cls-44" points="67.29 150.43 146.9 222.07 220.54 155.4 220.54 130.53 244.42 140.48 334.97 113.61 409.6 200.18"/><circle class="cls-45" cx="407.87" cy="198.31" r="5.1"/><circle class="cls-45" cx="335.01" cy="113.85" r="5.21"/><circle class="cls-45" cx="220.6" cy="155.24" r="4.81"/><circle class="cls-45" cx="245.3" cy="139.95" r="5.09"/><circle class="cls-45" cx="146.73" cy="222.11" r="5.01"/><circle class="cls-45" cx="66.83" cy="150.27" r="5.13"/><circle class="cls-45" cx="221.57" cy="132.37" r="4.83"/></g></g></g></g></svg>