<svg xmlns="http://www.w3.org/2000/svg" viewBox="0 0 165.94 166.6"><defs><style>.cls-1{fill:#d29a5f;}.cls-2{fill:#e0b682;}.cls-3{fill:#ba9468;}.cls-4{fill:#947350;}.cls-5{fill:#c3baa9;}.cls-6{fill:#9b957f;}.cls-7{fill:#faf7e5;}.cls-8{fill:#c6bdac;}.cls-9{fill:#d67957;}.cls-10{fill:#a15b40;}.cls-11{fill:#eb9a7d;}.cls-12{fill:#874e3b;}.cls-13{fill:#8a4f36;}.cls-14{fill:#ccbda0;}.cls-15{fill:#fffffa;}.cls-16{fill:#fff7f1;}.cls-17{fill:#9a8c7f;}.cls-18{fill:#151212;}.cls-19{fill:#834d33;}.cls-20{fill:#dce46f;}.cls-21{fill:#b3b951;}.cls-22{fill:#dde67a;}.cls-23{fill:#cdd36b;}.cls-24{fill:#a28c8e;}.cls-25{fill:#e0d9c9;}.cls-26{fill:#44aea0;}.cls-27{fill:#f2e9eb;}.cls-28{fill:#65c6bc;}.cls-29{fill:#c9c4bf;}.cls-30{fill:#9f9891;}.cls-31{fill:#87d0ce;}.cls-32{fill:#66999a;}.cls-33{fill:#878082;}.cls-34{fill:#e3ddd1;}.cls-35{fill:#cfd66d;}.cls-36{fill:#dee57d;}.cls-37,.cls-44{fill:#fff;}.cls-38{fill:#7f6b6b;}.cls-39{fill:#3b2729;}.cls-40{fill:#fffef6;}.cls-41{fill:#9e888a;}.cls-42{fill:#ae8f85;}.cls-43{fill:#7a6868;}.cls-44{stroke:#fff;stroke-miterlimit:10;}.cls-45{fill:#4b4a4b;}.cls-46{fill:#373737;}.cls-47{fill:#1b1d1c;}.cls-48{fill:#7d8a8a;}.cls-49{fill:#af7c44;}.cls-50{fill:#7a481d;}.cls-51{fill:#79ccc6;}.cls-52{fill:#228e91;}.cls-53{fill:#884e35;}.cls-54{fill:#d5995d;}.cls-55{fill:#fffcf9;}.cls-56{fill:none;}.cls-57{fill:#9f9d99;}.cls-58{fill:#f4f1e2;}.cls-59{fill:#c2bcae;}.cls-60{fill:#a2a09e;}.cls-61{fill:#8a867f;}.cls-62{fill:#fbf8e9;}.cls-63{fill:#86837a;}.cls-64{fill:#eae7d6;}</style></defs><g id="Layer_2" data-name="Layer 2"><g id="Isolation_Mode" data-name="Isolation Mode"><polygon class="cls-1" points="53.7 35.49 118.24 73.09 152.63 53.24 82.73 12.71 53.7 35.49"/><polygon class="cls-2" points="135.26 41.04 138.9 38.9 142.67 41.46 139.5 43.61 135.26 41.04"/><polygon class="cls-3" points="135.26 41.04 135.26 47.01 139.32 49.38 139.5 43.61 135.26 41.04"/><polygon class="cls-4" points="139.5 43.61 142.67 41.46 142.86 47.75 139.32 49.38 139.5 43.61"/><polygon class="cls-2" points="126.97 36.01 130.61 33.86 134.38 36.42 131.21 38.57 126.97 36.01"/><polygon class="cls-3" points="126.97 36.01 126.97 41.97 131.03 44.35 131.21 38.57 126.97 36.01"/><polygon class="cls-4" points="131.21 38.57 134.38 36.42 134.57 42.72 131.03 44.35 131.21 38.57"/><polygon class="cls-2" points="118.99 30.7 122.62 28.55 126.4 31.12 123.23 33.26 118.99 30.7"/><polygon class="cls-3" points="118.99 30.7 118.99 36.66 123.04 39.04 123.23 33.26 118.99 30.7"/><polygon class="cls-4" points="123.23 33.26 126.4 31.12 126.58 37.41 123.04 39.04 123.23 33.26"/><polygon class="cls-2" points="102.76 20.5 106.39 18.36 110.17 20.92 107 23.06 102.76 20.5"/><polygon class="cls-3" points="102.76 20.5 102.76 26.46 106.81 28.84 107 23.06 102.76 20.5"/><polygon class="cls-4" points="107 23.06 110.17 20.92 110.35 27.21 106.81 28.84 107 23.06"/><polygon class="cls-2" points="110.86 25.61 114.49 23.47 118.26 26.03 115.09 28.18 110.86 25.61"/><polygon class="cls-3" points="110.86 25.61 110.86 31.58 114.91 33.95 115.09 28.18 110.86 25.61"/><polygon class="cls-4" points="115.09 28.18 118.26 26.03 118.45 32.32 114.91 33.95 115.09 28.18"/><polygon class="cls-2" points="94.67 15.66 98.3 13.52 102.08 16.08 98.91 18.23 94.67 15.66"/><polygon class="cls-3" points="94.67 15.66 94.67 21.63 98.72 24 98.91 18.23 94.67 15.66"/><polygon class="cls-4" points="98.91 18.23 102.08 16.08 102.26 22.37 98.72 24 98.91 18.23"/><polygon class="cls-5" points="89.77 2.39 88.1 18.38 91.92 20.7 91.92 3.56 89.77 2.39"/><polygon class="cls-6" points="91.92 3.56 91.92 20.7 95.81 18.19 94.11 2.39 91.92 3.56"/><polygon class="cls-7" points="89.77 2.39 91.92 0 91.92 3.56 89.77 2.39"/><polygon class="cls-8" points="91.92 0 94.11 2.39 91.92 3.56 91.92 0"/><polygon class="cls-9" points="58.1 32.04 76.02 8.51 117.68 33.95 118.24 68.54 58.1 32.04"/><polygon class="cls-10" points="117.68 33.95 147.59 51.57 118.24 68.54 117.68 33.95"/><polygon class="cls-11" points="90 20.44 93.11 22.02 91.48 25.47 88.17 23.42 90 20.44"/><polygon class="cls-11" points="83.67 22.96 86.78 24.54 85.15 27.99 81.85 25.94 83.67 22.96"/><polygon class="cls-11" points="90 26.13 93.11 27.71 91.48 31.16 88.17 29.11 90 26.13"/><polygon class="cls-11" points="107.19 30.09 110.3 31.67 108.67 35.12 105.36 33.07 107.19 30.09"/><polygon class="cls-11" points="100.94 32.65 104.06 34.23 102.42 37.68 99.12 35.63 100.94 32.65"/><polygon class="cls-11" points="107.19 35.16 110.3 36.75 108.67 40.2 105.36 38.15 107.19 35.16"/><polygon class="cls-12" points="121.22 43.83 124.11 42.11 125.93 44.81 123.08 46.81 121.22 43.83"/><polygon class="cls-12" points="121.22 49.8 124.11 48.07 125.93 50.77 123.08 52.78 121.22 49.8"/><polygon class="cls-12" points="127.37 46.67 130.26 44.95 132.08 47.65 129.24 49.66 127.37 46.67"/><path class="cls-13" d="M68.62,24.51s4-3.71,7.16-3.8,4.39.54,4.39.54,2.52,2.1,2.57,4a27.13,27.13,0,0,1-.14,3.47A21.3,21.3,0,0,1,82,31.16c-.58,1.76-1.45,3.73-1.93,3.46-.81-.48-1.68-3.14-4.11-5.76s-3.63-3-3.63-3A20.34,20.34,0,0,0,68.62,24.51Z"/><polygon class="cls-14" points="66.14 28.33 66.14 37.77 79 45.63 79 36.63 66.14 28.33"/><polygon class="cls-15" points="68.13 30.5 68.13 37.77 76.49 42.9 76.66 35.91 68.13 30.5"/><polygon points="70.18 32.6 70.18 38.02 74.14 40.41 74.52 35.25 72.05 33.77 70.18 32.6"/><polygon class="cls-16" points="71.98 35.46 70.14 34.33 70.14 35.33 71.88 36.38 71.79 39.03 72.57 39.54 72.69 36.75 74.37 37.78 74.43 36.87 72.73 35.84 72.74 34.15 72 33.7 71.98 35.46"/><polygon class="cls-14" points="83.19 36.58 83.19 46.02 96.06 53.88 96.06 44.87 83.19 36.58"/><polygon class="cls-15" points="85.18 38.75 85.18 46.02 93.54 51.15 93.71 44.16 85.18 38.75"/><polygon points="87.23 40.85 87.23 46.27 91.19 48.66 91.56 43.5 89.1 42.02 87.23 40.85"/><polygon class="cls-16" points="89.03 43.71 87.2 42.57 87.2 43.58 88.93 44.62 88.84 47.28 89.63 47.79 89.74 45 91.42 46.02 91.48 45.11 89.78 44.09 89.79 42.39 89.05 41.95 89.03 43.71"/><polygon class="cls-14" points="99.5 45.83 99.5 55.27 112.36 63.13 112.36 54.12 99.5 45.83"/><polygon class="cls-15" points="101.49 48 101.49 55.27 109.85 60.4 110.02 53.41 101.49 48"/><polygon points="103.54 50.1 103.54 55.52 107.5 57.91 107.87 52.75 105.41 51.27 103.54 50.1"/><polygon class="cls-16" points="105.34 52.96 103.5 51.83 103.5 52.83 105.23 53.88 105.15 56.53 105.93 57.04 106.05 54.25 107.72 55.28 107.79 54.37 106.09 53.34 106.1 51.65 105.36 51.2 105.34 52.96"/><path class="cls-17" d="M65.38,26.13a3.79,3.79,0,0,1,3.1-1.62c1.66,0,1.82.34,2,.43s-.53-.24-.46-.25a8.82,8.82,0,0,1,2.95,1.36,20.16,20.16,0,0,1,1.77,1.42,21.28,21.28,0,0,1,5.45,7.27v2.56L65.24,27.74Z"/><path class="cls-18" d="M68.61,27.54a2.12,2.12,0,0,1,1.73-.9c.93,0,1,.19,1.11.24s-.3-.13-.26-.14a4.93,4.93,0,0,1,1.65.76,11.27,11.27,0,0,1,1,.79,11.89,11.89,0,0,1,3,4.06v1.43l-8.35-5.34Z"/><path class="cls-13" d="M85.89,33.19s4-3.71,7.16-3.8,4.39.54,4.39.54,2.52,2.1,2.57,4a27.13,27.13,0,0,1-.14,3.47,21.3,21.3,0,0,1-.64,2.47c-.58,1.76-1.45,3.73-1.93,3.46-.81-.48-1.68-3.14-4.11-5.76s-3.63-3-3.63-3A20.34,20.34,0,0,0,85.89,33.19Z"/><path class="cls-17" d="M82.65,34.8a3.79,3.79,0,0,1,3.1-1.62c1.66,0,1.82.34,2,.43s-.53-.24-.46-.25a8.82,8.82,0,0,1,2.95,1.36A20.16,20.16,0,0,1,92,36.15a21.28,21.28,0,0,1,5.45,7.27V46L82.52,36.42Z"/><path class="cls-18" d="M85.88,36.22a2.12,2.12,0,0,1,1.73-.9c.93,0,1,.19,1.11.24s-.3-.13-.26-.14a4.93,4.93,0,0,1,1.65.76,11.27,11.27,0,0,1,1,.79,11.89,11.89,0,0,1,3,4.06v1.43l-8.35-5.34Z"/><path class="cls-13" d="M102.45,42.32s4-3.71,7.16-3.8,4.39.54,4.39.54,2.52,2.1,2.57,4a27.13,27.13,0,0,1-.14,3.47,21.3,21.3,0,0,1-.64,2.47c-.58,1.76-1.45,3.73-1.93,3.46-.81-.48-1.68-3.14-4.11-5.76s-3.63-3-3.63-3A20.34,20.34,0,0,0,102.45,42.32Z"/><path class="cls-17" d="M99.21,43.93a3.79,3.79,0,0,1,3.1-1.62c1.66,0,1.82.34,2,.43s-.53-.24-.46-.25a8.82,8.82,0,0,1,2.95,1.36,20.16,20.16,0,0,1,1.77,1.42A21.28,21.28,0,0,1,114,52.55v2.56L99.08,45.55Z"/><path class="cls-18" d="M102.44,45.35a2.12,2.12,0,0,1,1.73-.9c.93,0,1,.19,1.11.24s-.3-.13-.26-.14a4.93,4.93,0,0,1,1.65.76,11.27,11.27,0,0,1,1,.79,11.89,11.89,0,0,1,3,4.06V51.6l-8.35-5.34Z"/><polygon class="cls-2" points="95.6 53.94 99.23 51.8 103 54.36 99.84 56.5 95.6 53.94"/><polygon class="cls-3" points="95.6 53.94 95.6 59.9 99.65 62.28 99.84 56.5 95.6 53.94"/><polygon class="cls-4" points="99.84 56.5 103 54.36 103.19 60.65 99.65 62.28 99.84 56.5"/><polygon class="cls-2" points="71.63 39.8 75.26 37.66 79.04 40.22 75.87 42.36 71.63 39.8"/><polygon class="cls-3" points="71.63 39.8 71.63 45.77 75.68 48.14 75.87 42.36 71.63 39.8"/><polygon class="cls-4" points="75.87 42.36 79.04 40.22 79.22 46.51 75.68 48.14 75.87 42.36"/><polygon class="cls-2" points="79.4 44.42 83.03 42.27 86.81 44.84 83.64 46.98 79.4 44.42"/><polygon class="cls-3" points="79.4 44.42 79.4 50.38 83.45 52.76 83.64 46.98 79.4 44.42"/><polygon class="cls-4" points="83.64 46.98 86.81 44.84 86.99 51.13 83.45 52.76 83.64 46.98"/><polygon class="cls-2" points="79.6 44.42 83.23 42.27 87.01 44.84 83.84 46.98 79.6 44.42"/><polygon class="cls-3" points="79.6 44.42 79.6 50.38 83.65 52.76 83.84 46.98 79.6 44.42"/><polygon class="cls-4" points="83.84 46.98 87.01 44.84 87.19 51.13 83.65 52.76 83.84 46.98"/><polygon class="cls-2" points="87.6 49.35 91.23 47.21 95.01 49.77 91.84 51.91 87.6 49.35"/><polygon class="cls-3" points="87.6 49.35 87.6 55.31 91.65 57.69 91.84 51.91 87.6 49.35"/><polygon class="cls-4" points="91.84 51.91 95.01 49.77 95.19 56.06 91.65 57.69 91.84 51.91"/><polygon class="cls-2" points="103.82 58.39 107.46 56.25 111.23 58.81 108.06 60.96 103.82 58.39"/><polygon class="cls-3" points="103.82 58.39 103.82 64.36 107.88 66.73 108.06 60.96 103.82 58.39"/><polygon class="cls-4" points="108.06 60.96 111.23 58.81 111.42 65.1 107.88 66.73 108.06 60.96"/><polygon class="cls-2" points="129.72 59.67 126.09 57.52 122.32 60.09 125.48 62.23 129.72 59.67"/><polygon class="cls-3" points="129.72 59.67 129.72 65.63 125.67 68.01 125.48 62.23 129.72 59.67"/><polygon class="cls-4" points="125.48 62.23 122.32 60.09 122.13 66.38 125.67 68.01 125.48 62.23"/><polygon class="cls-2" points="138.12 54.43 134.48 52.28 130.71 54.84 133.88 56.99 138.12 54.43"/><polygon class="cls-3" points="138.12 54.43 138.12 60.39 134.06 62.77 133.88 56.99 138.12 54.43"/><polygon class="cls-4" points="133.88 56.99 130.71 54.84 130.52 61.14 134.06 62.77 133.88 56.99"/><polygon class="cls-2" points="138.12 54.63 134.48 52.48 130.71 55.05 133.88 57.19 138.12 54.63"/><polygon class="cls-3" points="138.12 54.63 138.12 60.59 134.06 62.97 133.88 57.19 138.12 54.63"/><polygon class="cls-4" points="133.88 57.19 130.71 55.05 130.52 61.34 134.06 62.97 133.88 57.19"/><polygon class="cls-2" points="137.71 54.83 134.08 52.69 130.3 55.25 133.47 57.4 137.71 54.83"/><polygon class="cls-3" points="137.71 54.83 137.71 60.8 133.66 63.17 133.47 57.4 137.71 54.83"/><polygon class="cls-4" points="133.47 57.4 130.3 55.25 130.12 61.54 133.66 63.17 133.47 57.4"/><polygon class="cls-2" points="63.14 34.58 66.78 32.44 70.55 35 67.38 37.15 63.14 34.58"/><polygon class="cls-3" points="63.14 34.58 63.14 40.55 67.2 42.92 67.38 37.15 63.14 34.58"/><polygon class="cls-4" points="67.38 37.15 70.55 35 70.74 41.29 67.2 42.92 67.38 37.15"/><polygon class="cls-2" points="63.14 34.79 66.78 32.64 70.55 35.2 67.38 37.35 63.14 34.79"/><polygon class="cls-3" points="63.14 34.79 63.14 40.75 67.2 43.13 67.38 37.35 63.14 34.79"/><polygon class="cls-4" points="67.38 37.35 70.55 35.2 70.74 41.5 67.2 43.13 67.38 37.35"/><polygon class="cls-2" points="63.14 34.99 66.78 32.84 70.55 35.41 67.38 37.55 63.14 34.99"/><polygon class="cls-3" points="63.14 34.99 63.14 40.95 67.2 43.33 67.38 37.55 63.14 34.99"/><polygon class="cls-4" points="67.38 37.55 70.55 35.41 70.74 41.7 67.2 43.33 67.38 37.55"/><polygon class="cls-19" points="76.02 8.51 92.42 15.22 147.59 51.57 117.68 33.95 76.02 8.51"/><polygon class="cls-5" points="56.22 18.76 54.54 34.75 58.36 37.08 58.36 19.93 56.22 18.76"/><polygon class="cls-6" points="58.36 19.93 58.36 37.08 62.25 34.56 60.55 18.76 58.36 19.93"/><polygon class="cls-7" points="56.22 18.76 58.36 16.37 58.36 19.93 56.22 18.76"/><polygon class="cls-8" points="58.36 16.37 60.55 18.76 58.36 19.93 58.36 16.37"/><polygon class="cls-5" points="145.27 36.91 143.59 52.89 147.41 55.22 147.41 38.07 145.27 36.91"/><polygon class="cls-6" points="147.41 38.07 147.41 55.22 151.3 52.7 149.6 36.91 147.41 38.07"/><polygon class="cls-7" points="145.27 36.91 147.41 34.52 147.41 38.07 145.27 36.91"/><polygon class="cls-8" points="147.41 34.52 149.6 36.91 147.41 38.07 147.41 34.52"/><polygon class="cls-2" points="145.25 50.55 141.62 48.41 137.84 50.97 141.01 53.12 145.25 50.55"/><polygon class="cls-3" points="145.25 50.55 145.25 56.52 141.2 58.89 141.01 53.12 145.25 50.55"/><polygon class="cls-4" points="141.01 53.12 137.84 50.97 137.66 57.26 141.2 58.89 141.01 53.12"/><polygon class="cls-5" points="115.89 53.45 114.21 69.43 118.03 71.76 118.03 54.61 115.89 53.45"/><polygon class="cls-6" points="118.03 54.61 118.03 71.76 121.92 69.24 120.22 53.45 118.03 54.61"/><polygon class="cls-7" points="115.89 53.45 118.03 51.05 118.03 54.61 115.89 53.45"/><polygon class="cls-8" points="118.03 51.05 120.22 53.45 118.03 54.61 118.03 51.05"/><polygon class="cls-20" points="53.51 94.31 48.61 96.65 117.14 137.12 164.61 109.78 160.61 106.61 117.72 131.15 53.51 94.31"/><polygon class="cls-21" points="151.82 90.3 156.9 93.37 156.9 112.43 151.82 109.82 151.82 90.3"/><polygon class="cls-22" points="151.76 90.52 151.76 83.67 163.1 89.89 156.84 93.59 151.76 90.52"/><polygon class="cls-23" points="163.1 89.89 163.1 108.72 156.9 112.43 156.9 93.37 163.1 89.89"/><polygon class="cls-24" points="118.24 102.96 152.63 82.55 152.87 111.15 117.91 131.15 118.24 102.96"/><polygon class="cls-25" points="118.22 102.94 53.68 65.66 53.68 94.28 117.89 131.13 118.22 102.94"/><polygon class="cls-26" points="31.04 92.63 113.84 140.89 106.43 145.14 30.98 100.68 31.04 92.63"/><polygon class="cls-27" points="31.04 92.63 36.32 89.28 117.34 137.12 164.8 109.78 165.9 110.75 113.84 140.89 31.04 92.63"/><polygon class="cls-28" points="7.12 115.24 30.98 100.68 57.82 116.49 51.35 120.74 64.61 128.43 72.15 124.94 107.02 144.81 82.51 158.72 7.12 115.24"/><polygon class="cls-29" points="77.4 105.29 77.56 103.44 89.44 110.09 89.24 112.04 77.4 105.29"/><polygon class="cls-30" points="90.55 108.29 90.55 111.1 89.24 112.04 89.14 109.92 90.55 108.29"/><polygon class="cls-30" points="77.56 103.44 78.48 102.67 78.48 103.95 77.56 103.44"/><polygon class="cls-31" points="0 111.15 0 119.24 82.73 166.6 82.73 158.72 0 111.15"/><polygon class="cls-32" points="82.91 158.51 114.03 140.69 114.03 148.45 82.91 166.4 82.91 158.51"/><polygon class="cls-33" points="113.84 140.89 165.9 110.75 165.94 118.63 113.88 148.67 113.84 140.89"/><polygon class="cls-34" points="53.7 39.36 118.24 76.5 118.24 99 53.7 61.66 53.7 39.36"/><polygon class="cls-35" points="36.84 73.75 43.03 76.92 43.03 95.51 36.84 92.43 36.84 73.75"/><polygon class="cls-36" points="36.84 73.75 53.7 63.77 53.7 70.72 43.03 76.92 36.84 73.75"/><polygon class="cls-21" points="43.03 76.92 43.03 95.51 53.7 89.59 53.7 70.72 43.03 76.92"/><polygon class="cls-37" points="57.34 44.25 66.38 49.28 66.38 64.99 57.34 60.14 57.34 44.25"/><polygon class="cls-38" points="58.97 48.26 64.33 51.33 64.33 61.49 58.97 58.6 58.97 48.26"/><polygon class="cls-39" points="60.18 57.79 64.33 60.12 64.33 51.33 60.18 48.95 60.18 57.79"/><polygon class="cls-40" points="62.68 50.26 62.68 59.19 61.83 58.71 61.83 49.77 62.68 50.26"/><polygon class="cls-37" points="68.64 51.04 77.68 56.07 77.68 71.78 68.64 66.93 68.64 51.04"/><polygon class="cls-38" points="70.27 55.05 75.63 58.12 75.63 68.28 70.27 65.39 70.27 55.05"/><polygon class="cls-39" points="71.49 64.58 75.63 66.91 75.63 58.12 71.49 55.74 71.49 64.58"/><polygon class="cls-40" points="73.98 57.05 73.98 65.98 73.13 65.5 73.13 56.56 73.98 57.05"/><polygon class="cls-37" points="80.01 57.72 89.05 62.76 89.05 78.46 80.01 73.61 80.01 57.72"/><polygon class="cls-38" points="81.64 61.73 87 64.81 87 74.97 81.64 72.08 81.64 61.73"/><polygon class="cls-39" points="82.85 71.26 87 73.59 87 64.81 82.85 62.43 82.85 71.26"/><polygon class="cls-40" points="85.35 63.73 85.35 72.66 84.5 72.19 84.5 63.24 85.35 63.73"/><polygon class="cls-41" points="118.24 76.5 152.63 57.16 152.63 79.06 118.24 99 118.24 76.5"/><polygon class="cls-37" points="91.48 64.51 100.52 69.55 100.52 85.25 91.48 80.4 91.48 64.51"/><polygon class="cls-38" points="93.11 68.52 98.47 71.6 98.47 81.75 93.11 78.87 93.11 68.52"/><polygon class="cls-39" points="94.32 78.05 98.47 80.38 98.47 71.6 94.32 69.22 94.32 78.05"/><polygon class="cls-40" points="96.82 70.52 96.82 79.45 95.97 78.98 95.97 70.03 96.82 70.52"/><polygon class="cls-37" points="103.31 71.39 112.35 76.42 112.35 92.12 103.31 87.28 103.31 71.39"/><polygon class="cls-38" points="104.94 75.39 110.3 78.47 110.3 88.63 104.94 85.74 104.94 75.39"/><polygon class="cls-39" points="106.15 84.92 110.3 87.25 110.3 78.47 106.15 76.09 106.15 84.92"/><polygon class="cls-40" points="108.65 77.4 108.65 86.33 107.8 85.85 107.8 76.91 108.65 77.4"/><polygon class="cls-37" points="146.78 63.63 137.74 68.66 137.74 84.36 146.78 79.52 146.78 63.63"/><polygon class="cls-38" points="145.15 67.64 139.79 70.71 139.79 80.87 145.15 77.98 145.15 67.64"/><polygon class="cls-39" points="143.94 77.17 139.79 79.5 139.79 70.71 143.94 68.33 143.94 77.17"/><polygon class="cls-40" points="141.44 69.64 141.44 78.57 142.29 78.09 142.29 69.15 141.44 69.64"/><polygon class="cls-37" points="135.44 70.62 126.4 75.65 126.4 91.35 135.44 86.51 135.44 70.62"/><polygon class="cls-38" points="133.81 74.63 128.45 77.7 128.45 87.86 133.81 84.97 133.81 74.63"/><polygon class="cls-39" points="132.6 84.16 128.45 86.48 128.45 77.7 132.6 75.32 132.6 84.16"/><polygon class="cls-40" points="130.1 76.63 130.1 85.56 130.95 85.08 130.95 76.14 130.1 76.63"/><polygon class="cls-42" points="53.7 61.66 53.7 65.69 78.26 79.45 118.24 102.96 118.24 99 53.7 61.66"/><polygon class="cls-43" points="118.24 99 118.24 102.96 152.63 82.97 152.63 79.06 118.24 99"/><polygon class="cls-37" points="56.35 92.11 64.79 97.08 63.91 92.88 58.34 89.66 56.35 92.11"/><path class="cls-44" d="M58.47,69.77a9.68,9.68,0,0,1,.3-2.51c-1.36.26-2.32,2.15-2.32,5V91.82l2-2.49Z"/><path class="cls-37" d="M61.13,67.34l-.62-.22a3.67,3.67,0,0,0-1.62,0,15.72,15.72,0,0,0-.43,3.21V89.9l.24-.3-.24.3,6.32,7.18V77.3C65,73.35,63.37,68.43,61.13,67.34Z"/><polygon class="cls-45" points="57.22 90.59 64.33 94.69 64.33 91.4 59.03 88.53 57.22 90.59"/><path class="cls-46" d="M59.11,70.79a8.32,8.32,0,0,1,.28-2.25c-1.27.2-2.17,1.89-2.17,4.45v17.6l1.89-2.2Z"/><path class="cls-47" d="M60.77,68.85h0a2.09,2.09,0,0,0-1.39-.31,8.32,8.32,0,0,0-.28,2.25L59,88.53l-1.81,2.05,1.91-2.22,0,.23,5.17,2.8V77.09C64.33,73.68,62.74,70,60.77,68.85Z"/><polygon class="cls-48" points="61.16 69.1 61.16 78.7 59.11 77.88 59.11 79.85 61.16 80.6 61.16 89.69 62.63 90.48 62.63 80.96 64.33 81.53 64.33 79.76 62.62 79.16 62.59 70.74 62.21 70.21 61.7 69.6 61.16 69.1"/><polygon class="cls-37" points="104.42 119.3 112.86 124.27 111.98 120.07 106.4 116.85 104.42 119.3"/><path class="cls-44" d="M106.54,97a9.68,9.68,0,0,1,.3-2.51c-1.36.26-2.32,2.15-2.32,5V119l2-2.49Z"/><path class="cls-37" d="M109.2,94.54l-.62-.22a3.67,3.67,0,0,0-1.62,0,15.72,15.72,0,0,0-.43,3.21v19.56l.24-.3-.24.3,6.32,7.18V104.49C113,100.54,111.44,95.63,109.2,94.54Z"/><polygon class="cls-45" points="105.29 117.78 112.39 121.89 112.39 118.6 107.1 115.73 105.29 117.78"/><path class="cls-46" d="M107.17,98a8.32,8.32,0,0,1,.28-2.25c-1.27.2-2.17,1.89-2.17,4.45v17.6l1.89-2.2Z"/><path class="cls-47" d="M108.84,96.05h0a2.09,2.09,0,0,0-1.39-.31,8.32,8.32,0,0,0-.28,2.25l-.08,17.74-1.81,2.05,1.91-2.22,0,.23,5.17,2.8V104.29C112.39,100.87,110.8,97.18,108.84,96.05Z"/><polygon class="cls-48" points="109.22 96.3 109.22 105.9 107.17 105.08 107.17 107.05 109.22 107.8 109.22 116.88 110.69 117.68 110.69 108.15 112.39 108.72 112.39 106.95 110.69 106.36 110.65 97.93 110.27 97.4 109.76 96.8 109.22 96.3"/><polygon class="cls-37" points="94.05 113.56 102.49 118.53 101.61 114.33 96.04 111.11 94.05 113.56"/><path class="cls-44" d="M96.17,91.22a9.68,9.68,0,0,1,.3-2.51c-1.36.26-2.32,2.15-2.32,5v19.56l2-2.49Z"/><path class="cls-37" d="M98.83,88.79l-.62-.22a3.67,3.67,0,0,0-1.62,0,15.72,15.72,0,0,0-.43,3.21v19.56l.24-.3-.24.3,6.32,7.18V98.74C102.67,94.8,101.07,89.88,98.83,88.79Z"/><polygon class="cls-45" points="94.92 112.04 102.03 116.14 102.03 112.85 96.73 109.98 94.92 112.04"/><path class="cls-46" d="M96.81,92.24A8.32,8.32,0,0,1,97.09,90c-1.27.2-2.17,1.89-2.17,4.45V112l1.89-2.2Z"/><path class="cls-47" d="M98.47,90.3h0A2.09,2.09,0,0,0,97.09,90a8.32,8.32,0,0,0-.28,2.25L96.73,110,94.92,112l1.91-2.22,0,.23,5.17,2.8V98.54C102,95.13,100.43,91.44,98.47,90.3Z"/><polygon class="cls-48" points="98.86 90.55 98.86 100.15 96.81 99.33 96.81 101.3 98.86 102.05 98.86 111.14 100.32 111.93 100.32 102.41 102.03 102.98 102.03 101.21 100.32 100.61 100.29 92.19 99.91 91.66 99.39 91.05 98.86 90.55"/><polygon class="cls-37" points="67.45 98 75.89 102.97 75.01 98.78 69.44 95.56 67.45 98"/><path class="cls-44" d="M69.57,75.67a9.68,9.68,0,0,1,.3-2.51c-1.36.26-2.32,2.15-2.32,5V97.72l2-2.49Z"/><path class="cls-37" d="M72.23,73.24,71.61,73A3.67,3.67,0,0,0,70,73a15.72,15.72,0,0,0-.43,3.21V95.79l.24-.3-.24.3L75.89,103V83.19C76.07,79.24,74.47,74.33,72.23,73.24Z"/><polygon class="cls-45" points="68.32 96.48 75.43 100.59 75.43 97.3 70.13 94.43 68.32 96.48"/><path class="cls-46" d="M70.21,76.69a8.32,8.32,0,0,1,.28-2.25c-1.27.2-2.17,1.89-2.17,4.45v17.6l1.89-2.2Z"/><path class="cls-47" d="M71.87,74.75h0a2.09,2.09,0,0,0-1.39-.31,8.32,8.32,0,0,0-.28,2.25l-.08,17.74-1.81,2.05,1.91-2.22,0,.23,5.17,2.8V83C75.43,79.57,73.84,75.89,71.87,74.75Z"/><polygon class="cls-48" points="72.26 75 72.26 84.6 70.21 83.78 70.21 85.75 72.26 86.5 72.26 95.58 73.72 96.38 73.72 86.86 75.43 87.43 75.43 85.66 73.72 85.06 73.69 76.63 73.31 76.11 72.8 75.5 72.26 75"/><polygon class="cls-37" points="134.84 118.81 126.4 123.78 127.28 119.58 132.85 116.36 134.84 118.81"/><path class="cls-44" d="M132.72,96.48a9.68,9.68,0,0,0-.3-2.51c1.36.26,2.32,2.15,2.32,5v19.56l-2-2.49Z"/><path class="cls-37" d="M130.06,94l.62-.22a3.67,3.67,0,0,1,1.62,0,15.72,15.72,0,0,1,.43,3.21V116.6l-.24-.3.24.3-6.32,7.18V104C126.22,100,127.82,95.14,130.06,94Z"/><polygon class="cls-45" points="133.97 117.29 126.86 121.39 126.86 118.11 132.16 115.24 133.97 117.29"/><path class="cls-46" d="M132.08,97.49a8.32,8.32,0,0,0-.28-2.25c1.27.2,2.17,1.89,2.17,4.45v17.6l-1.89-2.2Z"/><path class="cls-47" d="M130.42,95.56h0a2.09,2.09,0,0,1,1.39-.31,8.32,8.32,0,0,1,.28,2.25l.08,17.74,1.81,2.05-1.91-2.22,0,.23-5.17,2.8V103.79C126.87,100.38,128.46,96.69,130.42,95.56Z"/><polygon class="cls-48" points="130.03 95.8 130.03 105.41 132.08 104.58 132.08 106.56 130.03 107.3 130.03 116.39 128.57 117.18 128.57 107.66 126.86 108.23 126.86 106.46 128.57 105.87 128.6 97.44 128.98 96.91 129.5 96.3 130.03 95.8"/><polygon class="cls-37" points="145.66 112.33 137.23 117.3 138.1 113.1 143.68 109.88 145.66 112.33"/><path class="cls-44" d="M143.55,90a9.68,9.68,0,0,0-.3-2.51c1.36.26,2.32,2.15,2.32,5V112l-2-2.49Z"/><path class="cls-37" d="M140.88,87.56l.62-.22a3.67,3.67,0,0,1,1.62,0,15.72,15.72,0,0,1,.43,3.21v19.56l-.24-.3.24.3-6.32,7.18V97.52C137,93.57,138.65,88.66,140.88,87.56Z"/><polygon class="cls-45" points="144.8 110.81 137.69 114.91 137.69 111.63 142.99 108.76 144.8 110.81"/><path class="cls-46" d="M142.91,91a8.32,8.32,0,0,0-.28-2.25c1.27.2,2.17,1.89,2.17,4.45v17.6l-1.89-2.2Z"/><path class="cls-47" d="M141.25,89.08h0a2.09,2.09,0,0,1,1.39-.31,8.32,8.32,0,0,1,.28,2.25l.08,17.74,1.81,2.05-1.91-2.22,0,.23-5.17,2.8V97.31C137.69,93.9,139.28,90.21,141.25,89.08Z"/><polygon class="cls-48" points="140.86 89.32 140.86 98.92 142.91 98.11 142.91 100.08 140.86 100.82 140.86 109.91 139.39 110.7 139.39 101.18 137.69 101.75 137.69 99.98 139.4 99.39 139.43 90.96 139.81 90.43 140.32 89.82 140.86 89.32"/><polygon class="cls-47" points="59.13 88.44 59.16 88.6 59.03 88.53 59.03 88.48 59.13 88.37 59.13 88.44"/><path class="cls-44" d="M64.16,95.89"/><polygon class="cls-49" points="53.7 35.49 53.7 39.36 118.24 76.5 118.24 73.09 53.7 35.49"/><polygon class="cls-50" points="118.24 73.09 152.63 53.24 152.63 57.16 118.24 76.5 118.24 73.09"/><polygon class="cls-51" points="0 110.9 31.04 92.94 30.98 100.68 7.12 115.24 0 110.9"/><path class="cls-52" d="M35.88,103.1v6.43a2.55,2.55,0,0,0,3.82,0v-6.29Z"/><path class="cls-53" d="M35.89,90.48V103.1a2.29,2.29,0,0,0,3.82.14V90.48Z"/><ellipse class="cls-54" cx="37.8" cy="90.48" rx="1.91" ry="1.56"/><path class="cls-52" d="M44.79,109.25v6.43a2.55,2.55,0,0,0,3.82,0v-6.29Z"/><path class="cls-53" d="M44.8,96.63v12.62a2.29,2.29,0,0,0,3.82.14V96.63Z"/><ellipse class="cls-54" cx="46.71" cy="96.63" rx="1.91" ry="1.56"/><polygon class="cls-55" points="75.32 105.01 51.35 120.74 65.26 129.76 91.32 111.54 77.31 103.5 75.32 105.01"/><path class="cls-52" d="M49.44,127.1v6.43a2.55,2.55,0,0,0,3.82,0v-6.29Z"/><path class="cls-53" d="M49.44,114.48V127.1a2.29,2.29,0,0,0,3.82.14V114.48Z"/><ellipse class="cls-54" cx="51.35" cy="114.48" rx="1.91" ry="1.56"/><path class="cls-52" d="M62.88,134.2v6.43a2.55,2.55,0,0,0,3.82,0v-6.29Z"/><path class="cls-53" d="M62.89,121.57V134.2a2.29,2.29,0,0,0,3.82.14V121.57Z"/><ellipse class="cls-54" cx="64.8" cy="121.57" rx="1.91" ry="1.56"/><path class="cls-52" d="M97.45,139.44v6.43a2.55,2.55,0,0,0,3.82,0v-6.29Z"/><path class="cls-53" d="M97.45,126.82v12.62a2.29,2.29,0,0,0,3.82.14V126.82Z"/><ellipse class="cls-54" cx="99.36" cy="126.82" rx="1.91" ry="1.56"/><path class="cls-52" d="M97.86,139.53V146a2.55,2.55,0,0,0,3.82,0v-6.29Z"/><path class="cls-53" d="M97.86,126.91v12.62a2.29,2.29,0,0,0,3.82.14V126.91Z"/><ellipse class="cls-54" cx="99.77" cy="126.91" rx="1.91" ry="1.56"/><path class="cls-52" d="M86.59,134v6.43a2.55,2.55,0,0,0,3.82,0v-6.29Z"/><path class="cls-53" d="M86.6,121.37V134a2.29,2.29,0,0,0,3.82.14V121.37Z"/><ellipse class="cls-54" cx="88.5" cy="121.37" rx="1.91" ry="1.56"/><polygon class="cls-56" points="81.12 104.13 81.12 85.08 87.44 88.72 87.7 108.1 81.12 104.13"/><polygon class="cls-57" points="89.05 89.59 89.05 110.77 90.55 108.29 90.19 89.36 89.05 89.59"/><polygon class="cls-58" points="79.54 84.34 79.54 103.34 78.48 102.79 78.48 104.56 89.14 110.53 89.08 89.66 87.44 88.72 87.7 108.1 81.12 104.13 81.12 85.08 79.54 84.34"/><polygon class="cls-47" points="81.12 85.08 81.12 104.13 87.7 107.74 87.44 88.72 81.12 85.08"/><polygon class="cls-59" points="84.32 76.5 77.68 80.38 77.68 83.11 89.63 89.97 89.69 87.25 84.32 76.5"/><polygon class="cls-60" points="78.48 83.57 78.48 102.79 79.54 103.34 79.6 84.21 78.48 83.57"/><polygon class="cls-61" points="83.55 78.47 79.55 80.57 79.61 81.8 86.75 85.49 83.55 78.47"/><polygon class="cls-62" points="84.92 77.66 86.17 76.92 91.48 86.83 89.69 87.25 84.92 77.66"/><polygon class="cls-63" points="89.69 87.25 89.63 89.97 91.48 89.28 91.48 86.83 89.69 87.25"/><polygon class="cls-64" points="86.69 85.41 79.6 81.55 79.62 82.79 87.92 87.42 86.69 85.41"/><polygon class="cls-62" points="84.32 76.5 86.17 76.92 84.92 77.66 84.32 76.5"/></g></g></svg>