<svg id="Viewport" xmlns="http://www.w3.org/2000/svg" viewBox="0 0 27.83 1452.51"><defs><style>.cls-1{fill:#757dbc;}</style></defs><g id="OBJECTS"><path class="cls-1" d="M815.56,1088.36a.86.86,0,0,1-.86-.86V769.58a.86.86,0,1,1,1.72,0V1087.5A.86.86,0,0,1,815.56,1088.36Z" transform="translate(-788.92 -232.24)"/><path class="cls-1" d="M815.56,770.44H789.78a.86.86,0,0,1,0-1.72h25.78a.86.86,0,1,1,0,1.72Z" transform="translate(-788.92 -232.24)"/><path class="cls-1" d="M815.56,780.37H804.1a.86.86,0,1,1,0-1.72h11.46a.86.86,0,1,1,0,1.72Z" transform="translate(-788.92 -232.24)"/><path class="cls-1" d="M815.56,790.31H804.1a.86.86,0,1,1,0-1.72h11.46a.86.86,0,1,1,0,1.72Z" transform="translate(-788.92 -232.24)"/><path class="cls-1" d="M815.56,800.24H789.78a.86.86,0,0,1,0-1.72h25.78a.86.86,0,1,1,0,1.72Z" transform="translate(-788.92 -232.24)"/><path class="cls-1" d="M815.56,810.18H804.1a.86.86,0,1,1,0-1.72h11.46a.86.86,0,1,1,0,1.72Z" transform="translate(-788.92 -232.24)"/><path class="cls-1" d="M815.56,820.11H804.1a.86.86,0,1,1,0-1.72h11.46a.86.86,0,1,1,0,1.72Z" transform="translate(-788.92 -232.24)"/><path class="cls-1" d="M815.56,830H789.78a.86.86,0,0,1,0-1.72h25.78a.86.86,0,1,1,0,1.72Z" transform="translate(-788.92 -232.24)"/><path class="cls-1" d="M815.56,840H804.1a.86.86,0,1,1,0-1.72h11.46a.86.86,0,1,1,0,1.72Z" transform="translate(-788.92 -232.24)"/><path class="cls-1" d="M815.56,849.92H804.1a.86.86,0,1,1,0-1.72h11.46a.86.86,0,1,1,0,1.72Z" transform="translate(-788.92 -232.24)"/><path class="cls-1" d="M815.56,859.85H789.78a.86.86,0,0,1,0-1.72h25.78a.86.86,0,1,1,0,1.72Z" transform="translate(-788.92 -232.24)"/><path class="cls-1" d="M815.56,869.79H804.1a.86.86,0,1,1,0-1.72h11.46a.86.86,0,1,1,0,1.72Z" transform="translate(-788.92 -232.24)"/><path class="cls-1" d="M815.56,879.72H804.1a.86.86,0,1,1,0-1.72h11.46a.86.86,0,1,1,0,1.72Z" transform="translate(-788.92 -232.24)"/><path class="cls-1" d="M815.56,889.66H789.78a.86.86,0,0,1,0-1.72h25.78a.86.86,0,1,1,0,1.72Z" transform="translate(-788.92 -232.24)"/><path class="cls-1" d="M815.56,899.59H804.1a.86.86,0,1,1,0-1.72h11.46a.86.86,0,1,1,0,1.72Z" transform="translate(-788.92 -232.24)"/><path class="cls-1" d="M815.56,909.53H804.1a.86.86,0,1,1,0-1.72h11.46a.86.86,0,1,1,0,1.72Z" transform="translate(-788.92 -232.24)"/><path class="cls-1" d="M815.56,919.46H789.78a.86.86,0,0,1,0-1.72h25.78a.86.86,0,1,1,0,1.72Z" transform="translate(-788.92 -232.24)"/><path class="cls-1" d="M815.56,929.4H804.1a.86.86,0,1,1,0-1.72h11.46a.86.86,0,1,1,0,1.72Z" transform="translate(-788.92 -232.24)"/><path class="cls-1" d="M815.56,939.34H804.1a.86.86,0,1,1,0-1.72h11.46a.86.86,0,1,1,0,1.72Z" transform="translate(-788.92 -232.24)"/><path class="cls-1" d="M815.56,949.27H789.78a.86.86,0,0,1,0-1.72h25.78a.86.86,0,1,1,0,1.72Z" transform="translate(-788.92 -232.24)"/><path class="cls-1" d="M815.56,959.21H804.1a.86.86,0,1,1,0-1.72h11.46a.86.86,0,1,1,0,1.72Z" transform="translate(-788.92 -232.24)"/><path class="cls-1" d="M815.56,969.14H804.1a.86.86,0,1,1,0-1.72h11.46a.86.86,0,1,1,0,1.72Z" transform="translate(-788.92 -232.24)"/><path class="cls-1" d="M815.56,979.08H789.78a.86.86,0,0,1,0-1.72h25.78a.86.86,0,1,1,0,1.72Z" transform="translate(-788.92 -232.24)"/><path class="cls-1" d="M815.56,989H804.1a.86.86,0,1,1,0-1.72h11.46a.86.86,0,1,1,0,1.72Z" transform="translate(-788.92 -232.24)"/><path class="cls-1" d="M815.56,998.95H804.1a.86.86,0,1,1,0-1.72h11.46a.86.86,0,1,1,0,1.72Z" transform="translate(-788.92 -232.24)"/><path class="cls-1" d="M815.56,1008.88H789.78a.86.86,0,0,1,0-1.72h25.78a.86.86,0,1,1,0,1.72Z" transform="translate(-788.92 -232.24)"/><path class="cls-1" d="M815.56,1018.82H804.1a.86.86,0,1,1,0-1.72h11.46a.86.86,0,1,1,0,1.72Z" transform="translate(-788.92 -232.24)"/><path class="cls-1" d="M815.56,1028.75H804.1a.86.86,0,1,1,0-1.72h11.46a.86.86,0,0,1,0,1.72Z" transform="translate(-788.92 -232.24)"/><path class="cls-1" d="M815.56,1038.69H789.78a.86.86,0,0,1,0-1.72h25.78a.86.86,0,0,1,0,1.72Z" transform="translate(-788.92 -232.24)"/><path class="cls-1" d="M815.56,1048.62H804.1a.86.86,0,1,1,0-1.72h11.46a.86.86,0,0,1,0,1.72Z" transform="translate(-788.92 -232.24)"/><path class="cls-1" d="M815.56,1058.56H804.1a.86.86,0,1,1,0-1.72h11.46a.86.86,0,0,1,0,1.72Z" transform="translate(-788.92 -232.24)"/><path class="cls-1" d="M815.56,1088.36H804.1a.86.86,0,1,1,0-1.72h11.46a.86.86,0,0,1,0,1.72Z" transform="translate(-788.92 -232.24)"/><path class="cls-1" d="M815.56,1078.48H804.1a.86.86,0,1,1,0-1.72h11.46a.86.86,0,1,1,0,1.72Z" transform="translate(-788.92 -232.24)"/><path class="cls-1" d="M815.56,1068.49H789.78a.86.86,0,0,1,0-1.72h25.78a.86.86,0,1,1,0,1.72Z" transform="translate(-788.92 -232.24)"/><path class="cls-1" d="M815.56,1386.42a.86.86,0,0,1-.86-.86V1067.63a.86.86,0,1,1,1.72,0v317.92A.86.86,0,0,1,815.56,1386.42Z" transform="translate(-788.92 -232.24)"/><path class="cls-1" d="M815.56,1068.49H789.78a.86.86,0,0,1,0-1.72h25.78a.86.86,0,1,1,0,1.72Z" transform="translate(-788.92 -232.24)"/><path class="cls-1" d="M815.56,1078.43H804.1a.86.86,0,1,1,0-1.72h11.46a.86.86,0,1,1,0,1.72Z" transform="translate(-788.92 -232.24)"/><path class="cls-1" d="M815.56,1088.36H804.1a.86.86,0,1,1,0-1.72h11.46a.86.86,0,0,1,0,1.72Z" transform="translate(-788.92 -232.24)"/><path class="cls-1" d="M815.56,1098.3H789.78a.86.86,0,0,1,0-1.72h25.78a.86.86,0,0,1,0,1.72Z" transform="translate(-788.92 -232.24)"/><path class="cls-1" d="M815.56,1108.23H804.1a.86.86,0,1,1,0-1.72h11.46a.86.86,0,1,1,0,1.72Z" transform="translate(-788.92 -232.24)"/><path class="cls-1" d="M815.56,1118.17H804.1a.86.86,0,1,1,0-1.72h11.46a.86.86,0,0,1,0,1.72Z" transform="translate(-788.92 -232.24)"/><path class="cls-1" d="M815.56,1128.1H789.78a.86.86,0,0,1,0-1.72h25.78a.86.86,0,1,1,0,1.72Z" transform="translate(-788.92 -232.24)"/><path class="cls-1" d="M815.56,1138H804.1a.86.86,0,1,1,0-1.72h11.46a.86.86,0,1,1,0,1.72Z" transform="translate(-788.92 -232.24)"/><path class="cls-1" d="M815.56,1148H804.1a.86.86,0,1,1,0-1.72h11.46a.86.86,0,0,1,0,1.72Z" transform="translate(-788.92 -232.24)"/><path class="cls-1" d="M815.56,1157.91H789.78a.86.86,0,0,1,0-1.72h25.78a.86.86,0,0,1,0,1.72Z" transform="translate(-788.92 -232.24)"/><path class="cls-1" d="M815.56,1167.84H804.1a.86.86,0,1,1,0-1.72h11.46a.86.86,0,1,1,0,1.72Z" transform="translate(-788.92 -232.24)"/><path class="cls-1" d="M815.56,1177.78H804.1a.86.86,0,0,1,0-1.72h11.46a.86.86,0,1,1,0,1.72Z" transform="translate(-788.92 -232.24)"/><path class="cls-1" d="M815.56,1187.71H789.78a.86.86,0,0,1,0-1.72h25.78a.86.86,0,0,1,0,1.72Z" transform="translate(-788.92 -232.24)"/><path class="cls-1" d="M815.56,1197.65H804.1a.86.86,0,1,1,0-1.72h11.46a.86.86,0,1,1,0,1.72Z" transform="translate(-788.92 -232.24)"/><path class="cls-1" d="M815.56,1207.58H804.1a.86.86,0,1,1,0-1.72h11.46a.86.86,0,0,1,0,1.72Z" transform="translate(-788.92 -232.24)"/><path class="cls-1" d="M815.56,1217.52H789.78a.86.86,0,0,1,0-1.72h25.78a.86.86,0,0,1,0,1.72Z" transform="translate(-788.92 -232.24)"/><path class="cls-1" d="M815.56,1227.45H804.1a.86.86,0,1,1,0-1.72h11.46a.86.86,0,1,1,0,1.72Z" transform="translate(-788.92 -232.24)"/><path class="cls-1" d="M815.56,1237.39H804.1a.86.86,0,1,1,0-1.72h11.46a.86.86,0,1,1,0,1.72Z" transform="translate(-788.92 -232.24)"/><path class="cls-1" d="M815.56,1247.32H789.78a.86.86,0,0,1,0-1.72h25.78a.86.86,0,0,1,0,1.72Z" transform="translate(-788.92 -232.24)"/><path class="cls-1" d="M815.56,1257.26H804.1a.86.86,0,1,1,0-1.72h11.46a.86.86,0,1,1,0,1.72Z" transform="translate(-788.92 -232.24)"/><path class="cls-1" d="M815.56,1267.19H804.1a.86.86,0,1,1,0-1.72h11.46a.86.86,0,1,1,0,1.72Z" transform="translate(-788.92 -232.24)"/><path class="cls-1" d="M815.56,1277.13H789.78a.86.86,0,0,1,0-1.72h25.78a.86.86,0,0,1,0,1.72Z" transform="translate(-788.92 -232.24)"/><path class="cls-1" d="M815.56,1287.06H804.1a.86.86,0,0,1,0-1.72h11.46a.86.86,0,1,1,0,1.72Z" transform="translate(-788.92 -232.24)"/><path class="cls-1" d="M815.56,1297H804.1a.86.86,0,0,1,0-1.72h11.46a.86.86,0,1,1,0,1.72Z" transform="translate(-788.92 -232.24)"/><path class="cls-1" d="M815.56,1306.93H789.78a.86.86,0,0,1,0-1.72h25.78a.86.86,0,0,1,0,1.72Z" transform="translate(-788.92 -232.24)"/><path class="cls-1" d="M815.56,1316.87H804.1a.86.86,0,0,1,0-1.72h11.46a.86.86,0,1,1,0,1.72Z" transform="translate(-788.92 -232.24)"/><path class="cls-1" d="M815.56,1326.8H804.1a.86.86,0,0,1,0-1.72h11.46a.86.86,0,1,1,0,1.72Z" transform="translate(-788.92 -232.24)"/><path class="cls-1" d="M815.56,1336.74H789.78a.86.86,0,0,1,0-1.72h25.78a.86.86,0,0,1,0,1.72Z" transform="translate(-788.92 -232.24)"/><path class="cls-1" d="M815.56,1346.68H804.1a.86.86,0,1,1,0-1.72h11.46a.86.86,0,0,1,0,1.72Z" transform="translate(-788.92 -232.24)"/><path class="cls-1" d="M815.56,1356.61H804.1a.86.86,0,0,1,0-1.72h11.46a.86.86,0,1,1,0,1.72Z" transform="translate(-788.92 -232.24)"/><path class="cls-1" d="M815.56,1386.42H804.1a.86.86,0,0,1,0-1.72h11.46a.86.86,0,1,1,0,1.72Z" transform="translate(-788.92 -232.24)"/><path class="cls-1" d="M815.56,1376.53H804.1a.86.86,0,0,1,0-1.72h11.46a.86.86,0,1,1,0,1.72Z" transform="translate(-788.92 -232.24)"/><path class="cls-1" d="M815.56,1366.55H789.78a.86.86,0,0,1,0-1.72h25.78a.86.86,0,0,1,0,1.72Z" transform="translate(-788.92 -232.24)"/><path class="cls-1" d="M815.56,790.31a.86.86,0,0,1-.86-.86V471.53a.86.86,0,0,1,1.72,0V789.45A.86.86,0,0,1,815.56,790.31Z" transform="translate(-788.92 -232.24)"/><path class="cls-1" d="M815.56,472.38H789.78a.86.86,0,0,1,0-1.72h25.78a.86.86,0,1,1,0,1.72Z" transform="translate(-788.92 -232.24)"/><path class="cls-1" d="M815.56,482.32H804.1a.86.86,0,1,1,0-1.72h11.46a.86.86,0,1,1,0,1.72Z" transform="translate(-788.92 -232.24)"/><path class="cls-1" d="M815.56,492.25H804.1a.86.86,0,1,1,0-1.72h11.46a.86.86,0,1,1,0,1.72Z" transform="translate(-788.92 -232.24)"/><path class="cls-1" d="M815.56,502.19H789.78a.86.86,0,0,1,0-1.72h25.78a.86.86,0,1,1,0,1.72Z" transform="translate(-788.92 -232.24)"/><path class="cls-1" d="M815.56,512.12H804.1a.86.86,0,1,1,0-1.72h11.46a.86.86,0,1,1,0,1.72Z" transform="translate(-788.92 -232.24)"/><path class="cls-1" d="M815.56,522.06H804.1a.86.86,0,1,1,0-1.72h11.46a.86.86,0,1,1,0,1.72Z" transform="translate(-788.92 -232.24)"/><path class="cls-1" d="M815.56,532H789.78a.86.86,0,0,1,0-1.72h25.78a.86.86,0,1,1,0,1.72Z" transform="translate(-788.92 -232.24)"/><path class="cls-1" d="M815.56,541.93H804.1a.86.86,0,1,1,0-1.72h11.46a.86.86,0,1,1,0,1.72Z" transform="translate(-788.92 -232.24)"/><path class="cls-1" d="M815.56,551.87H804.1a.86.86,0,1,1,0-1.72h11.46a.86.86,0,1,1,0,1.72Z" transform="translate(-788.92 -232.24)"/><path class="cls-1" d="M815.56,561.8H789.78a.86.86,0,0,1,0-1.72h25.78a.86.86,0,1,1,0,1.72Z" transform="translate(-788.92 -232.24)"/><path class="cls-1" d="M815.56,571.74H804.1a.86.86,0,1,1,0-1.72h11.46a.86.86,0,1,1,0,1.72Z" transform="translate(-788.92 -232.24)"/><path class="cls-1" d="M815.56,581.67H804.1a.86.86,0,1,1,0-1.72h11.46a.86.86,0,1,1,0,1.72Z" transform="translate(-788.92 -232.24)"/><path class="cls-1" d="M815.56,591.61H789.78a.86.86,0,0,1,0-1.72h25.78a.86.86,0,1,1,0,1.72Z" transform="translate(-788.92 -232.24)"/><path class="cls-1" d="M815.56,601.54H804.1a.86.86,0,1,1,0-1.72h11.46a.86.86,0,1,1,0,1.72Z" transform="translate(-788.92 -232.24)"/><path class="cls-1" d="M815.56,611.48H804.1a.86.86,0,1,1,0-1.72h11.46a.86.86,0,1,1,0,1.72Z" transform="translate(-788.92 -232.24)"/><path class="cls-1" d="M815.56,621.41H789.78a.86.86,0,0,1,0-1.72h25.78a.86.86,0,1,1,0,1.72Z" transform="translate(-788.92 -232.24)"/><path class="cls-1" d="M815.56,631.35H804.1a.86.86,0,1,1,0-1.72h11.46a.86.86,0,1,1,0,1.72Z" transform="translate(-788.92 -232.24)"/><path class="cls-1" d="M815.56,641.28H804.1a.86.86,0,1,1,0-1.72h11.46a.86.86,0,1,1,0,1.72Z" transform="translate(-788.92 -232.24)"/><path class="cls-1" d="M815.56,651.22H789.78a.86.86,0,0,1,0-1.72h25.78a.86.86,0,1,1,0,1.72Z" transform="translate(-788.92 -232.24)"/><path class="cls-1" d="M815.56,661.15H804.1a.86.86,0,1,1,0-1.72h11.46a.86.86,0,1,1,0,1.72Z" transform="translate(-788.92 -232.24)"/><path class="cls-1" d="M815.56,671.09H804.1a.86.86,0,1,1,0-1.72h11.46a.86.86,0,1,1,0,1.72Z" transform="translate(-788.92 -232.24)"/><path class="cls-1" d="M815.56,681H789.78a.86.86,0,0,1,0-1.72h25.78a.86.86,0,1,1,0,1.72Z" transform="translate(-788.92 -232.24)"/><path class="cls-1" d="M815.56,691H804.1a.86.86,0,1,1,0-1.72h11.46a.86.86,0,1,1,0,1.72Z" transform="translate(-788.92 -232.24)"/><path class="cls-1" d="M815.56,700.89H804.1a.86.86,0,1,1,0-1.72h11.46a.86.86,0,1,1,0,1.72Z" transform="translate(-788.92 -232.24)"/><path class="cls-1" d="M815.56,710.83H789.78a.86.86,0,0,1,0-1.72h25.78a.86.86,0,1,1,0,1.72Z" transform="translate(-788.92 -232.24)"/><path class="cls-1" d="M815.56,720.76H804.1a.86.86,0,1,1,0-1.72h11.46a.86.86,0,1,1,0,1.72Z" transform="translate(-788.92 -232.24)"/><path class="cls-1" d="M815.56,730.7H804.1a.86.86,0,1,1,0-1.72h11.46a.86.86,0,1,1,0,1.72Z" transform="translate(-788.92 -232.24)"/><path class="cls-1" d="M815.56,740.63H789.78a.86.86,0,0,1,0-1.72h25.78a.86.86,0,1,1,0,1.72Z" transform="translate(-788.92 -232.24)"/><path class="cls-1" d="M815.56,750.57H804.1a.86.86,0,1,1,0-1.72h11.46a.86.86,0,1,1,0,1.72Z" transform="translate(-788.92 -232.24)"/><path class="cls-1" d="M815.56,760.5H804.1a.86.86,0,1,1,0-1.72h11.46a.86.86,0,1,1,0,1.72Z" transform="translate(-788.92 -232.24)"/><path class="cls-1" d="M815.56,790.31H804.1a.86.86,0,1,1,0-1.72h11.46a.86.86,0,1,1,0,1.72Z" transform="translate(-788.92 -232.24)"/><path class="cls-1" d="M815.56,780.43H804.1a.86.86,0,1,1,0-1.72h11.46a.86.86,0,1,1,0,1.72Z" transform="translate(-788.92 -232.24)"/><path class="cls-1" d="M815.56,770.44H789.78a.86.86,0,0,1,0-1.72h25.78a.86.86,0,1,1,0,1.72Z" transform="translate(-788.92 -232.24)"/><path class="cls-1" d="M815.56,1386.7a.86.86,0,0,1-.86-.86V1067.91a.86.86,0,0,1,1.72,0v317.92A.86.86,0,0,1,815.56,1386.7Z" transform="translate(-788.92 -232.24)"/><path class="cls-1" d="M815.56,1068.77H789.78a.86.86,0,1,1,0-1.72h25.78a.86.86,0,1,1,0,1.72Z" transform="translate(-788.92 -232.24)"/><path class="cls-1" d="M815.56,1078.71H804.1a.86.86,0,1,1,0-1.72h11.46a.86.86,0,0,1,0,1.72Z" transform="translate(-788.92 -232.24)"/><path class="cls-1" d="M815.56,1088.64H804.1a.86.86,0,1,1,0-1.72h11.46a.86.86,0,1,1,0,1.72Z" transform="translate(-788.92 -232.24)"/><path class="cls-1" d="M815.56,1098.58H789.78a.86.86,0,0,1,0-1.72h25.78a.86.86,0,0,1,0,1.72Z" transform="translate(-788.92 -232.24)"/><path class="cls-1" d="M815.56,1108.51H804.1a.86.86,0,1,1,0-1.72h11.46a.86.86,0,1,1,0,1.72Z" transform="translate(-788.92 -232.24)"/><path class="cls-1" d="M815.56,1118.45H804.1a.86.86,0,1,1,0-1.72h11.46a.86.86,0,1,1,0,1.72Z" transform="translate(-788.92 -232.24)"/><path class="cls-1" d="M815.56,1128.38H789.78a.86.86,0,1,1,0-1.72h25.78a.86.86,0,1,1,0,1.72Z" transform="translate(-788.92 -232.24)"/><path class="cls-1" d="M815.56,1138.32H804.1a.86.86,0,1,1,0-1.72h11.46a.86.86,0,0,1,0,1.72Z" transform="translate(-788.92 -232.24)"/><path class="cls-1" d="M815.56,1148.25H804.1a.86.86,0,1,1,0-1.72h11.46a.86.86,0,1,1,0,1.72Z" transform="translate(-788.92 -232.24)"/><path class="cls-1" d="M815.56,1158.19H789.78a.86.86,0,0,1,0-1.72h25.78a.86.86,0,1,1,0,1.72Z" transform="translate(-788.92 -232.24)"/><path class="cls-1" d="M815.56,1168.12H804.1a.86.86,0,1,1,0-1.72h11.46a.86.86,0,1,1,0,1.72Z" transform="translate(-788.92 -232.24)"/><path class="cls-1" d="M815.56,1178.06H804.1a.86.86,0,0,1,0-1.72h11.46a.86.86,0,1,1,0,1.72Z" transform="translate(-788.92 -232.24)"/><path class="cls-1" d="M815.56,1188H789.78a.86.86,0,1,1,0-1.72h25.78a.86.86,0,1,1,0,1.72Z" transform="translate(-788.92 -232.24)"/><path class="cls-1" d="M815.56,1197.93H804.1a.86.86,0,1,1,0-1.72h11.46a.86.86,0,0,1,0,1.72Z" transform="translate(-788.92 -232.24)"/><path class="cls-1" d="M815.56,1207.86H804.1a.86.86,0,1,1,0-1.72h11.46a.86.86,0,1,1,0,1.72Z" transform="translate(-788.92 -232.24)"/><path class="cls-1" d="M815.56,1217.8H789.78a.86.86,0,0,1,0-1.72h25.78a.86.86,0,1,1,0,1.72Z" transform="translate(-788.92 -232.24)"/><path class="cls-1" d="M815.56,1227.74H804.1a.86.86,0,1,1,0-1.72h11.46a.86.86,0,1,1,0,1.72Z" transform="translate(-788.92 -232.24)"/><path class="cls-1" d="M815.56,1237.67H804.1a.86.86,0,1,1,0-1.72h11.46a.86.86,0,1,1,0,1.72Z" transform="translate(-788.92 -232.24)"/><path class="cls-1" d="M815.56,1247.61H789.78a.86.86,0,1,1,0-1.72h25.78a.86.86,0,1,1,0,1.72Z" transform="translate(-788.92 -232.24)"/><path class="cls-1" d="M815.56,1257.54H804.1a.86.86,0,1,1,0-1.72h11.46a.86.86,0,1,1,0,1.72Z" transform="translate(-788.92 -232.24)"/><path class="cls-1" d="M815.56,1267.48H804.1a.86.86,0,1,1,0-1.72h11.46a.86.86,0,1,1,0,1.72Z" transform="translate(-788.92 -232.24)"/><path class="cls-1" d="M815.56,1277.41H789.78a.86.86,0,0,1,0-1.72h25.78a.86.86,0,1,1,0,1.72Z" transform="translate(-788.92 -232.24)"/><path class="cls-1" d="M815.56,1287.35H804.1a.86.86,0,1,1,0-1.72h11.46a.86.86,0,1,1,0,1.72Z" transform="translate(-788.92 -232.24)"/><path class="cls-1" d="M815.56,1297.28H804.1a.86.86,0,0,1,0-1.72h11.46a.86.86,0,0,1,0,1.72Z" transform="translate(-788.92 -232.24)"/><path class="cls-1" d="M815.56,1307.22H789.78a.86.86,0,1,1,0-1.72h25.78a.86.86,0,1,1,0,1.72Z" transform="translate(-788.92 -232.24)"/><path class="cls-1" d="M815.56,1317.15H804.1a.86.86,0,0,1,0-1.72h11.46a.86.86,0,1,1,0,1.72Z" transform="translate(-788.92 -232.24)"/><path class="cls-1" d="M815.56,1327.09H804.1a.86.86,0,1,1,0-1.72h11.46a.86.86,0,1,1,0,1.72Z" transform="translate(-788.92 -232.24)"/><path class="cls-1" d="M815.56,1337H789.78a.86.86,0,0,1,0-1.72h25.78a.86.86,0,1,1,0,1.72Z" transform="translate(-788.92 -232.24)"/><path class="cls-1" d="M815.56,1347H804.1a.86.86,0,1,1,0-1.72h11.46a.86.86,0,1,1,0,1.72Z" transform="translate(-788.92 -232.24)"/><path class="cls-1" d="M815.56,1356.89H804.1a.86.86,0,0,1,0-1.72h11.46a.86.86,0,0,1,0,1.72Z" transform="translate(-788.92 -232.24)"/><path class="cls-1" d="M815.56,1386.7H804.1a.86.86,0,0,1,0-1.72h11.46a.86.86,0,0,1,0,1.72Z" transform="translate(-788.92 -232.24)"/><path class="cls-1" d="M815.56,1376.82H804.1a.86.86,0,1,1,0-1.72h11.46a.86.86,0,1,1,0,1.72Z" transform="translate(-788.92 -232.24)"/><path class="cls-1" d="M815.56,1366.83H789.78a.86.86,0,1,1,0-1.72h25.78a.86.86,0,1,1,0,1.72Z" transform="translate(-788.92 -232.24)"/><path class="cls-1" d="M815.56,1684.75a.86.86,0,0,1-.86-.86V1366a.86.86,0,1,1,1.72,0v317.92A.86.86,0,0,1,815.56,1684.75Z" transform="translate(-788.92 -232.24)"/><path class="cls-1" d="M815.56,1366.83H789.78a.86.86,0,1,1,0-1.72h25.78a.86.86,0,1,1,0,1.72Z" transform="translate(-788.92 -232.24)"/><path class="cls-1" d="M815.56,1376.76H804.1a.86.86,0,0,1,0-1.72h11.46a.86.86,0,1,1,0,1.72Z" transform="translate(-788.92 -232.24)"/><path class="cls-1" d="M815.56,1386.7H804.1a.86.86,0,0,1,0-1.72h11.46a.86.86,0,0,1,0,1.72Z" transform="translate(-788.92 -232.24)"/><path class="cls-1" d="M815.56,1396.63H789.78a.86.86,0,0,1,0-1.72h25.78a.86.86,0,0,1,0,1.72Z" transform="translate(-788.92 -232.24)"/><path class="cls-1" d="M815.56,1406.57H804.1a.86.86,0,0,1,0-1.72h11.46a.86.86,0,1,1,0,1.72Z" transform="translate(-788.92 -232.24)"/><path class="cls-1" d="M815.56,1416.5H804.1a.86.86,0,0,1,0-1.72h11.46a.86.86,0,0,1,0,1.72Z" transform="translate(-788.92 -232.24)"/><path class="cls-1" d="M815.56,1426.44H789.78a.86.86,0,0,1,0-1.72h25.78a.86.86,0,0,1,0,1.72Z" transform="translate(-788.92 -232.24)"/><path class="cls-1" d="M815.56,1436.37H804.1a.86.86,0,0,1,0-1.72h11.46a.86.86,0,1,1,0,1.72Z" transform="translate(-788.92 -232.24)"/><path class="cls-1" d="M815.56,1446.31H804.1a.86.86,0,1,1,0-1.72h11.46a.86.86,0,0,1,0,1.72Z" transform="translate(-788.92 -232.24)"/><path class="cls-1" d="M815.56,1456.24H789.78a.86.86,0,0,1,0-1.72h25.78a.86.86,0,1,1,0,1.72Z" transform="translate(-788.92 -232.24)"/><path class="cls-1" d="M815.56,1466.18H804.1a.86.86,0,0,1,0-1.72h11.46a.86.86,0,1,1,0,1.72Z" transform="translate(-788.92 -232.24)"/><path class="cls-1" d="M815.56,1476.11H804.1a.86.86,0,0,1,0-1.72h11.46a.86.86,0,0,1,0,1.72Z" transform="translate(-788.92 -232.24)"/><path class="cls-1" d="M815.56,1486H789.78a.86.86,0,0,1,0-1.72h25.78a.86.86,0,0,1,0,1.72Z" transform="translate(-788.92 -232.24)"/><path class="cls-1" d="M815.56,1496H804.1a.86.86,0,0,1,0-1.72h11.46a.86.86,0,1,1,0,1.72Z" transform="translate(-788.92 -232.24)"/><path class="cls-1" d="M815.56,1505.92H804.1a.86.86,0,0,1,0-1.72h11.46a.86.86,0,1,1,0,1.72Z" transform="translate(-788.92 -232.24)"/><path class="cls-1" d="M815.56,1515.85H789.78a.86.86,0,0,1,0-1.72h25.78a.86.86,0,0,1,0,1.72Z" transform="translate(-788.92 -232.24)"/><path class="cls-1" d="M815.56,1525.79H804.1a.86.86,0,1,1,0-1.72h11.46a.86.86,0,0,1,0,1.72Z" transform="translate(-788.92 -232.24)"/><path class="cls-1" d="M815.56,1535.72H804.1a.86.86,0,1,1,0-1.72h11.46a.86.86,0,0,1,0,1.72Z" transform="translate(-788.92 -232.24)"/><path class="cls-1" d="M815.56,1545.66H789.78a.86.86,0,0,1,0-1.72h25.78a.86.86,0,0,1,0,1.72Z" transform="translate(-788.92 -232.24)"/><path class="cls-1" d="M815.56,1555.59H804.1a.86.86,0,0,1,0-1.72h11.46a.86.86,0,1,1,0,1.72Z" transform="translate(-788.92 -232.24)"/><path class="cls-1" d="M815.56,1565.53H804.1a.86.86,0,0,1,0-1.72h11.46a.86.86,0,1,1,0,1.72Z" transform="translate(-788.92 -232.24)"/><path class="cls-1" d="M815.56,1575.46H789.78a.86.86,0,0,1,0-1.72h25.78a.86.86,0,0,1,0,1.72Z" transform="translate(-788.92 -232.24)"/><path class="cls-1" d="M815.56,1585.4H804.1a.86.86,0,0,1,0-1.72h11.46a.86.86,0,1,1,0,1.72Z" transform="translate(-788.92 -232.24)"/><path class="cls-1" d="M815.56,1595.33H804.1a.86.86,0,0,1,0-1.72h11.46a.86.86,0,1,1,0,1.72Z" transform="translate(-788.92 -232.24)"/><path class="cls-1" d="M815.56,1605.27H789.78a.86.86,0,0,1,0-1.72h25.78a.86.86,0,0,1,0,1.72Z" transform="translate(-788.92 -232.24)"/><path class="cls-1" d="M815.56,1615.2H804.1a.86.86,0,1,1,0-1.72h11.46a.86.86,0,0,1,0,1.72Z" transform="translate(-788.92 -232.24)"/><path class="cls-1" d="M815.56,1625.14H804.1a.86.86,0,0,1,0-1.72h11.46a.86.86,0,1,1,0,1.72Z" transform="translate(-788.92 -232.24)"/><path class="cls-1" d="M815.56,1635.08H789.78a.86.86,0,0,1,0-1.72h25.78a.86.86,0,0,1,0,1.72Z" transform="translate(-788.92 -232.24)"/><path class="cls-1" d="M815.56,1645H804.1a.86.86,0,0,1,0-1.72h11.46a.86.86,0,0,1,0,1.72Z" transform="translate(-788.92 -232.24)"/><path class="cls-1" d="M815.56,1654.95H804.1a.86.86,0,0,1,0-1.72h11.46a.86.86,0,1,1,0,1.72Z" transform="translate(-788.92 -232.24)"/><path class="cls-1" d="M815.56,1684.75H804.1a.86.86,0,0,1,0-1.72h11.46a.86.86,0,1,1,0,1.72Z" transform="translate(-788.92 -232.24)"/><path class="cls-1" d="M815.56,1674.87H804.1a.86.86,0,1,1,0-1.72h11.46a.86.86,0,1,1,0,1.72Z" transform="translate(-788.92 -232.24)"/><path class="cls-1" d="M815.56,1664.88H789.78a.86.86,0,0,1,0-1.72h25.78a.86.86,0,0,1,0,1.72Z" transform="translate(-788.92 -232.24)"/><path class="cls-1" d="M815.56,1088.64a.86.86,0,0,1-.86-.86V769.86a.86.86,0,0,1,1.72,0v317.92A.86.86,0,0,1,815.56,1088.64Z" transform="translate(-788.92 -232.24)"/><path class="cls-1" d="M815.56,770.72H789.78a.86.86,0,0,1,0-1.72h25.78a.86.86,0,1,1,0,1.72Z" transform="translate(-788.92 -232.24)"/><path class="cls-1" d="M815.56,780.65H804.1a.86.86,0,1,1,0-1.72h11.46a.86.86,0,1,1,0,1.72Z" transform="translate(-788.92 -232.24)"/><path class="cls-1" d="M815.56,790.59H804.1a.86.86,0,1,1,0-1.72h11.46a.86.86,0,1,1,0,1.72Z" transform="translate(-788.92 -232.24)"/><path class="cls-1" d="M815.56,800.52H789.78a.86.86,0,0,1,0-1.72h25.78a.86.86,0,1,1,0,1.72Z" transform="translate(-788.92 -232.24)"/><path class="cls-1" d="M815.56,810.46H804.1a.86.86,0,1,1,0-1.72h11.46a.86.86,0,1,1,0,1.72Z" transform="translate(-788.92 -232.24)"/><path class="cls-1" d="M815.56,820.4H804.1a.86.86,0,1,1,0-1.72h11.46a.86.86,0,1,1,0,1.72Z" transform="translate(-788.92 -232.24)"/><path class="cls-1" d="M815.56,830.33H789.78a.86.86,0,0,1,0-1.72h25.78a.86.86,0,1,1,0,1.72Z" transform="translate(-788.92 -232.24)"/><path class="cls-1" d="M815.56,840.27H804.1a.86.86,0,1,1,0-1.72h11.46a.86.86,0,1,1,0,1.72Z" transform="translate(-788.92 -232.24)"/><path class="cls-1" d="M815.56,850.2H804.1a.86.86,0,1,1,0-1.72h11.46a.86.86,0,1,1,0,1.72Z" transform="translate(-788.92 -232.24)"/><path class="cls-1" d="M815.56,860.14H789.78a.86.86,0,1,1,0-1.72h25.78a.86.86,0,1,1,0,1.72Z" transform="translate(-788.92 -232.24)"/><path class="cls-1" d="M815.56,870.07H804.1a.86.86,0,1,1,0-1.72h11.46a.86.86,0,1,1,0,1.72Z" transform="translate(-788.92 -232.24)"/><path class="cls-1" d="M815.56,880H804.1a.86.86,0,1,1,0-1.72h11.46a.86.86,0,1,1,0,1.72Z" transform="translate(-788.92 -232.24)"/><path class="cls-1" d="M815.56,889.94H789.78a.86.86,0,0,1,0-1.72h25.78a.86.86,0,1,1,0,1.72Z" transform="translate(-788.92 -232.24)"/><path class="cls-1" d="M815.56,899.88H804.1a.86.86,0,1,1,0-1.72h11.46a.86.86,0,1,1,0,1.72Z" transform="translate(-788.92 -232.24)"/><path class="cls-1" d="M815.56,909.81H804.1a.86.86,0,1,1,0-1.72h11.46a.86.86,0,1,1,0,1.72Z" transform="translate(-788.92 -232.24)"/><path class="cls-1" d="M815.56,919.75H789.78a.86.86,0,0,1,0-1.72h25.78a.86.86,0,1,1,0,1.72Z" transform="translate(-788.92 -232.24)"/><path class="cls-1" d="M815.56,929.68H804.1a.86.86,0,1,1,0-1.72h11.46a.86.86,0,1,1,0,1.72Z" transform="translate(-788.92 -232.24)"/><path class="cls-1" d="M815.56,939.62H804.1a.86.86,0,1,1,0-1.72h11.46a.86.86,0,1,1,0,1.72Z" transform="translate(-788.92 -232.24)"/><path class="cls-1" d="M815.56,949.55H789.78a.86.86,0,0,1,0-1.72h25.78a.86.86,0,1,1,0,1.72Z" transform="translate(-788.92 -232.24)"/><path class="cls-1" d="M815.56,959.49H804.1a.86.86,0,1,1,0-1.72h11.46a.86.86,0,1,1,0,1.72Z" transform="translate(-788.92 -232.24)"/><path class="cls-1" d="M815.56,969.42H804.1a.86.86,0,1,1,0-1.72h11.46a.86.86,0,1,1,0,1.72Z" transform="translate(-788.92 -232.24)"/><path class="cls-1" d="M815.56,979.36H789.78a.86.86,0,0,1,0-1.72h25.78a.86.86,0,1,1,0,1.72Z" transform="translate(-788.92 -232.24)"/><path class="cls-1" d="M815.56,989.29H804.1a.86.86,0,1,1,0-1.72h11.46a.86.86,0,1,1,0,1.72Z" transform="translate(-788.92 -232.24)"/><path class="cls-1" d="M815.56,999.23H804.1a.86.86,0,1,1,0-1.72h11.46a.86.86,0,1,1,0,1.72Z" transform="translate(-788.92 -232.24)"/><path class="cls-1" d="M815.56,1009.16H789.78a.86.86,0,1,1,0-1.72h25.78a.86.86,0,1,1,0,1.72Z" transform="translate(-788.92 -232.24)"/><path class="cls-1" d="M815.56,1019.1H804.1a.86.86,0,1,1,0-1.72h11.46a.86.86,0,1,1,0,1.72Z" transform="translate(-788.92 -232.24)"/><path class="cls-1" d="M815.56,1029H804.1a.86.86,0,1,1,0-1.72h11.46a.86.86,0,1,1,0,1.72Z" transform="translate(-788.92 -232.24)"/><path class="cls-1" d="M815.56,1039H789.78a.86.86,0,0,1,0-1.72h25.78a.86.86,0,0,1,0,1.72Z" transform="translate(-788.92 -232.24)"/><path class="cls-1" d="M815.56,1048.9H804.1a.86.86,0,1,1,0-1.72h11.46a.86.86,0,1,1,0,1.72Z" transform="translate(-788.92 -232.24)"/><path class="cls-1" d="M815.56,1058.84H804.1a.86.86,0,1,1,0-1.72h11.46a.86.86,0,1,1,0,1.72Z" transform="translate(-788.92 -232.24)"/><path class="cls-1" d="M815.56,1088.64H804.1a.86.86,0,1,1,0-1.72h11.46a.86.86,0,1,1,0,1.72Z" transform="translate(-788.92 -232.24)"/><path class="cls-1" d="M815.56,1078.76H804.1a.86.86,0,1,1,0-1.72h11.46a.86.86,0,0,1,0,1.72Z" transform="translate(-788.92 -232.24)"/><path class="cls-1" d="M815.56,1068.77H789.78a.86.86,0,1,1,0-1.72h25.78a.86.86,0,1,1,0,1.72Z" transform="translate(-788.92 -232.24)"/><path class="cls-1" d="M815.9,849.94a.86.86,0,0,1-.86-.86V531.16a.86.86,0,1,1,1.72,0V849.08A.86.86,0,0,1,815.9,849.94Z" transform="translate(-788.92 -232.24)"/><path class="cls-1" d="M815.9,532H790.12a.86.86,0,1,1,0-1.72H815.9a.86.86,0,0,1,0,1.72Z" transform="translate(-788.92 -232.24)"/><path class="cls-1" d="M815.9,542H804.44a.86.86,0,0,1,0-1.72H815.9a.86.86,0,0,1,0,1.72Z" transform="translate(-788.92 -232.24)"/><path class="cls-1" d="M815.9,551.89H804.44a.86.86,0,0,1,0-1.72H815.9a.86.86,0,0,1,0,1.72Z" transform="translate(-788.92 -232.24)"/><path class="cls-1" d="M815.9,561.82H790.12a.86.86,0,1,1,0-1.72H815.9a.86.86,0,0,1,0,1.72Z" transform="translate(-788.92 -232.24)"/><path class="cls-1" d="M815.9,571.76H804.44a.86.86,0,0,1,0-1.72H815.9a.86.86,0,0,1,0,1.72Z" transform="translate(-788.92 -232.24)"/><path class="cls-1" d="M815.9,581.69H804.44a.86.86,0,0,1,0-1.72H815.9a.86.86,0,0,1,0,1.72Z" transform="translate(-788.92 -232.24)"/><path class="cls-1" d="M815.9,591.63H790.12a.86.86,0,1,1,0-1.72H815.9a.86.86,0,0,1,0,1.72Z" transform="translate(-788.92 -232.24)"/><path class="cls-1" d="M815.9,601.56H804.44a.86.86,0,0,1,0-1.72H815.9a.86.86,0,0,1,0,1.72Z" transform="translate(-788.92 -232.24)"/><path class="cls-1" d="M815.9,611.5H804.44a.86.86,0,0,1,0-1.72H815.9a.86.86,0,0,1,0,1.72Z" transform="translate(-788.92 -232.24)"/><path class="cls-1" d="M815.9,621.43H790.12a.86.86,0,1,1,0-1.72H815.9a.86.86,0,1,1,0,1.72Z" transform="translate(-788.92 -232.24)"/><path class="cls-1" d="M815.9,631.37H804.44a.86.86,0,0,1,0-1.72H815.9a.86.86,0,0,1,0,1.72Z" transform="translate(-788.92 -232.24)"/><path class="cls-1" d="M815.9,641.3H804.44a.86.86,0,0,1,0-1.72H815.9a.86.86,0,1,1,0,1.72Z" transform="translate(-788.92 -232.24)"/><path class="cls-1" d="M815.9,651.24H790.12a.86.86,0,1,1,0-1.72H815.9a.86.86,0,1,1,0,1.72Z" transform="translate(-788.92 -232.24)"/><path class="cls-1" d="M815.9,661.17H804.44a.86.86,0,0,1,0-1.72H815.9a.86.86,0,0,1,0,1.72Z" transform="translate(-788.92 -232.24)"/><path class="cls-1" d="M815.9,671.11H804.44a.86.86,0,0,1,0-1.72H815.9a.86.86,0,1,1,0,1.72Z" transform="translate(-788.92 -232.24)"/><path class="cls-1" d="M815.9,681H790.12a.86.86,0,1,1,0-1.72H815.9a.86.86,0,0,1,0,1.72Z" transform="translate(-788.92 -232.24)"/><path class="cls-1" d="M815.9,691H804.44a.86.86,0,0,1,0-1.72H815.9a.86.86,0,0,1,0,1.72Z" transform="translate(-788.92 -232.24)"/><path class="cls-1" d="M815.9,700.91H804.44a.86.86,0,0,1,0-1.72H815.9a.86.86,0,1,1,0,1.72Z" transform="translate(-788.92 -232.24)"/><path class="cls-1" d="M815.9,710.85H790.12a.86.86,0,1,1,0-1.72H815.9a.86.86,0,0,1,0,1.72Z" transform="translate(-788.92 -232.24)"/><path class="cls-1" d="M815.9,720.78H804.44a.86.86,0,0,1,0-1.72H815.9a.86.86,0,0,1,0,1.72Z" transform="translate(-788.92 -232.24)"/><path class="cls-1" d="M815.9,730.72H804.44a.86.86,0,0,1,0-1.72H815.9a.86.86,0,1,1,0,1.72Z" transform="translate(-788.92 -232.24)"/><path class="cls-1" d="M815.9,740.65H790.12a.86.86,0,1,1,0-1.72H815.9a.86.86,0,0,1,0,1.72Z" transform="translate(-788.92 -232.24)"/><path class="cls-1" d="M815.9,750.59H804.44a.86.86,0,0,1,0-1.72H815.9a.86.86,0,1,1,0,1.72Z" transform="translate(-788.92 -232.24)"/><path class="cls-1" d="M815.9,760.52H804.44a.86.86,0,0,1,0-1.72H815.9a.86.86,0,1,1,0,1.72Z" transform="translate(-788.92 -232.24)"/><path class="cls-1" d="M815.9,770.46H790.12a.86.86,0,1,1,0-1.72H815.9a.86.86,0,0,1,0,1.72Z" transform="translate(-788.92 -232.24)"/><path class="cls-1" d="M815.9,780.39H804.44a.86.86,0,0,1,0-1.72H815.9a.86.86,0,0,1,0,1.72Z" transform="translate(-788.92 -232.24)"/><path class="cls-1" d="M815.9,790.33H804.44a.86.86,0,0,1,0-1.72H815.9a.86.86,0,0,1,0,1.72Z" transform="translate(-788.92 -232.24)"/><path class="cls-1" d="M815.9,800.26H790.12a.86.86,0,1,1,0-1.72H815.9a.86.86,0,0,1,0,1.72Z" transform="translate(-788.92 -232.24)"/><path class="cls-1" d="M815.9,810.2H804.44a.86.86,0,0,1,0-1.72H815.9a.86.86,0,0,1,0,1.72Z" transform="translate(-788.92 -232.24)"/><path class="cls-1" d="M815.9,820.13H804.44a.86.86,0,0,1,0-1.72H815.9a.86.86,0,0,1,0,1.72Z" transform="translate(-788.92 -232.24)"/><path class="cls-1" d="M815.9,849.94H804.44a.86.86,0,0,1,0-1.72H815.9a.86.86,0,0,1,0,1.72Z" transform="translate(-788.92 -232.24)"/><path class="cls-1" d="M815.9,840.06H804.44a.86.86,0,0,1,0-1.72H815.9a.86.86,0,0,1,0,1.72Z" transform="translate(-788.92 -232.24)"/><path class="cls-1" d="M815.9,830.07H790.12a.86.86,0,1,1,0-1.72H815.9a.86.86,0,0,1,0,1.72Z" transform="translate(-788.92 -232.24)"/><path class="cls-1" d="M815.9,1148a.86.86,0,0,1-.86-.86V829.21a.86.86,0,0,1,1.72,0v317.92A.86.86,0,0,1,815.9,1148Z" transform="translate(-788.92 -232.24)"/><path class="cls-1" d="M815.9,830.07H790.12a.86.86,0,1,1,0-1.72H815.9a.86.86,0,0,1,0,1.72Z" transform="translate(-788.92 -232.24)"/><path class="cls-1" d="M815.9,840H804.44a.86.86,0,0,1,0-1.72H815.9a.86.86,0,0,1,0,1.72Z" transform="translate(-788.92 -232.24)"/><path class="cls-1" d="M815.9,849.94H804.44a.86.86,0,0,1,0-1.72H815.9a.86.86,0,0,1,0,1.72Z" transform="translate(-788.92 -232.24)"/><path class="cls-1" d="M815.9,859.87H790.12a.86.86,0,1,1,0-1.72H815.9a.86.86,0,0,1,0,1.72Z" transform="translate(-788.92 -232.24)"/><path class="cls-1" d="M815.9,869.81H804.44a.86.86,0,0,1,0-1.72H815.9a.86.86,0,0,1,0,1.72Z" transform="translate(-788.92 -232.24)"/><path class="cls-1" d="M815.9,879.74H804.44a.86.86,0,0,1,0-1.72H815.9a.86.86,0,0,1,0,1.72Z" transform="translate(-788.92 -232.24)"/><path class="cls-1" d="M815.9,889.68H790.12a.86.86,0,1,1,0-1.72H815.9a.86.86,0,0,1,0,1.72Z" transform="translate(-788.92 -232.24)"/><path class="cls-1" d="M815.9,899.61H804.44a.86.86,0,0,1,0-1.72H815.9a.86.86,0,0,1,0,1.72Z" transform="translate(-788.92 -232.24)"/><path class="cls-1" d="M815.9,909.55H804.44a.86.86,0,0,1,0-1.72H815.9a.86.86,0,0,1,0,1.72Z" transform="translate(-788.92 -232.24)"/><path class="cls-1" d="M815.9,919.49H790.12a.86.86,0,1,1,0-1.72H815.9a.86.86,0,0,1,0,1.72Z" transform="translate(-788.92 -232.24)"/><path class="cls-1" d="M815.9,929.42H804.44a.86.86,0,0,1,0-1.72H815.9a.86.86,0,0,1,0,1.72Z" transform="translate(-788.92 -232.24)"/><path class="cls-1" d="M815.9,939.36H804.44a.86.86,0,0,1,0-1.72H815.9a.86.86,0,0,1,0,1.72Z" transform="translate(-788.92 -232.24)"/><path class="cls-1" d="M815.9,949.29H790.12a.86.86,0,1,1,0-1.72H815.9a.86.86,0,0,1,0,1.72Z" transform="translate(-788.92 -232.24)"/><path class="cls-1" d="M815.9,959.23H804.44a.86.86,0,0,1,0-1.72H815.9a.86.86,0,1,1,0,1.72Z" transform="translate(-788.92 -232.24)"/><path class="cls-1" d="M815.9,969.16H804.44a.86.86,0,0,1,0-1.72H815.9a.86.86,0,0,1,0,1.72Z" transform="translate(-788.92 -232.24)"/><path class="cls-1" d="M815.9,979.1H790.12a.86.86,0,1,1,0-1.72H815.9a.86.86,0,1,1,0,1.72Z" transform="translate(-788.92 -232.24)"/><path class="cls-1" d="M815.9,989H804.44a.86.86,0,0,1,0-1.72H815.9a.86.86,0,1,1,0,1.72Z" transform="translate(-788.92 -232.24)"/><path class="cls-1" d="M815.9,999H804.44a.86.86,0,0,1,0-1.72H815.9a.86.86,0,0,1,0,1.72Z" transform="translate(-788.92 -232.24)"/><path class="cls-1" d="M815.9,1008.9H790.12a.86.86,0,0,1,0-1.72H815.9a.86.86,0,0,1,0,1.72Z" transform="translate(-788.92 -232.24)"/><path class="cls-1" d="M815.9,1018.84H804.44a.86.86,0,0,1,0-1.72H815.9a.86.86,0,0,1,0,1.72Z" transform="translate(-788.92 -232.24)"/><path class="cls-1" d="M815.9,1028.77H804.44a.86.86,0,0,1,0-1.72H815.9a.86.86,0,0,1,0,1.72Z" transform="translate(-788.92 -232.24)"/><path class="cls-1" d="M815.9,1038.71H790.12a.86.86,0,0,1,0-1.72H815.9a.86.86,0,0,1,0,1.72Z" transform="translate(-788.92 -232.24)"/><path class="cls-1" d="M815.9,1048.64H804.44a.86.86,0,0,1,0-1.72H815.9a.86.86,0,0,1,0,1.72Z" transform="translate(-788.92 -232.24)"/><path class="cls-1" d="M815.9,1058.58H804.44a.86.86,0,0,1,0-1.72H815.9a.86.86,0,0,1,0,1.72Z" transform="translate(-788.92 -232.24)"/><path class="cls-1" d="M815.9,1068.51H790.12a.86.86,0,0,1,0-1.72H815.9a.86.86,0,0,1,0,1.72Z" transform="translate(-788.92 -232.24)"/><path class="cls-1" d="M815.9,1078.45H804.44a.86.86,0,0,1,0-1.72H815.9a.86.86,0,0,1,0,1.72Z" transform="translate(-788.92 -232.24)"/><path class="cls-1" d="M815.9,1088.38H804.44a.86.86,0,0,1,0-1.72H815.9a.86.86,0,0,1,0,1.72Z" transform="translate(-788.92 -232.24)"/><path class="cls-1" d="M815.9,1098.32H790.12a.86.86,0,0,1,0-1.72H815.9a.86.86,0,0,1,0,1.72Z" transform="translate(-788.92 -232.24)"/><path class="cls-1" d="M815.9,1108.25H804.44a.86.86,0,0,1,0-1.72H815.9a.86.86,0,0,1,0,1.72Z" transform="translate(-788.92 -232.24)"/><path class="cls-1" d="M815.9,1118.19H804.44a.86.86,0,1,1,0-1.72H815.9a.86.86,0,1,1,0,1.72Z" transform="translate(-788.92 -232.24)"/><path class="cls-1" d="M815.9,1148H804.44a.86.86,0,0,1,0-1.72H815.9a.86.86,0,0,1,0,1.72Z" transform="translate(-788.92 -232.24)"/><path class="cls-1" d="M815.9,1138.11H804.44a.86.86,0,0,1,0-1.72H815.9a.86.86,0,0,1,0,1.72Z" transform="translate(-788.92 -232.24)"/><path class="cls-1" d="M815.9,1128.12H790.12a.86.86,0,0,1,0-1.72H815.9a.86.86,0,0,1,0,1.72Z" transform="translate(-788.92 -232.24)"/><path class="cls-1" d="M815.9,551.89A.86.86,0,0,1,815,551V233.1a.86.86,0,1,1,1.72,0V551A.86.86,0,0,1,815.9,551.89Z" transform="translate(-788.92 -232.24)"/><path class="cls-1" d="M815.9,234H790.12a.86.86,0,1,1,0-1.72H815.9a.86.86,0,0,1,0,1.72Z" transform="translate(-788.92 -232.24)"/><path class="cls-1" d="M815.9,243.9H804.44a.86.86,0,0,1,0-1.72H815.9a.86.86,0,0,1,0,1.72Z" transform="translate(-788.92 -232.24)"/><path class="cls-1" d="M815.9,253.83H804.44a.86.86,0,0,1,0-1.72H815.9a.86.86,0,0,1,0,1.72Z" transform="translate(-788.92 -232.24)"/><path class="cls-1" d="M815.9,263.77H790.12a.86.86,0,1,1,0-1.72H815.9a.86.86,0,0,1,0,1.72Z" transform="translate(-788.92 -232.24)"/><path class="cls-1" d="M815.9,273.7H804.44a.86.86,0,0,1,0-1.72H815.9a.86.86,0,1,1,0,1.72Z" transform="translate(-788.92 -232.24)"/><path class="cls-1" d="M815.9,283.64H804.44a.86.86,0,0,1,0-1.72H815.9a.86.86,0,0,1,0,1.72Z" transform="translate(-788.92 -232.24)"/><path class="cls-1" d="M815.9,293.57H790.12a.86.86,0,1,1,0-1.72H815.9a.86.86,0,0,1,0,1.72Z" transform="translate(-788.92 -232.24)"/><path class="cls-1" d="M815.9,303.51H804.44a.86.86,0,0,1,0-1.72H815.9a.86.86,0,1,1,0,1.72Z" transform="translate(-788.92 -232.24)"/><path class="cls-1" d="M815.9,313.44H804.44a.86.86,0,0,1,0-1.72H815.9a.86.86,0,0,1,0,1.72Z" transform="translate(-788.92 -232.24)"/><path class="cls-1" d="M815.9,323.38H790.12a.86.86,0,1,1,0-1.72H815.9a.86.86,0,0,1,0,1.72Z" transform="translate(-788.92 -232.24)"/><path class="cls-1" d="M815.9,333.31H804.44a.86.86,0,0,1,0-1.72H815.9a.86.86,0,1,1,0,1.72Z" transform="translate(-788.92 -232.24)"/><path class="cls-1" d="M815.9,343.25H804.44a.86.86,0,0,1,0-1.72H815.9a.86.86,0,0,1,0,1.72Z" transform="translate(-788.92 -232.24)"/><path class="cls-1" d="M815.9,353.18H790.12a.86.86,0,1,1,0-1.72H815.9a.86.86,0,0,1,0,1.72Z" transform="translate(-788.92 -232.24)"/><path class="cls-1" d="M815.9,363.12H804.44a.86.86,0,0,1,0-1.72H815.9a.86.86,0,1,1,0,1.72Z" transform="translate(-788.92 -232.24)"/><path class="cls-1" d="M815.9,373.05H804.44a.86.86,0,0,1,0-1.72H815.9a.86.86,0,0,1,0,1.72Z" transform="translate(-788.92 -232.24)"/><path class="cls-1" d="M815.9,383H790.12a.86.86,0,1,1,0-1.72H815.9a.86.86,0,1,1,0,1.72Z" transform="translate(-788.92 -232.24)"/><path class="cls-1" d="M815.9,392.92H804.44a.86.86,0,0,1,0-1.72H815.9a.86.86,0,0,1,0,1.72Z" transform="translate(-788.92 -232.24)"/><path class="cls-1" d="M815.9,402.86H804.44a.86.86,0,0,1,0-1.72H815.9a.86.86,0,0,1,0,1.72Z" transform="translate(-788.92 -232.24)"/><path class="cls-1" d="M815.9,412.79H790.12a.86.86,0,1,1,0-1.72H815.9a.86.86,0,0,1,0,1.72Z" transform="translate(-788.92 -232.24)"/><path class="cls-1" d="M815.9,422.73H804.44a.86.86,0,0,1,0-1.72H815.9a.86.86,0,0,1,0,1.72Z" transform="translate(-788.92 -232.24)"/><path class="cls-1" d="M815.9,432.66H804.44a.86.86,0,0,1,0-1.72H815.9a.86.86,0,0,1,0,1.72Z" transform="translate(-788.92 -232.24)"/><path class="cls-1" d="M815.9,442.6H790.12a.86.86,0,1,1,0-1.72H815.9a.86.86,0,0,1,0,1.72Z" transform="translate(-788.92 -232.24)"/><path class="cls-1" d="M815.9,452.53H804.44a.86.86,0,0,1,0-1.72H815.9a.86.86,0,0,1,0,1.72Z" transform="translate(-788.92 -232.24)"/><path class="cls-1" d="M815.9,462.47H804.44a.86.86,0,0,1,0-1.72H815.9a.86.86,0,0,1,0,1.72Z" transform="translate(-788.92 -232.24)"/><path class="cls-1" d="M815.9,472.4H790.12a.86.86,0,1,1,0-1.72H815.9a.86.86,0,0,1,0,1.72Z" transform="translate(-788.92 -232.24)"/><path class="cls-1" d="M815.9,482.34H804.44a.86.86,0,0,1,0-1.72H815.9a.86.86,0,0,1,0,1.72Z" transform="translate(-788.92 -232.24)"/><path class="cls-1" d="M815.9,492.27H804.44a.86.86,0,0,1,0-1.72H815.9a.86.86,0,0,1,0,1.72Z" transform="translate(-788.92 -232.24)"/><path class="cls-1" d="M815.9,502.21H790.12a.86.86,0,1,1,0-1.72H815.9a.86.86,0,0,1,0,1.72Z" transform="translate(-788.92 -232.24)"/><path class="cls-1" d="M815.9,512.15H804.44a.86.86,0,0,1,0-1.72H815.9a.86.86,0,0,1,0,1.72Z" transform="translate(-788.92 -232.24)"/><path class="cls-1" d="M815.9,522.08H804.44a.86.86,0,0,1,0-1.72H815.9a.86.86,0,0,1,0,1.72Z" transform="translate(-788.92 -232.24)"/><path class="cls-1" d="M815.9,551.89H804.44a.86.86,0,0,1,0-1.72H815.9a.86.86,0,0,1,0,1.72Z" transform="translate(-788.92 -232.24)"/><path class="cls-1" d="M815.9,542H804.44a.86.86,0,0,1,0-1.72H815.9a.86.86,0,0,1,0,1.72Z" transform="translate(-788.92 -232.24)"/><path class="cls-1" d="M815.9,532H790.12a.86.86,0,1,1,0-1.72H815.9a.86.86,0,0,1,0,1.72Z" transform="translate(-788.92 -232.24)"/></g></svg>