<svg id="Icons" xmlns="http://www.w3.org/2000/svg" viewBox="0 0 89.71 87.68"><defs><style>.cls-1{fill:#7fd1e0;}.cls-2{fill:#3c6ab3;}</style></defs><path class="cls-1" d="M648.39,396.24a41.79,41.79,0,1,1-8.64,30.8A41.52,41.52,0,0,1,648.39,396.24ZM712.93,447a40,40,0,0,0,8.33-29.7h0a40.3,40.3,0,1,0-8.33,29.7Z" transform="translate(-636.4 -376.19)"/><path class="cls-1" d="M710.66,391.68l2.06-2.16a44.39,44.39,0,0,1,13.4,26.79l-3,.35A41.4,41.4,0,0,0,710.66,391.68Z" transform="translate(-636.4 -376.19)"/><path class="cls-1" d="M646.19,393.33a45.57,45.57,0,0,1,30.49-17.15l.53,4.44a41.29,41.29,0,0,0-36,45.85l-4.44.53A45.57,45.57,0,0,1,646.19,393.33Z" transform="translate(-636.4 -376.19)"/><path class="cls-2" d="M681.26,459.36a37.29,37.29,0,0,1-26.38-63.66h0a37.3,37.3,0,1,1,26.38,63.66Zm-25.32-62.61a35.81,35.81,0,1,0,50.64,0,35.58,35.58,0,0,0-50.64,0Z" transform="translate(-636.4 -376.19)"/><path class="cls-2" d="M707,447.84l-3.16-3.16a32,32,0,0,0,0-45.2l3.16-3.16A36.48,36.48,0,0,1,707,447.84Z" transform="translate(-636.4 -376.19)"/><path class="cls-1" d="M680.51,457l-.61,0,.05-1.49.59,0Zm1.52,0,0-1.49.58,0,.07,1.49Zm-3.65-.11-.61-.06.15-1.48.58.05Zm5.78,0-.12-1.49.57-.05.16,1.48Zm-7.88-.23-.61-.09.24-1.47.57.08Zm10,0-.21-1.48.57-.09.24,1.47Zm-12.1-.36-.6-.13.33-1.45.57.12Zm14.21,0-.31-1.46.57-.12.33,1.45Zm-16.28-.49-.59-.16.42-1.43.56.16Zm18.35,0-.39-1.44.51-.14.47,1.42Zm-20.39-.61-.58-.2.5-1.4.55.19Zm22.43,0-.48-1.41.56-.19.49,1.41Zm-24.43-.73-.57-.24.59-1.37.53.22Zm26.42,0-.56-1.38.54-.22.58,1.37Zm-28.37-.86-.54-.27.67-1.33.53.26Zm30.32,0-.65-1.34.52-.26.67,1.33Zm-32.21-1-.53-.3.75-1.29.51.29Zm34.1,0-.73-1.3.5-.29.75,1.29Zm-35.93-1.09-.51-.33.83-1.24.49.32Zm37.75,0-.8-1.26.49-.32.82,1.24Zm-39.51-1.2-.49-.37.9-1.19.47.35Zm41.27,0-.88-1.2.46-.35.91,1.19ZM658.94,449l-.46-.39,1-1.13.45.38Zm44.63,0-1-1.14.45-.38,1,1.13Zm-46.22-1.41-.44-.42,1-1.07.42.41Zm47.82,0-1-1.09.42-.4,1,1.07Zm-49.33-1.5-.42-.45,1.1-1,.4.43Zm50.83,0-1.08-1,.39-.42,1.11,1Zm1.42-1.59-1.14-1,.37-.45,1.16.94Zm-53.67,0L654,444l1.16-.94.37.45Zm-1.32-1.67-.36-.49,1.22-.86.34.47Zm56.3,0-1.2-.89.34-.47,1.22.86ZM651.9,441l-.32-.51,1.26-.79.31.5Zm58.72,0-1.25-.81.31-.49,1.27.78Zm-59.82-1.81-.3-.53,1.31-.71.28.51Zm60.93,0-1.3-.73.28-.51,1.31.71Zm-61.92-1.87-.26-.55,1.35-.63.25.53Zm62.9,0-1.34-.65.25-.53,1.35.63Zm-63.77-1.93-.23-.57,1.39-.54.22.54Zm64.65,0-1.38-.57.22-.54,1.39.54Zm-65.39-2-.19-.58,1.42-.45.18.55Zm66.14,0-1.41-.48.18-.55,1.42.45Zm-66.77-2-.16-.59,1.45-.37.15.56Zm67.4,0-1.44-.39.15-.56,1.45.37Zm-67.9-2-.12-.6,1.47-.28.11.57Zm68.4,0L714,429l.11-.57,1.47.28Zm-68.77-2.07-.08-.6,1.48-.19.08.58Zm69.14,0-1.48-.22.08-.58,1.48.19Zm-69.39-2.09,0-.6,1.49-.11,0,.58Zm69.63,0-1.49-.13,0-.58,1.49.1Zm-69.75-2.1v-.61h1.49v.58Zm69.87,0-1.49,0v-.58h1.49Zm-68.37-2-1.49-.06,0-.61,1.49.08Zm66.86,0,0-.58,1.49-.08,0,.61Zm-66.73-2-1.48-.14.06-.61,1.48.17Zm66.59,0-.06-.58,1.48-.17.06.61Zm-66.33-2-1.47-.24.1-.6,1.47.26Zm66.08,0-.1-.58,1.47-.26.1.6Zm-65.7-2-1.46-.32.14-.59,1.45.35Zm65.31,0-.13-.57,1.45-.35.14.59Zm-64.81-2-1.43-.41.17-.59,1.43.44Zm64.31,0-.17-.56,1.43-.44.17.59Zm-63.69-1.92-1.41-.5.21-.58,1.4.52Zm63.06,0-.2-.55,1.4-.52.21.57ZM650.46,409l-1.37-.58.24-.56,1.36.61ZM712,409l-.23-.53,1.36-.61.24.56Zm-60.73-1.83-1.33-.67.28-.54,1.32.69Zm59.88,0-.27-.52,1.32-.69.28.54Zm-58.91-1.78-1.29-.75.31-.53,1.28.77Zm57.94,0-.29-.5,1.27-.77.31.53Zm-56.87-1.72-1.24-.82.34-.51,1.23.84Zm55.79,0-.32-.47,1.22-.86.34.51Zm-54.61-1.66-1.19-.9.37-.48,1.17.92Zm53.44,0-.36-.46,1.18-.92.37.48Zm-1.28-1.59-.38-.44,1.12-1,.4.46Zm-50.88,0-1.13-1,.4-.46,1.12,1Zm49.5-1.51-.41-.42,1.06-1.05.43.43Zm-48.13,0-1.07-1,.42-.43.6.45.46.59Zm46.67-1.42-.44-.39,1-1.11.45.4Zm-45.13-.07-1-1.1.45-.4,1,1.12Zm43.59-1.27-.46-.37.93-1.17.47.38Zm-42-.06-.94-1.16.48-.38.91,1.18Zm40.42-1.18-.48-.33.84-1.23.5.35Zm-38.8-.05-.86-1.22.49-.34.84,1.23ZM699,393.7l-.5-.3.77-1.28.52.32Zm-35.41,0-.78-1.27.51-.31.77,1.28Zm33.65-1-.52-.28.69-1.32.54.29Zm-31.88,0-.7-1.31.53-.28.69,1.32Zm30.06-.88-.53-.24.6-1.36.56.25Zm-28.24,0-.62-1.35.55-.25.6,1.36Zm26.36-.77-.55-.21.52-1.4.57.22Zm-24.48,0-.55-1.39.57-.22.52,1.4Zm22.56-.66-.56-.18.45-1.42.57.18Zm-20.65,0-.45-1.42.58-.18.43,1.43Zm18.69-.55-.56-.14.34-1.45.59.15Zm-16.73,0-.36-1.45.59-.14.34,1.45Zm14.74-.43-.57-.1.25-1.47.6.11Zm-12.75,0-.28-1.47.6-.11.25,1.47Zm10.73-.31-.58-.07.16-1.48.61.07Zm-8.72,0-.2-1.48.61-.07.16,1.48Zm6.68-.2-.58,0,.08-1.49.61,0Zm-4.65,0-.11-1.49.61,0,.08,1.49Zm2.62-.08H681l0-1.49h.62Z" transform="translate(-636.4 -376.19)"/><path class="cls-1" d="M656,405.41a1.69,1.69,0,0,1,1.78-1c2.42,0,4.84,0,7.26,0a1.38,1.38,0,0,1,1.6,1.29l.9,4h32.22c.84,0,1.37.32,1.51,1a2,2,0,0,1-.06.91q-2.17,7.63-4.36,15.26l-.84,2.93a1.38,1.38,0,0,1-1.54,1.16H670.93a3,3,0,0,0-.57,0,1.33,1.33,0,0,0,.19,2.63h23.83a3,3,0,0,1,.57,0,1.32,1.32,0,0,1-.24,2.63c-.32,0-.65,0-1,0s-.65,0-1,0a4.15,4.15,0,0,1,2.59,1.74,3.91,3.91,0,0,1,.6,3,4,4,0,0,1-7.85-.33c-.3-2,.9-3.63,3.29-4.46H674a4.21,4.21,0,0,1,2.59,1.76,3.91,3.91,0,0,1,.59,3,4,4,0,0,1-7.87-.47,4.11,4.11,0,0,1,3.25-4.34c-.68,0-1.35,0-2,0a4,4,0,0,1-1.89-7.44l.39-.21-4.79-21.57H660c-.72,0-1.45,0-2.17,0a1.65,1.65,0,0,1-1.79-1Zm15.68,22.93h22l4.55-15.91H668.14ZM673.25,439a1.33,1.33,0,1,0,1.35,1.3A1.34,1.34,0,0,0,673.25,439Zm20.12,1.34a1.33,1.33,0,1,0-1.33,1.31A1.34,1.34,0,0,0,693.37,440.32Z" transform="translate(-636.4 -376.19)"/></svg>