<svg xmlns="http://www.w3.org/2000/svg" preserveAspectRatio="none" viewBox="0 0 221.56 63.11"><defs><style>.cls-1{isolation:isolate;}.cls-2{fill:#7fd1e0;}.cls-3{opacity:0.1;mix-blend-mode:screen;}.cls-4{fill:#3c6ab3;}</style></defs><g class="cls-1"><g id="Layer_2" data-name="Layer 2"><g id="Viewport"><g id="Start"><path class="cls-2" d="M216.26,63.11H5.29L0,57.82V5.29L5.29,0H165.77l17.65,17.64h31.43l6.71,6.71V57.82Zm-210.56-1H215.85l4.71-4.71V24.77l-6.13-6.13H183L165.36,1H5.71L1,5.71V57.4Z"/><g class="cls-3"><polygon class="cls-4" points="6.74 59.61 3.5 56.37 3.5 6.74 6.74 3.5 164.32 3.5 181.97 21.14 213.4 21.14 218.06 25.81 218.06 56.37 214.82 59.61 6.74 59.61"/><path class="cls-2" d="M214.92,59.86H6.64L3.25,56.47V6.64L6.64,3.25H164.43l17.65,17.64H213.5l4.81,4.81V56.47ZM6.85,59.36H214.71l3.1-3.1V25.91l-4.51-4.51H181.86L164.22,3.75H6.85l-3.1,3.1V56.26Z"/></g></g></g></g></g></svg>