<svg xmlns="http://www.w3.org/2000/svg" viewBox="0 0 221.56 63.11"><defs><style>.cls-1{isolation:isolate;}.cls-2{fill:#7fd1e0;}.cls-3{opacity:0.1;mix-blend-mode:screen;}.cls-4{fill:#3c6ab3;}.cls-5{font-size:29px;fill:#3bbeb8;font-family:NidusSans, Nidus Sans;letter-spacing:0.2em;}.cls-6{letter-spacing:0.09em;}.cls-7{letter-spacing:0.19em;}.cls-8{letter-spacing:0.19em;}</style></defs><title>StartButton</title><g class="cls-1"><g id="Viewport"><g id="Start"><path class="cls-2" d="M519.49,1400h-211l-5.29-5.29v-52.52l5.29-5.29H469l17.65,17.64h31.43l6.71,6.71v33.46Zm-210.56-1H519.07l4.71-4.71v-32.63l-6.13-6.13H486.22l-17.65-17.64H308.93l-4.71,4.71v51.7Z" transform="translate(-303.22 -1336.94)"/><g class="cls-3"><polygon class="cls-4" points="6.74 59.61 3.5 56.37 3.5 6.74 6.74 3.5 164.32 3.5 181.97 21.14 213.4 21.14 218.06 25.81 218.06 56.37 214.82 59.61 6.74 59.61"/><path class="cls-2" d="M518.14,1396.8H309.86l-3.39-3.39v-49.83l3.39-3.39H467.65l17.65,17.64h31.43l4.81,4.81v30.77Zm-208.07-.5H517.93l3.1-3.1v-30.36l-4.51-4.51H485.09l-17.65-17.64H310.07l-3.1,3.1v49.42Z" transform="translate(-303.22 -1336.94)"/></g><text class="cls-5" transform="translate(37.94 40.3)">s<tspan class="cls-6" x="21.86" y="0">t</tspan><tspan class="cls-7" x="40.88" y="0">a</tspan><tspan class="cls-8" x="63.38" y="0">r</tspan><tspan x="85.96" y="0">t</tspan></text></g></g></g></svg>