<svg xmlns="http://www.w3.org/2000/svg" xmlns:xlink="http://www.w3.org/1999/xlink" viewBox="0 0 1920 1080"><defs><style>.cls-1,.cls-7{fill:none;}.cls-2{isolation:isolate;}.cls-3{clip-path:url(#clip-path);}.cls-4{fill:url(#radial-gradient);}.cls-5{opacity:0.15;mix-blend-mode:screen;}.cls-6{mix-blend-mode:overlay;}.cls-7{stroke:#eb2579;stroke-miterlimit:10;}</style><clipPath id="clip-path"><rect class="cls-1" y="-0.66" width="1920" height="1080"/></clipPath><radialGradient id="radial-gradient" cx="991.09" cy="497.89" r="873.68" gradientUnits="userSpaceOnUse"><stop offset="0" stop-color="#312664"/><stop offset="0.99" stop-color="#1d1033"/></radialGradient></defs><title>Artboard 2</title><g class="cls-2"><g id="BACKGROUND"><g class="cls-3"><rect class="cls-4" x="-2.5" y="-1543.28" width="1925" height="4165.23"/><g class="cls-5"><g class="cls-6"><rect class="cls-7" x="-330.43" y="-2528.5" width="2580.14" height="2580.14"/><line class="cls-7" x1="-330.43" y1="1.05" x2="2249.71" y2="1.05"/><line class="cls-7" x1="1895.57" y1="-2528.5" x2="1895.57" y2="51.64"/><line class="cls-7" x1="1844.98" y1="-2528.5" x2="1844.98" y2="51.64"/><line class="cls-7" x1="1794.39" y1="-2528.5" x2="1794.39" y2="51.64"/><line class="cls-7" x1="1743.8" y1="-2528.5" x2="1743.8" y2="51.64"/><line class="cls-7" x1="1693.21" y1="-2528.5" x2="1693.21" y2="51.64"/><line class="cls-7" x1="1642.62" y1="-2528.5" x2="1642.62" y2="51.64"/><line class="cls-7" x1="1592.02" y1="-2528.5" x2="1592.02" y2="51.64"/><line class="cls-7" x1="1541.43" y1="-2528.5" x2="1541.43" y2="51.64"/><line class="cls-7" x1="1490.84" y1="-2528.5" x2="1490.84" y2="51.64"/><line class="cls-7" x1="1440.25" y1="-2528.5" x2="1440.25" y2="51.64"/><line class="cls-7" x1="1389.66" y1="-2528.5" x2="1389.66" y2="51.64"/><line class="cls-7" x1="1339.07" y1="-2528.5" x2="1339.07" y2="51.64"/><line class="cls-7" x1="1288.48" y1="-2528.5" x2="1288.48" y2="51.64"/><line class="cls-7" x1="1237.89" y1="-2528.5" x2="1237.89" y2="51.64"/><line class="cls-7" x1="1187.3" y1="-2528.5" x2="1187.3" y2="51.64"/><line class="cls-7" x1="1136.71" y1="-2528.5" x2="1136.71" y2="51.64"/><line class="cls-7" x1="1086.12" y1="-2528.5" x2="1086.12" y2="51.64"/><line class="cls-7" x1="1035.52" y1="-2528.5" x2="1035.52" y2="51.64"/><line class="cls-7" x1="984.93" y1="-2528.5" x2="984.93" y2="51.64"/><line class="cls-7" x1="934.34" y1="-2528.5" x2="934.34" y2="51.64"/><line class="cls-7" x1="883.75" y1="-2528.5" x2="883.75" y2="51.64"/><line class="cls-7" x1="833.16" y1="-2528.5" x2="833.16" y2="51.64"/><line class="cls-7" x1="782.57" y1="-2528.5" x2="782.57" y2="51.64"/><line class="cls-7" x1="731.98" y1="-2528.5" x2="731.98" y2="51.64"/><line class="cls-7" x1="681.39" y1="-2528.5" x2="681.39" y2="51.64"/><line class="cls-7" x1="630.8" y1="-2528.5" x2="630.8" y2="51.64"/><line class="cls-7" x1="580.21" y1="-2528.5" x2="580.21" y2="51.64"/><line class="cls-7" x1="529.61" y1="-2528.5" x2="529.61" y2="51.64"/><line class="cls-7" x1="479.02" y1="-2528.5" x2="479.02" y2="51.64"/><line class="cls-7" x1="428.43" y1="-2528.5" x2="428.43" y2="51.64"/><line class="cls-7" x1="377.84" y1="-2528.5" x2="377.84" y2="51.64"/><line class="cls-7" x1="327.25" y1="-2528.5" x2="327.25" y2="51.64"/><line class="cls-7" x1="276.66" y1="-2528.5" x2="276.66" y2="51.64"/><line class="cls-7" x1="226.07" y1="-2528.5" x2="226.07" y2="51.64"/><line class="cls-7" x1="175.48" y1="-2528.5" x2="175.48" y2="51.64"/><line class="cls-7" x1="124.89" y1="-2528.5" x2="124.89" y2="51.64"/><line class="cls-7" x1="74.3" y1="-2528.5" x2="74.3" y2="51.64"/><line class="cls-7" x1="23.71" y1="-2528.5" x2="23.71" y2="51.64"/></g><g class="cls-6"><line class="cls-7" x1="-330.36" y1="1063.46" x2="2249.78" y2="1063.46"/><line class="cls-7" x1="-330.36" y1="1012.87" x2="2249.78" y2="1012.87"/><line class="cls-7" x1="-330.36" y1="962.28" x2="2249.78" y2="962.28"/><line class="cls-7" x1="-330.36" y1="911.69" x2="2249.78" y2="911.69"/><line class="cls-7" x1="-330.36" y1="861.1" x2="2249.78" y2="861.1"/><line class="cls-7" x1="-330.36" y1="810.51" x2="2249.78" y2="810.51"/><line class="cls-7" x1="-330.36" y1="759.92" x2="2249.78" y2="759.92"/><line class="cls-7" x1="-330.36" y1="709.33" x2="2249.78" y2="709.33"/><line class="cls-7" x1="-330.36" y1="658.73" x2="2249.78" y2="658.73"/><line class="cls-7" x1="-330.36" y1="608.14" x2="2249.78" y2="608.14"/><line class="cls-7" x1="-330.36" y1="557.55" x2="2249.78" y2="557.55"/><line class="cls-7" x1="-330.36" y1="506.96" x2="2249.78" y2="506.96"/><line class="cls-7" x1="-330.36" y1="456.37" x2="2249.78" y2="456.37"/><line class="cls-7" x1="-330.36" y1="405.78" x2="2249.78" y2="405.78"/><line class="cls-7" x1="-330.36" y1="355.19" x2="2249.78" y2="355.19"/><line class="cls-7" x1="-330.36" y1="304.6" x2="2249.78" y2="304.6"/><line class="cls-7" x1="-330.36" y1="254.01" x2="2249.78" y2="254.01"/><line class="cls-7" x1="-330.36" y1="203.42" x2="2249.78" y2="203.42"/><line class="cls-7" x1="-330.36" y1="152.82" x2="2249.78" y2="152.82"/><line class="cls-7" x1="-330.36" y1="102.23" x2="2249.78" y2="102.23"/><line class="cls-7" x1="1895.65" y1="51.64" x2="1895.65" y2="2631.78"/><line class="cls-7" x1="1845.05" y1="51.64" x2="1845.05" y2="2631.78"/><line class="cls-7" x1="1794.46" y1="51.64" x2="1794.46" y2="2631.78"/><line class="cls-7" x1="1743.87" y1="51.64" x2="1743.87" y2="2631.78"/><line class="cls-7" x1="1693.28" y1="51.64" x2="1693.28" y2="2631.78"/><line class="cls-7" x1="1642.69" y1="51.64" x2="1642.69" y2="2631.78"/><line class="cls-7" x1="1592.1" y1="51.64" x2="1592.1" y2="2631.78"/><line class="cls-7" x1="1541.51" y1="51.64" x2="1541.51" y2="2631.78"/><line class="cls-7" x1="1490.92" y1="51.64" x2="1490.92" y2="2631.78"/><line class="cls-7" x1="1440.33" y1="51.64" x2="1440.33" y2="2631.78"/><line class="cls-7" x1="1389.74" y1="51.64" x2="1389.74" y2="2631.78"/><line class="cls-7" x1="1339.14" y1="51.64" x2="1339.14" y2="2631.78"/><line class="cls-7" x1="1288.55" y1="51.64" x2="1288.55" y2="2631.78"/><line class="cls-7" x1="1237.96" y1="51.64" x2="1237.96" y2="2631.78"/><line class="cls-7" x1="1187.37" y1="51.64" x2="1187.37" y2="2631.78"/><line class="cls-7" x1="1136.78" y1="51.64" x2="1136.78" y2="2631.78"/><line class="cls-7" x1="1086.19" y1="51.64" x2="1086.19" y2="2631.78"/><line class="cls-7" x1="1035.6" y1="51.64" x2="1035.6" y2="2631.78"/><line class="cls-7" x1="985.01" y1="51.64" x2="985.01" y2="2631.78"/><line class="cls-7" x1="934.42" y1="51.64" x2="934.42" y2="2631.78"/><line class="cls-7" x1="883.83" y1="51.64" x2="883.83" y2="2631.78"/><line class="cls-7" x1="833.23" y1="51.64" x2="833.23" y2="2631.78"/><line class="cls-7" x1="782.64" y1="51.64" x2="782.64" y2="2631.78"/><line class="cls-7" x1="732.05" y1="51.64" x2="732.05" y2="2631.78"/><line class="cls-7" x1="681.46" y1="51.64" x2="681.46" y2="2631.78"/><line class="cls-7" x1="630.87" y1="51.64" x2="630.87" y2="2631.78"/><line class="cls-7" x1="580.28" y1="51.64" x2="580.28" y2="2631.78"/><line class="cls-7" x1="529.69" y1="51.64" x2="529.69" y2="2631.78"/><line class="cls-7" x1="479.1" y1="51.64" x2="479.1" y2="2631.78"/><line class="cls-7" x1="428.51" y1="51.64" x2="428.51" y2="2631.78"/><line class="cls-7" x1="377.92" y1="51.64" x2="377.92" y2="2631.78"/><line class="cls-7" x1="327.33" y1="51.64" x2="327.33" y2="2631.78"/><line class="cls-7" x1="276.73" y1="51.64" x2="276.73" y2="2631.78"/><line class="cls-7" x1="226.14" y1="51.64" x2="226.14" y2="2631.78"/><line class="cls-7" x1="175.55" y1="51.64" x2="175.55" y2="2631.78"/><line class="cls-7" x1="124.96" y1="51.64" x2="124.96" y2="2631.78"/><line class="cls-7" x1="74.37" y1="51.64" x2="74.37" y2="2631.78"/><line class="cls-7" x1="23.78" y1="51.64" x2="23.78" y2="2631.78"/></g></g><rect class="cls-1" x="-2.5" y="-1543.28" width="1925" height="4165.23"/></g></g></g></svg>
