<svg id="Objects" xmlns="http://www.w3.org/2000/svg" viewBox="0 0 98.28 96.05"><defs><style>.cls-1{fill:#7fd1e0;}.cls-2{fill:#7fd0df;}.cls-3{fill:#3b69b2;}</style></defs><path class="cls-1" d="M402.78,1653.63h31.34a6.08,6.08,0,0,1,1.63.16,2.86,2.86,0,0,1-.43,5.55,9.11,9.11,0,0,1-1.31.07H402.8c.33.36.51.57.71.77q5,5,10.08,10.07a3.07,3.07,0,0,1,1.06,2.4,2.87,2.87,0,0,1-4.65,2.14,6.59,6.59,0,0,1-.66-.62l-15.26-15.25c-1.62-1.62-1.63-3.18,0-4.78q7.71-7.72,15.43-15.43a3,3,0,0,1,2.71-1.07,2.74,2.74,0,0,1,2.33,2,2.83,2.83,0,0,1-.78,3l-10.19,10.19C403.34,1653,403.14,1653.25,402.78,1653.63Z" transform="translate(-365.86 -1608)"/><title>Back</title><path class="cls-2" d="M379,1630a45.79,45.79,0,1,1-9.47,33.74A45.48,45.48,0,0,1,379,1630Zm70.7,55.59a43.87,43.87,0,0,0,9.13-32.54h0a44.15,44.15,0,1,0-9.13,32.54Z" transform="translate(-365.86 -1608)"/><path class="cls-2" d="M447.21,1625l2.26-2.36A48.63,48.63,0,0,1,464.14,1652l-3.24.39A45.35,45.35,0,0,0,447.21,1625Z" transform="translate(-365.86 -1608)"/><path class="cls-2" d="M376.59,1626.79A49.92,49.92,0,0,1,410,1608l.58,4.87a45.23,45.23,0,0,0-39.49,50.22l-4.87.58A49.92,49.92,0,0,1,376.59,1626.79Z" transform="translate(-365.86 -1608)"/><path class="cls-3" d="M415,1699.11a40.85,40.85,0,0,1-28.9-69.74h0a40.86,40.86,0,1,1,28.9,69.74Zm-27.74-68.59a39.23,39.23,0,1,0,55.48,0,39,39,0,0,0-55.48,0Z" transform="translate(-365.86 -1608)"/><path class="cls-3" d="M443.22,1686.49l-3.47-3.47a35.06,35.06,0,0,0,0-49.52l3.47-3.47A40,40,0,0,1,443.22,1686.49Z" transform="translate(-365.86 -1608)"/><path class="cls-2" d="M414.18,1696.54l-.66,0,.06-1.63.64,0Zm1.67,0,0-1.63.64,0,.07,1.63Zm-4-.12-.67-.06.17-1.62.63.06Zm6.33,0-.13-1.63.63-.06.18,1.62Zm-8.64-.26-.67-.1.26-1.61.62.09Zm11,0-.23-1.62.63-.1.26,1.61Zm-13.26-.4-.66-.14.36-1.59.62.13Zm15.56,0-.34-1.6.63-.14.36,1.59Zm-17.84-.53-.64-.18.45-1.57.62.17Zm20.11,0-.43-1.58.55-.15.51,1.55Zm-22.34-.67-.63-.22.55-1.54.6.21Zm24.58,0-.53-1.55.61-.21.54,1.54Zm-26.76-.8-.62-.26.65-1.5.59.24Zm28.94,0-.61-1.52.59-.25.64,1.51Zm-31.08-.94-.6-.29.73-1.46.58.28Zm33.22,0-.71-1.47.57-.28.73,1.46Zm-35.29-1.07-.58-.33.82-1.41.56.32Zm37.36,0-.79-1.43.55-.31.82,1.41Zm-39.36-1.19-.56-.37.91-1.36.54.35Zm41.36,0-.88-1.38.53-.35.9,1.36Zm-43.29-1.32-.53-.4,1-1.3.51.38Zm45.21,0-1-1.32.51-.38,1,1.3Zm-47.05-1.43-.51-.43,1.06-1.24.49.42Zm48.89,0-1-1.25.49-.41,1.06,1.24Zm-50.64-1.54-.48-.46,1.14-1.17.46.45Zm52.39,0-1.12-1.19.46-.44,1.14,1.17Zm-54-1.64-.45-.49,1.21-1.1.43.47Zm55.69,0-1.19-1.13.43-.46,1.21,1.1Zm1.55-1.74-1.25-1,.41-.49,1.27,1Zm-58.79,0-.42-.52,1.27-1,.41.49Zm-1.44-1.83-.39-.54,1.33-.94.37.51Zm61.67,0-1.31-1,.37-.52,1.34.94Zm-63-1.91-.36-.56,1.38-.87.34.54Zm64.33,0-1.37-.89.34-.54,1.39.86Zm-65.54-2-.32-.59,1.44-.77.31.56Zm66.74,0-1.42-.8.31-.56,1.44.78ZM380.55,1675l-.28-.6,1.48-.69.27.58Zm68.91,0-1.47-.71.27-.58,1.48.69Zm-69.86-2.11-.25-.62,1.52-.59.24.59Zm70.82,0-1.51-.62.24-.59,1.52.59Zm-71.64-2.17-.21-.63,1.56-.5.2.6Zm72.46,0-1.55-.53.2-.61,1.56.5Zm-73.14-2.21-.17-.64,1.58-.41.16.62Zm73.83,0-1.58-.43.16-.62,1.58.4Zm-74.38-2.25-.13-.65,1.61-.31.13.62Zm74.93,0-1.6-.34.13-.63,1.61.31Zm-75.34-2.27-.09-.66,1.62-.21.09.63Zm75.75,0-1.62-.24.09-.63,1.62.21Zm-76-2.29-.05-.66,1.63-.12,0,.64Zm76.28,0-1.63-.14,0-.64,1.63.11Zm-76.41-2.3v-.67h1.63v.64Zm76.54,0-1.63,0v-.64h1.63Zm-74.9-2.24-1.63-.06,0-.66,1.63.08Zm73.25,0,0-.64,1.63-.09,0,.67Zm-73.1-2.2-1.63-.16.07-.66,1.62.19Zm73,0-.07-.64,1.62-.19.07.66Zm-72.67-2.19-1.61-.26.11-.66,1.61.28Zm72.39,0-.11-.63,1.61-.28.11.66Zm-72-2.17-1.6-.35.15-.65,1.59.38Zm71.55,0-.14-.62,1.59-.39.15.65Zm-71-2.14-1.57-.45.19-.64,1.56.48Zm70.45,0-.18-.61,1.56-.48.19.64Zm-69.77-2.1-1.54-.54.23-.63,1.53.57Zm69.09,0-.22-.6,1.53-.57.23.63Zm-68.28-2.06-1.5-.64.27-.61,1.49.66Zm67.47,0-.25-.59,1.49-.66.27.61Zm-66.53-2-1.46-.73.3-.59,1.45.75Zm65.6,0-.29-.57,1.45-.75.3.59Zm-64.53-2-1.42-.82.34-.58,1.4.84Zm63.48,0-.32-.55,1.4-.85.34.58Zm-62.3-1.88-1.36-.9.37-.55,1.35.93Zm61.12,0-.35-.52,1.34-.94.38.56Zm-59.83-1.81-1.3-1,.41-.53,1.29,1Zm58.54,0-.39-.51,1.29-1,.4.52Zm-1.4-1.74-.42-.48,1.22-1.09.44.5Zm-55.74,0-1.24-1.06.44-.5,1.22,1.08Zm54.23-1.65-.45-.46,1.16-1.15.47.48Zm-52.73,0-1.17-1.14.47-.47.66.5.51.65Zm51.13-1.56-.48-.43,1.09-1.22.49.44Zm-49.44-.07-1.1-1.21.5-.44,1.08,1.23Zm47.75-1.39-.51-.4,1-1.28.52.41Zm-46.06-.07-1-1.27.52-.41,1,1.29Zm44.27-1.29-.52-.37.93-1.35.55.39Zm-42.5-.06-.94-1.34.54-.38.93,1.35Zm40.64-1.19-.54-.33.84-1.4.57.35Zm-38.79,0-.85-1.39.56-.34.84,1.4Zm36.86-1.08-.57-.3.76-1.45.59.31Zm-34.93,0-.77-1.44.58-.31.76,1.45Zm32.93-1-.58-.27.66-1.49.61.28Zm-30.93,0-.68-1.48.61-.27.66,1.49Zm28.88-.85-.6-.23.57-1.53.62.24Zm-26.82,0-.6-1.52.63-.24.56,1.53Zm24.72-.72-.62-.2.49-1.56.63.2Zm-22.62,0-.49-1.56.64-.2.47,1.57Zm20.48-.6-.62-.15L424,1621l.65.16Zm-18.33,0-.4-1.59.65-.16.37,1.59Zm16.15-.47-.62-.11.28-1.61.66.12Zm-14,0-.31-1.61.66-.12.28,1.61Zm11.75-.34-.63-.08.18-1.62.67.08Zm-9.55,0-.22-1.62.67-.08.18,1.62Zm7.32-.22-.63,0L417,1620l.67,0Zm-5.1,0-.12-1.63.67,0,.08,1.63Zm2.86-.08h-.63l0-1.63h.68Z" transform="translate(-365.86 -1608)"/></svg>