<svg xmlns="http://www.w3.org/2000/svg" viewBox="0 0 214.09 60.98" preserveAspectRatio="none"><defs><style>.cls-1{isolation:isolate;}.cls-2{fill:#7fd0df;}.cls-3{opacity:0.1;mix-blend-mode:screen;}.cls-4{fill:#3b69b2;}</style></defs><g class="cls-1"><g id="Layer_2" data-name="Layer 2"><g id="Objects"><path class="cls-2" d="M209,61H5.11L0,55.87V5.11L5.11,0H160.18l17.05,17H207.6l6.49,6.49V55.87ZM5.51,60H208.58l4.55-4.55V23.94L207.2,18H176.83L159.78,1H5.51L1,5.51v50Z"/><g class="cls-3"><polygon class="cls-4" points="6.51 57.6 3.38 54.47 3.38 6.51 6.51 3.38 158.78 3.38 175.83 20.43 206.2 20.43 210.71 24.94 210.71 54.47 207.57 57.6 6.51 57.6"/><path class="cls-2" d="M207.68,57.84H6.42L3.14,54.57V6.41L6.41,3.14H158.88l17.05,17H206.3l4.65,4.65V54.57ZM6.62,57.36H207.48l3-3V25l-4.36-4.36H175.73l-17.05-17H6.61l-3,3V54.37Z"/></g><g class="cls-3"><polygon class="cls-4" points="6.51 57.6 3.38 54.47 3.38 6.51 6.51 3.38 158.78 3.38 175.83 20.43 206.2 20.43 210.71 24.94 210.71 54.47 207.57 57.6 6.51 57.6"/><path class="cls-2" d="M207.68,57.84H6.42L3.14,54.57V6.41L6.41,3.14H158.88l17.05,17H206.3l4.65,4.65V54.57ZM6.62,57.36H207.48l3-3V25l-4.36-4.36H175.73l-17.05-17H6.61l-3,3V54.37Z"/></g></g></g></g></svg>