<svg xmlns="http://www.w3.org/2000/svg" viewBox="0 0 352.35 282.07"><defs><style>.cls-1{isolation:isolate;}.cls-2{fill:#80d1de;}.cls-3{opacity:0.1;mix-blend-mode:screen;}.cls-4{fill:#3d6ab3;}.cls-5{fill:none;stroke:#44b6e8;stroke-miterlimit:10;}.cls-6{fill:#44b6e8;}</style></defs><g class="cls-1"><g id="Layer_2" data-name="Layer 2"><g id="OBJECTS"><path class="cls-2" d="M340.08,269.11H12.27V13H340.08ZM14,267.29H338.35V14.78H14Z"/><g class="cls-3"><rect class="cls-4" x="18.31" y="19.34" width="315.73" height="243.4"/><path class="cls-2" d="M334.47,263.19H17.88V18.88H334.47Zm-315.73-.91H333.61V19.79H18.75Z"/></g><polygon class="cls-2" points="10.07 282.07 0 282.07 0 271.44 1.73 271.44 1.73 280.25 10.07 280.25 10.07 282.07"/><polygon class="cls-2" points="1.73 10.63 0 10.63 0 0 10.07 0 10.07 1.82 1.73 1.82 1.73 10.63"/><polygon class="cls-2" points="352.35 282.07 342.28 282.07 342.28 280.25 350.63 280.25 350.63 271.44 352.35 271.44 352.35 282.07"/><polygon class="cls-2" points="352.35 10.63 350.63 10.63 350.63 1.82 342.28 1.82 342.28 0 352.35 0 352.35 10.63"/><g id="_Group_" data-name="&lt;Group&gt;"><g id="_Group_2" data-name="&lt;Group&gt;"><g id="_Group_3" data-name="&lt;Group&gt;"><polyline id="_Path_" data-name="&lt;Path&gt;" class="cls-5" points="176.18 241.93 176.18 41.8 113.31 77.19 147.41 105.05 176.18 110.95"/><polyline id="_Path_2" data-name="&lt;Path&gt;" class="cls-5" points="176.18 86.69 147.41 105.05 132.01 119.3 106.61 129.46 130.2 139.13"/><polyline id="_Path_3" data-name="&lt;Path&gt;" class="cls-5" points="106.61 129.46 154.13 194.84 176.18 241.71"/><polyline id="_Path_4" data-name="&lt;Path&gt;" class="cls-5" points="176.18 41.8 127.67 49.97 113.31 77.19"/><polyline id="_Path_5" data-name="&lt;Path&gt;" class="cls-5" points="132.01 119.3 113.31 77.19 106.61 129.46 109.23 174.85 129.79 216.8 176.18 241.71"/><polyline id="_Path_6" data-name="&lt;Path&gt;" class="cls-5" points="109.23 174.85 154.13 194.84 159.21 164.2 176.18 135.2 158.06 122.25 132.01 119.3 130.2 139.13 148.52 141.59 176.18 135.2"/><polyline id="_Path_7" data-name="&lt;Path&gt;" class="cls-5" points="175.43 188.4 154.13 194.84 176.18 220.73 129.79 216.8"/><polyline id="_Path_8" data-name="&lt;Path&gt;" class="cls-5" points="106.61 151.26 154.13 194.84 130.2 139.13"/><line id="_Path_9" data-name="&lt;Path&gt;" class="cls-5" x1="148.52" y1="141.59" x2="159.21" y2="164.2"/><line id="_Path_10" data-name="&lt;Path&gt;" class="cls-5" x1="147.41" y1="105.05" x2="176.18" y2="61.02"/><circle id="_Path_11" data-name="&lt;Path&gt;" class="cls-6" cx="127.67" cy="49.97" r="1.88"/><circle id="_Path_12" data-name="&lt;Path&gt;" class="cls-6" cx="113.31" cy="77.19" r="1.88"/><circle id="_Path_13" data-name="&lt;Path&gt;" class="cls-6" cx="147.41" cy="105.05" r="1.88"/><circle id="_Path_14" data-name="&lt;Path&gt;" class="cls-6" cx="132.08" cy="119.3" r="1.88"/><circle id="_Path_15" data-name="&lt;Path&gt;" class="cls-6" cx="106.61" cy="129.46" r="1.88"/><circle id="_Path_16" data-name="&lt;Path&gt;" class="cls-6" cx="106.61" cy="151.68" r="1.88"/><circle id="_Path_17" data-name="&lt;Path&gt;" class="cls-6" cx="130.2" cy="139.13" r="1.88"/><circle id="_Path_18" data-name="&lt;Path&gt;" class="cls-6" cx="148.52" cy="141.59" r="1.88"/><circle id="_Path_19" data-name="&lt;Path&gt;" class="cls-6" cx="157.93" cy="122.15" r="1.88"/><circle id="_Path_20" data-name="&lt;Path&gt;" class="cls-6" cx="159.21" cy="164.2" r="1.88"/><circle id="_Path_21" data-name="&lt;Path&gt;" class="cls-6" cx="153.86" cy="194.84" r="1.88"/><circle id="_Path_22" data-name="&lt;Path&gt;" class="cls-6" cx="166.27" cy="220.73" r="1.88"/><circle id="_Path_23" data-name="&lt;Path&gt;" class="cls-6" cx="129.79" cy="216.8" r="1.88"/><circle id="_Path_24" data-name="&lt;Path&gt;" class="cls-6" cx="109.23" cy="175.02" r="1.88"/><polyline id="_Path_25" data-name="&lt;Path&gt;" class="cls-5" points="176.18 110.95 204.94 105.05 236.72 76.04 176.18 41.8 176.18 241.93"/><polyline id="_Path_26" data-name="&lt;Path&gt;" class="cls-5" points="176.18 86.69 204.94 105.05 220.35 119.3 245.75 129.46 222.15 139.13"/><polyline id="_Path_27" data-name="&lt;Path&gt;" class="cls-5" points="245.75 129.46 198.23 194.84 176.18 241.71"/><polyline id="_Path_28" data-name="&lt;Path&gt;" class="cls-5" points="176.18 41.8 223.37 49.97 236.72 76.04"/><polyline id="_Path_29" data-name="&lt;Path&gt;" class="cls-5" points="220.35 119.3 236.72 76.04 245.75 129.46 243.22 175.6 223.22 215.49 176.18 241.71"/><polyline id="_Path_30" data-name="&lt;Path&gt;" class="cls-5" points="243.22 175.6 198.23 194.84 193.15 164.2 176.18 135.2 194.29 122.25 220.35 119.3 222.15 139.13 203.83 141.59 176.18 135.2"/><polyline id="_Path_31" data-name="&lt;Path&gt;" class="cls-5" points="176.92 188.4 198.23 194.84 176.18 220.73 223.22 215.49"/><polyline id="_Path_32" data-name="&lt;Path&gt;" class="cls-5" points="245.75 151.26 198.23 194.84 222.15 139.13"/><line id="_Path_33" data-name="&lt;Path&gt;" class="cls-5" x1="203.83" y1="141.59" x2="193.15" y2="164.2"/><line id="_Path_34" data-name="&lt;Path&gt;" class="cls-5" x1="204.94" y1="105.05" x2="176.18" y2="61.02"/><circle id="_Path_35" data-name="&lt;Path&gt;" class="cls-6" cx="223.37" cy="49.97" r="1.88"/><circle id="_Path_36" data-name="&lt;Path&gt;" class="cls-6" cx="176.18" cy="41.8" r="1.88"/><circle id="_Path_37" data-name="&lt;Path&gt;" class="cls-6" cx="176.18" cy="135.72" r="1.88"/><circle id="_Path_38" data-name="&lt;Path&gt;" class="cls-6" cx="236.72" cy="76.04" r="1.88"/><circle id="_Path_39" data-name="&lt;Path&gt;" class="cls-6" cx="204.94" cy="105.05" r="1.88"/><circle id="_Path_40" data-name="&lt;Path&gt;" class="cls-6" cx="220.27" cy="119.3" r="1.88"/><circle id="_Path_41" data-name="&lt;Path&gt;" class="cls-6" cx="245.75" cy="129.46" r="1.88"/><circle id="_Path_42" data-name="&lt;Path&gt;" class="cls-6" cx="245.75" cy="151.68" r="1.88"/><circle id="_Path_43" data-name="&lt;Path&gt;" class="cls-6" cx="222.15" cy="139.13" r="1.88"/><circle id="_Path_44" data-name="&lt;Path&gt;" class="cls-6" cx="203.83" cy="141.59" r="1.88"/><circle id="_Path_45" data-name="&lt;Path&gt;" class="cls-6" cx="194.42" cy="122.15" r="1.88"/><circle id="_Path_46" data-name="&lt;Path&gt;" class="cls-6" cx="193.15" cy="164.2" r="1.88"/><circle id="_Path_47" data-name="&lt;Path&gt;" class="cls-6" cx="198.49" cy="194.84" r="1.88"/><circle id="_Path_48" data-name="&lt;Path&gt;" class="cls-6" cx="186.08" cy="220.73" r="1.88"/><circle id="_Path_49" data-name="&lt;Path&gt;" class="cls-6" cx="223.21" cy="215.49" r="1.88"/><circle id="_Path_50" data-name="&lt;Path&gt;" class="cls-6" cx="243.22" cy="175.76" r="1.88"/><line id="_Path_51" data-name="&lt;Path&gt;" class="cls-5" x1="159.21" y1="164.2" x2="193.15" y2="164.2"/></g></g></g></g></g></g></svg>