<svg xmlns="http://www.w3.org/2000/svg" viewBox="0 0 352.35 282.07"><defs><style>.cls-1{isolation:isolate;}.cls-2{fill:#80d1de;}.cls-3{opacity:0.1;mix-blend-mode:screen;}.cls-4{fill:#3d6ab3;}.cls-5{fill:none;stroke:#8fd6e9;stroke-linecap:round;stroke-linejoin:round;}</style></defs><g class="cls-1"><g id="Layer_2" data-name="Layer 2"><g id="OBJECTS"><path class="cls-2" d="M340.08,269.11H12.27V13H340.08ZM14,267.29H338.35V14.78H14Z"/><g class="cls-3"><rect class="cls-4" x="18.31" y="19.34" width="315.73" height="243.4"/><path class="cls-2" d="M334.47,263.19H17.88V18.88H334.47Zm-315.73-.91H333.61V19.79H18.75Z"/></g><polygon class="cls-2" points="10.07 282.07 0 282.07 0 271.44 1.73 271.44 1.73 280.25 10.07 280.25 10.07 282.07"/><polygon class="cls-2" points="1.73 10.63 0 10.63 0 0 10.07 0 10.07 1.82 1.73 1.82 1.73 10.63"/><polygon class="cls-2" points="352.35 282.07 342.28 282.07 342.28 280.25 350.63 280.25 350.63 271.44 352.35 271.44 352.35 282.07"/><polygon class="cls-2" points="352.35 10.63 350.63 10.63 350.63 1.82 342.28 1.82 342.28 0 352.35 0 352.35 10.63"/><path class="cls-5" d="M219.61,216c-10.33,3.44-19.14-11.1-22.58-18.37-1.91-4.59-18.18-33.15-25.83-25.11-7.37,7.75,20.38,49.51,33.77,50.27"/><path class="cls-5" d="M247.55,168.21c-27.17,1.15-30.42-28-52.62-47.15-30.92-26.65-58.74-10.64-70.22,5.05C115.43,138.79,114,153.28,114,168.59c0,10.33,2.3,18.75,5.74,28.32,2.3,7.27,7.27,15.31,5,23"/><path class="cls-5" d="M214.64,68.32c-30.23-29.85-60.08-29.47-70-25.64"/><path class="cls-5" d="M108.63,100.85C124.33,71,171.9,64.89,197,88.22c14.49,13.46,26.79,27.94,36.74,35.59"/><path class="cls-5" d="M181.81,240.92c-20.17-21.35-33.38-36.16-37.2-57.79-4.6-26,4.78-49.56,35-40.37,15.1,4.59,24.59,18.66,29.95,31.29,4.21,10,13.11,24.78,25.73,25.54"/><path class="cls-5" d="M127.77,53c25.07-8.8,45.92-4.21,54-.38,14.54,6.51,28.84,19.76,38.27,32.53"/><path class="cls-5" d="M122,63.35c24.49-8.75,48.22-9.95,67-.38,18.37,9.95,24.68,27.36,42.86,41.33"/><path class="cls-5" d="M114.38,79C137,62.2,162.7,63.58,177.9,68.32c24.2,7.56,32.24,27.94,54.73,44.77"/><path class="cls-5" d="M107.39,113.09c7-11.09,18.53-26.81,46.21-30.9,23.35-3.44,39.9,12.34,48.79,21.24,11.48,11.48,21.81,22.41,35.88,30.44"/><path class="cls-5" d="M105.38,126.68c16.65-27.8,39.9-35.32,49.94-35.32,18.94-.29,27.27,2,51.37,24.7,10.79,10.15,16.65,19.8,30.42,26.69"/><path class="cls-5" d="M104.81,168.88c0-19.8,6.39-35.23,14.64-47.82,11.48-17.51,37.6-22.45,45.35-22.16,15.21.29,28.36,11.09,38.46,22.16,13.06,14.31,21.24,27.44,35,33.76"/><path class="cls-5" d="M243.15,178.92c-9.37.29-15.79-5.45-18.66-8.32-3.44-3.16-6-7.46-8.9-11.19-6.32-8.9-14.35-21-21.81-29-13.78-14.64-35.88-20.53-54-9.34-17.51,10.62-21.53,37.77-18.37,55.86a117.61,117.61,0,0,0,8,27.84c6.88,16.36,18.66,34.25,18.66,34.25"/><path class="cls-5" d="M159.91,240.92c-1.72-5.17-7.46-8.61-10-13.2-2.3-3.45-16.46-21.75-20.59-45-4-22.27-2.37-39.67,13.42-52.59,10-8.32,34.79-5.11,44.77,3.45,8.95,7.66,17.5,17.52,28.41,37.6,8.9,16.36,19.42,18.69,19.42,18.69"/><path class="cls-5" d="M170.53,241.2c-6.31-8.32-28.7-29-33.58-61.13-1.48-9.72-.18-25.32,4.3-33.87,10.17-19.41,34.2-14.06,48.43-5.48"/><path class="cls-5" d="M188.33,236.61c-4.59-5.45-9.47-12.05-13.78-17.79-5.45-7.17-11.2-12.63-14.64-21-5.45-13.49-13.35-32.59-1.43-44.2,11.19-10.91,33.58,3.16,40.47,15.79,4.3,8,7.18,16.93,12.05,24.68,3.44,5.17,8.9,14.35,15.79,14.06"/><path class="cls-5" d="M197.54,229.15c-15.5-9.76-37-38.51-37-56.59,0-7.46,6.6-15.45,18.37-10.29,7.66,3.36,12.63,10.62,16.07,16.65,3.73,6.6,7.46,13.49,11.19,20.09,2.58,4.31,6,12.92,12.05,12.34"/><path class="cls-5" d="M209.85,220c-16.83-4.2-37.22-39.89-32.91-40.18,2.59,0,9.6,11.35,10.81,13.49a73.23,73.23,0,0,0,13.49,18.08"/></g></g></g></svg>