<svg id="Layer_1" data-name="Layer 1" xmlns="http://www.w3.org/2000/svg" xmlns:xlink="http://www.w3.org/1999/xlink" viewBox="0 0 739.73 719.25"><defs><style>.cls-1{fill:none;}.cls-2{clip-path:url(#clip-path);}.cls-3{fill:url(#Degradado_sin_nombre_46828);}.cls-4,.cls-6,.cls-7{fill:#fff;}.cls-4,.cls-7{stroke:#fff;stroke-miterlimit:10;stroke-width:0.5px;}.cls-5,.cls-7{opacity:0.4;}.cls-8{fill:url(#Degradado_sin_nombre_46828-2);}</style><clipPath id="clip-path" transform="translate(-170.14 -123.97)"><path class="cls-1" d="M849.93,655.81V311.39a15.21,15.21,0,0,0-7.6-13.17L544,126a15.21,15.21,0,0,0-15.21,0L230.56,298.22a15.21,15.21,0,0,0-7.6,13.17V655.81a15.21,15.21,0,0,0,7.6,13.17L528.84,841.19a15.21,15.21,0,0,0,15.21,0L842.32,669A15.21,15.21,0,0,0,849.93,655.81Z"/></clipPath><linearGradient id="Degradado_sin_nombre_46828" x1="1038.55" y1="483.6" x2="86.01" y2="483.6" gradientUnits="userSpaceOnUse"><stop offset="0" stop-color="#895aa5"/><stop offset="0.11" stop-color="#744d98"/><stop offset="0.33" stop-color="#3d2c78"/><stop offset="0.34" stop-color="#3a2a76"/><stop offset="0.46" stop-color="#322669"/><stop offset="0.87" stop-color="#1a1b41"/><stop offset="1" stop-color="#1a1b41"/></linearGradient><linearGradient id="Degradado_sin_nombre_46828-2" x1="612.39" y1="453.63" x2="631.96" y2="485.8" xlink:href="#Degradado_sin_nombre_46828"/></defs><g class="cls-2"><path class="cls-3" d="M849.93,655.81V311.39a15.21,15.21,0,0,0-7.6-13.17L544,126a15.21,15.21,0,0,0-15.21,0L230.56,298.22a15.21,15.21,0,0,0-7.6,13.17V655.81a15.21,15.21,0,0,0,7.6,13.17L528.84,841.19a15.21,15.21,0,0,0,15.21,0L842.32,669A15.21,15.21,0,0,0,849.93,655.81Z" transform="translate(-170.14 -123.97)"/><rect class="cls-4" x="279.63" y="234.82" width="270.11" height="8.95" rx="3.4" ry="3.4" transform="translate(659.23 354.62) rotate(180)"/><rect class="cls-4" x="248.94" y="273.33" width="380.63" height="8.95" rx="3.4" ry="3.4" transform="translate(708.36 431.65) rotate(-180)"/><rect class="cls-4" x="209.24" y="234.82" width="380.63" height="8.95" rx="3.4" ry="3.4" transform="translate(628.97 354.62) rotate(-180)"/><rect class="cls-4" x="170.39" y="195.97" width="380.63" height="8.95" rx="3.4" ry="3.4" transform="translate(551.26 276.92) rotate(-180)"/><g class="cls-5"><rect class="cls-4" x="248.94" y="275.99" width="380.63" height="8.95" rx="3.4" ry="3.4" transform="translate(708.36 436.96) rotate(-180)"/><rect class="cls-4" x="209.24" y="237.48" width="380.63" height="8.95" rx="3.4" ry="3.4" transform="translate(628.97 359.93) rotate(-180)"/><rect class="cls-4" x="170.39" y="198.62" width="380.63" height="8.95" rx="3.4" ry="3.4" transform="translate(551.26 282.23) rotate(-180)"/></g><rect class="cls-4" x="285.04" y="577.95" width="376.69" height="8.93" rx="3.39" ry="3.39"/><rect class="cls-4" x="324.33" y="616.34" width="376.69" height="8.93" rx="3.39" ry="3.39"/><rect class="cls-4" x="362.78" y="655.07" width="376.69" height="8.93" rx="3.39" ry="3.39"/><g class="cls-5"><rect class="cls-4" x="285.04" y="575.16" width="376.69" height="8.93" rx="3.39" ry="3.39"/><rect class="cls-4" x="324.33" y="613.55" width="376.69" height="8.93" rx="3.39" ry="3.39"/><rect class="cls-4" x="362.78" y="652.28" width="376.69" height="8.93" rx="3.39" ry="3.39"/></g><g id="STARS"><path class="cls-6" d="M709.58,273.1a1.5,1.5,0,0,0,0-3,1.5,1.5,0,0,0,0,3Z" transform="translate(-170.14 -123.97)"/><path class="cls-6" d="M822.08,331.6a1.5,1.5,0,0,0,0-3,1.5,1.5,0,0,0,0,3Z" transform="translate(-170.14 -123.97)"/><path class="cls-6" d="M840.08,607.59a1.5,1.5,0,0,0,0-3,1.5,1.5,0,0,0,0,3Z" transform="translate(-170.14 -123.97)"/><path class="cls-6" d="M582.09,639.09a1.5,1.5,0,0,0,0-3,1.5,1.5,0,0,0,0,3Z" transform="translate(-170.14 -123.97)"/><path class="cls-6" d="M754.58,388.6a1.5,1.5,0,0,0,0-3,1.5,1.5,0,0,0,0,3Z" transform="translate(-170.14 -123.97)"/><path class="cls-6" d="M709.58,630.09a1.5,1.5,0,0,0,0-3,1.5,1.5,0,0,0,0,3Z" transform="translate(-170.14 -123.97)"/><path class="cls-6" d="M828.08,495.09a1.5,1.5,0,0,0,0-3,1.5,1.5,0,0,0,0,3Z" transform="translate(-170.14 -123.97)"/><path class="cls-6" d="M469.59,325.6v1.5a1.5,1.5,0,0,0,3,0v-1.5a1.5,1.5,0,0,0-3,0Z" transform="translate(-170.14 -123.97)"/><path class="cls-6" d="M648.09,361.6a1.5,1.5,0,0,0,0-3,1.5,1.5,0,0,0,0,3Z" transform="translate(-170.14 -123.97)"/><path class="cls-6" d="M603.09,214.61a1.5,1.5,0,0,0,0-3,1.5,1.5,0,0,0,0,3Z" transform="translate(-170.14 -123.97)"/><path class="cls-6" d="M553.59,148.61a1.5,1.5,0,0,0,0-3,1.5,1.5,0,0,0,0,3Z" transform="translate(-170.14 -123.97)"/><path class="cls-6" d="M480.09,649.59a1.5,1.5,0,0,0,0-3,1.5,1.5,0,0,0,0,3Z" transform="translate(-170.14 -123.97)"/><path class="cls-6" d="M457.59,604.59a1.5,1.5,0,0,0,0-3,1.5,1.5,0,0,0,0,3Z" transform="translate(-170.14 -123.97)"/><path class="cls-6" d="M378.1,676.58a1.5,1.5,0,0,0,0-3,1.5,1.5,0,0,0,0,3Z" transform="translate(-170.14 -123.97)"/><path class="cls-6" d="M483.09,754.58a1.5,1.5,0,0,0,0-3,1.5,1.5,0,0,0,0,3Z" transform="translate(-170.14 -123.97)"/><path class="cls-6" d="M547.59,817.58a1.5,1.5,0,0,0,0-3,1.5,1.5,0,0,0,0,3Z" transform="translate(-170.14 -123.97)"/><path class="cls-6" d="M772.58,676.58a1.5,1.5,0,0,0,0-3,1.5,1.5,0,0,0,0,3Z" transform="translate(-170.14 -123.97)"/><path class="cls-6" d="M562.59,327.1a1.5,1.5,0,0,0,0-3,1.5,1.5,0,0,0,0,3Z" transform="translate(-170.14 -123.97)"/><path class="cls-6" d="M741.08,559.59a1.5,1.5,0,0,0,0-3,1.5,1.5,0,0,0,0,3Z" transform="translate(-170.14 -123.97)"/><path class="cls-6" d="M843.08,391.6a1.5,1.5,0,0,0,0-3,1.5,1.5,0,0,0,0,3Z" transform="translate(-170.14 -123.97)"/><path class="cls-6" d="M390.1,262.6a1.5,1.5,0,0,0,0-3,1.5,1.5,0,0,0,0,3Z" transform="translate(-170.14 -123.97)"/><path class="cls-6" d="M483.09,219.11a1.5,1.5,0,0,0,0-3,1.5,1.5,0,0,0,0,3Z" transform="translate(-170.14 -123.97)"/><path class="cls-6" d="M624.09,769.58a1.5,1.5,0,0,0,0-3,1.5,1.5,0,0,0,0,3Z" transform="translate(-170.14 -123.97)"/><path class="cls-6" d="M576.09,724.58a1.5,1.5,0,0,0,0-3,1.5,1.5,0,0,0,0,3Z" transform="translate(-170.14 -123.97)"/><path class="cls-6" d="M546.09,259.6a1.5,1.5,0,0,0,0-3,1.5,1.5,0,0,0,0,3Z" transform="translate(-170.14 -123.97)"/><path class="cls-6" d="M711.08,723.08a1.5,1.5,0,0,0,0-3,1.5,1.5,0,0,0,0,3Z" transform="translate(-170.14 -123.97)"/><path class="cls-6" d="M369.1,310.6a1.5,1.5,0,0,0,0-3,1.5,1.5,0,0,0,0,3Z" transform="translate(-170.14 -123.97)"/><path class="cls-6" d="M522.09,375.1a1.5,1.5,0,0,0,0-3,1.5,1.5,0,0,0,0,3Z" transform="translate(-170.14 -123.97)"/><path class="cls-6" d="M558.09,561.09a1.5,1.5,0,0,0,0-3,1.5,1.5,0,0,0,0,3Z" transform="translate(-170.14 -123.97)"/><path class="cls-6" d="M649.58,561.09a1.5,1.5,0,0,0,0-3,1.5,1.5,0,0,0,0,3Z" transform="translate(-170.14 -123.97)"/></g><path class="cls-7" d="M637.67,485.93s7.81-34.09-43-52.65c0,0-27-8-34.86-22.57,0,0-1.73,17.11,17.69,33.84,0,0-59.41-4.81-66.33-49.6,0,0-7.69,4.23-5.77,24.42,0,0-273.87-80.14-294.38-153.45v331s16.65-38.55,74.48-59c0,0-67.32,32.31-74.48,115.65l.62,45.54C273,646.43,364.62,582.86,487.55,543.52a795,795,0,0,1,100.67-24.86q12.56-1.61,25.88-2.86,9.17-.85,18-1.46a37,37,0,0,1,11,2.22,38,38,0,0,1,16,11.45S675.77,508.3,637.67,485.93ZM616,475.21a20.2,20.2,0,0,1-6.8-12.53c9.73-.48,19.62,8.25,19.37,17.25A20.12,20.12,0,0,1,616,475.21Z" transform="translate(-170.14 -123.97)"/><path class="cls-4" d="M637.67,479.45s7.81-34.09-43-52.65c0,0-27-8-34.86-22.57,0,0-1.73,17.11,17.69,33.84,0,0-59.41-4.81-66.33-49.6,0,0-7.69,4.23-5.77,24.42,0,0-273.87-80.14-294.38-153.45v331A142.84,142.84,0,0,1,226.6,568.6c30.46-35.19,70.84-46.71,91.81-50.89-13.25,6.55-95,48.42-107.36,129.4a140.16,140.16,0,0,0,.62,45.54C273,640,364.62,576.38,487.55,537a795,795,0,0,1,100.67-24.86q12.56-1.61,25.88-2.86,9.17-.85,18-1.46a37,37,0,0,1,11,2.22,38,38,0,0,1,16,11.45S675.77,501.83,637.67,479.45ZM616,468.74a20.2,20.2,0,0,1-6.8-12.53c9.73-.48,19.62,8.25,19.37,17.25A20.12,20.12,0,0,1,616,468.74Z" transform="translate(-170.14 -123.97)"/><path class="cls-8" d="M609.2,456s16.9-.11,19.37,17.25C628.57,473.24,612.13,472.4,609.2,456Z" transform="translate(-170.14 -123.97)"/><g class="cls-5"><path class="cls-4" d="M637.67,485.93s7.81-34.09-43-52.65c0,0-27-8-34.86-22.57,0,0-1.73,17.11,17.69,33.84,0,0-59.41-4.81-66.33-49.6,0,0-7.69,4.23-5.77,24.42,0,0-273.87-80.14-294.38-153.45v331a142.84,142.84,0,0,1,15.55-21.83c30.46-35.19,70.84-46.71,91.81-50.89-13.25,6.55-95,48.42-107.36,129.4a140.16,140.16,0,0,0,.62,45.54C273,646.43,364.62,582.86,487.55,543.52a795,795,0,0,1,100.67-24.86q12.56-1.61,25.88-2.86,9.17-.85,18-1.46a37,37,0,0,1,11,2.22,38,38,0,0,1,16,11.45S675.77,508.3,637.67,485.93ZM616,475.21a20.2,20.2,0,0,1-6.8-12.53c9.73-.48,19.62,8.25,19.37,17.25A20.12,20.12,0,0,1,616,475.21Z" transform="translate(-170.14 -123.97)"/><path class="cls-4" d="M609.2,462.46s16.9-.11,19.37,17.25C628.57,479.71,612.13,478.88,609.2,462.46Z" transform="translate(-170.14 -123.97)"/></g><path class="cls-4" d="M637.67,479.45s7.81-34.09-43-52.65c0,0-27-8-34.86-22.57,0,0-1.73,17.11,17.69,33.84,0,0-59.41-4.81-66.33-49.6,0,0-7.69,4.23-5.77,24.42,0,0-273.87-80.14-294.38-153.45v331A142.84,142.84,0,0,1,226.6,568.6c30.46-35.19,70.84-46.71,91.81-50.89-13.25,6.55-95,48.42-107.36,129.4a140.16,140.16,0,0,0,.62,45.54C273,640,364.62,576.38,487.55,537a795,795,0,0,1,100.67-24.86q12.56-1.61,25.88-2.86,9.17-.85,18-1.46a37,37,0,0,1,11,2.22,38,38,0,0,1,16,11.45S675.77,501.83,637.67,479.45ZM616,468.74a20.2,20.2,0,0,1-6.8-12.53c9.73-.48,19.62,8.25,19.37,17.25A20.12,20.12,0,0,1,616,468.74Z" transform="translate(-170.14 -123.97)"/><path class="cls-8" d="M609.2,456s16.9-.11,19.37,17.25C628.57,473.24,612.13,472.4,609.2,456Z" transform="translate(-170.14 -123.97)"/><path class="cls-6" d="M682.53,424.79a1.5,1.5,0,0,0,0-3,1.5,1.5,0,0,0,0,3Z" transform="translate(-170.14 -123.97)"/><path class="cls-6" d="M729.5,493.19a1.5,1.5,0,0,0,0-3,1.5,1.5,0,0,0,0,3Z" transform="translate(-170.14 -123.97)"/><path class="cls-6" d="M307.85,661.64a1.5,1.5,0,0,0,0-3,1.5,1.5,0,0,0,0,3Z" transform="translate(-170.14 -123.97)"/><path class="cls-6" d="M390.55,604.47a1.5,1.5,0,0,0,0-3,1.5,1.5,0,0,0,0,3Z" transform="translate(-170.14 -123.97)"/><path class="cls-6" d="M412,362.51a1.5,1.5,0,0,0,0-3,1.5,1.5,0,0,0,0,3Z" transform="translate(-170.14 -123.97)"/></g></svg>