<svg xmlns="http://www.w3.org/2000/svg" viewBox="0 0 94.5 94.5"><defs><style>.cls-1{fill:#fff;}</style></defs><g id="Layer_2" data-name="Layer 2"><g id="Objects"><path class="cls-1" d="M51,10.66a34.08,34.08,0,0,0-11.15,1A30,30,0,0,0,25.18,19.8c-6.49,6.84-8.28,14.65-5,23.14,3.16,8.31,9.85,13.67,18.82,16.8,1.33.46,2.72.8,4.06,1.19L41.85,73.82c2,0,3.92,0,5.82,0,.15,0,.41-.28.43-.45.2-2,.36-4.1.54-6.15.16-1.83.33-3.67.5-5.57H63.51c-.37-1.72-.77-3.34-1-5-.11-.62-.38-.75-1-.74-3.56,0-7.12,0-10.69,0H49.64l1.53-16.68c1.62.54,3.11.95,4.51,1.51,6.45,2.57,11.21,6.66,13.58,12.76a15.12,15.12,0,0,1-1,13.63c-3.76,6.47-10.05,9.72-17.83,10.78a29.57,29.57,0,0,1-14.28-1.59c-5.53-2-10-5.25-12.84-10-.86-1.43-1.46-3-2.2-4.5H14.8c0,.09-.06.15-.05.19A25.44,25.44,0,0,0,25.19,77.17c7.71,5.55,16.55,7.64,26.3,6.45A31,31,0,0,0,68.93,76C75,70.5,77.6,63.9,76.53,56.19c-.8-5.7-3.7-10.5-8.13-14.53a33.5,33.5,0,0,0-16-8c-.59-.12-.75-.34-.67-.86.12-.75.16-1.5.23-2.25.21-2.15.43-4.3.62-6.46.1-1.08.14-2.16.21-3.27H46.66l-1.1,12H31.78L33,38.59H45L43.56,55a26.61,26.61,0,0,1-13-7.2c-3.95-4.11-6-8.81-5.39-14.35s3.59-9.69,8.45-12.82c6.44-4.14,13.64-5.19,21.26-3.64,7.87,1.6,14,5.46,17.73,12,.1.18.35.41.53.42,2.16,0,4.31,0,6.6,0-.32-.72-.54-1.34-.85-1.92a29.61,29.61,0,0,0-1.76-3C71.06,15.87,62.13,11.51,51,10.66Z"/><path class="cls-1" d="M47.25,94.5A47.26,47.26,0,0,1,28.86,3.71,47.26,47.26,0,0,1,65.64,90.78,47,47,0,0,1,47.25,94.5Zm0-89.76A42.51,42.51,0,1,0,89.76,47.25,42.56,42.56,0,0,0,47.25,4.74Z"/></g></g></svg>