<svg id="Icons" xmlns="http://www.w3.org/2000/svg" viewBox="0 0 84.93 83.58"><defs><style>.cls-1{fill:#7fd1e0;}.cls-2{fill:#3c6ab3;}</style></defs><path class="cls-1" d="M759,54.32l.15-.45a3.18,3.18,0,0,1,3-2.23h17.77a4.34,4.34,0,0,1,4.44,4.41c0,2.35,0,4.71,0,7.06a1.16,1.16,0,0,1-.85,1.17,1.13,1.13,0,0,1-1.32-.51,1.89,1.89,0,0,1-.2-.85c0-2.23,0-4.46,0-6.69A2,2,0,0,0,779.8,54h-9.74v.06c.87.29,1.75.57,2.61.88a3.12,3.12,0,0,1,2.15,2.44,4.37,4.37,0,0,1,.05.89q0,11.88,0,23.75v.51l.38,0h4.65A2,2,0,0,0,782,80.46c0-2.29,0-4.58,0-6.88a1.2,1.2,0,0,1,1.5-1.27,1.17,1.17,0,0,1,.87,1c0,.1,0,.2,0,.3,0,2.28,0,4.56,0,6.84A4.35,4.35,0,0,1,779.89,85h-5c0,.45,0,.86,0,1.28a3.17,3.17,0,0,1-2.64,3.43s0,0-.06,0h-1l-.66-.21-9.24-3.08A3.16,3.16,0,0,1,759.07,84a.63.63,0,0,0-.06-.13Zm13.48,17.94q0-7,0-14.05c0-.64-.15-.86-.73-1l-9.15-3c-.75-.25-1.22.1-1.22.88q0,14.11,0,28.21a.87.87,0,0,0,.71,1l2.64.88,6.48,2.16c.82.27,1.26-.05,1.27-.92,0-.1,0-.2,0-.3Q772.49,79.13,772.49,72.26Z" transform="translate(-731.83 -29.42)"/><path class="cls-1" d="M797.09,68.67c-.25.29-.49.61-.77.88L790.85,75a1.19,1.19,0,0,1-2.06-.48,1.2,1.2,0,0,1,.38-1.21l3.52-3.52.3-.32H780.94a1.19,1.19,0,0,1-1.26-1.5,1.18,1.18,0,0,1,1-.87H793l-.3-.32-3.57-3.58a1.17,1.17,0,0,1-.26-1.37,1.12,1.12,0,0,1,1.18-.67,1.48,1.48,0,0,1,.75.36q3,2.95,6,5.93a3.66,3.66,0,0,1,.34.47Z" transform="translate(-731.83 -29.42)"/><path class="cls-1" d="M811.84,60.51a40.56,40.56,0,1,1-18.26-25.1A40.29,40.29,0,0,1,811.84,60.51ZM734.38,79.15A38.86,38.86,0,0,0,752,103.36h0a39.11,39.11,0,1,0-17.61-24.21Z" transform="translate(-731.83 -29.42)"/><path class="cls-1" d="M778,109.71l.41,2.87a43.08,43.08,0,0,1-28.46-5.9l1.51-2.47A40.18,40.18,0,0,0,778,109.71Z" transform="translate(-731.83 -29.42)"/><path class="cls-1" d="M815.51,59.62a44.22,44.22,0,0,1-5.27,33.53l-3.7-2.27a40.07,40.07,0,0,0-13.25-55l2.27-3.7A44.22,44.22,0,0,1,815.51,59.62Z" transform="translate(-731.83 -29.42)"/><path class="cls-2" d="M798,95.64a36.19,36.19,0,0,1-62-25.15h0a36.2,36.2,0,1,1,62,25.15ZM737.51,70.48a34.75,34.75,0,1,0,34.51-35,34.53,34.53,0,0,0-34.51,35Z" transform="translate(-731.83 -29.42)"/><path class="cls-2" d="M807.62,70l-4.34,0A31.06,31.06,0,0,0,772,39.21l0-4.34A35.4,35.4,0,0,1,807.62,70Z" transform="translate(-731.83 -29.42)"/><path class="cls-1" d="M795.9,94.55l-.42.41-1-1.05.41-.39Zm1-1.05-1.05-1,.38-.41,1.07,1Zm-2.56,2.45-.45.38L793,95.21l.43-.36Zm3.93-4L797.19,91l.35-.43,1.14.9Zm-5.53,5.29-.48.36-.85-1.17.44-.33Zm6.81-6.91-1.16-.86.33-.46,1.18.84Zm-8.5,8.12-.5.33-.78-1.22.47-.31Zm9.68-9.82-1.22-.78.3-.48,1.23.76ZM789.33,99.55l-.51.29-.71-1.26.49-.28Zm12.5-12.69-1.26-.71.25-.45,1.3.64Zm-14.32,13.68-.53.26-.63-1.3.51-.25ZM802.79,85l-1.3-.63.25-.52,1.31.62Zm-17.15,16.38-.55.23-.54-1.34.52-.22Zm18-18.26-1.34-.56.21-.53,1.35.54Zm-19.92,19-.56.19-.47-1.37.54-.19Zm20.65-21L803,80.74l.18-.54,1.38.45Zm-22.62,21.6-.57.16-.38-1.4.55-.15ZM805,79.23l-1.39-.39.14-.54,1.4.36Zm-25.23,24.09-.58.12-.29-1.42.56-.12Zm25.72-26.09-1.42-.3.11-.55,1.42.28ZM777.7,103.71l-.59.09-.2-1.43.56-.09Zm28.11-28.52L804.38,75l.08-.56,1.44.18ZM775.65,104l-.58.05-.12-1.44.57-.05Zm30.41-30.84L804.61,73l0-.57,1.44.1Zm-32.47,31-.59,0,0-1.45.57,0Zm32.58-33-1.45,0v-.56h1.45Zm-34.65,33.06-.59,0,.06-1.45.56,0ZM806.15,69l-1.45,0,0-.56,1.45-.08ZM806,66.95l-1.44.14-.06-.56,1.44-.17ZM769.45,104l-.59-.05.14-1.44.56.05Zm-2.05-.23-.58-.09.23-1.43.56.08Zm38.36-38.91-1.43.22-.09-.56,1.42-.26Zm-40.39,38.55-.57-.12.31-1.41.56.12Zm40-40.58-1.41.31-.13-.55,1.41-.35Zm-42,40.1-.57-.16.41-1.39.54.15Zm41.5-42.11-1.39.4-.16-.54,1.38-.42Zm-43.48,41.51-.56-.19.49-1.36.53.19Zm42.85-43.48-1.36.49-.19-.53,1.35-.51Zm-44.79,42.76-.54-.23.57-1.33.52.22Zm44-44.68-1.33.57-.23-.52,1.32-.59ZM757.55,100.8l-.53-.26.65-1.29.51.25Zm45.05-45.72-1.29.65-.26-.5,1.28-.67ZM755.72,99.84l-.51-.29.73-1.25.49.28Zm45.91-46.59-1.25.73-.29-.49,1.24-.75ZM753.95,98.78l-.49-.32.81-1.2.47.31ZM800.54,51.5l-1.21.8-.32-.47L800.2,51ZM752.25,97.61l-.47-.35.88-1.15.45.34Zm47.1-47.8-1.16.87-.34-.45,1.14-.89ZM750.62,96.34l-.45-.38.94-1.1.43.37ZM798,48.2l-1.1.94-.37-.43,1.08-1ZM749.07,95l-.43-.41,1-1,.41.39Zm47.59-48.3-1,1-.4-.4,1-1Zm-48,45.85-1.05,1-.4-.43,1.07-1Zm45.54-46.22-.42-.38,1-1.08.44.4ZM747.34,91l-1.11.93-.37-.46L747,90.6Zm45.36-46-.44-.35.89-1.14.46.37ZM746.12,89.48l-1.17.86-.35-.48,1.18-.84Zm45-45.68-.47-.33.82-1.19.48.34ZM745,87.85l-1.22.79-.32-.5,1.23-.76ZM789.48,42.7,789,42.4l.74-1.24.5.31ZM744,86.16l-1.26.71-.29-.52,1.27-.69Zm43.8-44.46-.5-.26.67-1.29.52.28ZM743,84.4l-1.3.63-.26-.54,1.31-.61Zm43-43.59-.51-.23.59-1.32.54.25ZM742.24,82.6l-1.34.55-.22-.55,1.35-.53ZM784.18,40l-.53-.2.51-1.35.55.21ZM741.54,80.74l-1.37.47-.19-.56,1.38-.45Zm40.79-41.39-.54-.17.43-1.38.56.18ZM741,78.85l-1.4.38-.15-.57,1.4-.36Zm39.47-40-.54-.14.33-1.41.58.14ZM740.49,76.92l-1.42.3-.12-.58,1.42-.27Zm38-38.56-.55-.1.24-1.43.58.11ZM740.14,75l-1.43.21-.08-.59,1.44-.18ZM776.55,38,776,38l.17-1.44.58.07Zm-2-.2-.56,0,.08-1.45.59,0ZM739.91,73l-1.44.12,0-.59,1.44-.1ZM772.6,37.77H772V36.32h.59ZM739.81,71l-1.45,0v-.59l.72-.11.72.08Zm30.82-33.22-.57,0L770,36.4l.59,0ZM739.82,69l-1.45-.06,0-.59,1.45.08Zm28.83-31-.57.07-.18-1.44.58-.07ZM740,67l-1.44-.14.06-.59,1.44.17Zm26.73-28.73-.56.1-.27-1.42.58-.11ZM740.21,65l-1.43-.24.1-.58,1.43.25Zm24.53-26.38-.55.13-.36-1.4.58-.14ZM740.59,63.08l-1.41-.33.13-.57,1.41.34Zm22.25-23.92-.55.17-.44-1.38.56-.18Zm-21.75,22-1.39-.41.17-.56,1.38.42ZM761,39.79l-.53.2-.53-1.35.55-.21ZM741.69,59.28l-1.36-.49.2-.55,1.35.51Zm17.43-18.74-.52.23L758,39.46l.54-.24Zm-16.7,16.9-1.33-.57.24-.54,1.32.6Zm14.92-16-.51.27-.68-1.28.52-.27ZM743.25,55.65,742,55l.27-.52,1.28.68Zm12.36-13.29-.48.29-.77-1.22.51-.31ZM744.19,53.91l-1.25-.74.3-.51,1.24.76Zm9.75-10.48-.46.32-.84-1.18.49-.34Zm-8.69,8.8-1.21-.8.33-.49,1.19.83Zm7.09-7.63-.44.35L751,43.82l.47-.37Zm-5.94,6-1.16-.87.36-.47,1.14.9Zm4.42-4.75-.42.37-1-1.07.44-.4Zm-3.17,3.21-1.1-.94.39-.45,1.08,1Zm1.73-1.86-.23.23-.16.17-1-1,.19-.19.24-.24Z" transform="translate(-731.83 -29.42)"/></svg>