<svg id="Icons" xmlns="http://www.w3.org/2000/svg" viewBox="0 0 84.93 83.58"><defs><style>.cls-1{fill:#7fd1e0;}.cls-2{fill:#3c6ab3;}</style></defs><title>Rules</title><path class="cls-1" d="M693.76,70.16q0,6.26,0,12.51a3.09,3.09,0,0,1-3.36,3.38H667.56a3,3,0,0,1-3.14-2.57,2.4,2.4,0,0,1,0-.42c0-1,0-2.07,0-3.1a1.21,1.21,0,0,1,1.25-1.25h21.73c1,0,1.5.45,1.5,1.48q0,1.24,0,2.49c0,1.32.72,2.15,1.85,2.15a1.94,1.94,0,0,0,1.84-2.14c0-8,0-16,0-24.07,0-.41,0-.82,0-1.22a1.84,1.84,0,0,0-2-2h-18.1a1.84,1.84,0,0,0-2,2q0,9.16,0,18.33c0,.1,0,.2,0,.31,0,.51-.22.8-.61.8s-.61-.28-.61-.8q0-9.35,0-18.71a3,3,0,0,1,3.15-3.14h18.17a3.05,3.05,0,0,1,3.16,3.16Q693.77,63.77,693.76,70.16Zm-28.14,9.79c0,.08,0,.12,0,.16,0,.92,0,1.84,0,2.75a1.84,1.84,0,0,0,2,2h20.32l.22,0a11,11,0,0,1-.43-1.7c-.07-.78,0-1.58,0-2.37,0-.26,0-.53,0-.8Z" transform="translate(-640.07 -28.5)"/><path class="cls-1" d="M698.66,65.25q0,6.37,0,12.74A3,3,0,0,1,696,81.12a2.21,2.21,0,0,1-.38,0,.61.61,0,1,1,0-1.22,1.84,1.84,0,0,0,1.82-2q0-12.7,0-25.4a1.85,1.85,0,0,0-2-2h-18a1.84,1.84,0,0,0-2,1.83.62.62,0,0,1-.65.61.62.62,0,0,1-.57-.68,3.07,3.07,0,0,1,2.87-3h18.28a3.08,3.08,0,0,1,3.33,3.34Q698.66,59,698.66,65.25Z" transform="translate(-640.07 -28.5)"/><path class="cls-1" d="M681.21,65.24h-6.47a.61.61,0,0,1,0-1.21h12.62a2,2,0,0,1,.34,0,.61.61,0,0,1,0,1.2,1.81,1.81,0,0,1-.34,0Z" transform="translate(-640.07 -28.5)"/><path class="cls-1" d="M681.21,68.91h-6.47a.61.61,0,0,1,0-1.21h12.62a2,2,0,0,1,.34,0,.61.61,0,0,1,0,1.2,1.81,1.81,0,0,1-.34,0Z" transform="translate(-640.07 -28.5)"/><path class="cls-1" d="M681.21,71.36h6.16a1.86,1.86,0,0,1,.34,0,.61.61,0,0,1,0,1.2,2,2,0,0,1-.34,0H675a1.61,1.61,0,0,1-.38,0,.61.61,0,0,1,0-1.19,1.72,1.72,0,0,1,.38,0Z" transform="translate(-640.07 -28.5)"/><path class="cls-1" d="M680,75h5a1.56,1.56,0,0,1,.34,0,.61.61,0,0,1,0,1.19,1.63,1.63,0,0,1-.38,0H674.75a.61.61,0,0,1,0-1.21,3.17,3.17,0,0,1,.34,0Z" transform="translate(-640.07 -28.5)"/><path class="cls-1" d="M682.75,60.34h4.74c.48,0,.76.24.76.62s-.29.6-.77.61h-9.56a.61.61,0,1,1,0-1.22Z" transform="translate(-640.07 -28.5)"/><path class="cls-1" d="M682.68,109.24a40.37,40.37,0,1,1,28.55-11.82A40.11,40.11,0,0,1,682.68,109.24Zm0-79.3a38.68,38.68,0,0,0-27.53,11.4h0a38.93,38.93,0,1,0,27.53-11.4Z" transform="translate(-640.07 -28.5)"/><path class="cls-1" d="M642.93,65l-2.87-.28A42.88,42.88,0,0,1,652.41,38.6l2,2A40,40,0,0,0,642.93,65Z" transform="translate(-640.07 -28.5)"/><path class="cls-1" d="M682.68,113a44,44,0,0,1-31.22-12.91L654.51,97a39.88,39.88,0,0,0,56.33,0l3.06,3.06A44,44,0,0,1,682.68,113Z" transform="translate(-640.07 -28.5)"/><path class="cls-2" d="M682.68,104.88A36,36,0,0,1,657.2,43.39h0a36,36,0,1,1,25.48,61.49ZM658.22,44.41a34.59,34.59,0,1,0,48.92,0,34.37,34.37,0,0,0-48.92,0Z" transform="translate(-640.07 -28.5)"/><path class="cls-2" d="M707.56,93.76l-3.06-3.06a30.91,30.91,0,0,0,0-43.66L707.56,44A35.24,35.24,0,0,1,707.56,93.76Z" transform="translate(-640.07 -28.5)"/><path class="cls-1" d="M682,102.62l-.59,0,.05-1.44.57,0Zm1.47,0,0-1.44.56,0,.06,1.44Zm-3.53-.11-.59-.05.15-1.43.56.05Zm5.58,0-.12-1.44.55-.05.16,1.43Zm-7.62-.23-.59-.09.23-1.42.55.08Zm9.66,0-.2-1.43.55-.08.23,1.42Zm-11.69-.35-.58-.13.32-1.4.55.12Zm13.72,0-.3-1.41.55-.12.32,1.4Zm-15.73-.47-.57-.16.4-1.38.54.15Zm17.73,0-.38-1.39.49-.14.45,1.37Zm-19.7-.59-.56-.19.49-1.36.53.19Zm21.67,0-.47-1.36.54-.19.48,1.36Zm-23.6-.71-.55-.23.57-1.32.52.22Zm25.52,0-.54-1.34.52-.22L696,99.9ZM668,99.3l-.53-.26.64-1.29.51.25Zm29.29,0L696.7,98l.51-.25.64,1.29Zm-31.12-.94-.51-.29.73-1.24.49.28Zm32.94,0-.7-1.26.49-.28.73,1.24Zm-34.71-1.05L664,97l.8-1.2.47.31Zm36.47,0-.78-1.21.47-.31.8,1.2Zm-38.17-1.16-.47-.35.87-1.15.45.34Zm39.86,0L701.76,95l.45-.33.88,1.15Zm-41.49-1.26-.45-.38.94-1.09.44.37Zm43.11,0-.92-1.11.43-.37.94,1.09Zm-44.65-1.36-.42-.4,1-1,.41.39Zm46.19,0-1-1,.41-.39,1,1ZM658.12,92l-.4-.43,1.07-1,.38.41Zm49.1,0-1-1,.38-.41,1.07,1Zm1.37-1.54-1.1-.93.36-.43L709,90Zm-51.84,0-.37-.45,1.12-.9.36.43Zm-1.27-1.62-.34-.48,1.18-.83.33.45Zm54.38,0L708.71,88l.33-.45,1.18.83Zm-55.55-1.69L654,86.7l1.22-.77.3.48Zm56.72,0-1.21-.78.3-.47,1.23.75Zm-57.79-1.75-.28-.52,1.27-.68.27.49Zm58.85,0-1.26-.71.27-.5,1.27.69ZM652.3,83.61l-.25-.53,1.31-.61.24.51Zm60.76,0-1.3-.63.24-.51,1.31.6Zm-61.6-1.86-.22-.55,1.34-.52.21.52Zm62.44,0-1.33-.55.21-.52,1.34.52ZM650.73,79.8l-.19-.56,1.37-.44.18.53Zm63.89,0-1.36-.46.18-.53,1.37.44Zm-64.5-1.94-.15-.57,1.4-.36.14.54Zm65.1,0-1.39-.38.14-.54,1.4.35Zm-65.59-2-.12-.58,1.42-.27.11.55Zm66.07,0-1.41-.3.11-.55,1.42.27Zm-66.43-2-.08-.58,1.43-.19.08.56Zm66.79,0-1.43-.21.08-.56,1.43.19Zm-67-2,0-.58,1.44-.1,0,.56Zm67.26,0-1.44-.12,0-.56,1.44.1Zm-67.38-2v-.59h1.44v.56Zm67.49,0-1.44,0v-.56h1.44Zm-66-2-1.44-.05,0-.59,1.44.07Zm64.59,0,0-.56,1.44-.08,0,.59Zm-64.46-1.94-1.43-.14.06-.59,1.43.16Zm64.33,0-.06-.56,1.43-.16.06.59Zm-64.08-1.93-1.42-.23.1-.58,1.42.25Zm63.83,0-.09-.56,1.42-.25.1.58Zm-63.46-1.91-1.41-.31.13-.57,1.4.34Zm63.09,0-.13-.55,1.4-.34.13.57Zm-62.61-1.89-1.38-.4.17-.57,1.38.42Zm62.12,0-.16-.54,1.38-.42.17.57Zm-61.52-1.85-1.36-.48.2-.56,1.35.51Zm60.92,0-.19-.53,1.35-.51.2.55Zm-60.2-1.82-1.33-.56.23-.54,1.32.59Zm59.49,0-.22-.52,1.32-.59.23.54Zm-58.66-1.77-1.29-.64.27-.52,1.28.66Zm57.84,0-.26-.5,1.28-.66.27.52Zm-56.9-1.72L653.44,52l.3-.51,1.23.74Zm56,0-.28-.48,1.23-.75.3.51ZM655.73,51l-1.2-.8.33-.49,1.19.82Zm53.89,0-.31-.46,1.18-.83.33.49Zm-52.75-1.6-1.15-.87.36-.47,1.13.89Zm51.62,0-.34-.45,1.14-.89.36.46Zm-1.23-1.53-.37-.42,1.08-1,.39.44Zm-49.15,0L657,46.94l.39-.44,1.08,1Zm47.82-1.46-.4-.4,1-1,.41.42Zm-46.49,0-1-1,.41-.42.58.44.45.57ZM704.51,45l-.42-.38,1-1.07.43.39ZM660.91,45l-1-1.07.44-.39,1,1.08ZM703,43.76l-.45-.36.9-1.13.46.36Zm-40.61-.06-.91-1.12.46-.37.88,1.14Zm39-1.14-.46-.32L701.8,41l.48.34ZM664,42.51l-.83-1.18.48-.33.82,1.19Zm35.84-1-.48-.29.74-1.24.51.31Zm-34.2,0-.75-1.23.5-.3.74,1.24Zm32.5-1-.5-.27.67-1.27.52.28Zm-30.8,0-.68-1.27.51-.27.67,1.28Zm29-.85-.51-.23.58-1.32.54.24Zm-27.27,0-.6-1.31L669,38l.58,1.32Zm25.46-.75-.53-.2.51-1.35.55.21Zm-23.65,0-.53-1.34.55-.21.5,1.35Zm21.8-.63-.54-.17.43-1.37.56.18Zm-19.95,0-.43-1.37.56-.17.41,1.38Zm18.05-.53-.54-.13.33-1.4.57.14Zm-16.16,0-.35-1.4.57-.14.33,1.4Zm14.24-.42-.55-.1.24-1.42.58.11Zm-12.31,0-.27-1.42.58-.11.24,1.42Zm10.36-.3-.56-.07.16-1.43.59.07Zm-8.42,0-.19-1.43.59-.07.16,1.43Zm6.46-.19-.56,0,.07-1.44.59,0Zm-4.5,0-.11-1.44.59,0L681,36.6Zm2.53-.07h-.55l0-1.44h.6Z" transform="translate(-640.07 -28.5)"/></svg>