<svg xmlns="http://www.w3.org/2000/svg" xmlns:xlink="http://www.w3.org/1999/xlink" viewBox="0 0 664.44 157.3"><defs><style>.cls-wave1{isolation:isolate;}.cls-wave2{fill:none;stroke:#97d8e4;stroke-miterlimit:10;}.cls-wave3,.cls-wave4{mix-blend-mode:screen;}.cls-wave3{fill:url(#linear-gradient);}.cls-wave4{fill:url(#linear-gradient-2);}</style><linearGradient id="linear-gradient" x1="414" y1="1651.89" x2="414" y2="1508.71" gradientUnits="userSpaceOnUse"><stop offset="0" stop-color="#009479"/><stop offset="1" stop-color="#7bb3e1" stop-opacity="0.5"/></linearGradient><linearGradient id="linear-gradient-2" x1="432.07" y1="1649.4" x2="432.07" y2="1541.26" xlink:href="#linear-gradient"/></defs><g class="cls-wave1"><g id="Objects"><line class="cls-wave2" y1="156.8" x2="664.44" y2="156.8"/><path class="cls-wave3" d="M717.29,1651.89c-3.86-23.16-23.9-111.31-55.59-101.82-35.58,10.65-53.56,77.4-74.61,89.63-26.59,15.44-41.17-63-72-30.45-12,12.7-22.3,31.09-38.16,31.31-15.34.21-32.59-28.73-40.31-45.46-10.29-23.16-34.73-97.77-73.33-84.91-20.58,6.43-42.45,57.89-50.17,75.9-7.72,15.44-18.44,39-38.21,51.35-35.16,21.91-47.89-52.13-84-52.63-27.23-.38-48.29,26.45-80.14,66.45Z" transform="translate(-81.78 -1508.71)"/><path class="cls-wave4" d="M715.23,1649.4s-17.72-43.54-30.58-43.93c-13.94-.43-25,36.21-39.8,36.17-8.89,0-26.1-18.44-40.52-32.31-14.58-14-24.94-14.89-38.59,3.86-69.3,95.2-78.47-72-128.65-63-36,7.72-34.95,65.18-62,84.48-33.45,23.16-46.1-27.88-55.1-51-5.15-12.86-12.86-33.45-27-39.88-23.16-10.29-33.45,14.15-46.31,28.3-28.3,36-57.89,79.76-97.77,77.19Z" transform="translate(-81.78 -1508.71)"/></g></g></svg>